<svg width="58" height="58" viewBox="0 0 58 58" fill="none" xmlns="http://www.w3.org/2000/svg">
<rect width="58" height="58" rx="29" fill="#273244"/>
<path d="M35.7908 24.8863C35.802 25.0568 35.802 25.2274 35.802 25.398C35.802 30.6 32.1726 36.5939 25.5391 36.5939C23.4954 36.5939 21.597 35.9482 20 34.8274C20.2904 34.8639 20.5695 34.8761 20.8711 34.8761C22.5573 34.8761 24.1096 34.2548 25.3492 33.1949C23.7634 33.1584 22.4345 32.0254 21.9766 30.466C22.2 30.5025 22.4233 30.5269 22.6579 30.5269C22.9817 30.5269 23.3056 30.4781 23.6071 30.3929C21.9543 30.0274 20.7147 28.4436 20.7147 26.531V26.4822C21.1949 26.7746 21.7533 26.9574 22.3451 26.9817C21.3736 26.2751 20.737 25.069 20.737 23.7045C20.737 22.9736 20.9157 22.3035 21.2284 21.7188C23.004 24.1066 25.6731 25.6659 28.6659 25.8365C28.6101 25.5441 28.5766 25.2396 28.5766 24.935C28.5766 22.7665 30.1847 21 32.1837 21C33.2223 21 34.1603 21.4751 34.8192 22.2426C35.6344 22.0721 36.4162 21.7431 37.1086 21.2924C36.8405 22.2061 36.271 22.9736 35.5228 23.4609C36.2487 23.3757 36.9522 23.1563 37.5999 22.8518C37.1086 23.6315 36.4944 24.3258 35.7908 24.8863V24.8863Z" fill="white"/>
</svg>
