<svg width="109" height="102" viewBox="0 0 109 102" fill="none" xmlns="http://www.w3.org/2000/svg">
<rect x="11" width="87" height="87" rx="12" fill="#ECF7FF"/>
<g filter="url(#filter0_d)">
<path fill-rule="evenodd" clip-rule="evenodd" d="M58.9983 48.86C59.5361 48.7629 60.0815 48.7141 60.628 48.7143C61.7772 48.7143 62.8769 48.9274 63.8898 49.3163L67.9201 43.5714L68.074 43.6589C66.5799 41.9853 65.7552 39.8173 65.7585 37.5714C65.7585 32.522 69.842 28.4286 74.8792 28.4286C79.9165 28.4286 84 32.522 84 37.5714C84 42.6209 79.9165 46.7143 74.8792 46.7143C73.8326 46.7143 72.8271 46.5374 71.8908 46.2123L67.8121 52.2231C69.0699 53.8302 69.752 55.8145 69.7488 57.8571C69.7488 62.9066 65.6653 67 60.628 67C55.5908 67 51.5072 62.9066 51.5072 57.8571C51.5072 55.0666 52.7545 52.568 54.7206 50.8909L48.8024 39.0966C48.1919 39.2227 47.5702 39.2861 46.9469 39.2857C46.162 39.2863 45.3803 39.1855 44.6211 38.9857L40.4266 46.3943C42.1613 48.0586 43.2415 50.4029 43.2415 53C43.2415 58.0494 39.158 62.1429 34.1208 62.1429C29.0835 62.1429 25 58.0494 25 53C25 47.9506 29.0835 43.8571 34.1208 43.8571C34.8775 43.8571 35.6126 43.9494 36.3155 44.1234L40.5364 36.6463C38.863 34.9894 37.8261 32.6877 37.8261 30.1429C37.8261 25.0934 41.9096 21 46.9469 21C51.9841 21 56.0676 25.0934 56.0676 30.1429C56.0676 32.8751 54.872 35.3274 52.9768 37.0029L58.9983 48.86ZM74.8792 42.1429C77.398 42.1429 79.4396 40.0963 79.4396 37.5714C79.4396 35.0466 77.398 33 74.8792 33C72.3605 33 70.3188 35.0466 70.3188 37.5714C70.3188 40.0963 72.3605 42.1429 74.8792 42.1429ZM34.1208 57.5714C36.6395 57.5714 38.6812 55.5249 38.6812 53C38.6812 50.4751 36.6395 48.4286 34.1208 48.4286C31.602 48.4286 29.5604 50.4751 29.5604 53C29.5604 55.5249 31.602 57.5714 34.1208 57.5714ZM46.9469 34.7143C49.4656 34.7143 51.5072 32.6677 51.5072 30.1429C51.5072 27.618 49.4656 25.5714 46.9469 25.5714C44.4281 25.5714 42.3865 27.618 42.3865 30.1429C42.3865 32.6677 44.4281 34.7143 46.9469 34.7143ZM60.628 62.4286C63.1468 62.4286 65.1884 60.382 65.1884 57.8571C65.1884 55.3323 63.1468 53.2857 60.628 53.2857C58.1093 53.2857 56.0676 55.3323 56.0676 57.8571C56.0676 60.382 58.1093 62.4286 60.628 62.4286Z" fill="#3C5AE7"/>
</g>
<defs>
<filter id="filter0_d" x="0" y="6" width="109" height="96" filterUnits="userSpaceOnUse" color-interpolation-filters="sRGB">
<feFlood flood-opacity="0" result="BackgroundImageFix"/>
<feColorMatrix in="SourceAlpha" type="matrix" values="0 0 0 0 0 0 0 0 0 0 0 0 0 0 0 0 0 0 127 0" result="hardAlpha"/>
<feOffset dy="10"/>
<feGaussianBlur stdDeviation="12.5"/>
<feComposite in2="hardAlpha" operator="out"/>
<feColorMatrix type="matrix" values="0 0 0 0 0.235294 0 0 0 0 0.352941 0 0 0 0 0.905882 0 0 0 0.26 0"/>
<feBlend mode="normal" in2="BackgroundImageFix" result="effect1_dropShadow"/>
<feBlend mode="normal" in="SourceGraphic" in2="effect1_dropShadow" result="shape"/>
</filter>
</defs>
</svg>
