<svg width="101" height="104" viewBox="0 0 101 104" fill="none" xmlns="http://www.w3.org/2000/svg">
<rect x="7" width="87" height="87" rx="12" fill="#ECF7FF"/>
<g filter="url(#filter0_d)">
<path d="M68.7499 56.4999C68.7687 57.3322 68.621 58.1599 68.3156 58.9344C68.0101 59.7089 67.553 60.4145 66.9711 61.0099C66.3892 61.6052 65.6942 62.0783 64.9269 62.4014C64.1596 62.7245 63.3355 62.891 62.503 62.8912C61.6705 62.8914 60.8463 62.7253 60.0789 62.4026C59.3115 62.0799 58.6162 61.6072 58.034 61.0121C57.4518 60.417 56.9943 59.7116 56.6885 58.9373C56.3827 58.163 56.2346 57.3354 56.253 56.5031C56.2891 54.8701 56.9631 53.3161 58.1306 52.1738C59.2982 51.0315 60.8665 50.3916 62.4999 50.3912C64.1333 50.3908 65.702 51.0299 66.8701 52.1716C68.0382 53.3133 68.7129 54.867 68.7499 56.4999V56.4999Z" fill="#3C5AE7"/>
<path d="M61.5625 69C59.0625 69 56.5625 68.375 54.375 66.8125L35 56.5C33.4375 55.25 32.1875 54.625 30.9375 53.375C27.1875 49.625 25 44.3125 25 39C25 33.6875 27.1875 28.6875 30.9375 24.9375C34.6875 21.1875 39.6875 19 45 19C50.3125 19 55.3125 21.1875 59.375 24.9375C60.625 26.1875 61.25 27.125 62.5 28.6875L73.4375 48.6875C76.5625 54 75.625 60.5625 71.25 64.9375C68.4375 67.75 65.3125 69 61.5625 69V69ZM45 22.125C40.625 22.125 36.25 24 33.125 27.125C30 30.25 28.125 34.625 28.125 39C28.125 43.6875 30 47.75 33.125 50.875C34.0625 51.8125 35 52.4375 36.5625 53.375L56.25 64C58.125 65.25 60 65.5625 61.875 65.5625C64.6875 65.5625 67.1875 64.625 69.0625 62.4375C72.5 59 73.125 54 70.625 49.9375L59.6875 29.9375C58.75 28.6875 58.125 27.75 57.1875 26.8125C53.75 24 49.6875 22.125 45 22.125Z" fill="#3C5AE7"/>
<path d="M59.375 40.875V37.75L55 36.1875C54.6875 35.5625 54.6875 35.25 54.375 34.625L56.25 30.5625L54.0625 28.375L50 30.25C49.375 29.9375 49.0625 29.9375 48.4375 29.625L46.875 25.25H43.75L42.1875 29.625C41.5625 29.9375 41.25 29.9375 40.625 30.25L36.5625 28.375L34.375 30.5625L36.25 34.625C35.9375 35.25 35.9375 35.5625 35.625 36.1875L31.25 37.75V40.875L35.625 42.4375C35.9375 43.0625 35.9375 43.375 36.25 44L34.375 48.0625L36.5625 50.25L40.625 48.375C41.25 48.6875 41.5625 49 42.1875 49L43.75 53.375H46.875L48.4375 49C49.0625 48.6875 49.375 48.6875 50 48.375L54.0625 50.25L56.25 48.0625L54.375 44C54.6875 43.375 55 43.0625 55 42.4375L59.375 40.875ZM45.3125 44C42.8125 44 40.625 41.8125 40.625 39.3125C40.625 36.8125 42.8125 34.625 45.3125 34.625C47.8125 34.625 50 36.8125 50 39.3125C50 41.8125 47.8125 44 45.3125 44Z" fill="#3C5AE7"/>
</g>
<defs>
<filter id="filter0_d" x="0" y="4" width="100.278" height="100" filterUnits="userSpaceOnUse" color-interpolation-filters="sRGB">
<feFlood flood-opacity="0" result="BackgroundImageFix"/>
<feColorMatrix in="SourceAlpha" type="matrix" values="0 0 0 0 0 0 0 0 0 0 0 0 0 0 0 0 0 0 127 0" result="hardAlpha"/>
<feOffset dy="10"/>
<feGaussianBlur stdDeviation="12.5"/>
<feComposite in2="hardAlpha" operator="out"/>
<feColorMatrix type="matrix" values="0 0 0 0 0.235294 0 0 0 0 0.352941 0 0 0 0 0.905882 0 0 0 0.26 0"/>
<feBlend mode="normal" in2="BackgroundImageFix" result="effect1_dropShadow"/>
<feBlend mode="normal" in="SourceGraphic" in2="effect1_dropShadow" result="shape"/>
</filter>
</defs>
</svg>
