<svg width="104" height="103" viewBox="0 0 104 103" fill="none" xmlns="http://www.w3.org/2000/svg">
<rect x="8" width="87" height="87" rx="12" fill="#ECF7FF"/>
<g filter="url(#filter0_d)">
<path d="M52 39.2834C54.587 39.2834 56.6967 41.3796 56.6967 44C56.6967 46.4956 54.587 48.6168 52 48.6168C49.413 48.6168 47.3033 46.4956 47.3033 44C47.3033 41.3796 49.413 39.2834 52 39.2834ZM40.3712 63.9646C41.9535 64.9129 45.4195 63.4655 49.413 59.7221C48.107 58.2497 46.826 56.6525 45.6205 54.9805C43.5965 54.7881 41.5843 54.4882 39.5926 54.0821C38.3116 59.4226 38.7888 63.0911 40.3712 63.9646V63.9646ZM42.1544 49.64L41.426 48.3673C41.1498 49.091 40.8735 49.8147 40.6977 50.5134C41.3758 50.6632 42.1293 50.788 42.9079 50.9127L42.1544 49.64ZM58.5805 47.7434L60.6149 44L58.5805 40.2566C57.827 38.934 57.0233 37.7611 56.2949 36.5881C54.9386 36.5133 53.507 36.5133 52 36.5133C50.493 36.5133 49.0614 36.5133 47.7051 36.5881C46.9767 37.7611 46.173 38.934 45.4195 40.2566L43.3851 44L45.4195 47.7434C46.173 49.066 46.9767 50.2389 47.7051 51.4118C49.0614 51.4867 50.493 51.4867 52 51.4867C53.507 51.4867 54.9386 51.4867 56.2949 51.4118C57.0233 50.2389 57.827 49.066 58.5805 47.7434V47.7434ZM52 30.9731C51.5228 31.5221 51.0205 32.0961 50.5181 32.7699H53.4819C52.9795 32.0961 52.4772 31.5221 52 30.9731ZM52 57.0269C52.4772 56.4779 52.9795 55.9039 53.4819 55.2301H50.5181C51.0205 55.9039 51.5228 56.4779 52 57.0269ZM63.6037 24.0354C62.0465 23.0871 58.5805 24.5345 54.587 28.2779C55.893 29.7503 57.174 31.3474 58.3795 33.0195C60.4391 33.2191 62.4735 33.5186 64.4074 33.9179C65.6884 28.5774 65.2112 24.9089 63.6037 24.0354ZM61.8456 38.36L62.574 39.6327C62.8502 38.909 63.1265 38.1853 63.3023 37.4866C62.6242 37.3368 61.8707 37.212 61.0921 37.0873L61.8456 38.36V38.36ZM65.4874 20.7662C69.1795 22.8625 69.5814 28.3777 68.0242 34.8163C74.4037 36.688 79 39.7825 79 44C79 48.2175 74.4037 51.312 68.0242 53.1837C69.5814 59.6223 69.1795 65.1375 65.4874 67.2338C61.8205 69.3301 56.8223 66.9343 52 62.3674C47.1777 66.9343 42.1795 69.3301 38.4874 67.2338C34.8205 65.1375 34.4186 59.6223 35.9758 53.1837C29.5963 51.312 25 48.2175 25 44C25 39.7825 29.5963 36.688 35.9758 34.8163C34.4186 28.3777 34.8205 22.8625 38.4874 20.7662C42.1795 18.6699 47.1777 21.0657 52 25.6326C56.8223 21.0657 61.8205 18.6699 65.4874 20.7662ZM64.7591 44C65.613 45.8717 66.3665 47.7434 66.9944 49.64C72.2688 48.0678 75.2326 45.8218 75.2326 44C75.2326 42.1782 72.2688 39.9322 66.9944 38.36C66.3665 40.2566 65.613 42.1283 64.7591 44ZM39.2409 44C38.387 42.1283 37.6335 40.2566 37.0056 38.36C31.7312 39.9322 28.7674 42.1782 28.7674 44C28.7674 45.8218 31.7312 48.0678 37.0056 49.64C37.6335 47.7434 38.387 45.8717 39.2409 44ZM61.8456 49.64L61.0921 50.9127C61.8707 50.788 62.6242 50.6632 63.3023 50.5134C63.1265 49.8147 62.8502 49.091 62.574 48.3673L61.8456 49.64V49.64ZM54.587 59.7221C58.5805 63.4655 62.0465 64.9129 63.6037 63.9646C65.2112 63.0911 65.6884 59.4226 64.4074 54.0821C62.4735 54.4814 60.4391 54.7809 58.3795 54.9805C57.174 56.6525 55.893 58.2497 54.587 59.7221V59.7221ZM42.1544 38.36L42.9079 37.0873C42.1293 37.212 41.3758 37.3368 40.6977 37.4866C40.8735 38.1853 41.1498 38.909 41.426 39.6327L42.1544 38.36ZM49.413 28.2779C45.4195 24.5345 41.9535 23.0871 40.3712 24.0354C38.7888 24.9089 38.3116 28.5774 39.5926 33.9179C41.5843 33.5118 43.5965 33.2119 45.6205 33.0195C46.826 31.3474 48.107 29.7503 49.413 28.2779V28.2779Z" fill="#3C5AE7"/>
</g>
<defs>
<filter id="filter0_d" x="0" y="5" width="104" height="98" filterUnits="userSpaceOnUse" color-interpolation-filters="sRGB">
<feFlood flood-opacity="0" result="BackgroundImageFix"/>
<feColorMatrix in="SourceAlpha" type="matrix" values="0 0 0 0 0 0 0 0 0 0 0 0 0 0 0 0 0 0 127 0" result="hardAlpha"/>
<feOffset dy="10"/>
<feGaussianBlur stdDeviation="12.5"/>
<feComposite in2="hardAlpha" operator="out"/>
<feColorMatrix type="matrix" values="0 0 0 0 0.235294 0 0 0 0 0.352941 0 0 0 0 0.905882 0 0 0 0.26 0"/>
<feBlend mode="normal" in2="BackgroundImageFix" result="effect1_dropShadow"/>
<feBlend mode="normal" in="SourceGraphic" in2="effect1_dropShadow" result="shape"/>
</filter>
</defs>
</svg>
