<svg width="105" height="97" viewBox="0 0 105 97" fill="none" xmlns="http://www.w3.org/2000/svg">
<rect x="9" width="87" height="87" rx="12" fill="#ECF7FF"/>
<g filter="url(#filter0_d)">
<path d="M52.5 25C47.9633 25.0139 43.5813 26.615 40.1456 29.514C37.5125 31.734 35.6047 34.6267 35.1131 37.5295C29.3519 38.7741 25 43.685 25 49.6151C25 56.5038 30.8712 62 37.9972 62H68.6116C74.8506 62 80 57.19 80 51.1455C80 45.6426 75.7306 41.1589 70.2581 40.4021C69.4228 31.7239 61.7469 25 52.5 25ZM60.5919 42.3093C60.7517 42.4656 60.8784 42.6513 60.9649 42.8556C61.0514 43.0599 61.0959 43.2789 61.0959 43.5C61.0959 43.7211 61.0514 43.9401 60.9649 44.1444C60.8784 44.3487 60.7517 44.5344 60.5919 44.6907C60.4321 44.8471 60.2424 44.9711 60.0336 45.0558C59.8248 45.1404 59.601 45.1839 59.375 45.1839C59.149 45.1839 58.9252 45.1404 58.7164 45.0558C58.5076 44.9711 58.3179 44.8471 58.1581 44.6907L54.2188 40.8326V53.5909C54.2188 54.037 54.0377 54.4647 53.7153 54.7801C53.393 55.0955 52.9558 55.2727 52.5 55.2727C52.0442 55.2727 51.607 55.0955 51.2847 54.7801C50.9623 54.4647 50.7812 54.037 50.7812 53.5909V40.8326L46.8419 44.6907C46.5191 45.0065 46.0814 45.1839 45.625 45.1839C45.1686 45.1839 44.7309 45.0065 44.4081 44.6907C44.0854 44.3749 43.9041 43.9466 43.9041 43.5C43.9041 43.0534 44.0854 42.6251 44.4081 42.3093L51.2831 35.582C51.4428 35.4254 51.6324 35.3011 51.8413 35.2163C52.0501 35.1315 52.2739 35.0879 52.5 35.0879C52.7261 35.0879 52.9499 35.1315 53.1587 35.2163C53.3676 35.3011 53.5572 35.4254 53.7169 35.582L60.5919 42.3093Z" fill="#3C5AE7"/>
</g>
<defs>
<filter id="filter0_d" x="0" y="10" width="105" height="87" filterUnits="userSpaceOnUse" color-interpolation-filters="sRGB">
<feFlood flood-opacity="0" result="BackgroundImageFix"/>
<feColorMatrix in="SourceAlpha" type="matrix" values="0 0 0 0 0 0 0 0 0 0 0 0 0 0 0 0 0 0 127 0" result="hardAlpha"/>
<feOffset dy="10"/>
<feGaussianBlur stdDeviation="12.5"/>
<feComposite in2="hardAlpha" operator="out"/>
<feColorMatrix type="matrix" values="0 0 0 0 0.235294 0 0 0 0 0.352941 0 0 0 0 0.905882 0 0 0 0.26 0"/>
<feBlend mode="normal" in2="BackgroundImageFix" result="effect1_dropShadow"/>
<feBlend mode="normal" in="SourceGraphic" in2="effect1_dropShadow" result="shape"/>
</filter>
</defs>
</svg>
