<svg width="1430" height="648" viewBox="0 0 1430 648" fill="none" xmlns="http://www.w3.org/2000/svg">
<circle cx="702.5" cy="386.5" r="130.5" stroke="url(#paint0_linear)" stroke-width="2"/>
<circle cx="702.5" cy="386.5" r="223.5" stroke="url(#paint1_linear)" stroke-width="2"/>
<circle cx="695" cy="324" r="323" stroke="url(#paint2_linear)" stroke-width="2"/>
<g filter="url(#filter0_d)">
<ellipse cx="389.5" cy="324" rx="41.5" ry="41" fill="white"/>
</g>
<g filter="url(#filter1_d)">
<rect x="614" y="296" width="178" height="181" rx="57" fill="url(#paint3_linear)"/>
</g>
<g filter="url(#filter2_d)">
<circle cx="227.5" cy="212.5" r="39.5" fill="white"/>
</g>
<g filter="url(#filter3_d)">
<ellipse cx="1126" cy="261" rx="52" ry="53" fill="white"/>
</g>
<g filter="url(#filter4_d)">
<ellipse cx="974.918" cy="469.5" rx="43.9183" ry="43.5" fill="white"/>
</g>
<g filter="url(#filter5_d)">
<ellipse cx="1315.5" cy="470" rx="59.5" ry="59" fill="white"/>
</g>
<circle cx="491.5" cy="463.5" r="10.5" fill="#FFAA45"/>
<circle cx="903.5" cy="288.5" r="4.5" fill="#EA4335"/>
<circle cx="96.5" cy="272.5" r="6.5" fill="#0066D9"/>
<circle cx="1074.5" cy="464.5" r="6.5" fill="#0066D9"/>
<path fill-rule="evenodd" clip-rule="evenodd" d="M700.411 327.806C702.323 326.734 704.677 326.734 706.586 327.806C716.033 333.108 744.461 349.068 753.911 354.37C755.823 355.44 757 357.423 757 359.568C757 370.173 757 402.089 757 412.694C757 414.839 755.823 416.822 753.911 417.894C744.464 423.197 716.036 439.156 706.586 444.459C704.674 445.531 702.32 445.531 700.411 444.459C690.964 439.156 662.536 423.197 653.086 417.894C651.177 416.822 650 414.842 650 412.697C650 402.092 650 370.175 650 359.571C650 357.426 651.177 355.443 653.089 354.37C662.533 349.068 690.967 333.108 700.411 327.806V327.806Z" fill="white"/>
<path fill-rule="evenodd" clip-rule="evenodd" d="M650.856 415.428C650.107 414.425 650 413.473 650 412.192C650 401.65 650 369.916 650 359.371C650 357.237 651.174 355.266 653.08 354.201C662.494 348.93 690.826 333.063 700.239 327.789C702.145 326.722 704.728 326.745 706.634 327.812C716.047 333.083 744.284 348.815 753.697 354.086C754.457 354.514 755.037 355.029 755.555 355.708L650.856 415.428Z" fill="white"/>
<path fill-rule="evenodd" clip-rule="evenodd" d="M703.5 346.711C725.257 346.711 742.921 364.375 742.921 386.132C742.921 407.89 725.257 425.553 703.5 425.553C681.742 425.553 664.079 407.89 664.079 386.132C664.079 364.375 681.742 346.711 703.5 346.711V346.711ZM703.5 366.422C714.377 366.422 723.21 375.252 723.21 386.132C723.21 397.01 714.377 405.843 703.5 405.843C692.622 405.843 683.789 397.01 683.789 386.132C683.789 375.252 692.62 366.422 703.5 366.422V366.422Z" fill="#3C64E9"/>
<path fill-rule="evenodd" clip-rule="evenodd" d="M755.55 355.736C757.002 357.096 756.974 359.146 756.974 360.759C756.974 371.445 756.884 401.838 757 412.524C757.011 413.639 756.642 414.814 756.09 415.698L702.354 386.132L755.55 355.736Z" fill="white"/>
<g filter="url(#filter6_d)">
<ellipse cx="114.5" cy="477" rx="59.5" ry="59" fill="white"/>
</g>
<g filter="url(#filter7_d)">
<ellipse cx="642.5" cy="140" rx="59.5" ry="59" fill="white"/>
</g>
<path d="M141.944 464.074C141.944 463.04 141.722 462.127 141.273 461.343C140.831 460.572 140.171 459.926 139.285 459.415C131.97 455.216 124.648 451.03 117.335 446.827C115.364 445.694 113.452 445.736 111.495 446.885C108.584 448.594 94.0065 456.908 89.6626 459.413C87.8737 460.443 87.0032 462.021 87.0028 464.072C87 472.516 87.0028 480.959 87 489.403C87.0004 490.414 87.2131 491.31 87.6424 492.082C88.0838 492.876 88.7537 493.54 89.6603 494.062C94.0043 496.567 108.583 504.88 111.494 506.59C113.452 507.74 115.364 507.781 117.336 506.647C124.648 502.444 131.971 498.259 139.287 494.06C140.194 493.538 140.863 492.873 141.305 492.08C141.734 491.308 141.947 490.412 141.947 489.401C141.947 489.401 141.947 472.518 141.944 464.074" fill="#5C8DBC"/>
<path d="M114.558 476.655L87.6423 492.082C88.0837 492.876 88.7536 493.54 89.6602 494.062C94.0043 496.567 108.583 504.88 111.494 506.59C113.452 507.74 115.364 507.781 117.336 506.647C124.648 502.444 131.971 498.259 139.287 494.06C140.194 493.538 140.863 492.873 141.305 492.08L114.558 476.655" fill="#1A4674"/>
<path d="M106.586 481.225C108.152 483.947 111.096 485.782 114.474 485.782C117.872 485.782 120.833 483.923 122.391 481.172L114.558 476.655L106.586 481.225" fill="#1A4674"/>
<path d="M141.944 464.074C141.944 463.04 141.722 462.127 141.273 461.343L114.558 476.655L141.305 492.08C141.734 491.308 141.947 490.412 141.947 489.401C141.947 489.401 141.947 472.518 141.944 464.074" fill="#1B598E"/>
<path d="M140.473 477.758H138.383V479.839H136.293V477.758H134.203V475.677H136.293V473.597H138.383V475.677H140.473V477.758ZM132.847 477.758H130.757V479.839H128.667V477.758H126.577V475.677H128.667V473.597H130.757V475.677H132.847V477.758Z" fill="white"/>
<path d="M122.391 481.172C120.833 483.923 117.872 485.782 114.473 485.782C111.096 485.782 108.152 483.947 106.586 481.225C105.799 479.859 105.386 478.312 105.387 476.738C105.387 471.742 109.455 467.693 114.473 467.693C117.829 467.693 120.758 469.506 122.332 472.2L130.274 467.647C127.117 462.223 121.224 458.574 114.473 458.574C104.396 458.574 96.2263 466.706 96.2263 476.738C96.2263 480.029 97.1058 483.115 98.643 485.777C101.792 491.23 107.702 494.902 114.473 494.902C121.257 494.902 127.177 491.215 130.321 485.746L122.391 481.172Z" fill="white"/>
<path d="M388.977 303C378.249 303 378.919 307.648 378.919 307.648L378.931 312.463H389.168V313.909H374.865C374.865 313.909 368 313.131 368 323.946C368 334.76 373.992 334.377 373.992 334.377H377.568V329.358C377.568 329.358 377.375 323.372 383.464 323.372H393.618C393.618 323.372 399.322 323.464 399.322 317.864V308.604C399.322 308.604 400.189 303 388.977 303ZM383.332 306.238C383.574 306.238 383.814 306.286 384.037 306.378C384.261 306.47 384.464 306.606 384.635 306.777C384.806 306.948 384.942 307.151 385.034 307.374C385.127 307.597 385.174 307.837 385.174 308.078C385.174 308.32 385.127 308.559 385.034 308.783C384.942 309.006 384.806 309.209 384.635 309.38C384.464 309.551 384.261 309.686 384.037 309.779C383.814 309.871 383.574 309.918 383.332 309.918C383.09 309.918 382.851 309.871 382.627 309.779C382.404 309.686 382.201 309.551 382.029 309.38C381.858 309.209 381.723 309.006 381.63 308.783C381.538 308.559 381.49 308.32 381.491 308.078C381.49 307.837 381.538 307.597 381.63 307.374C381.723 307.151 381.858 306.948 382.029 306.777C382.201 306.606 382.404 306.47 382.627 306.378C382.851 306.286 383.09 306.238 383.332 306.238V306.238Z" fill="url(#paint4_linear)"/>
<path d="M389.282 345C400.01 345 399.34 340.352 399.34 340.352L399.328 335.537H389.09V334.091H403.394C403.394 334.091 410.259 334.869 410.259 324.054C410.259 313.24 404.267 313.623 404.267 313.623H400.691V318.642C400.691 318.642 400.884 324.628 394.795 324.628H384.641C384.641 324.628 378.937 324.536 378.937 330.136V339.396C378.937 339.396 378.07 345 389.282 345H389.282ZM394.927 341.762C394.685 341.762 394.445 341.715 394.222 341.622C393.998 341.53 393.795 341.395 393.624 341.224C393.453 341.053 393.317 340.85 393.225 340.626C393.132 340.403 393.085 340.164 393.085 339.922C393.085 339.68 393.132 339.441 393.225 339.218C393.317 338.994 393.453 338.791 393.624 338.62C393.795 338.45 393.998 338.314 394.222 338.222C394.445 338.129 394.685 338.082 394.927 338.082C395.169 338.082 395.408 338.129 395.632 338.222C395.855 338.314 396.059 338.449 396.23 338.62C396.401 338.791 396.536 338.994 396.629 339.218C396.721 339.441 396.769 339.68 396.769 339.922C396.769 340.164 396.721 340.403 396.629 340.626C396.536 340.85 396.401 341.053 396.23 341.223C396.059 341.394 395.855 341.53 395.632 341.622C395.408 341.715 395.169 341.762 394.927 341.762V341.762Z" fill="url(#paint5_linear)"/>
<path d="M220.665 223.894C220.665 223.894 218.788 224.983 222.001 225.352C225.892 225.795 227.881 225.731 232.17 224.921C232.17 224.921 233.297 225.627 234.872 226.238C225.258 230.349 213.114 226 220.665 223.894ZM219.49 218.53C219.49 218.53 217.385 220.084 220.6 220.416C224.757 220.844 228.04 220.879 233.721 219.788C233.721 219.788 234.507 220.582 235.743 221.017C224.119 224.408 211.172 221.284 219.49 218.53" fill="#5382A1"/>
<path d="M229.394 209.429C231.763 212.151 228.772 214.6 228.772 214.6C228.772 214.6 234.786 211.501 232.024 207.622C229.444 204.004 227.466 202.206 238.176 196.008C238.177 196.008 221.364 200.198 229.394 209.429" fill="#E76F00"/>
<path d="M242.109 227.862C242.109 227.862 243.498 229.004 240.58 229.887C235.03 231.565 217.483 232.071 212.608 229.954C210.856 229.194 214.142 228.138 215.176 227.917C216.254 227.683 216.87 227.727 216.87 227.727C214.921 226.357 204.274 230.416 211.462 231.579C231.063 234.751 247.194 230.151 242.109 227.862V227.862ZM221.568 212.971C221.568 212.971 212.642 215.086 218.407 215.855C220.841 216.18 225.693 216.106 230.213 215.728C233.907 215.417 237.616 214.757 237.616 214.757C237.616 214.757 236.314 215.313 235.371 215.955C226.307 218.334 208.797 217.227 213.838 214.794C218.101 212.738 221.568 212.971 221.568 212.971V212.971ZM237.579 221.901C246.793 217.124 242.533 212.533 239.56 213.152C238.831 213.303 238.506 213.434 238.506 213.434C238.506 213.434 238.776 213.011 239.293 212.828C245.176 210.765 249.7 218.914 237.394 222.142C237.394 222.142 237.537 222.015 237.579 221.901Z" fill="#5382A1"/>
<path d="M232.024 186C232.024 186 237.127 191.093 227.184 198.925C219.211 205.207 225.366 208.789 227.181 212.882C222.527 208.692 219.112 205.004 221.403 201.572C224.766 196.533 234.083 194.09 232.024 186" fill="#E76F00"/>
<path d="M222.473 234.846C231.317 235.411 244.899 234.533 245.22 230.357C245.22 230.357 244.602 231.94 237.911 233.197C230.362 234.615 221.052 234.449 215.53 233.541C215.53 233.541 216.66 234.474 222.473 234.846" fill="#5382A1"/>
<path d="M958.266 489.019L955 449L994 449.08L990.547 489.019L974.647 493.635L958.266 489.019Z" fill="#E34F26"/>
<path d="M974.647 489.77V452.811L990.708 452.865L987.844 485.932L974.647 489.77Z" fill="#EF652A"/>
<path d="M986.291 462.044L986.746 457.159H962.04L963.405 472.136H980.456L979.787 478.524L974.326 480L968.786 478.39L968.491 474.579H963.592L964.262 482.362L974.326 485.18L984.471 482.362L985.836 467.171H967.929L967.42 462.044H986.291Z" fill="white"/>
<path d="M1105.27 284.031L1101 232L1152 232.105L1147.48 284.031L1126.69 290.033L1105.27 284.031Z" fill="#1B73BA"/>
<path d="M1126.69 285.008V236.955L1147.69 237.025L1143.95 280.018L1126.69 285.008Z" fill="#1C88C7"/>
<path d="M1142.48 243.097H1110.17L1111.05 249.378H1126.38L1111.29 255.834L1112.17 261.906H1134.39L1133.59 270.386L1126.06 271.852L1119.24 270.107L1118.71 265.291H1112.45L1113.29 275.307L1126.73 279.041L1139.61 274.958L1141.25 255.381H1127.64L1142.48 249.239L1142.48 243.097Z" fill="white"/>
<path d="M1347.06 470.006C1347.06 465.841 1341.82 461.893 1333.8 459.445C1335.65 451.293 1334.83 444.807 1331.21 442.731C1330.37 442.244 1329.4 442.013 1328.33 442.013V444.871C1328.92 444.871 1329.4 444.986 1329.79 445.204C1331.54 446.204 1332.3 450.011 1331.71 454.907C1331.57 456.112 1331.34 457.381 1331.05 458.676C1328.53 458.06 1325.78 457.586 1322.89 457.279C1321.16 454.907 1319.36 452.754 1317.55 450.87C1321.74 446.986 1325.67 444.858 1328.34 444.858V442C1324.81 442 1320.18 444.512 1315.5 448.87C1310.82 444.538 1306.2 442.051 1302.66 442.051V444.91C1305.32 444.91 1309.27 447.024 1313.46 450.883C1311.66 452.767 1309.86 454.907 1308.15 457.279C1305.25 457.586 1302.49 458.06 1299.98 458.688C1299.68 457.407 1299.46 456.163 1299.31 454.971C1298.7 450.075 1299.45 446.268 1301.18 445.256C1301.57 445.025 1302.07 444.922 1302.66 444.922V442.064C1301.58 442.064 1300.61 442.295 1299.76 442.782C1296.15 444.858 1295.34 451.331 1297.2 459.458C1289.21 461.919 1284 465.854 1284 470.006C1284 474.172 1289.23 478.12 1297.25 480.568C1295.4 488.72 1296.22 495.206 1299.85 497.282C1300.68 497.769 1301.66 498 1302.74 498C1306.27 498 1310.9 495.488 1315.58 491.13C1320.26 495.462 1324.88 497.949 1328.42 497.949C1329.5 497.949 1330.48 497.718 1331.32 497.231C1334.93 495.154 1335.74 488.682 1333.88 480.555C1341.85 478.107 1347.06 474.159 1347.06 470.006V470.006ZM1330.32 461.457C1329.85 463.111 1329.25 464.815 1328.59 466.52C1328.06 465.495 1327.51 464.469 1326.9 463.444C1326.31 462.418 1325.68 461.419 1325.05 460.444C1326.88 460.714 1328.64 461.047 1330.32 461.457ZM1324.43 475.108C1323.43 476.838 1322.4 478.479 1321.34 480.004C1319.42 480.171 1317.48 480.26 1315.53 480.26C1313.59 480.26 1311.65 480.171 1309.74 480.017C1308.68 478.492 1307.64 476.864 1306.63 475.146C1305.66 473.467 1304.77 471.762 1303.96 470.045C1304.76 468.327 1305.66 466.61 1306.62 464.931C1307.62 463.2 1308.65 461.56 1309.72 460.034C1311.63 459.868 1313.57 459.778 1315.53 459.778C1317.47 459.778 1319.41 459.868 1321.31 460.022C1322.38 461.547 1323.42 463.175 1324.42 464.892C1325.4 466.571 1326.29 468.276 1327.09 469.994C1326.29 471.711 1325.4 473.429 1324.43 475.108ZM1328.59 473.442C1329.28 475.159 1329.87 476.877 1330.36 478.543C1328.68 478.953 1326.9 479.299 1325.06 479.568C1325.69 478.581 1326.32 477.569 1326.91 476.531C1327.51 475.505 1328.06 474.467 1328.59 473.442ZM1315.55 487.118C1314.36 485.887 1313.16 484.516 1311.98 483.016C1313.14 483.068 1314.32 483.106 1315.51 483.106C1316.72 483.106 1317.92 483.08 1319.09 483.016C1317.93 484.516 1316.74 485.887 1315.55 487.118ZM1305.99 479.568C1304.17 479.299 1302.4 478.966 1300.72 478.556C1301.2 476.902 1301.79 475.198 1302.46 473.493C1302.98 474.518 1303.54 475.544 1304.14 476.569C1304.74 477.594 1305.36 478.594 1305.99 479.568ZM1315.49 452.895C1316.68 454.125 1317.88 455.497 1319.06 456.997C1317.91 456.945 1316.72 456.907 1315.53 456.907C1314.32 456.907 1313.12 456.932 1311.95 456.997C1313.11 455.497 1314.31 454.125 1315.49 452.895ZM1305.98 460.444C1305.35 461.431 1304.72 462.444 1304.13 463.482C1303.54 464.508 1302.98 465.533 1302.46 466.558C1301.76 464.841 1301.17 463.123 1300.68 461.457C1302.37 461.06 1304.14 460.714 1305.98 460.444V460.444ZM1294.35 476.492C1289.8 474.557 1286.85 472.019 1286.85 470.006C1286.85 467.994 1289.8 465.443 1294.35 463.521C1295.45 463.046 1296.66 462.623 1297.91 462.226C1298.64 464.738 1299.6 467.353 1300.8 470.032C1299.62 472.698 1298.66 475.3 1297.95 477.799C1296.67 477.402 1295.46 476.966 1294.35 476.492ZM1301.26 494.808C1299.51 493.809 1298.75 490.002 1299.35 485.106C1299.49 483.901 1299.72 482.632 1300 481.337C1302.52 481.952 1305.27 482.427 1308.16 482.734C1309.9 485.106 1311.7 487.259 1313.51 489.143C1309.32 493.027 1305.39 495.154 1302.71 495.154C1302.14 495.142 1301.65 495.026 1301.26 494.808V494.808ZM1331.75 485.041C1332.35 489.938 1331.61 493.745 1329.87 494.757C1329.49 494.988 1328.98 495.09 1328.39 495.09C1325.73 495.09 1321.79 492.976 1317.6 489.117C1319.4 487.233 1321.2 485.093 1322.9 482.721C1325.81 482.414 1328.56 481.94 1331.08 481.312C1331.37 482.606 1331.61 483.849 1331.75 485.041V485.041ZM1336.7 476.492C1335.59 476.966 1334.38 477.389 1333.14 477.787C1332.4 475.274 1331.44 472.66 1330.24 469.981C1331.43 467.315 1332.38 464.713 1333.1 462.213C1334.37 462.611 1335.58 463.046 1336.71 463.521C1341.26 465.456 1344.2 467.994 1344.2 470.006C1344.19 472.019 1341.25 474.569 1336.7 476.492V476.492Z" fill="#61DAFB"/>
<path d="M1315.51 475.864C1318.76 475.864 1321.39 473.242 1321.39 470.007C1321.39 466.771 1318.76 464.149 1315.51 464.149C1312.27 464.149 1309.64 466.771 1309.64 470.007C1309.64 473.242 1312.27 475.864 1315.51 475.864Z" fill="#61DAFB"/>
<path d="M669.4 134.163C669.4 130.569 664.899 127.163 657.999 125.051C659.591 118.017 658.883 112.422 655.765 110.63C655.046 110.21 654.206 110.011 653.288 110.011V112.477C653.796 112.477 654.206 112.577 654.548 112.765C656.052 113.627 656.705 116.912 656.196 121.136C656.075 122.176 655.875 123.27 655.632 124.387C653.464 123.856 651.098 123.447 648.61 123.182C647.117 121.136 645.569 119.278 644.009 117.653C647.614 114.302 650.999 112.466 653.299 112.466V110C650.257 110 646.276 112.167 642.251 115.927C638.226 112.19 634.245 110.044 631.204 110.044V112.51C633.493 112.51 636.888 114.335 640.493 117.664C638.945 119.289 637.396 121.136 635.925 123.182C633.426 123.447 631.06 123.856 628.892 124.398C628.638 123.292 628.45 122.22 628.317 121.191C627.797 116.967 628.439 113.683 629.932 112.809C630.263 112.61 630.695 112.521 631.204 112.521V110.055C630.275 110.055 629.434 110.254 628.704 110.675C625.597 112.466 624.9 118.051 626.503 125.062C619.625 127.185 615.146 130.58 615.146 134.163C615.146 137.757 619.647 141.163 626.548 143.275C624.955 150.309 625.663 155.904 628.782 157.696C629.501 158.116 630.341 158.315 631.27 158.315C634.311 158.315 638.292 156.148 642.317 152.388C646.343 156.125 650.324 158.271 653.365 158.271C654.294 158.271 655.134 158.072 655.864 157.651C658.972 155.86 659.669 150.275 658.065 143.264C664.921 141.152 669.4 137.746 669.4 134.163V134.163ZM655.002 126.787C654.593 128.214 654.084 129.684 653.509 131.155C653.055 130.271 652.58 129.386 652.06 128.501C651.551 127.616 651.009 126.754 650.468 125.913C652.038 126.146 653.553 126.433 655.002 126.787V126.787ZM649.937 138.564C649.074 140.057 648.19 141.473 647.272 142.789C645.624 142.933 643.954 143.01 642.273 143.01C640.603 143.01 638.933 142.933 637.297 142.8C636.379 141.484 635.483 140.079 634.621 138.597C633.78 137.149 633.017 135.678 632.32 134.196C633.006 132.714 633.78 131.232 634.61 129.784C635.472 128.291 636.357 126.875 637.275 125.559C638.923 125.416 640.592 125.338 642.273 125.338C643.943 125.338 645.613 125.416 647.25 125.548C648.167 126.864 649.063 128.269 649.926 129.751C650.766 131.199 651.529 132.67 652.226 134.152C651.529 135.634 650.766 137.116 649.937 138.564V138.564ZM653.509 137.127C654.089 138.568 654.599 140.037 655.035 141.528C653.586 141.882 652.06 142.181 650.479 142.413C651.021 141.561 651.562 140.688 652.071 139.792C652.58 138.907 653.055 138.011 653.509 137.127ZM642.295 148.926C641.267 147.865 640.238 146.681 639.221 145.388C640.216 145.432 641.234 145.465 642.262 145.465C643.302 145.465 644.33 145.443 645.337 145.388C644.387 146.621 643.372 147.802 642.295 148.926V148.926ZM634.068 142.413C632.497 142.181 630.982 141.893 629.534 141.539C629.943 140.113 630.452 138.642 631.027 137.171C631.48 138.056 631.956 138.94 632.475 139.825C632.995 140.71 633.526 141.572 634.068 142.413ZM642.24 119.4C643.269 120.461 644.297 121.645 645.314 122.939C644.319 122.894 643.302 122.861 642.273 122.861C641.234 122.861 640.205 122.883 639.199 122.939C640.148 121.705 641.163 120.524 642.24 119.4V119.4ZM634.056 125.913C633.515 126.765 632.973 127.638 632.464 128.534C631.956 129.419 631.48 130.304 631.027 131.188C630.446 129.747 629.937 128.278 629.501 126.787C630.949 126.444 632.475 126.146 634.056 125.913V125.913ZM624.048 139.759C620.134 138.089 617.601 135.899 617.601 134.163C617.601 132.427 620.134 130.226 624.048 128.567C624.999 128.158 626.039 127.793 627.112 127.45C627.742 129.618 628.571 131.874 629.6 134.185C628.583 136.485 627.764 138.73 627.145 140.887C626.05 140.544 625.011 140.168 624.048 139.759ZM629.998 155.561C628.494 154.699 627.842 151.415 628.35 147.19C628.472 146.151 628.671 145.056 628.914 143.939C631.082 144.47 633.448 144.879 635.937 145.144C637.429 147.19 638.978 149.048 640.537 150.673C636.932 154.024 633.548 155.86 631.248 155.86C630.75 155.849 630.33 155.749 629.998 155.561V155.561ZM656.229 147.135C656.749 151.359 656.108 154.644 654.615 155.517C654.283 155.716 653.852 155.805 653.343 155.805C651.054 155.805 647.659 153.98 644.054 150.651C645.602 149.026 647.15 147.179 648.621 145.133C651.12 144.868 653.487 144.459 655.654 143.917C655.909 145.034 656.108 146.106 656.229 147.135ZM660.487 139.759C659.536 140.168 658.496 140.533 657.423 140.876C656.793 138.708 655.964 136.452 654.935 134.141C655.953 131.841 656.771 129.596 657.39 127.439C658.485 127.782 659.525 128.158 660.498 128.567C664.413 130.237 666.945 132.427 666.945 134.163C666.934 135.899 664.402 138.1 660.487 139.759V139.759Z" fill="#61DAFB"/>
<path d="M642.262 139.217C645.053 139.217 647.316 136.954 647.316 134.163C647.316 131.372 645.053 129.109 642.262 129.109C639.471 129.109 637.208 131.372 637.208 134.163C637.208 136.954 639.471 139.217 642.262 139.217V139.217ZM617.61 167.017H615.941V169.89H615V162.787H617.351C618.151 162.787 618.766 162.97 619.195 163.334C619.628 163.698 619.844 164.228 619.844 164.924C619.844 165.366 619.724 165.751 619.483 166.08C619.246 166.408 618.914 166.654 618.488 166.816L620.156 169.831V169.89H619.151L617.61 167.017ZM615.941 166.251H617.38C617.846 166.251 618.215 166.13 618.488 165.89C618.764 165.649 618.902 165.327 618.902 164.924C618.902 164.485 618.771 164.148 618.507 163.914C618.247 163.68 617.87 163.561 617.376 163.558H615.941V166.251ZM623.21 169.987C622.494 169.987 621.912 169.753 621.463 169.285C621.015 168.813 620.79 168.184 620.79 167.397V167.231C620.79 166.708 620.889 166.241 621.088 165.831C621.289 165.418 621.569 165.096 621.927 164.865C622.288 164.631 622.678 164.514 623.098 164.514C623.784 164.514 624.317 164.74 624.698 165.192C625.078 165.644 625.268 166.291 625.268 167.133V167.509H621.693C621.706 168.03 621.857 168.451 622.146 168.773C622.439 169.091 622.81 169.251 623.259 169.251C623.577 169.251 623.847 169.186 624.068 169.056C624.289 168.926 624.483 168.753 624.649 168.539L625.2 168.968C624.758 169.647 624.094 169.987 623.21 169.987V169.987ZM623.098 165.256C622.733 165.256 622.428 165.389 622.18 165.655C621.933 165.919 621.78 166.29 621.722 166.768H624.366V166.7C624.34 166.241 624.216 165.886 623.995 165.636C623.774 165.382 623.475 165.256 623.098 165.256V165.256ZM629.576 169.89C629.523 169.786 629.481 169.6 629.449 169.334C629.029 169.769 628.528 169.987 627.946 169.987C627.426 169.987 626.998 169.841 626.663 169.548C626.332 169.252 626.166 168.878 626.166 168.426C626.166 167.877 626.374 167.451 626.79 167.148C627.21 166.842 627.798 166.69 628.556 166.69H629.434V166.275C629.434 165.96 629.34 165.709 629.151 165.524C628.963 165.335 628.684 165.241 628.317 165.241C627.995 165.241 627.725 165.322 627.507 165.485C627.29 165.647 627.18 165.844 627.18 166.075H626.273C626.273 165.812 626.366 165.558 626.551 165.314C626.74 165.067 626.994 164.872 627.312 164.729C627.634 164.586 627.987 164.514 628.371 164.514C628.979 164.514 629.455 164.667 629.8 164.973C630.145 165.275 630.323 165.693 630.337 166.226V168.656C630.337 169.14 630.398 169.525 630.522 169.812V169.89H629.576ZM628.078 169.202C628.361 169.202 628.629 169.129 628.883 168.982C629.136 168.836 629.32 168.646 629.434 168.412V167.329H628.727C627.621 167.329 627.068 167.652 627.068 168.299C627.068 168.582 627.163 168.804 627.351 168.963C627.54 169.122 627.782 169.202 628.078 169.202V169.202ZM633.868 169.251C634.19 169.251 634.472 169.153 634.712 168.958C634.953 168.763 635.086 168.519 635.112 168.226H635.966C635.95 168.529 635.846 168.816 635.654 169.09C635.462 169.363 635.205 169.581 634.883 169.743C634.564 169.906 634.226 169.987 633.868 169.987C633.15 169.987 632.577 169.748 632.151 169.27C631.729 168.789 631.517 168.132 631.517 167.299V167.148C631.517 166.634 631.611 166.178 631.8 165.778C631.989 165.378 632.258 165.067 632.61 164.846C632.964 164.625 633.382 164.514 633.863 164.514C634.455 164.514 634.946 164.691 635.337 165.046C635.73 165.4 635.94 165.86 635.966 166.426H635.112C635.086 166.085 634.956 165.805 634.722 165.587C634.491 165.366 634.205 165.256 633.863 165.256C633.405 165.256 633.049 165.421 632.795 165.753C632.545 166.082 632.419 166.558 632.419 167.182V167.353C632.419 167.961 632.545 168.429 632.795 168.758C633.046 169.087 633.403 169.251 633.868 169.251V169.251ZM638.205 163.334V164.612H639.19V165.309H638.205V168.582C638.205 168.794 638.249 168.953 638.337 169.06C638.424 169.164 638.574 169.217 638.785 169.217C638.889 169.217 639.033 169.197 639.215 169.158V169.89C638.977 169.955 638.746 169.987 638.522 169.987C638.119 169.987 637.815 169.865 637.61 169.621C637.405 169.378 637.303 169.031 637.303 168.582V165.309H636.341V164.612H637.303V163.334H638.205ZM648.327 169.89H647.385L643.81 164.417V169.89H642.868V162.787H643.81L647.395 168.285V162.787H648.327V169.89ZM653.107 169.89C653.055 169.786 653.013 169.6 652.981 169.334C652.561 169.769 652.06 169.987 651.478 169.987C650.958 169.987 650.53 169.841 650.195 169.548C649.864 169.252 649.698 168.878 649.698 168.426C649.698 167.877 649.906 167.451 650.322 167.148C650.741 166.842 651.33 166.69 652.088 166.69H652.966V166.275C652.966 165.96 652.871 165.709 652.683 165.524C652.494 165.335 652.216 165.241 651.849 165.241C651.527 165.241 651.257 165.322 651.039 165.485C650.821 165.647 650.712 165.844 650.712 166.075H649.805C649.805 165.812 649.898 165.558 650.083 165.314C650.272 165.067 650.525 164.872 650.844 164.729C651.166 164.586 651.519 164.514 651.902 164.514C652.51 164.514 652.987 164.667 653.332 164.973C653.676 165.275 653.855 165.693 653.868 166.226V168.656C653.868 169.14 653.93 169.525 654.054 169.812V169.89H653.107ZM651.61 169.202C651.893 169.202 652.161 169.129 652.415 168.982C652.668 168.836 652.852 168.646 652.966 168.412V167.329H652.258C651.153 167.329 650.6 167.652 650.6 168.299C650.6 168.582 650.694 168.804 650.883 168.963C651.071 169.122 651.314 169.202 651.61 169.202ZM656.507 163.334V164.612H657.493V165.309H656.507V168.582C656.507 168.794 656.551 168.953 656.639 169.06C656.727 169.164 656.876 169.217 657.088 169.217C657.192 169.217 657.335 169.197 657.517 169.158V169.89C657.28 169.955 657.049 169.987 656.824 169.987C656.421 169.987 656.117 169.865 655.912 169.621C655.707 169.378 655.605 169.031 655.605 168.582V165.309H654.644V164.612H655.605V163.334H656.507ZM659.532 169.89H658.629V164.612H659.532V169.89ZM658.556 163.212C658.556 163.065 658.6 162.942 658.688 162.841C658.779 162.74 658.912 162.69 659.088 162.69C659.263 162.69 659.397 162.74 659.488 162.841C659.579 162.942 659.624 163.065 659.624 163.212C659.624 163.358 659.579 163.48 659.488 163.578C659.397 163.675 659.263 163.724 659.088 163.724C658.912 163.724 658.779 163.675 658.688 163.578C658.6 163.48 658.556 163.358 658.556 163.212ZM662.722 168.665L664.029 164.612H664.951L663.059 169.89H662.371L660.459 164.612H661.38L662.722 168.665ZM667.941 169.987C667.226 169.987 666.644 169.753 666.195 169.285C665.746 168.813 665.522 168.184 665.522 167.397V167.231C665.522 166.708 665.621 166.241 665.819 165.831C666.021 165.418 666.301 165.096 666.658 164.865C667.02 164.631 667.41 164.514 667.829 164.514C668.515 164.514 669.049 164.74 669.429 165.192C669.81 165.644 670 166.291 670 167.133V167.509H666.424C666.437 168.03 666.588 168.451 666.878 168.773C667.171 169.091 667.542 169.251 667.99 169.251C668.309 169.251 668.579 169.186 668.8 169.056C669.021 168.926 669.215 168.753 669.381 168.539L669.932 168.968C669.489 169.647 668.826 169.987 667.941 169.987V169.987ZM667.829 165.256C667.465 165.256 667.159 165.389 666.912 165.655C666.665 165.919 666.512 166.29 666.454 166.768H669.097V166.7C669.071 166.241 668.948 165.886 668.727 165.636C668.506 165.382 668.206 165.256 667.829 165.256V165.256Z" fill="#61DAFB"/>
<defs>
<filter id="filter0_d" x="293" y="253" width="193" height="192" filterUnits="userSpaceOnUse" color-interpolation-filters="sRGB">
<feFlood flood-opacity="0" result="BackgroundImageFix"/>
<feColorMatrix in="SourceAlpha" type="matrix" values="0 0 0 0 0 0 0 0 0 0 0 0 0 0 0 0 0 0 127 0" result="hardAlpha"/>
<feOffset dy="25"/>
<feGaussianBlur stdDeviation="27.5"/>
<feColorMatrix type="matrix" values="0 0 0 0 0.191202 0 0 0 0 0.347754 0 0 0 0 0.829152 0 0 0 0.14 0"/>
<feBlend mode="normal" in2="BackgroundImageFix" result="effect1_dropShadow"/>
<feBlend mode="normal" in="SourceGraphic" in2="effect1_dropShadow" result="shape"/>
</filter>
<filter id="filter1_d" x="570" y="274" width="278" height="281" filterUnits="userSpaceOnUse" color-interpolation-filters="sRGB">
<feFlood flood-opacity="0" result="BackgroundImageFix"/>
<feColorMatrix in="SourceAlpha" type="matrix" values="0 0 0 0 0 0 0 0 0 0 0 0 0 0 0 0 0 0 127 0" result="hardAlpha"/>
<feOffset dx="6" dy="28"/>
<feGaussianBlur stdDeviation="25"/>
<feColorMatrix type="matrix" values="0 0 0 0 0.191202 0 0 0 0 0.347754 0 0 0 0 0.829152 0 0 0 0.19 0"/>
<feBlend mode="normal" in2="BackgroundImageFix" result="effect1_dropShadow"/>
<feBlend mode="normal" in="SourceGraphic" in2="effect1_dropShadow" result="shape"/>
</filter>
<filter id="filter2_d" x="133" y="143" width="189" height="189" filterUnits="userSpaceOnUse" color-interpolation-filters="sRGB">
<feFlood flood-opacity="0" result="BackgroundImageFix"/>
<feColorMatrix in="SourceAlpha" type="matrix" values="0 0 0 0 0 0 0 0 0 0 0 0 0 0 0 0 0 0 127 0" result="hardAlpha"/>
<feOffset dy="25"/>
<feGaussianBlur stdDeviation="27.5"/>
<feColorMatrix type="matrix" values="0 0 0 0 0.191202 0 0 0 0 0.347754 0 0 0 0 0.829152 0 0 0 0.14 0"/>
<feBlend mode="normal" in2="BackgroundImageFix" result="effect1_dropShadow"/>
<feBlend mode="normal" in="SourceGraphic" in2="effect1_dropShadow" result="shape"/>
</filter>
<filter id="filter3_d" x="1019" y="178" width="214" height="216" filterUnits="userSpaceOnUse" color-interpolation-filters="sRGB">
<feFlood flood-opacity="0" result="BackgroundImageFix"/>
<feColorMatrix in="SourceAlpha" type="matrix" values="0 0 0 0 0 0 0 0 0 0 0 0 0 0 0 0 0 0 127 0" result="hardAlpha"/>
<feOffset dy="25"/>
<feGaussianBlur stdDeviation="27.5"/>
<feColorMatrix type="matrix" values="0 0 0 0 0.191202 0 0 0 0 0.347754 0 0 0 0 0.829152 0 0 0 0.14 0"/>
<feBlend mode="normal" in2="BackgroundImageFix" result="effect1_dropShadow"/>
<feBlend mode="normal" in="SourceGraphic" in2="effect1_dropShadow" result="shape"/>
</filter>
<filter id="filter4_d" x="876" y="396" width="197.836" height="197" filterUnits="userSpaceOnUse" color-interpolation-filters="sRGB">
<feFlood flood-opacity="0" result="BackgroundImageFix"/>
<feColorMatrix in="SourceAlpha" type="matrix" values="0 0 0 0 0 0 0 0 0 0 0 0 0 0 0 0 0 0 127 0" result="hardAlpha"/>
<feOffset dy="25"/>
<feGaussianBlur stdDeviation="27.5"/>
<feColorMatrix type="matrix" values="0 0 0 0 0.191202 0 0 0 0 0.347754 0 0 0 0 0.829152 0 0 0 0.14 0"/>
<feBlend mode="normal" in2="BackgroundImageFix" result="effect1_dropShadow"/>
<feBlend mode="normal" in="SourceGraphic" in2="effect1_dropShadow" result="shape"/>
</filter>
<filter id="filter5_d" x="1201" y="381" width="229" height="228" filterUnits="userSpaceOnUse" color-interpolation-filters="sRGB">
<feFlood flood-opacity="0" result="BackgroundImageFix"/>
<feColorMatrix in="SourceAlpha" type="matrix" values="0 0 0 0 0 0 0 0 0 0 0 0 0 0 0 0 0 0 127 0" result="hardAlpha"/>
<feOffset dy="25"/>
<feGaussianBlur stdDeviation="27.5"/>
<feColorMatrix type="matrix" values="0 0 0 0 0.191202 0 0 0 0 0.347754 0 0 0 0 0.829152 0 0 0 0.14 0"/>
<feBlend mode="normal" in2="BackgroundImageFix" result="effect1_dropShadow"/>
<feBlend mode="normal" in="SourceGraphic" in2="effect1_dropShadow" result="shape"/>
</filter>
<filter id="filter6_d" x="0" y="388" width="229" height="228" filterUnits="userSpaceOnUse" color-interpolation-filters="sRGB">
<feFlood flood-opacity="0" result="BackgroundImageFix"/>
<feColorMatrix in="SourceAlpha" type="matrix" values="0 0 0 0 0 0 0 0 0 0 0 0 0 0 0 0 0 0 127 0" result="hardAlpha"/>
<feOffset dy="25"/>
<feGaussianBlur stdDeviation="27.5"/>
<feColorMatrix type="matrix" values="0 0 0 0 0.191202 0 0 0 0 0.347754 0 0 0 0 0.829152 0 0 0 0.14 0"/>
<feBlend mode="normal" in2="BackgroundImageFix" result="effect1_dropShadow"/>
<feBlend mode="normal" in="SourceGraphic" in2="effect1_dropShadow" result="shape"/>
</filter>
<filter id="filter7_d" x="528" y="51" width="229" height="228" filterUnits="userSpaceOnUse" color-interpolation-filters="sRGB">
<feFlood flood-opacity="0" result="BackgroundImageFix"/>
<feColorMatrix in="SourceAlpha" type="matrix" values="0 0 0 0 0 0 0 0 0 0 0 0 0 0 0 0 0 0 127 0" result="hardAlpha"/>
<feOffset dy="25"/>
<feGaussianBlur stdDeviation="27.5"/>
<feColorMatrix type="matrix" values="0 0 0 0 0.191202 0 0 0 0 0.347754 0 0 0 0 0.829152 0 0 0 0.14 0"/>
<feBlend mode="normal" in2="BackgroundImageFix" result="effect1_dropShadow"/>
<feBlend mode="normal" in="SourceGraphic" in2="effect1_dropShadow" result="shape"/>
</filter>
<linearGradient id="paint0_linear" x1="786" y1="610.25" x2="913.5" y2="333.25" gradientUnits="userSpaceOnUse">
<stop stop-color="#2D8BFF" stop-opacity="0.1"/>
<stop offset="0.519043" stop-color="#6480FD" stop-opacity="0.12"/>
<stop offset="1" stop-color="#9F74FB" stop-opacity="0.07"/>
</linearGradient>
<linearGradient id="paint1_linear" x1="845.053" y1="768.491" x2="1062.72" y2="295.59" gradientUnits="userSpaceOnUse">
<stop stop-color="#2D8BFF" stop-opacity="0.1"/>
<stop offset="0.519043" stop-color="#6480FD" stop-opacity="0.12"/>
<stop offset="1" stop-color="#9F74FB" stop-opacity="0.07"/>
</linearGradient>
<linearGradient id="paint2_linear" x1="900.734" y1="875.293" x2="1214.88" y2="192.798" gradientUnits="userSpaceOnUse">
<stop stop-color="#2D8BFF" stop-opacity="0.1"/>
<stop offset="0.519043" stop-color="#6480FD" stop-opacity="0.12"/>
<stop offset="1" stop-color="#9F74FB" stop-opacity="0.07"/>
</linearGradient>
<linearGradient id="paint3_linear" x1="531.564" y1="408.567" x2="720.691" y2="579.352" gradientUnits="userSpaceOnUse">
<stop stop-color="#3B41E3"/>
<stop offset="1" stop-color="#3C93F0"/>
</linearGradient>
<linearGradient id="paint4_linear" x1="372.061" y1="306.778" x2="392.984" y2="327.511" gradientUnits="userSpaceOnUse">
<stop stop-color="#387EB8"/>
<stop offset="1" stop-color="#366994"/>
</linearGradient>
<linearGradient id="paint5_linear" x1="384.915" y1="320.079" x2="407.385" y2="341.34" gradientUnits="userSpaceOnUse">
<stop stop-color="#FFE052"/>
<stop offset="1" stop-color="#FFC331"/>
</linearGradient>
</defs>
</svg>
