<svg width="58" height="58" viewBox="0 0 58 58" fill="none" xmlns="http://www.w3.org/2000/svg">
<rect width="58" height="58" rx="29" fill="white" fill-opacity="0.09"/>
<path d="M28.802 24.2876C26.3048 24.2876 24.2906 26.3023 24.2906 28.8C24.2906 31.2977 26.3048 33.3124 28.802 33.3124C31.2991 33.3124 33.3134 31.2977 33.3134 28.8C33.3134 26.3023 31.2991 24.2876 28.802 24.2876ZM28.802 31.7337C27.1882 31.7337 25.869 30.418 25.869 28.8C25.869 27.182 27.1843 25.8663 28.802 25.8663C30.4196 25.8663 31.735 27.182 31.735 28.8C31.735 30.418 30.4157 31.7337 28.802 31.7337V31.7337ZM34.5502 24.103C34.5502 24.6882 34.079 25.1555 33.4979 25.1555C32.9129 25.1555 32.4456 24.6842 32.4456 24.103C32.4456 23.5218 32.9168 23.0505 33.4979 23.0505C34.079 23.0505 34.5502 23.5218 34.5502 24.103ZM37.5382 25.1712C37.4714 23.7613 37.1494 22.5125 36.1168 21.4835C35.0881 20.4546 33.8395 20.1325 32.4299 20.0619C30.9772 19.9794 26.6228 19.9794 25.1701 20.0619C23.7644 20.1286 22.5158 20.4507 21.4832 21.4796C20.4506 22.5085 20.1325 23.7574 20.0618 25.1673C19.9794 26.6204 19.9794 30.9757 20.0618 32.4288C20.1286 33.8387 20.4506 35.0875 21.4832 36.1165C22.5158 37.1454 23.7605 37.4675 25.1701 37.5381C26.6228 37.6206 30.9772 37.6206 32.4299 37.5381C33.8395 37.4714 35.0881 37.1493 36.1168 36.1165C37.1455 35.0875 37.4675 33.8387 37.5382 32.4288C37.6206 30.9757 37.6206 26.6243 37.5382 25.1712V25.1712ZM35.6613 33.9879C35.3551 34.7576 34.7622 35.3507 33.9887 35.6609C32.8304 36.1204 30.082 36.0144 28.802 36.0144C27.522 36.0144 24.7696 36.1165 23.6152 35.6609C22.8456 35.3546 22.2528 34.7616 21.9426 33.9879C21.4832 32.8294 21.5892 30.0803 21.5892 28.8C21.5892 27.5197 21.4871 24.7667 21.9426 23.6121C22.2488 22.8424 22.8417 22.2493 23.6152 21.9391C24.7735 21.4796 27.522 21.5856 28.802 21.5856C30.082 21.5856 32.8344 21.4835 33.9887 21.9391C34.7583 22.2454 35.3512 22.8384 35.6613 23.6121C36.1207 24.7706 36.0147 27.5197 36.0147 28.8C36.0147 30.0803 36.1207 32.8333 35.6613 33.9879Z" fill="white"/>
</svg>
