<svg width="97" height="102" viewBox="0 0 97 102" fill="none" xmlns="http://www.w3.org/2000/svg">
<rect x="5" width="87" height="87" rx="12" fill="#ECF7FF"/>
<g filter="url(#filter0_d)">
<path d="M56.9968 21.4046C56.0944 20.5051 54.8723 20 53.5982 20C52.3241 20 51.1019 20.5051 50.1995 21.4046L26.4065 45.1986C25.5059 46.1004 25 47.3229 25 48.5974C25 49.872 25.5059 51.0944 26.4065 51.9962L40.0035 65.5938C40.9409 66.5313 42.1716 67 43.4022 67C44.6328 67 45.8635 66.5313 46.8009 65.5938L70.5939 41.7998C72.4687 39.9273 72.4687 36.8747 70.5939 35.0022L56.9968 21.4046V21.4046ZM40.5852 54.8133C40.362 55.0365 40.0971 55.2135 39.8055 55.3343C39.514 55.4551 39.2015 55.5172 38.8859 55.5172C38.5703 55.5172 38.2578 55.4551 37.9662 55.3343C37.6746 55.2135 37.4097 55.0365 37.1865 54.8133C36.9634 54.5902 36.7864 54.3252 36.6656 54.0336C36.5448 53.7421 36.4827 53.4295 36.4827 53.1139C36.4827 52.7983 36.5448 52.4858 36.6656 52.1942C36.7864 51.9026 36.9634 51.6377 37.1865 51.4145C37.6372 50.9638 38.2485 50.7106 38.8859 50.7106C39.5232 50.7106 40.1345 50.9638 40.5852 51.4145C41.0359 51.8652 41.2891 52.4765 41.2891 53.1139C41.2891 53.7513 41.0359 54.3626 40.5852 54.8133V54.8133ZM57.4103 66.8317L54.0116 63.4329L68.4331 49.0108L71.8317 52.4121L57.4103 66.8317ZM39.5901 20.1667L42.9888 23.5655L28.5673 37.9876L25.1686 34.5863L39.5901 20.1667Z" fill="#3C5AE7"/>
</g>
<defs>
<filter id="filter0_d" x="0" y="5" width="97" height="97" filterUnits="userSpaceOnUse" color-interpolation-filters="sRGB">
<feFlood flood-opacity="0" result="BackgroundImageFix"/>
<feColorMatrix in="SourceAlpha" type="matrix" values="0 0 0 0 0 0 0 0 0 0 0 0 0 0 0 0 0 0 127 0" result="hardAlpha"/>
<feOffset dy="10"/>
<feGaussianBlur stdDeviation="12.5"/>
<feComposite in2="hardAlpha" operator="out"/>
<feColorMatrix type="matrix" values="0 0 0 0 0.235294 0 0 0 0 0.352941 0 0 0 0 0.905882 0 0 0 0.26 0"/>
<feBlend mode="normal" in2="BackgroundImageFix" result="effect1_dropShadow"/>
<feBlend mode="normal" in="SourceGraphic" in2="effect1_dropShadow" result="shape"/>
</filter>
</defs>
</svg>
