<svg width="103" height="105" viewBox="0 0 103 105" fill="none" xmlns="http://www.w3.org/2000/svg">
<rect x="8" width="87" height="87" rx="12" fill="#ECF7FF"/>
<g filter="url(#filter0_d)">
<path d="M66.8471 42.3504C66.8471 39.5414 65.8368 37.5969 64.9722 36.0831L64.7072 35.6525C63.6572 33.9631 62.7396 32.4791 62.7396 30.75C62.7396 28.6631 64.323 26.7154 66.5556 26.7154C66.6219 26.7154 66.6848 26.722 66.7477 26.7253L66.8504 26.7353C62.664 22.8899 57.1848 20.7592 51.5003 20.7661C47.7329 20.7642 44.0242 21.6997 40.7084 23.4882C37.3926 25.2768 34.574 27.8623 32.5064 31.0117C33.0364 31.0283 33.5432 31.0415 33.9706 31.0415C36.3456 31.0415 40.0258 30.7533 40.0258 30.7533C41.2514 30.6804 41.3972 32.4791 40.1716 32.6249C40.1716 32.6249 38.9426 32.7706 37.5712 32.8402L45.8525 57.4653L50.8212 42.5392L47.2769 32.8369C46.0546 32.764 44.8952 32.6216 44.8952 32.6216C43.6696 32.5487 43.8153 30.6738 45.0376 30.7467C45.0376 30.7467 48.794 31.0349 51.0266 31.0349C53.405 31.0349 57.0885 30.7467 57.0885 30.7467C58.3141 30.6738 58.4566 32.4758 57.2309 32.6216C57.2309 32.6216 55.9987 32.764 54.6306 32.8369L62.8456 57.2732L65.1114 49.6975L65.2902 49.1244C66.1846 46.2757 66.8438 44.1723 66.8438 42.3471L66.8471 42.3504ZM28.7666 43.4998C28.7664 47.7688 29.968 51.9516 32.2339 55.5695C34.4998 59.1875 37.7385 62.0945 41.5794 63.9578L30.7309 34.2447C29.4319 37.157 28.7625 40.3109 28.7666 43.4998V43.4998Z" fill="#3C5AE7"/>
<path d="M45.0771 65.3063L51.9009 45.4876L58.887 64.6339C58.9333 64.7432 58.9863 64.8459 59.0493 64.9452C54.5457 66.5318 49.6566 66.6582 45.0771 65.3063V65.3063ZM71.4446 32.592C71.544 33.3175 71.6003 34.0926 71.6003 34.9307C71.6003 37.2362 71.1697 39.8299 69.8712 43.0728L62.9282 63.1465C68.0517 60.1698 71.8098 55.3095 73.4013 49.6018C74.9928 43.894 74.2919 37.7904 71.448 32.592H71.4446Z" fill="#3C5AE7"/>
<path fill-rule="evenodd" clip-rule="evenodd" d="M25 43.5C25 28.8886 36.8886 17 51.5 17C66.1081 17 78 28.8886 78 43.5C78 58.1114 66.1081 70 51.5 70C36.8886 70 25 58.1114 25 43.5ZM26.2157 43.5C26.2157 57.4423 37.5577 68.7843 51.5 68.7843C65.439 68.7843 76.781 57.4423 76.781 43.5C76.781 29.5544 65.439 18.2157 51.5 18.2157C37.5544 18.2157 26.2157 29.5544 26.2157 43.5Z" fill="#3C5AE7"/>
</g>
<defs>
<filter id="filter0_d" x="0" y="2" width="103" height="103" filterUnits="userSpaceOnUse" color-interpolation-filters="sRGB">
<feFlood flood-opacity="0" result="BackgroundImageFix"/>
<feColorMatrix in="SourceAlpha" type="matrix" values="0 0 0 0 0 0 0 0 0 0 0 0 0 0 0 0 0 0 127 0" result="hardAlpha"/>
<feOffset dy="10"/>
<feGaussianBlur stdDeviation="12.5"/>
<feComposite in2="hardAlpha" operator="out"/>
<feColorMatrix type="matrix" values="0 0 0 0 0.235294 0 0 0 0 0.352941 0 0 0 0 0.905882 0 0 0 0.26 0"/>
<feBlend mode="normal" in2="BackgroundImageFix" result="effect1_dropShadow"/>
<feBlend mode="normal" in="SourceGraphic" in2="effect1_dropShadow" result="shape"/>
</filter>
</defs>
</svg>
