<svg width="560" height="559" viewBox="0 0 560 559" fill="none" xmlns="http://www.w3.org/2000/svg">
<circle cx="279.642" cy="279.358" r="279.358" fill="#ECF7FF"/>
<path d="M328.782 51.3955H158.819C139.969 51.3955 124.688 66.6767 124.688 85.5271V484.293C124.688 503.143 139.969 518.424 158.819 518.424H328.782C347.632 518.424 362.914 503.143 362.914 484.293V85.5271C362.914 66.6767 347.632 51.3955 328.782 51.3955Z" fill="#E5EDFD"/>
<path d="M328.782 63.0844C334.733 63.0876 340.44 65.4531 344.648 69.6612C348.856 73.8694 351.222 79.5759 351.225 85.5271V484.341C351.218 490.291 348.852 495.996 344.644 500.203C340.437 504.411 334.732 506.777 328.782 506.783H158.819C152.869 506.777 147.164 504.411 142.957 500.203C138.75 495.996 136.383 490.291 136.377 484.341V85.5271C136.383 79.5769 138.75 73.8722 142.957 69.6647C147.164 65.4573 152.869 63.0908 158.819 63.0844H328.782ZM328.782 51.3955H158.819C149.767 51.3955 141.086 54.9915 134.685 61.3924C128.284 67.7934 124.688 76.4749 124.688 85.5271V484.341C124.691 493.391 128.288 502.069 134.689 508.468C141.089 514.866 149.769 518.46 158.819 518.46H328.782C333.264 518.462 337.702 517.581 341.843 515.867C345.984 514.153 349.746 511.64 352.916 508.471C356.086 505.303 358.6 501.541 360.315 497.401C362.031 493.26 362.914 488.822 362.914 484.341V85.5271C362.915 81.0444 362.033 76.6054 360.319 72.4637C358.604 68.3219 356.09 64.5586 352.92 61.3889C349.751 58.2192 345.987 55.7051 341.846 53.9904C337.704 52.2757 333.265 51.3939 328.782 51.3955V51.3955Z" fill="#060000"/>
<path d="M296.976 52.5703H190.625V64.9426C190.625 67.5753 191.671 70.1001 193.532 71.9617C195.394 73.8233 197.919 74.8692 200.552 74.8692H287.05C289.682 74.8692 292.207 73.8233 294.069 71.9617C295.93 70.1001 296.976 67.5753 296.976 64.9426V52.5703Z" fill="#060000"/>
<path d="M224.001 61.8375H264.787" stroke="white" stroke-width="0.76" stroke-linecap="round" stroke-linejoin="round"/>
<path d="M286.27 346.651H164.814C159.563 346.651 155.307 350.908 155.307 356.158V457.606C155.307 462.857 159.563 467.113 164.814 467.113H286.27C291.521 467.113 295.777 462.857 295.777 457.606V356.158C295.777 350.908 291.521 346.651 286.27 346.651Z" fill="#9BBDF9"/>
<path d="M206.654 363.507H178.732C176.647 363.507 174.956 365.198 174.956 367.284V395.205C174.956 397.291 176.647 398.982 178.732 398.982H206.654C208.74 398.982 210.43 397.291 210.43 395.205V367.284C210.43 365.198 208.74 363.507 206.654 363.507Z" fill="white"/>
<path d="M222.527 374.704H254.596" stroke="black" stroke-width="1.3" stroke-linecap="round" stroke-linejoin="round"/>
<path d="M222.527 386.118H274.234" stroke="black" stroke-width="1.3" stroke-linecap="round" stroke-linejoin="round"/>
<path d="M174.956 413.751H210.418" stroke="white" stroke-width="1.3" stroke-linecap="round" stroke-linejoin="round"/>
<path d="M174.956 425.536H274.234" stroke="white" stroke-width="1.3" stroke-linecap="round" stroke-linejoin="round"/>
<path d="M174.956 438.52H274.234" stroke="white" stroke-width="1.3" stroke-linecap="round" stroke-linejoin="round"/>
<path d="M102.673 173.522C106.32 158.239 96.8865 142.893 81.6036 139.247C66.3206 135.6 50.9753 145.033 47.3287 160.316C43.6822 175.599 53.1153 190.945 68.3983 194.591C83.6812 198.238 99.0266 188.805 102.673 173.522Z" fill="#DC761C"/>
<path d="M63.5454 168.272L72.4769 174.89L87.7744 159.017" stroke="white" stroke-width="2.14" stroke-linecap="round" stroke-linejoin="round"/>
<path d="M186.129 242.29H90.8796C87.4432 242.29 84.6575 245.076 84.6575 248.512V314.869C84.6575 318.306 87.4432 321.092 90.8796 321.092H186.129C189.566 321.092 192.351 318.306 192.351 314.869V248.512C192.351 245.076 189.566 242.29 186.129 242.29Z" fill="#4479FA"/>
<path d="M155.091 275.283C155.099 272.663 154.502 270.076 153.347 267.724C152.192 265.372 150.51 263.318 148.431 261.723C146.352 260.128 143.933 259.034 141.363 258.526C138.792 258.019 136.139 258.112 133.61 258.798C131.081 259.484 128.744 260.745 126.782 262.482C124.82 264.219 123.286 266.385 122.298 268.812C121.311 271.239 120.897 273.862 121.089 276.475C121.281 279.088 122.073 281.622 123.405 283.879V283.879V283.939C124.058 285.035 124.83 286.057 125.706 286.984L138.091 303.312L150.415 286.996C151.287 286.057 152.051 285.024 152.693 283.915V283.915C154.249 281.303 155.077 278.323 155.091 275.283V275.283ZM138.067 282.692C136.585 282.692 135.136 282.252 133.904 281.429C132.672 280.606 131.711 279.436 131.144 278.066C130.577 276.697 130.429 275.191 130.718 273.737C131.007 272.284 131.721 270.949 132.768 269.901C133.816 268.853 135.151 268.139 136.605 267.85C138.058 267.561 139.565 267.709 140.934 268.277C142.303 268.844 143.474 269.804 144.297 271.036C145.12 272.268 145.56 273.717 145.56 275.199C145.56 277.182 144.773 279.084 143.373 280.489C141.973 281.893 140.074 282.686 138.091 282.692H138.067Z" fill="white"/>
<path d="M325.893 110.236H161.625C156.374 110.236 152.118 114.492 152.118 119.743V221.19C152.118 226.441 156.374 230.697 161.625 230.697H325.893C331.143 230.697 335.4 226.441 335.4 221.19V119.743C335.4 114.492 331.143 110.236 325.893 110.236Z" fill="white"/>
<path d="M194.989 138.948H170.508C168.681 138.948 167.199 140.43 167.199 142.257V166.738C167.199 168.566 168.681 170.047 170.508 170.047H194.989C196.816 170.047 198.298 168.566 198.298 166.738V142.257C198.298 140.43 196.816 138.948 194.989 138.948Z" fill="#9BBDF9"/>
<path d="M234.611 138.948H210.13C208.303 138.948 206.821 140.43 206.821 142.257V166.738C206.821 168.566 208.303 170.047 210.13 170.047H234.611C236.438 170.047 237.92 168.566 237.92 166.738V142.257C237.92 140.43 236.438 138.948 234.611 138.948Z" fill="#9BBDF9"/>
<path d="M274.234 138.948H249.753C247.926 138.948 246.444 140.43 246.444 142.257V166.738C246.444 168.566 247.926 170.047 249.753 170.047H274.234C276.061 170.047 277.543 168.566 277.543 166.738V142.257C277.543 140.43 276.061 138.948 274.234 138.948Z" fill="#9BBDF9"/>
<path d="M313.856 138.948H289.375C287.548 138.948 286.066 140.43 286.066 142.257V166.738C286.066 168.566 287.548 170.047 289.375 170.047H313.856C315.683 170.047 317.165 168.566 317.165 166.738V142.257C317.165 140.43 315.683 138.948 313.856 138.948Z" fill="#DC761C"/>
<path d="M194.989 180.909H170.508C168.681 180.909 167.199 182.39 167.199 184.218V208.698C167.199 210.526 168.681 212.007 170.508 212.007H194.989C196.816 212.007 198.298 210.526 198.298 208.698V184.218C198.298 182.39 196.816 180.909 194.989 180.909Z" fill="#9BBDF9"/>
<path d="M234.611 180.909H210.13C208.303 180.909 206.821 182.39 206.821 184.218V208.698C206.821 210.526 208.303 212.007 210.13 212.007H234.611C236.438 212.007 237.92 210.526 237.92 208.698V184.218C237.92 182.39 236.438 180.909 234.611 180.909Z" fill="#9BBDF9"/>
<path d="M274.234 180.909H249.753C247.926 180.909 246.444 182.39 246.444 184.218V208.698C246.444 210.526 247.926 212.007 249.753 212.007H274.234C276.061 212.007 277.543 210.526 277.543 208.698V184.218C277.543 182.39 276.061 180.909 274.234 180.909Z" fill="#9BBDF9"/>
<path d="M313.856 180.909H289.375C287.548 180.909 286.066 182.39 286.066 184.218V208.698C286.066 210.526 287.548 212.007 289.375 212.007H313.856C315.683 212.007 317.165 210.526 317.165 208.698V184.218C317.165 182.39 315.683 180.909 313.856 180.909Z" fill="#9BBDF9"/>
<path d="M178.444 123.425C178.464 123.592 178.474 123.759 178.474 123.925C178.474 124.092 178.474 124.258 178.474 124.425C178.474 125.003 178.439 125.508 178.371 125.939C178.312 126.37 178.204 126.733 178.047 127.027C177.9 127.311 177.699 127.527 177.445 127.674C177.19 127.811 176.866 127.879 176.474 127.879C175.955 127.879 175.563 127.816 175.298 127.688C175.034 127.551 174.833 127.311 174.696 126.968C174.627 126.811 174.568 126.625 174.519 126.409C174.47 126.194 174.431 125.905 174.402 125.542C174.372 125.18 174.348 124.719 174.328 124.16C174.318 123.602 174.313 122.891 174.313 122.029C174.313 121.039 174.323 120.255 174.343 119.677C174.372 119.089 174.407 118.633 174.446 118.31C174.485 117.986 174.529 117.756 174.578 117.619C174.627 117.482 174.671 117.364 174.71 117.266C174.848 116.943 175.034 116.712 175.269 116.575C175.514 116.438 175.896 116.369 176.416 116.369C176.778 116.369 177.067 116.404 177.283 116.472C177.498 116.531 177.685 116.639 177.841 116.796C178.037 116.992 178.189 117.335 178.297 117.825C178.405 118.315 178.459 118.922 178.459 119.647C178.459 119.843 178.454 120.015 178.444 120.162C178.444 120.309 178.439 120.466 178.429 120.632H177.195C177.204 120.476 177.209 120.338 177.209 120.221C177.209 120.103 177.209 119.922 177.209 119.677C177.209 119.226 177.19 118.863 177.151 118.589C177.121 118.315 177.072 118.109 177.004 117.972C176.945 117.844 176.871 117.761 176.783 117.722C176.695 117.683 176.572 117.663 176.416 117.663C176.22 117.663 176.077 117.697 175.989 117.766C175.901 117.834 175.832 117.957 175.783 118.133C175.754 118.251 175.725 118.383 175.695 118.53C175.676 118.667 175.656 118.873 175.636 119.148C175.627 119.422 175.617 119.79 175.607 120.25C175.607 120.701 175.607 121.289 175.607 122.014C175.607 122.749 175.607 123.352 175.607 123.822C175.617 124.293 175.627 124.67 175.636 124.954C175.656 125.238 175.676 125.459 175.695 125.616C175.725 125.772 175.754 125.91 175.783 126.027C175.832 126.194 175.901 126.316 175.989 126.395C176.087 126.463 176.249 126.498 176.474 126.498C176.651 126.498 176.783 126.449 176.871 126.351C176.969 126.243 177.043 126.091 177.092 125.895C177.141 125.699 177.175 125.474 177.195 125.219C177.224 124.954 177.239 124.65 177.239 124.307C177.239 124.141 177.239 123.989 177.239 123.852C177.239 123.714 177.234 123.572 177.224 123.425H178.444ZM180.227 127.688V117.883H178.846V116.56H182.903V117.883H181.536V127.688H180.227ZM183.567 126.968C183.499 126.801 183.44 126.62 183.391 126.424C183.342 126.218 183.303 125.944 183.273 125.601C183.244 125.258 183.219 124.812 183.2 124.263C183.19 123.705 183.185 122.989 183.185 122.117C183.185 121.245 183.19 120.534 183.2 119.986C183.219 119.437 183.244 118.991 183.273 118.648C183.303 118.305 183.342 118.035 183.391 117.839C183.44 117.643 183.499 117.457 183.567 117.281C183.705 116.938 183.901 116.703 184.155 116.575C184.41 116.438 184.787 116.369 185.287 116.369C185.787 116.369 186.164 116.438 186.419 116.575C186.674 116.703 186.87 116.938 187.007 117.281C187.076 117.457 187.135 117.643 187.184 117.839C187.233 118.035 187.272 118.305 187.301 118.648C187.331 118.991 187.35 119.437 187.36 119.986C187.38 120.534 187.389 121.245 187.389 122.117C187.389 122.989 187.38 123.705 187.36 124.263C187.35 124.812 187.331 125.258 187.301 125.601C187.272 125.944 187.233 126.218 187.184 126.424C187.135 126.62 187.076 126.801 187.007 126.968C186.87 127.311 186.674 127.551 186.419 127.688C186.164 127.816 185.787 127.879 185.287 127.879C184.787 127.879 184.41 127.816 184.155 127.688C183.901 127.551 183.705 127.311 183.567 126.968ZM185.919 126.027C185.949 125.91 185.973 125.782 185.993 125.645C186.012 125.508 186.027 125.307 186.037 125.042C186.057 124.768 186.071 124.4 186.081 123.94C186.091 123.479 186.096 122.862 186.096 122.088C186.096 121.313 186.091 120.696 186.081 120.235C186.081 119.765 186.071 119.398 186.052 119.133C186.042 118.859 186.027 118.658 186.008 118.53C185.988 118.393 185.963 118.266 185.934 118.148C185.885 117.972 185.812 117.849 185.714 117.781C185.625 117.702 185.483 117.663 185.287 117.663C185.091 117.663 184.949 117.702 184.861 117.781C184.773 117.849 184.704 117.967 184.655 118.133C184.626 118.251 184.596 118.378 184.567 118.516C184.547 118.653 184.528 118.859 184.508 119.133C184.498 119.398 184.489 119.765 184.479 120.235C184.479 120.696 184.479 121.313 184.479 122.088C184.479 122.862 184.479 123.479 184.479 123.94C184.489 124.4 184.498 124.768 184.508 125.042C184.528 125.307 184.547 125.508 184.567 125.645C184.596 125.782 184.626 125.91 184.655 126.027C184.704 126.204 184.773 126.326 184.861 126.395C184.949 126.463 185.091 126.498 185.287 126.498C185.483 126.498 185.625 126.463 185.714 126.395C185.802 126.326 185.87 126.204 185.919 126.027ZM188.227 127.688V116.56H190.535C190.868 116.56 191.152 116.605 191.388 116.693C191.623 116.781 191.809 116.938 191.946 117.163C192.083 117.379 192.181 117.683 192.24 118.075C192.309 118.467 192.343 118.961 192.343 119.559C192.343 120 192.328 120.363 192.299 120.647C192.279 120.921 192.245 121.142 192.196 121.309C192.147 121.465 192.083 121.588 192.005 121.676C191.927 121.764 191.833 121.838 191.726 121.897V121.985C191.873 122.073 191.995 122.161 192.093 122.249C192.191 122.338 192.265 122.47 192.314 122.646C192.363 122.823 192.397 123.073 192.417 123.396C192.436 123.71 192.446 124.141 192.446 124.69C192.446 125.287 192.412 125.782 192.343 126.174C192.284 126.556 192.181 126.86 192.034 127.086C191.897 127.311 191.716 127.468 191.49 127.556C191.265 127.644 190.996 127.688 190.682 127.688H188.227ZM190.447 126.424C190.574 126.424 190.682 126.405 190.77 126.365C190.858 126.316 190.927 126.223 190.976 126.086C191.035 125.949 191.074 125.758 191.094 125.513C191.113 125.268 191.123 124.944 191.123 124.543C191.123 124.082 191.108 123.719 191.079 123.455C191.059 123.19 191.02 122.989 190.961 122.852C190.902 122.715 190.824 122.627 190.726 122.587C190.638 122.548 190.52 122.529 190.373 122.529H189.521V126.424H190.447ZM190.314 121.47C190.461 121.47 190.584 121.451 190.682 121.411C190.78 121.362 190.853 121.274 190.902 121.147C190.951 121.019 190.986 120.843 191.005 120.618C191.025 120.382 191.035 120.079 191.035 119.706C191.035 119.432 191.03 119.211 191.02 119.045C191.02 118.878 191.015 118.741 191.005 118.633C190.996 118.525 190.981 118.437 190.961 118.369C190.951 118.3 190.937 118.236 190.917 118.177C190.868 118.04 190.795 117.947 190.697 117.898C190.599 117.839 190.481 117.81 190.344 117.81H189.521V121.47H190.314ZM193.208 127.688V116.56H196.648V117.883H194.502V121.382H196.619V122.646H194.502V126.307H196.633V127.688H193.208ZM200.455 127.688C200.425 127.63 200.401 127.571 200.381 127.512C200.362 127.443 200.342 127.35 200.322 127.233C200.313 127.115 200.298 126.958 200.278 126.762C200.268 126.556 200.254 126.287 200.234 125.954C200.215 125.581 200.19 125.209 200.161 124.837C200.141 124.454 200.107 124.077 200.058 123.705C200.009 123.401 199.94 123.205 199.852 123.117C199.774 123.028 199.636 122.984 199.44 122.984H198.823V127.688H197.529V116.56H199.881C200.224 116.56 200.489 116.605 200.675 116.693C200.861 116.771 201.023 116.899 201.16 117.075C201.248 117.193 201.322 117.325 201.381 117.472C201.449 117.609 201.503 117.776 201.542 117.972C201.582 118.168 201.606 118.398 201.616 118.663C201.636 118.917 201.645 119.216 201.645 119.559C201.645 119.912 201.64 120.211 201.631 120.456C201.621 120.691 201.601 120.897 201.572 121.073C201.552 121.24 201.528 121.382 201.498 121.5C201.469 121.617 201.435 121.725 201.395 121.823C201.327 121.99 201.244 122.117 201.146 122.205C201.057 122.293 200.959 122.362 200.852 122.411V122.485C200.95 122.534 201.043 122.627 201.131 122.764C201.229 122.891 201.297 123.107 201.337 123.411C201.405 123.92 201.459 124.44 201.498 124.969C201.547 125.488 201.587 126.032 201.616 126.601C201.636 126.826 201.655 127.017 201.675 127.174C201.704 127.331 201.743 127.483 201.792 127.63V127.688H200.455ZM199.411 121.794C199.587 121.794 199.734 121.769 199.852 121.72C199.97 121.671 200.068 121.563 200.146 121.397C200.185 121.318 200.215 121.24 200.234 121.162C200.254 121.083 200.268 120.98 200.278 120.853C200.298 120.716 200.308 120.549 200.308 120.353C200.317 120.147 200.322 119.883 200.322 119.559C200.322 119.314 200.317 119.113 200.308 118.957C200.308 118.79 200.303 118.658 200.293 118.56C200.283 118.452 200.264 118.369 200.234 118.31C200.215 118.241 200.19 118.182 200.161 118.133C200.043 117.947 199.872 117.854 199.646 117.854H198.823V121.794H199.411Z" fill="#DC761C"/>
<path d="M329.189 242.29H221.723C218.287 242.29 215.501 245.076 215.501 248.512V314.869C215.501 318.306 218.287 321.092 221.723 321.092H329.189C332.626 321.092 335.411 318.306 335.411 314.869V248.512C335.411 245.076 332.626 242.29 329.189 242.29Z" fill="white"/>
<path d="M319.107 251.234H233.916C232.088 251.234 230.607 252.715 230.607 254.543V265.836C230.607 267.663 232.088 269.145 233.916 269.145H319.107C320.934 269.145 322.416 267.663 322.416 265.836V254.543C322.416 252.715 320.934 251.234 319.107 251.234Z" fill="#9BBDF9"/>
<path d="M231.806 280.881H273.646" stroke="black" stroke-width="1.3" stroke-linecap="round" stroke-linejoin="round"/>
<path d="M231.806 291.072H321.217" stroke="black" stroke-width="1.3" stroke-linecap="round" stroke-linejoin="round"/>
<path d="M231.806 302.305H321.217" stroke="black" stroke-width="1.3" stroke-linecap="round" stroke-linejoin="round"/>
<path d="M386.831 372.295H324.526C320.348 372.295 316.961 375.682 316.961 379.86V433.892C316.961 438.07 320.348 441.457 324.526 441.457H386.831C391.009 441.457 394.396 438.07 394.396 433.892V379.86C394.396 375.682 391.009 372.295 386.831 372.295Z" fill="#DC761C"/>
<path d="M371.018 403.873L368.476 403.429C368.177 402.317 367.734 401.249 367.158 400.252L368.644 398.142C368.917 397.771 369.052 397.315 369.023 396.855C368.995 396.395 368.805 395.959 368.488 395.625L366.954 394.102C366.626 393.783 366.196 393.59 365.74 393.558C365.283 393.525 364.83 393.654 364.46 393.922L362.338 395.409C361.344 394.835 360.281 394.391 359.173 394.09L358.741 391.489C358.659 391.042 358.426 390.638 358.081 390.344C357.736 390.049 357.301 389.882 356.847 389.87H354.653C354.193 389.871 353.748 390.034 353.395 390.33C353.042 390.625 352.805 391.036 352.723 391.489L352.28 394.03C351.174 394.33 350.11 394.769 349.115 395.337L346.909 393.934C346.532 393.672 346.075 393.55 345.617 393.589C345.159 393.629 344.73 393.827 344.403 394.15L342.916 395.625C342.589 395.949 342.388 396.379 342.348 396.838C342.309 397.297 342.434 397.755 342.701 398.13L344.187 400.252C343.611 401.245 343.167 402.309 342.869 403.417L340.339 403.861C339.884 403.94 339.471 404.176 339.173 404.529C338.874 404.882 338.71 405.329 338.708 405.791V407.949C338.71 408.411 338.874 408.858 339.173 409.211C339.471 409.564 339.884 409.8 340.339 409.879L342.869 410.323C343.17 411.43 343.613 412.494 344.187 413.488L342.701 415.598C342.434 415.973 342.309 416.431 342.348 416.89C342.388 417.349 342.589 417.779 342.916 418.103L344.439 419.626C344.763 419.953 345.193 420.155 345.652 420.194C346.111 420.234 346.569 420.109 346.945 419.842L349.055 418.367C350.052 418.939 351.12 419.379 352.232 419.674L352.675 422.215C352.752 422.671 352.989 423.083 353.342 423.38C353.696 423.677 354.144 423.837 354.605 423.834H356.787C357.248 423.833 357.693 423.67 358.046 423.374C358.398 423.079 358.636 422.668 358.718 422.215L359.161 419.674C360.269 419.379 361.333 418.94 362.326 418.367L364.4 419.818C364.776 420.08 365.232 420.201 365.689 420.159C366.145 420.118 366.572 419.916 366.894 419.59L368.428 418.067C368.753 417.744 368.952 417.316 368.991 416.86C369.031 416.404 368.908 415.948 368.644 415.574L367.158 413.44C367.732 412.446 368.175 411.382 368.476 410.275L371.018 409.819C371.471 409.743 371.882 409.508 372.179 409.157C372.475 408.805 372.637 408.36 372.636 407.901V405.743C372.626 405.292 372.459 404.858 372.163 404.517C371.868 404.176 371.463 403.948 371.018 403.873V403.873ZM355.672 413.608C354.334 413.61 353.025 413.215 351.911 412.473C350.798 411.731 349.929 410.675 349.416 409.439C348.903 408.203 348.768 406.843 349.028 405.53C349.289 404.217 349.933 403.011 350.879 402.065C351.826 401.118 353.031 400.474 354.344 400.214C355.657 399.953 357.017 400.088 358.253 400.601C359.489 401.115 360.545 401.983 361.287 403.097C362.03 404.211 362.424 405.52 362.422 406.858V406.858C362.424 407.745 362.25 408.623 361.911 409.443C361.573 410.262 361.076 411.007 360.449 411.634C359.822 412.261 359.077 412.758 358.257 413.097C357.438 413.436 356.559 413.609 355.672 413.608V413.608Z" fill="white"/>
<path d="M459.338 74.3297H507.664C510.508 74.3376 513.326 73.7833 515.955 72.6986C518.584 71.6139 520.972 70.0202 522.983 68.0093C524.994 65.9983 526.588 63.6096 527.673 60.9806C528.757 58.3516 529.312 55.5342 529.304 52.6902C529.304 49.8513 528.744 47.0403 527.655 44.4182C526.567 41.7961 524.972 39.4146 522.962 37.4099C520.952 35.4053 518.566 33.817 515.941 32.7361C513.316 31.6551 510.503 31.1028 507.664 31.1107H459.338C453.615 31.1107 448.126 33.3842 444.079 37.4312C440.032 41.4781 437.759 46.967 437.759 52.6902V52.6902C437.751 55.5291 438.303 58.3417 439.384 60.9667C440.465 63.5918 442.053 65.9778 444.058 67.988C446.063 69.9982 448.444 71.5931 451.066 72.6813C453.688 73.7695 456.499 74.3297 459.338 74.3297V74.3297Z" fill="#9BBDF9"/>
<path d="M476.35 69.5461L460.669 84.9395L457.815 68.4072L476.35 69.5461Z" fill="#9BBDF9"/>
<path d="M476.254 45.8207C475.172 44.7621 473.715 44.1763 472.202 44.1921C470.689 44.2078 469.244 44.8238 468.185 45.9046L466.723 47.3912L465.224 45.9166C464.146 44.853 462.69 44.2612 461.176 44.2713C459.662 44.2814 458.213 44.8927 457.15 45.9705C456.086 47.0484 455.494 48.5046 455.505 50.0189C455.515 51.5331 456.126 52.9813 457.204 54.0449L462.766 59.5117C463.3 60.0387 463.933 60.4548 464.628 60.7361C465.324 61.0173 466.068 61.1581 466.818 61.1503C467.568 61.1425 468.309 60.9862 468.999 60.6906C469.688 60.395 470.312 59.9658 470.835 59.4278L476.386 53.949C476.916 53.4093 477.333 52.7697 477.614 52.0673C477.895 51.3648 478.033 50.6136 478.021 49.8572C478.008 49.1009 477.846 48.3545 477.542 47.6615C477.239 46.9686 476.801 46.3428 476.254 45.8207V45.8207Z" fill="white"/>
<path d="M487.164 47.7389H509.403" stroke="white" stroke-width="1.02" stroke-linecap="round" stroke-linejoin="round"/>
<path d="M487.164 53.901H498.901" stroke="white" stroke-width="1.02" stroke-linecap="round" stroke-linejoin="round"/>
<path d="M414.189 503.522L399.97 511.351C399.198 511.79 398.589 512.468 398.236 513.284C397.884 514.099 397.806 515.007 398.016 515.871C398.388 517.297 399.599 518.388 402.812 518.448C409.837 518.592 440.947 513.401 440.947 513.401V517.909L455.478 517.993C455.478 517.993 456.389 496.845 452.001 494.147L414.189 503.522Z" fill="#200902"/>
<path d="M433.226 487.937L414.177 503.523C414.177 503.523 416.634 510.548 427.484 505.86C438.334 501.173 451.941 494.111 451.941 494.111L450.011 485.959L433.226 487.937Z" fill="#ECC696"/>
<path d="M449.963 485.959L451.953 429.517L433.071 427.982V494.088L449.963 485.959Z" fill="#ECC696"/>
<path d="M416.347 260.045L424.247 479.845H460.86L462.731 242.29L416.347 260.045Z" fill="#3A2222"/>
<path d="M420.459 256.197L438.873 363.255C439.399 366.363 440.594 369.319 442.375 371.919C444.157 374.519 446.483 376.7 449.191 378.312C451.9 379.923 454.927 380.926 458.062 381.251C461.197 381.577 464.365 381.216 467.346 380.195C471.883 378.643 475.779 375.632 478.425 371.633C481.071 367.634 482.318 362.871 481.973 358.088L478.448 309.45C476.674 292.942 480.774 271.59 462.731 242.314L420.459 256.197Z" fill="#523332"/>
<path d="M517.291 498.103L509.391 512.274C508.969 513.059 508.815 513.96 508.951 514.84C509.088 515.72 509.507 516.532 510.146 517.153C511.213 518.16 512.819 518.436 515.529 516.818C521.523 513.221 545.177 492.313 545.177 492.313L547.574 496.101L559.935 488.453C559.935 488.453 549.492 470.05 544.349 470.098L517.291 498.103Z" fill="#200902"/>
<path d="M525.192 474.81L517.291 498.104C517.291 498.104 523.106 502.755 529.819 493.032C536.533 483.31 544.314 470.098 544.314 470.098L538.319 464.248L525.192 474.81Z" fill="#ECC696"/>
<path d="M538.319 464.26L510.05 415.358L493.242 424.074L528.309 480.109L538.319 464.26Z" fill="#ECC696"/>
<path d="M441.619 370.772L509.678 472.268L541.4 451.935L475.619 341.496L441.619 370.772Z" fill="#523332"/>
<path d="M390.847 82.2661C390.847 82.2661 375.682 80.3239 373.751 94.6144C372.277 105.26 377.18 110.511 373.344 119.083C369.507 127.655 376.701 135.316 376.701 135.316C376.701 135.316 394.624 143.636 414.081 126.612L390.847 82.2661Z" fill="#DC761C"/>
<path d="M396.722 130.149L404.922 151.465L422.09 146.897L406.241 116.254L396.722 130.149Z" fill="#ECC696"/>
<path d="M400.642 140.339L404.154 124.718L397.764 132.846L400.642 140.339Z" fill="black"/>
<path d="M388.929 85.4673C388.929 85.4673 378.739 87.6253 378.727 100.561C378.727 100.561 378.247 105.5 378.894 118.976C379.35 128.566 383.846 135.124 392.801 134.213C397.153 133.769 401.697 131.12 405.773 127.691L411.479 121.877C424.667 105.776 410.904 81.5231 390.416 85.1796L388.929 85.4673Z" fill="#ECC696"/>
<path d="M379.542 111.494L375.945 117.836C375.514 118.508 375.741 119.539 376.617 119.587L381.304 120.198L379.542 111.494Z" fill="#ECC696"/>
<path d="M403.627 107.682C403.998 104.757 406.024 84.388 390.727 87.0255C390.228 87.108 389.716 87.0156 389.277 86.7638C388.839 86.5121 388.5 86.1165 388.32 85.6441C388.139 85.1716 388.128 84.6513 388.287 84.1712C388.446 83.691 388.766 83.2806 389.192 83.0093C394.647 79.6046 403.303 77.2548 415.831 82.0742C420.914 84.0404 427.916 90.73 427.916 97.3118C427.916 111.446 423.216 118.616 414.932 125.881C414.833 125.971 414.715 126.037 414.587 126.073C414.458 126.11 414.323 126.117 414.192 126.092C414.061 126.068 413.937 126.013 413.83 125.933C413.724 125.852 413.637 125.748 413.577 125.629L408.242 115.319C408.238 115.283 408.238 115.247 408.242 115.211C407.655 113.329 404.646 109.396 403.855 108.317C403.776 108.232 403.715 108.132 403.676 108.023C403.637 107.914 403.62 107.798 403.627 107.682V107.682Z" fill="#DC761C"/>
<path d="M393.412 82.0267C374.231 90.8623 402.308 111.926 402.308 111.926L410.208 96.3411C410.208 96.3411 396.625 80.5401 393.412 82.0267Z" fill="#DC761C"/>
<path d="M380.693 99.6375L390.847 103.102C389.563 100.96 387.702 99.2234 385.476 98.091C380.645 95.7173 380.693 99.6375 380.693 99.6375Z" fill="black"/>
<path d="M382.875 106.567C383.844 106.773 384.719 107.29 385.368 108.039C386.017 108.787 386.404 109.727 386.471 110.715C386.591 114.12 382.875 113.892 382.875 113.892C382.875 113.892 379.566 109.768 382.875 106.567Z" fill="white"/>
<path d="M383.522 105.692C383.522 105.692 386.171 110.619 382.767 113.892L380.861 113.7L380.777 108.281L383.522 105.692Z" fill="black"/>
<path d="M382.011 105.716C382.584 105.754 383.146 105.884 383.678 106.1C384.194 106.312 384.672 106.607 385.092 106.975C385.502 107.336 385.84 107.771 386.087 108.258C386.332 108.729 386.505 109.234 386.603 109.756C386.614 109.807 386.605 109.86 386.579 109.905C386.552 109.949 386.509 109.982 386.459 109.996C386.411 110.007 386.361 110 386.319 109.975C386.277 109.951 386.245 109.911 386.231 109.864V109.864C386.081 109.41 385.863 108.982 385.584 108.593C385.316 108.217 384.978 107.895 384.589 107.646C384.223 107.4 383.817 107.218 383.39 107.107C382.966 107.008 382.53 106.972 382.095 106.999V106.999C381.925 107.012 381.757 106.958 381.627 106.848C381.497 106.738 381.415 106.581 381.4 106.412C381.393 106.328 381.403 106.244 381.429 106.164C381.455 106.085 381.497 106.011 381.552 105.948C381.606 105.884 381.673 105.832 381.748 105.794C381.822 105.757 381.904 105.734 381.987 105.728L382.011 105.716Z" fill="black"/>
<path d="M379.518 121.973C379.27 121.99 379.037 122.094 378.86 122.267C378.683 122.439 378.573 122.67 378.55 122.916C378.527 123.163 378.592 123.409 378.734 123.612C378.876 123.815 379.086 123.96 379.326 124.023C379.326 124.023 377.851 125.521 380.081 126.013C382.311 126.504 384.397 122.716 384.397 122.716C381.675 123.315 381.112 121.721 379.518 121.973Z" fill="#C7181B"/>
<path d="M405.054 116.29C405.754 122.26 405.823 128.288 405.258 134.273C405.258 134.273 429.463 142.053 440.468 114.503C440.468 114.503 433.443 111.794 431.285 105.752C429.127 99.7095 431.285 78.7055 402.992 79.3768C402.992 79.3528 403.711 106.699 405.054 116.29Z" fill="#DC761C"/>
<path d="M414.357 111.746C414.517 113.026 414.295 114.325 413.717 115.479C413.14 116.633 412.233 117.589 411.112 118.227C409.99 118.866 408.705 119.157 407.418 119.064C406.131 118.972 404.901 118.5 403.882 117.708C402.864 116.916 402.103 115.839 401.696 114.615C401.29 113.391 401.255 112.073 401.597 110.829C401.94 109.585 402.643 108.471 403.619 107.627C404.595 106.783 405.799 106.247 407.079 106.087C408.794 105.877 410.522 106.354 411.886 107.415C413.25 108.475 414.138 110.032 414.357 111.746V111.746Z" fill="#ECC696"/>
<path d="M405.054 115.319C405.054 115.319 405.305 110.344 409.406 110.26" stroke="black" stroke-width="0.51" stroke-linecap="round" stroke-linejoin="round"/>
<path d="M447.205 163.261L487.331 195.763C488.688 196.928 489.794 198.357 490.581 199.963C491.368 201.57 491.821 203.319 491.91 205.106C492 206.892 491.725 208.678 491.103 210.355C490.481 212.032 489.524 213.565 488.29 214.861V214.861C485.98 217.258 482.849 218.694 479.524 218.878C476.2 219.063 472.929 217.983 470.367 215.856L426.813 181.352L447.205 163.261Z" fill="#ECC696"/>
<path d="M471.279 175.19C471.279 175.19 469.564 188.137 447.014 202.991L416.359 180.213C414.336 178.709 412.649 176.801 411.405 174.609C410.161 172.417 409.388 169.99 409.134 167.482C408.88 164.975 409.151 162.442 409.931 160.045C410.711 157.649 411.981 155.441 413.661 153.562C416.511 150.365 420.4 148.28 424.639 147.677C428.879 147.073 433.195 147.99 436.823 150.265L471.279 175.19Z" fill="#467AC9"/>
<path d="M470.535 216.323L510.35 267.466L520.108 256.029L490.353 199.215C489.209 197.689 487.748 196.429 486.07 195.522C484.393 194.616 482.538 194.083 480.635 193.963C478.732 193.842 476.825 194.135 475.046 194.823C473.268 195.51 471.659 196.575 470.332 197.944V197.944C467.968 200.432 466.666 203.743 466.704 207.175C466.742 210.606 468.117 213.888 470.535 216.323Z" fill="#ECC696"/>
<path d="M508.024 265.297L507.616 267.862C507.063 271.3 507.33 274.821 508.396 278.136L510.266 283.975C510.379 284.29 510.557 284.578 510.788 284.82C511.019 285.062 511.299 285.253 511.608 285.38C511.917 285.508 512.25 285.569 512.585 285.561C512.919 285.552 513.248 285.473 513.551 285.33C514.086 285.054 514.526 284.625 514.814 284.097C515.103 283.569 515.226 282.967 515.169 282.368L514.558 275.882L527.505 294.213C527.651 294.428 527.84 294.61 528.06 294.746C528.281 294.883 528.528 294.971 528.785 295.005C529.042 295.039 529.304 295.018 529.552 294.944C529.801 294.869 530.031 294.743 530.227 294.573L530.778 294.093C531.098 293.818 531.311 293.439 531.381 293.023C531.451 292.608 531.373 292.18 531.162 291.815L522.902 279.167L534.399 292.355C534.557 292.56 534.757 292.729 534.985 292.851C535.213 292.973 535.464 293.046 535.723 293.064C535.981 293.082 536.24 293.045 536.483 292.956C536.726 292.867 536.947 292.727 537.132 292.547L537.516 292.163C537.83 291.852 538.02 291.437 538.051 290.996C538.082 290.555 537.952 290.117 537.684 289.765L528.177 277.513L537.432 285.222C537.635 285.404 537.877 285.538 538.139 285.614C538.402 285.69 538.678 285.706 538.947 285.661C539.216 285.616 539.472 285.512 539.695 285.355C539.919 285.198 540.104 284.992 540.237 284.754L540.357 284.538C540.545 284.198 540.619 283.806 540.569 283.42C540.52 283.035 540.349 282.675 540.082 282.392L531.03 273.701L536.713 277.105C536.953 277.301 537.239 277.431 537.544 277.485C537.849 277.539 538.162 277.515 538.455 277.414C538.748 277.313 539.01 277.14 539.217 276.909C539.424 276.679 539.569 276.4 539.638 276.098V276.098C539.708 275.793 539.699 275.475 539.611 275.175C539.523 274.875 539.358 274.602 539.134 274.384L516.044 252.804L511.321 258.199C509.581 260.211 508.439 262.67 508.024 265.297V265.297Z" fill="#ECC696"/>
<path d="M416.526 146.261C416.526 146.261 400.749 144.739 400.545 173.236C400.342 201.733 409.357 215.268 416.346 260.069C416.346 260.069 443.093 256.796 462.73 242.314C462.73 242.29 463.953 137.342 416.526 146.261Z" fill="#4479FA"/>
<path d="M413.337 184.421L376.029 220.123C374.701 221.321 373.144 222.237 371.451 222.814C369.759 223.392 367.967 223.619 366.184 223.482C364.401 223.346 362.664 222.848 361.08 222.019C359.495 221.19 358.096 220.047 356.967 218.661C354.881 216.067 353.853 212.781 354.089 209.462C354.324 206.142 355.806 203.034 358.238 200.762L397.968 161.906L413.337 184.421Z" fill="#ECC696"/>
<path d="M403.171 207.056C403.171 207.056 390.152 206.612 376.796 180.081L403.04 152.316C404.771 150.484 406.864 149.033 409.187 148.055C411.51 147.078 414.011 146.595 416.531 146.638C419.051 146.681 421.534 147.248 423.823 148.304C426.111 149.36 428.154 150.882 429.822 152.771V152.771C432.653 155.98 434.259 160.086 434.356 164.364C434.452 168.642 433.033 172.816 430.35 176.149L403.171 207.056Z" fill="#4479FA"/>
<path d="M406.768 202.956L424.703 182.551" stroke="black" stroke-width="0.51" stroke-linecap="round" stroke-linejoin="round"/>
<path d="M375.382 201.157L322.224 160.936L315.247 171.881L357.207 219.056C358.411 220.473 359.909 221.609 361.598 222.386C363.286 223.163 365.124 223.562 366.983 223.555C368.841 223.548 370.676 223.136 372.359 222.346C374.041 221.557 375.531 220.409 376.725 218.984C378.879 216.429 379.945 213.13 379.694 209.797C379.443 206.463 377.895 203.362 375.382 201.157Z" fill="#ECC696"/>
<path d="M329.262 172.037C327.26 178.775 320.762 178.511 307.982 174.926C301.208 173.032 298.763 168.237 300.789 161.499C301.264 159.897 302.051 158.404 303.104 157.106C304.157 155.807 305.455 154.729 306.925 153.933C308.394 153.137 310.007 152.639 311.669 152.466C313.332 152.293 315.012 152.45 316.614 152.927C323.327 154.929 331.324 165.311 329.262 172.037Z" fill="#ECC696"/>
<path d="M318.927 153.886L302.683 144.439C302.166 144.083 301.529 143.943 300.911 144.051C300.292 144.158 299.74 144.504 299.374 145.015V145.015C299.065 145.443 298.929 145.973 298.993 146.497C299.058 147.022 299.318 147.503 299.721 147.844L312.321 158.502L318.927 153.886Z" fill="#ECC696"/>
</svg>
