<svg width="728" height="756" viewBox="0 0 728 756" fill="none" xmlns="http://www.w3.org/2000/svg">
<path fill-rule="evenodd" clip-rule="evenodd" d="M450.513 170.198C450.921 170.453 451.483 170.607 452.147 170.964C454.292 176.173 455.109 177.705 454.7 178.216C454.343 178.624 454.394 178.42 454.19 179.441C453.934 180.871 458.939 187.051 459.705 188.991C460.42 190.727 460.471 192.362 459.858 194.2C458.786 197.417 456.896 200.533 454.547 203.188C452.555 205.435 450.359 206.814 448.47 206.405C446.121 205.895 446.529 203.801 446.887 201.707C446.989 200.941 448.419 199.307 448.317 198.592C447.704 194.455 444.64 190.83 442.393 187.204C440.452 185.416 437.235 183.527 435.447 181.484C432.843 178.522 432.383 175.356 435.601 173.569C436.622 173.007 439.175 170.096 440.503 170.198C443.108 170.351 447.295 168.308 450.513 170.198Z" fill="#202249"/>
<path fill-rule="evenodd" clip-rule="evenodd" d="M364.156 158.248C362.42 162.997 363.798 167.185 367.577 168.972L367.629 169.023C367.782 169.074 367.935 169.126 368.088 169.177C368.497 169.33 368.905 169.483 369.314 169.585C373.859 170.913 380.651 172.139 384.788 172.956C401.385 176.122 426.051 178.114 437.694 182.505C442.239 179.186 443.618 172.956 440.605 169.228C427.94 163.202 410.832 155.388 403.683 152.733C402.049 152.12 399.955 151.813 397.708 151.711C408.381 142.059 419.718 131.641 424.11 122.755C427.225 116.474 427.736 107.741 429.881 102.277C412.467 107.384 409.096 96.8639 405.93 93.1359C403.172 97.1703 403.274 96.4042 400.465 100.745C391.069 115.3 377.229 135.931 367.782 151.252C366.25 153.499 364.769 156.052 364.156 158.248Z" fill="url(#paint0_linear)"/>
<path opacity="0.3" fill-rule="evenodd" clip-rule="evenodd" d="M421.046 160.138C413.948 156.92 407.462 154.112 403.734 152.733C402.1 152.12 400.006 151.813 397.759 151.711C408.432 142.059 419.77 131.641 424.161 122.756C427.277 116.474 427.787 107.741 429.932 102.277C425.03 103.707 421.251 103.911 418.237 103.35L418.697 106.771C405.266 120.151 380.804 151.303 378.506 171.628C386.728 173.569 409.198 176.428 412.773 176.837C413.743 170.811 417.676 166.01 421.046 160.138ZM408.79 97.1703C407.666 95.6383 406.798 94.2084 405.93 93.187C404.194 95.7404 403.581 96.4043 402.662 97.63L408.79 97.1703Z" fill="#1E2353"/>
<path fill-rule="evenodd" clip-rule="evenodd" d="M418.901 237.659C421.353 241.03 414.765 258.087 413.131 261.712C411.701 264.879 412.16 266.819 415.531 266.87C418.186 266.921 422.374 263.142 424.927 260.691C429.728 256.095 429.983 251.397 431.413 249.405L433.047 248.894C434.222 248.23 437.797 243.583 437.95 241.847C437.592 240.672 436.877 238.63 436.111 237.098C433.507 232.297 432.945 234.391 429.472 231.429C425.54 234.289 428.349 235.412 418.901 237.659Z" fill="#202249"/>
<path fill-rule="evenodd" clip-rule="evenodd" d="M387.596 179.237C394.746 193.077 412.569 224.381 418.85 238.272C424.416 239.447 430.034 236.178 430.494 231.837C426.459 218.509 419.871 196.549 416.603 189.553C414.458 184.906 410.475 178.777 406.849 174.079C417.42 159.269 434.222 135.982 439.022 122.296C445.61 103.707 438.052 93.0848 427.889 87.263C424.263 85.1692 420.382 88.5397 418.544 86.2927C414.203 94.7701 410.322 106.26 407.768 116.576C404.244 130.978 387.392 161.619 386.115 171.883C385.962 174.028 386.268 176.02 387.137 177.705C387.29 178.216 387.392 178.726 387.596 179.237Z" fill="url(#paint1_linear)"/>
<path opacity="0.3" fill-rule="evenodd" clip-rule="evenodd" d="M671.536 730.724L184.038 456.538C177.91 453.729 168.82 451.074 162.794 454.802L147.371 464.249C144.256 466.139 134.042 472.42 140.886 476.148C161.006 487.026 611.123 741.652 631.55 752.734C635.431 754.828 641.049 755.594 646.972 755.083C652.896 754.573 659.025 752.99 663.672 750.079L669.851 746.249C674.192 743.542 676.643 740.631 676.847 737.771C677.052 735.014 675.315 732.46 671.536 730.724Z" fill="#955CF1"/>
<path fill-rule="evenodd" clip-rule="evenodd" d="M239.958 9.74125C236.588 7.85173 232.655 7.13677 228.978 8.51562L220.705 11.7329C217.692 27.2577 645.492 738.486 649.322 742.418L656.676 739.661C661.527 737.771 664.029 732.715 664.744 727.813L726.946 303.435V303.384C727.967 296.235 725.822 288.83 721.89 282.855C719.796 279.637 716.987 276.675 713.566 274.837L239.958 9.74125Z" fill="url(#paint2_linear)"/>
<path fill-rule="evenodd" clip-rule="evenodd" d="M705.446 278.003L231.787 12.8563C222.85 7.90271 214.322 12.6521 212.739 23.4785L150.588 447.805C149.005 458.632 154.98 471.399 163.917 476.352L637.576 741.499C646.513 746.453 655.092 741.703 656.675 730.928L718.826 306.55C720.409 295.775 714.434 283.008 705.446 278.003Z" fill="url(#paint3_linear)"/>
<path fill-rule="evenodd" clip-rule="evenodd" d="M705.446 278.003L231.787 12.8563C222.85 7.90271 214.322 12.6521 212.739 23.4785L210.645 37.7777L716.681 321.054L718.826 306.601C720.409 295.775 714.434 283.008 705.446 278.003Z" fill="#4A9FF8"/>
<path fill-rule="evenodd" clip-rule="evenodd" d="M228.876 23.4276C232.451 24.2446 235.209 28.5344 235.056 32.9773C234.851 37.4203 231.787 40.3822 228.212 39.5651C224.638 38.748 221.88 34.4583 222.033 30.0154C222.186 25.5724 225.251 22.6105 228.876 23.4276Z" fill="#5858F0"/>
<path fill-rule="evenodd" clip-rule="evenodd" d="M245.218 32.8242C248.793 33.6413 251.551 37.931 251.397 42.3739C251.193 46.8169 248.129 49.7788 244.554 48.9617C240.979 48.1447 238.222 43.8549 238.375 39.412C238.579 34.969 241.643 32.0071 245.218 32.8242Z" fill="#5858F0"/>
<path fill-rule="evenodd" clip-rule="evenodd" d="M262.939 43.1398C266.514 43.9569 269.271 48.2467 269.118 52.6896C268.914 57.1326 265.85 60.0945 262.275 59.2774C258.7 58.4603 255.942 54.1706 256.096 49.7277C256.249 45.2847 259.313 42.3227 262.939 43.1398Z" fill="#5858F0"/>
<path opacity="0.5" fill-rule="evenodd" clip-rule="evenodd" d="M647.84 425.131L562.761 378.403C557.807 375.646 553.007 375.288 548.972 376.871C543.814 378.863 539.933 384.123 538.81 391.732L529.158 460.93C527.166 474.514 534.673 490.6 545.908 496.831L630.988 543.558C642.274 549.789 652.998 543.814 654.99 530.229L664.642 461.032C666.634 447.448 659.126 431.361 647.84 425.131Z" fill="url(#paint4_linear)"/>
<path opacity="0.5" fill-rule="evenodd" clip-rule="evenodd" d="M523.285 181.74L709.837 272.743L704.884 277.799L686.959 402.967C685.12 415.786 675.366 421.505 665.152 415.683L490.601 315.794L475.434 281.936L523.285 181.74Z" fill="url(#paint5_linear)"/>
<path opacity="0.5" fill-rule="evenodd" clip-rule="evenodd" d="M289.035 374.88L173.671 310.942L169.79 316.815L150.844 445.814L270.293 512.049C282.957 519.046 295.01 512.356 297.257 497.086L307.828 415.224C310.126 399.954 301.7 381.876 289.035 374.88Z" fill="url(#paint6_linear)"/>
<path fill-rule="evenodd" clip-rule="evenodd" d="M283.928 403.121L270.139 493.665L272.335 493.92L278.31 491.622C284.847 489.069 288.269 482.225 289.239 475.638L299.35 397.146V397.095C300.729 387.443 297.818 377.382 292.507 369.313C289.647 364.973 285.868 360.989 281.272 358.487L42.2215 225.914C37.6764 223.309 32.3653 222.39 27.3606 224.228L22.1006 226.271C19.445 227.241 18.6279 228.058 18.6279 228.212C21.1303 251.397 287.4 379.425 283.928 403.121Z" fill="#D0E7FF"/>
<path fill-rule="evenodd" clip-rule="evenodd" d="M275.297 360.785L36.2464 228.314C30.9353 225.352 25.7263 224.943 21.3855 226.628C15.819 228.773 11.6314 234.442 10.4569 242.664L0.345334 321.156C-1.79954 335.761 6.26926 353.074 18.3725 359.815L257.423 492.337C269.526 499.078 281.119 492.643 283.264 477.987L293.375 399.495C295.52 384.838 287.4 367.526 275.297 360.785Z" fill="url(#paint7_linear)"/>
<path opacity="0.5" fill-rule="evenodd" clip-rule="evenodd" d="M272.437 385.247L107.486 294.498C106.21 293.783 104.984 293.681 103.912 294.09C102.584 294.6 101.562 295.979 101.307 297.92L100.388 303.435C99.8772 306.908 101.818 311.044 104.678 312.679L269.679 403.427C272.59 405.01 275.348 403.478 275.859 400.005L276.778 394.49C277.289 390.966 275.348 386.83 272.437 385.247ZM180.565 406.593C183.476 408.176 185.417 412.364 184.906 415.837L183.987 421.352C183.476 424.825 180.718 426.408 177.807 424.773L94.8215 380.089C91.9106 378.506 90.021 374.318 90.5317 370.845L91.4509 365.33C91.7574 363.389 92.7277 362.011 94.0554 361.5C95.0768 361.091 96.3535 361.193 97.6302 361.908L180.565 406.593ZM267.535 418.952C270.445 420.535 272.386 424.722 271.875 428.195L270.956 433.71C270.445 437.183 267.688 438.766 264.777 437.132L99.7751 346.384C96.8642 344.8 94.9747 340.613 95.4853 337.14L96.4046 331.625C96.711 329.684 97.6813 328.305 99.0091 327.795C100.03 327.386 101.307 327.488 102.584 328.203L267.535 418.952Z" fill="#FFFCF1"/>
<path opacity="0.5" fill-rule="evenodd" clip-rule="evenodd" d="M54.8862 292.864C47.0728 288.523 38.7997 294.396 38.9018 305.682C38.9529 311.504 41.4042 317.53 45.3364 321.309C46.3578 322.279 47.4302 323.096 48.5027 323.658C56.2651 327.999 64.5381 322.126 64.4871 310.891C64.4871 305.018 61.9847 298.992 58.1035 295.213C57.0311 294.294 55.9587 293.477 54.8862 292.864ZM47.3792 328.969C45.9493 328.152 44.5193 327.131 43.1405 325.803C37.8805 320.747 34.561 312.627 34.51 304.763C34.4078 289.647 45.5407 281.731 56.0097 287.553C57.4907 288.37 58.9206 289.442 60.2995 290.77C65.5595 295.826 68.8279 303.895 68.8789 311.759C68.93 326.927 57.8482 334.791 47.3792 328.969ZM83.0759 316.1C84.9144 317.121 85.9868 319.777 85.4761 322.075L83.5866 330.961C83.0759 333.208 81.2375 334.229 79.399 333.208L78.4798 332.697C77.1009 331.931 75.6199 332.34 74.8029 333.719C74.2922 334.587 73.7304 335.455 73.1176 336.221C72.1473 337.447 71.9941 339.438 72.7601 341.226L73.2708 342.451C74.19 344.749 73.6283 347.354 72.0452 348.222L65.6106 351.695C64.7935 352.154 63.8742 352.052 63.0061 351.593C62.1379 351.133 61.423 350.265 60.9123 349.09L60.4016 347.916C59.942 346.792 59.176 345.924 58.3589 345.464C57.8482 345.209 57.3375 345.056 56.8268 345.056C55.9076 345.056 54.9884 345.005 54.0691 344.954C52.5881 344.801 51.3625 345.873 51.005 347.609L50.7497 348.784C50.239 351.031 48.4005 352.052 46.5621 351.031L39.4125 347.048C37.5741 346.026 36.5016 343.371 36.9612 341.124L37.2166 339.949C37.5741 338.213 37.0123 336.17 35.8377 334.842C35.0717 333.974 34.3568 333.106 33.6418 332.238C33.2332 331.727 32.7736 331.267 32.263 331.012C31.3948 330.552 30.4756 330.501 29.7095 330.91L28.8924 331.318C28.0753 331.778 27.1561 331.676 26.288 331.216C25.4198 330.757 24.7048 329.889 24.1942 328.714L20.4662 319.624C19.5469 317.326 20.1087 314.721 21.6918 313.853L22.56 313.393C23.8367 312.73 24.4495 310.993 24.1942 309.053C24.041 307.827 23.8877 306.601 23.8367 305.376C23.7345 303.486 22.7132 301.699 21.3343 300.933L20.4151 300.422C18.5766 299.401 17.5042 296.745 17.9638 294.498L19.8533 285.612C20.364 283.314 22.2025 282.293 24.0409 283.314L24.9602 283.825C26.339 284.591 27.82 284.182 28.6371 282.804C29.1478 281.935 29.7095 281.067 30.3224 280.301C31.2927 279.076 31.4459 277.084 30.6798 275.297L30.1691 274.122C29.2499 271.824 29.8117 269.219 31.3948 268.3L37.8294 264.828C38.6465 264.368 39.5657 264.47 40.4339 264.93C41.302 265.389 42.017 266.257 42.5277 267.432L43.0384 268.607C43.498 269.73 44.264 270.598 45.0811 271.058C45.5918 271.313 46.1025 271.466 46.6132 271.466C47.5324 271.415 48.4516 271.466 49.3708 271.569C50.8518 271.722 52.0775 270.7 52.4349 268.964L52.6903 267.789C53.201 265.491 55.0394 264.47 56.8779 265.491L64.0274 269.475C65.8659 270.496 66.9383 273.152 66.4277 275.45L66.1723 276.624C65.8148 278.361 66.3766 280.403 67.5512 281.68C68.3172 282.548 69.0832 283.416 69.7471 284.336C70.1556 284.846 70.6153 285.255 71.1259 285.561C71.9941 286.021 72.9133 286.072 73.6794 285.663L74.5475 285.204C75.3646 284.744 76.2838 284.846 77.152 285.306C78.0202 285.766 78.7351 286.634 79.2458 287.808L82.9738 296.898C83.893 299.197 83.3313 301.801 81.7481 302.72L80.88 303.18C79.6033 303.844 78.9905 305.58 79.2458 307.47C79.399 308.695 79.5522 309.921 79.6033 311.146C79.7054 313.036 80.7268 314.823 82.1056 315.589L83.0759 316.1Z" fill="#FFFCF1"/>
<path opacity="0.5" fill-rule="evenodd" clip-rule="evenodd" d="M262.07 75.5174L210.491 50.5961L190.115 178.012L187.51 195.937L241.132 224.892C250.478 230.05 259.364 225.097 260.998 213.861L275.961 105.29C277.595 94.0041 271.365 80.6753 262.07 75.5174Z" fill="url(#paint8_linear)"/>
<path fill-rule="evenodd" clip-rule="evenodd" d="M255.789 105.801L239.702 209.674L241.388 209.878L245.984 208.091C250.988 206.099 253.644 200.89 254.41 195.783L267.688 101.154V101.102C268.76 93.6976 266.513 85.9352 262.428 79.7559C260.232 76.4365 257.321 73.3724 253.797 71.4318L155.082 17.8101C151.609 15.8184 147.473 15.1034 143.643 16.5334L139.608 18.1165C137.566 18.8825 136.953 19.4953 136.953 19.5975C138.842 37.4203 258.444 87.5694 255.789 105.801Z" fill="#D0E7FF"/>
<path fill-rule="evenodd" clip-rule="evenodd" d="M249.15 73.2193L150.486 19.6486C146.401 17.4016 142.418 17.0441 139.047 18.3719C134.757 20.0572 131.54 24.398 130.621 30.6794L117.343 125.309C115.709 136.544 121.888 149.873 131.234 155.031L229.898 208.652C239.243 213.81 248.129 208.857 249.763 197.622L263.041 102.992C264.675 91.7571 258.445 78.4282 249.15 73.2193Z" fill="url(#paint9_linear)"/>
<path fill-rule="evenodd" clip-rule="evenodd" d="M230.868 183.323L131.744 130.109C129.446 128.884 127.25 130.16 126.842 132.969C126.433 135.727 127.914 138.944 130.161 140.17L229.285 193.383C231.583 194.609 233.779 193.383 234.238 190.523C234.647 187.817 233.115 184.548 230.868 183.323ZM235.26 154.52C237.558 155.746 239.09 159.014 238.63 161.721C238.171 164.58 235.975 165.806 233.677 164.58L134.604 111.367C132.306 110.142 130.825 106.924 131.285 104.167C131.744 101.307 133.889 100.081 136.187 101.307L235.26 154.52ZM245.473 89.2036L146.35 35.9904C144.052 34.7648 141.856 36.0415 141.447 38.7481L140.324 45.7956C139.915 48.5533 141.396 51.7706 143.643 52.9962L242.767 106.209C245.065 107.435 247.261 106.209 247.72 103.452L248.793 96.4043C249.303 93.6466 247.771 90.4293 245.473 89.2036ZM239.754 125.922C242.052 127.147 243.584 130.365 243.124 133.122C242.665 136.033 240.469 137.208 238.171 135.982L139.047 82.769C136.749 81.5434 135.268 78.3772 135.676 75.6195C136.136 72.7086 138.332 71.534 140.579 72.7596L239.754 125.922Z" fill="#FFFCF1"/>
<path fill-rule="evenodd" clip-rule="evenodd" d="M643.346 457.355L631.601 529.719L633.439 529.923L638.444 527.983C643.908 525.838 646.768 520.118 647.585 514.603L656.267 452.3V452.249C657.39 444.18 654.99 435.753 650.547 429.012C648.147 425.387 645.032 422.067 641.151 419.973L564.548 377.944C560.769 375.799 556.275 374.982 552.138 376.565L547.747 378.302C545.551 379.119 544.836 379.783 544.887 379.936C546.93 399.24 646.257 437.541 643.346 457.355Z" fill="#D0E7FF"/>
<path fill-rule="evenodd" clip-rule="evenodd" d="M636.146 421.965L559.544 379.936C555.101 377.484 550.76 377.127 547.134 378.557C542.487 380.395 539.014 385.093 537.993 391.937L529.311 454.24C527.524 466.445 534.265 480.949 544.376 486.566L620.979 528.595C631.141 534.213 640.793 528.851 642.581 516.594L651.262 454.291C653.05 442.086 646.258 427.582 636.146 421.965Z" fill="white"/>
<path fill-rule="evenodd" clip-rule="evenodd" d="M602.748 426.254C603.309 427.378 603.514 428.552 603.36 429.829C603.258 430.748 602.748 432.28 601.982 434.374L585.64 479.723C585.129 481.255 584.618 482.378 584.261 483.196C583.852 484.013 583.393 484.523 582.78 484.779C582.218 485.034 581.452 484.881 580.431 484.217C577.979 482.685 576.907 480.54 577.213 477.987C577.316 477.323 577.724 475.74 578.541 473.237L594.832 427.888C595.649 425.488 596.415 423.905 597.028 423.19C597.641 422.475 598.662 422.526 600.041 423.395C601.318 424.212 602.237 425.131 602.748 426.254ZM607.139 438.051L605.658 450.665L629.763 478.65L602.748 475.229L601.267 487.894L640.181 490.958L641.457 480.234L607.139 438.051ZM539.167 428.45L573.434 470.633L574.915 457.968L550.913 429.829L577.826 433.506L579.358 420.739L540.444 417.624L539.167 428.45Z" fill="url(#paint10_linear)"/>
<path fill-rule="evenodd" clip-rule="evenodd" d="M342.656 429.114C344.035 419.718 351.185 415.53 358.692 419.82L469.714 482.43C477.17 486.72 482.124 497.852 480.745 507.3L465.986 607.803C464.608 617.199 457.407 621.387 449.951 617.097L338.928 554.487C331.472 550.197 326.519 539.065 327.898 529.617L342.656 429.114Z" fill="white"/>
<path fill-rule="evenodd" clip-rule="evenodd" d="M356.138 531.557L394.848 477.936L402.355 534.826L421.25 514.296L432.332 575.119L356.138 531.557Z" fill="url(#paint11_linear)"/>
<path fill-rule="evenodd" clip-rule="evenodd" d="M419.922 480.285C424.059 481.153 427.174 485.953 426.868 491.111C426.561 496.269 422.986 499.742 418.85 498.873C414.713 498.005 411.598 493.205 411.905 488.047C412.211 482.94 415.786 479.468 419.922 480.285Z" fill="#FFDB59"/>
<path opacity="0.2" fill-rule="evenodd" clip-rule="evenodd" d="M351.644 443.516C352.768 435.702 358.743 432.229 364.973 435.804L457.202 487.792C463.382 491.367 467.518 500.61 466.344 508.423L454.087 591.92C452.964 599.734 446.989 603.206 440.758 599.631L348.529 547.644C342.299 544.069 338.213 534.826 339.388 527.012L351.644 443.516Z" fill="url(#paint12_linear)"/>
<path fill-rule="evenodd" clip-rule="evenodd" d="M492.439 516.135C493.818 506.738 500.968 502.551 508.475 506.84L619.497 569.45C626.953 573.74 631.907 584.873 630.528 594.32L615.769 694.823C614.39 704.219 607.19 708.407 599.734 704.117L488.711 641.507C481.255 637.218 476.302 626.085 477.681 616.637L492.439 516.135Z" fill="white"/>
<path fill-rule="evenodd" clip-rule="evenodd" d="M505.973 618.578L544.683 564.956L552.19 621.795L571.034 601.316L582.167 662.139L505.973 618.578Z" fill="url(#paint13_linear)"/>
<path fill-rule="evenodd" clip-rule="evenodd" d="M569.757 567.305C573.894 568.173 577.009 572.974 576.703 578.132C576.396 583.29 572.821 586.762 568.685 585.894C564.548 585.026 561.433 580.225 561.74 575.068C561.995 569.961 565.621 566.488 569.757 567.305Z" fill="#FFDB59"/>
<path opacity="0.2" fill-rule="evenodd" clip-rule="evenodd" d="M501.479 530.536C502.602 522.723 508.577 519.25 514.807 522.825L607.037 574.812C613.216 578.387 617.353 587.631 616.178 595.444L603.922 678.941C602.798 686.754 596.823 690.227 590.593 686.652L498.363 634.664C492.133 631.09 488.048 621.846 489.222 614.033L501.479 530.536Z" fill="url(#paint14_linear)"/>
<path fill-rule="evenodd" clip-rule="evenodd" d="M324.578 11.0691C314.722 16.8908 319.42 30.2707 328.408 44.4167C341.124 64.5376 310.33 87.1609 352.206 98.6002C347.865 86.3438 365.994 81.8497 374.931 65.0993C385.247 45.7955 379.528 26.3895 366.301 9.89448C355.577 -3.58755 335.864 -3.38328 324.578 11.0691Z" fill="url(#paint15_linear)"/>
<path fill-rule="evenodd" clip-rule="evenodd" d="M344.188 138.076L346.589 147.166C347.355 149.107 347.814 149.668 350.623 148.392C352.155 147.626 351.695 144.46 351.236 142.11C350.776 139.557 351.032 137.31 351.338 136.34C351.644 135.216 352.359 134.552 353.074 133.939C354.76 132.612 356.7 131.692 355.526 127.403C354.913 125.156 355.066 123.521 355.015 121.172L349.193 120.764C349.346 125.973 346.997 129.496 344.597 133.888C343.371 136.084 343.627 135.676 344.188 138.076Z" fill="url(#paint16_linear)"/>
<path fill-rule="evenodd" clip-rule="evenodd" d="M364.973 80.2156L364.922 79.9092C364.922 79.5006 364.871 79.0921 364.718 78.6325C363.237 68.7252 360.224 52.0259 357.875 43.3443C353.789 28.1259 340.767 33.3859 340.92 42.4761C341.022 51.0556 349.04 69.6444 350.878 77.7132C350.214 83.5861 347.763 112.899 348.631 118.006C348.785 118.976 349.244 119.64 349.193 120.713C349.142 121.53 348.938 121.836 348.682 122.807C350.98 123.113 353.279 123.419 355.526 123.981C355.628 123.368 355.679 122.296 355.883 121.683C356.292 120.56 357.262 119.998 357.721 119.079C359.969 114.482 363.696 90.3782 364.718 82.5647C364.871 81.9008 364.973 81.1348 364.973 80.2156Z" fill="url(#paint17_linear)"/>
<path opacity="0.35" fill-rule="evenodd" clip-rule="evenodd" d="M363.237 89.5101C364.105 87.4163 365.075 80.8285 365.075 77.9176C365.075 71.8915 362.777 66.8868 362.062 63.0567L340.971 42.0676C341.124 45.9999 345.669 56.4689 347.559 64.2313C350.521 76.2834 356.904 86.6503 363.237 89.5101Z" fill="#3469C0"/>
<path fill-rule="evenodd" clip-rule="evenodd" d="M428.502 90.9399C425.54 100.796 411.548 108.507 397.555 105.443C394.235 101.715 393.214 102.89 390.15 99.8769C387.392 97.1703 383.92 93.4423 379.119 88.5397C376.464 84.3521 365.892 82.6158 361.245 80.8284C355.985 78.7857 351.338 74.4959 349.142 66.1207C348.07 62.0863 343.525 49.6768 341.839 45.5913C337.09 33.6413 347.406 29.1984 354.402 33.6413C358.896 35.5308 368.752 37.8289 373.604 38.7481C376.515 39.3099 378.353 39.6674 382.132 40.0248C387.954 40.5866 394.235 44.8253 398.729 48.4C411.037 58.052 427.481 77.4579 428.502 90.9399Z" fill="url(#paint18_linear)"/>
<path fill-rule="evenodd" clip-rule="evenodd" d="M358.385 28.8408C359.662 34.0498 362.675 39.0034 366.71 42.8846C365.229 48.1957 355.117 51.9748 351.9 48.4C351.644 47.685 351.287 46.1019 350.981 45.5912C350.47 44.0592 349.908 42.6803 349.448 41.6079L358.385 28.8408Z" fill="url(#paint19_linear)"/>
<path fill-rule="evenodd" clip-rule="evenodd" d="M329.021 21.7423C329.532 25.7767 330.808 29.1472 334.281 32.6199C335.149 33.488 335.507 34.203 335.762 35.0711C337.09 39.8716 338.111 40.8419 341.175 43.0378C344.188 45.1827 345.312 46.6637 346.997 46.8169C348.733 47.0211 350.368 46.0508 351.644 45.1316C354.3 43.2421 357.211 38.0842 358.59 34.6626C359.611 32.1603 358.998 31.4964 358.334 29.0962C359.1 24.7043 356.036 24.3979 355.015 24.9596C352.104 26.5427 354.044 29.76 353.074 31.5985C342.912 33.8966 332.34 24.7043 329.021 21.7423Z" fill="#FFA698"/>
<path fill-rule="evenodd" clip-rule="evenodd" d="M329.021 21.7423C334.69 31.1899 347.201 33.5902 353.125 31.6496C342.912 33.8966 332.34 24.7043 329.021 21.7423Z" fill="#FF9080"/>
<path opacity="0.35" fill-rule="evenodd" clip-rule="evenodd" d="M395.206 102.992C395.104 102.992 395.053 103.043 394.95 103.043C393.418 102.022 392.295 101.92 390.201 99.8769C387.443 97.1702 383.971 93.4423 379.17 88.5397C377.792 86.3948 374.421 84.9138 370.795 83.7393C371.357 73.9342 371.102 51.5662 374.319 48.6553C378.762 44.6209 384.839 41.9654 389.946 47.1744C399.547 57.0816 389.997 93.5955 395.206 102.992Z" fill="#3469C0"/>
<path fill-rule="evenodd" clip-rule="evenodd" d="M381.672 116.168L375.544 93.2891L379.783 89.51L418.186 111.061L414.611 115.095L397.912 126.228L381.672 116.168Z" fill="#4A9FF8"/>
<path fill-rule="evenodd" clip-rule="evenodd" d="M375.595 93.3403L372.787 84.4033C388.771 93.2892 404.755 102.124 420.689 111.01L414.509 115.146L375.595 93.3403Z" fill="#D0E7FF"/>
<path opacity="0.5" fill-rule="evenodd" clip-rule="evenodd" d="M297.103 147.524C299.606 129.19 313.496 121.275 328.204 129.905L479.826 218.407C494.482 227.037 504.39 248.945 501.887 267.279L478.804 442.137C476.302 460.47 462.36 468.386 447.704 459.755L296.082 371.254C281.425 362.623 271.518 340.715 274.02 322.382L297.103 147.524Z" fill="url(#paint20_linear)"/>
<path fill-rule="evenodd" clip-rule="evenodd" d="M302.466 146.502C302.721 144.511 303.129 135.676 305.479 133.837C308.696 131.386 314.518 127.862 316.254 127.403C320.748 126.177 325.957 126.994 331.319 130.109L472.983 212.227C486.618 220.245 495.81 240.621 493.512 257.627L472.063 420.075C471.246 426.05 469.153 430.8 466.191 434.119C464.199 436.366 459.45 439.532 455.517 441.575C451.483 443.669 445.763 437.949 443.159 436.417L301.546 354.401C287.911 346.384 278.719 326.007 281.017 309.002L302.466 146.502Z" fill="#D0E7FF"/>
<path fill-rule="evenodd" clip-rule="evenodd" d="M297.512 149.975C299.81 132.918 312.73 125.615 326.417 133.633L467.314 215.904C480.949 223.922 490.142 244.298 487.844 261.304L466.395 423.752C464.097 440.809 451.126 448.112 437.49 440.094L296.542 357.874C282.906 349.856 273.714 329.48 276.012 312.474L297.512 149.975Z" fill="white"/>
<path fill-rule="evenodd" clip-rule="evenodd" d="M297.512 149.975C299.81 132.918 312.731 125.615 326.417 133.633L467.263 215.904C480.898 223.922 490.091 244.298 487.793 261.304L485.597 277.441L295.265 166.317L297.512 149.975Z" fill="url(#paint21_linear)"/>
<path fill-rule="evenodd" clip-rule="evenodd" d="M320.135 150.639C323.25 151.354 325.599 155.082 325.446 158.963C325.242 162.793 322.586 165.346 319.522 164.58C316.407 163.865 314.058 160.137 314.211 156.256C314.364 152.426 317.02 149.873 320.135 150.639Z" fill="white"/>
<path fill-rule="evenodd" clip-rule="evenodd" d="M336.733 160.955C339.848 161.67 342.197 165.398 342.044 169.279C341.839 173.109 339.184 175.662 336.12 174.896C333.005 174.181 330.655 170.453 330.809 166.572C330.962 162.742 333.617 160.189 336.733 160.955Z" fill="white"/>
<path fill-rule="evenodd" clip-rule="evenodd" d="M353.279 171.27C356.394 171.985 358.743 175.713 358.59 179.595C358.385 183.425 355.73 185.978 352.666 185.212C349.551 184.497 347.202 180.769 347.355 176.888C347.508 173.058 350.163 170.555 353.279 171.27Z" fill="white"/>
<path opacity="0.2" fill-rule="evenodd" clip-rule="evenodd" d="M327.387 198.592C341.788 202.014 352.768 219.224 351.9 237.098C351.083 254.92 338.724 266.666 324.374 263.245C309.973 259.823 298.993 242.613 299.861 224.739C300.678 206.916 312.986 195.222 327.387 198.592Z" fill="url(#paint22_linear)"/>
<path fill-rule="evenodd" clip-rule="evenodd" d="M326.672 213.504C334.434 215.342 340.358 224.637 339.899 234.238C339.439 243.839 332.8 250.171 325.038 248.333C317.275 246.494 311.352 237.2 311.811 227.599C312.271 217.947 318.91 211.666 326.672 213.504Z" fill="url(#paint23_linear)"/>
<path opacity="0.2" fill-rule="evenodd" clip-rule="evenodd" d="M360.582 233.217C361.092 229.437 363.952 227.854 367.016 229.693L459.093 282.753C462.106 284.591 464.148 289.187 463.638 292.966L462.616 300.474C462.106 304.253 459.246 305.836 456.182 303.997L364.106 250.937C361.092 249.099 359.05 244.503 359.56 240.724L360.582 233.217Z" fill="#955CF1"/>
<path opacity="0.2" fill-rule="evenodd" clip-rule="evenodd" d="M356.905 260.793C357.211 258.546 358.896 257.627 360.684 258.7L415.071 290.056C416.859 291.128 418.085 293.835 417.778 296.082L417.165 300.525C416.859 302.772 415.174 303.691 413.386 302.618L358.998 271.262C357.211 270.19 355.985 267.483 356.292 265.236L356.905 260.793Z" fill="#955CF1"/>
<path opacity="0.2" fill-rule="evenodd" clip-rule="evenodd" d="M295.418 267.841C295.776 265.083 297.87 263.908 300.066 265.287L459.092 356.495C461.288 357.823 462.769 361.143 462.412 363.9L461.901 367.526C461.544 370.284 459.45 371.458 457.254 370.079L298.278 278.871C296.082 277.544 294.601 274.224 294.959 271.467L295.418 267.841Z" fill="#955CF1"/>
<path opacity="0.2" fill-rule="evenodd" clip-rule="evenodd" d="M292.099 294.601C292.456 291.843 294.55 290.668 296.746 292.047L455.773 383.255C457.969 384.583 459.45 387.903 459.092 390.66L458.581 394.286C458.224 397.044 456.13 398.218 453.934 396.84L294.959 305.631C292.763 304.304 291.282 300.984 291.639 298.227L292.099 294.601Z" fill="#955CF1"/>
<path opacity="0.2" fill-rule="evenodd" clip-rule="evenodd" d="M288.626 320.084C288.983 317.326 291.077 316.151 293.273 317.53L452.3 408.738C454.496 410.066 455.977 413.386 455.619 416.143L455.109 419.769C454.751 422.527 452.657 423.701 450.461 422.323L291.435 331.115C289.239 329.787 287.758 326.467 288.115 323.71L288.626 320.084Z" fill="#955CF1"/>
<path fill-rule="evenodd" clip-rule="evenodd" d="M494.074 131.692C494.584 128.169 492.235 125.411 493.767 123.113C495.401 120.56 501.07 118.772 503.521 117.904C506.994 116.678 511.079 117.087 515.216 119.436L684.354 216.108C694.21 221.777 700.798 236.434 699.062 248.894L680.064 381.57C679.196 387.647 676.49 392.09 672.762 394.337C670.515 395.716 664.284 398.371 661.475 398.014C659.484 397.758 661.016 395.001 658.922 393.826L489.784 297.103C479.877 291.434 473.34 276.778 475.076 264.317L494.074 131.692Z" fill="#D0E7FF"/>
<path fill-rule="evenodd" clip-rule="evenodd" d="M489.018 133.735C490.805 121.326 500.253 115.759 510.109 121.428L679.247 218.151C689.104 223.82 695.691 238.476 693.955 250.937L674.958 383.612C673.17 396.022 663.723 401.537 653.866 395.92L484.728 299.196C474.821 293.528 468.284 278.871 470.02 266.411L489.018 133.735Z" fill="url(#paint24_linear)"/>
<path fill-rule="evenodd" clip-rule="evenodd" d="M475.894 272.488C476.047 271.415 476.864 270.956 477.732 271.466L665.306 379.016C666.174 379.527 666.736 380.804 666.583 381.927L666.072 385.196C665.919 386.268 665.102 386.728 664.234 386.217L476.66 278.667C475.792 278.156 475.23 276.88 475.383 275.756L475.894 272.488Z" fill="#6D6AFD"/>
<path fill-rule="evenodd" clip-rule="evenodd" d="M475.995 272.589C476.148 271.568 476.914 271.108 477.782 271.619L553.465 314.976C554.282 315.486 554.844 316.712 554.691 317.784L554.231 320.951C554.078 321.972 553.312 322.432 552.444 321.921L476.761 278.564C475.944 278.053 475.382 276.828 475.535 275.755L475.995 272.589Z" fill="#B269EB"/>
<path fill-rule="evenodd" clip-rule="evenodd" d="M550.147 208.755C550.555 205.793 552.802 204.465 555.152 205.844L607.241 235.616C609.59 236.944 611.174 240.468 610.714 243.43L603.667 292.966C603.258 295.928 601.011 297.256 598.662 295.877L546.572 266.104C544.223 264.776 542.64 261.253 543.1 258.291L550.147 208.755Z" fill="url(#paint25_linear)"/>
<path fill-rule="evenodd" clip-rule="evenodd" d="M579.868 230.305C570.829 225.147 562.25 230.152 560.616 241.489C558.981 252.826 565.008 266.206 573.996 271.364C582.984 276.522 591.614 271.517 593.248 260.129C594.831 248.843 588.856 235.463 579.868 230.305Z" fill="url(#paint26_linear)"/>
<path fill-rule="evenodd" clip-rule="evenodd" d="M571.493 235.821L568.685 256.35L586.048 256.81L571.493 235.821Z" fill="white"/>
<path fill-rule="evenodd" clip-rule="evenodd" d="M368.957 130.875C367.476 133.327 368.242 138.689 367.782 141.242C367.424 143.234 366.301 147.064 365.535 148.647C365.229 149.311 355.423 157.993 354.862 157.584C353.585 156.563 352.717 149.72 354.402 147.728C356.138 145.685 357.517 143.796 357.824 142.161C358.13 140.476 358.028 135.063 358.743 134.246C360.377 132.356 362.011 131.743 362.777 129.343L368.957 130.875Z" fill="url(#paint27_linear)"/>
<path fill-rule="evenodd" clip-rule="evenodd" d="M388.056 97.5788C388.209 97.0681 388.311 96.5064 388.413 95.8425C390.967 85.2714 393.571 67.1932 393.214 56.7242C392.958 48.7065 389.077 41.9654 379.681 44.5699C376.821 45.387 373.45 47.5829 373.042 51.362C372.531 55.9071 373.195 63.4652 373.655 71.1765C374.012 77.3558 373.961 88.4376 374.216 92.9827C374.165 93.1359 374.114 93.238 374.114 93.3912C371.101 99.3662 364.105 118.874 362.675 125.207C362.42 126.279 362.675 127.403 362.624 128.118C362.624 128.731 362.369 129.497 361.858 130.467C364.003 132.305 365.841 133.173 368.293 133.786C368.548 133.122 369.212 132.05 369.62 131.488C370.029 130.875 371.918 130.263 372.633 129.394C376.515 124.747 386.779 103.452 388.056 97.7831C388.005 97.732 388.056 97.681 388.056 97.5788Z" fill="url(#paint28_linear)"/>
<path opacity="0.3" fill-rule="evenodd" clip-rule="evenodd" d="M238.221 641.712L323.403 593.197C332.698 588.958 345.976 585.587 355.423 590.49C364.054 594.984 378.251 604.176 384.532 607.751C389.281 610.458 405.828 620.365 395.563 625.983C365.228 642.478 335.251 661.015 304.457 677.766C298.635 680.932 290.107 682.056 281.17 681.341C272.284 680.575 263.143 678.021 255.942 673.834C250.835 670.872 245.779 667.91 240.826 665.05C234.136 661.169 230.612 656.572 230.255 652.334C229.846 648.146 232.502 644.316 238.221 641.712Z" fill="#955CF1"/>
<path fill-rule="evenodd" clip-rule="evenodd" d="M269.577 639.107C271.263 639.056 276.88 633.796 282.191 636.452C288.575 639.669 300.729 636.809 306.857 638.29C307.93 638.546 310.075 637.729 310.483 638.495C311.811 640.844 313.088 644.367 309.819 646.666C307.419 648.351 302.312 650.598 298.942 651.772C295.367 653.049 289.29 655.041 285.204 655.654C280.659 656.368 278.616 656.675 276.931 657.952C274.531 659.177 272.029 659.688 270.599 659.484C267.637 659.024 264.164 657.237 262.53 653.866C262.019 652.794 262.019 648.044 262.581 644.929C263.041 642.478 264.368 639.72 265.441 637.167L269.577 639.107Z" fill="white"/>
<path fill-rule="evenodd" clip-rule="evenodd" d="M282.651 627.77C280.608 632.622 281.272 640.129 276.472 642.733C273.255 644.469 268.25 644.469 266.054 639.516C264.828 636.758 266.463 632.009 266.105 625.881L282.651 627.77Z" fill="#FFA495"/>
<path fill-rule="evenodd" clip-rule="evenodd" d="M283.979 635.277C287.656 636.35 297.767 635.635 304.202 636.145C306.959 636.35 309.411 636.35 310.739 638.852C311.913 641.15 311.3 643.142 308.645 645.031C306.245 646.717 302.21 648.657 298.84 649.832C295.265 651.109 289.188 653.1 285.102 653.713C280.557 654.428 278.514 654.734 276.829 656.011C274.429 657.237 271.927 657.747 270.497 657.543C267.535 657.083 264.062 654.99 262.428 651.568C261.917 650.496 261.917 646.104 262.479 642.989C262.581 642.427 262.734 641.814 262.939 641.15C263.449 636.35 265.032 634.358 266.513 635.226C268.556 636.35 269.322 638.392 270.139 640.078C270.803 641.508 271.773 642.376 272.948 642.733C275.399 643.499 277.646 642.12 279.127 640.027C279.944 638.597 280.404 636.911 280.812 635.124C280.812 634.971 280.812 634.818 280.812 634.613C281.272 630.375 283.366 630.783 283.059 631.651C282.753 632.52 282.855 634.409 283.979 635.277Z" fill="#193161"/>
<path fill-rule="evenodd" clip-rule="evenodd" d="M309.462 638.137C309.411 639.771 311.913 639.924 311.198 642.784C312.424 641.61 310.739 638.239 309.973 637.728C309.666 637.524 309.411 637.422 309.462 638.137Z" fill="white"/>
<path fill-rule="evenodd" clip-rule="evenodd" d="M311.351 622.408C312.883 621.795 316.356 614.901 322.28 615.565C324.68 615.82 328.51 615.207 332.391 614.084C338.622 612.296 347.252 606.781 348.733 607.7C351.95 609.692 352.206 613.267 349.959 616.586C348.273 618.986 345.158 622.204 342.401 624.451C339.49 626.851 335.353 630.528 331.778 632.57C328.357 634.46 327.233 634.307 324.782 637.575C322.944 639.567 320.748 640.741 319.369 640.997C315.794 641.712 310.687 639.414 308.798 637.013C307.623 633.183 305.58 629.557 306.857 623.838L311.351 622.408Z" fill="white"/>
<path fill-rule="evenodd" clip-rule="evenodd" d="M319.573 606.117C319.471 611.377 322.841 618.118 319.318 622.306C316.969 625.115 312.321 626.953 308.44 623.123C306.295 620.978 306.04 615.973 303.487 610.458L319.573 606.117Z" fill="#FFA495"/>
<path fill-rule="evenodd" clip-rule="evenodd" d="M330.808 612.551C331.166 612.449 331.523 612.347 331.881 612.245C338.111 610.458 346.384 606.219 347.865 607.087C351.082 609.079 351.695 611.377 349.448 614.696C347.763 617.096 344.648 620.314 341.89 622.561C338.979 624.961 334.842 628.638 331.268 630.681C327.846 632.57 326.723 632.417 324.271 635.685C322.433 637.677 320.237 638.852 318.858 639.107C315.283 639.822 309.972 637.524 308.134 635.124C307.266 632.264 306.04 629.557 305.938 625.982C305.427 621.284 305.734 618.935 307.776 618.986C311.555 619.088 313.138 621.08 314.67 622.05C318.041 624.144 320.288 621.437 320.85 618.067C320.952 616.637 320.799 615.156 320.543 613.624C320.492 613.471 320.441 613.317 320.39 613.164C319.267 609.079 321.309 608.67 321.36 609.589C321.463 611.734 322.79 612.909 324.476 613.164C326.518 613.573 329.123 612.705 330.808 612.551Z" fill="#193161"/>
<path fill-rule="evenodd" clip-rule="evenodd" d="M347.456 607.649C348.12 609.13 350.418 608.211 351.031 611.122C351.593 609.539 348.631 607.19 347.763 607.087C347.405 606.985 347.099 607.036 347.456 607.649Z" fill="white"/>
<path fill-rule="evenodd" clip-rule="evenodd" d="M315.998 464.096C317.377 479.314 324.986 527.983 322.892 541.362C319.675 561.432 320.594 585.741 320.646 607.036C320.084 615.973 307.776 620.671 304.202 615.003C301.342 595.954 297.205 579.255 295.571 568.684C293.681 556.836 294.345 542.435 297.307 534.621C296.082 526.093 290.26 504.134 285.408 488.915C283.672 483.4 273.765 465.679 284.03 448.061L315.998 464.096Z" fill="url(#paint29_linear)"/>
<path fill-rule="evenodd" clip-rule="evenodd" d="M320.799 601.316C320.799 602.9 320.748 605.3 320.748 606.883C320.186 615.82 307.726 620.722 304.151 615.003C303.947 613.573 303.64 612.194 303.385 610.815C308.236 616.024 317.684 609.283 320.799 601.316Z" fill="url(#paint30_linear)"/>
<path opacity="0.3" fill-rule="evenodd" clip-rule="evenodd" d="M323.199 532.323C319.165 552.495 307.828 579.357 301.597 599.632C298.38 582.268 290.311 552.7 297.257 534.622C296.542 529.77 294.346 520.578 291.741 510.722C297.103 500.508 291.997 492.388 294.499 478.038C308.747 475.536 287.247 458.172 317.378 476.506C320.084 498.108 322.638 511.692 323.199 532.323Z" fill="#1E2353"/>
<path fill-rule="evenodd" clip-rule="evenodd" d="M314.976 551.423C306.754 570.012 291.638 606.474 283.569 629.302C279.382 635.379 264.521 634.715 264.572 629.098C267.84 610.049 271.721 580.634 278.565 563.883C280.658 558.777 288.37 546.469 291.178 542.792C293.323 534.366 296.081 511.641 298.175 499.333C296.285 489.171 288.063 472.114 303.843 457.355C310.227 461.9 329.888 464.709 338.825 459.653C340.255 499.844 330.399 516.594 314.976 551.423Z" fill="url(#paint31_linear)"/>
<path fill-rule="evenodd" clip-rule="evenodd" d="M285.255 625.319C284.898 626.34 284.183 628.332 283.825 629.302C279.536 635.532 264.215 634.869 264.266 629.047C264.419 628.128 264.573 627.157 264.777 626.136C268.403 629.864 279.434 629.915 285.255 625.319Z" fill="url(#paint32_linear)"/>
<path fill-rule="evenodd" clip-rule="evenodd" d="M365.33 241.285C364.769 242.511 364.207 243.787 363.594 244.962L361.092 249.967C360.581 247.515 358.589 246.545 357.057 247.822C356.598 248.179 356.138 248.741 355.832 249.456C355.576 248.792 353.687 247.26 351.133 250.937C349.55 250.784 348.682 251.448 348.018 252.724C347.61 253.49 347.252 254.41 346.946 255.38C346.486 256.708 346.18 257.831 346.18 258.955C346.18 261.355 346.282 264.01 346.231 266.921C346.18 270.036 342.605 274.02 340.664 276.318L352.308 279.995C354.095 277.748 355.066 276.165 356.853 274.326C358.691 272.488 360.989 272.232 362.726 270.802C363.696 269.985 364.258 268.964 365.943 266.615C367.322 264.674 368.088 262.58 369.365 260.436C370.641 258.24 370.539 258.699 370.692 256.248C370.795 254.358 371.407 252.469 371.561 251.294C369.16 250.12 367.271 253.082 367.271 255.942C365.892 256.708 365.024 258.597 364.666 259.465C362.777 256.963 363.9 255.942 364.666 252.724C365.892 250.477 366.76 248.537 367.424 246.29C367.782 245.319 368.19 244.298 368.548 243.175C369.109 241.387 368.394 240.11 367.833 239.753C367.475 239.447 366.301 239.6 365.33 241.285Z" fill="url(#paint33_linear)"/>
<path fill-rule="evenodd" clip-rule="evenodd" d="M370.182 251.039C368.497 251.295 367.271 253.644 367.271 255.942C365.994 256.657 365.126 258.342 364.769 259.261C365.484 258.342 367.271 256.452 367.833 256.197C368.037 254.001 368.803 252.163 370.182 251.039ZM361.296 249.558L361.092 249.967C360.939 249.354 360.734 248.843 360.479 248.435C360.428 250.12 359.458 251.295 358.794 252.112C360.275 251.448 360.887 250.682 361.296 249.558ZM355.832 249.456C355.73 249.252 355.525 248.996 355.219 248.843C354.912 250.324 354.555 251.039 353.891 252.163C354.964 251.295 355.474 250.426 355.832 249.456ZM351.184 250.886L351.133 250.937C350.878 250.886 350.623 250.886 350.367 250.937C350.163 252.571 349.806 253.542 348.989 254.665C350.265 253.439 350.878 252.622 351.184 250.886Z" fill="#FF8978"/>
<path fill-rule="evenodd" clip-rule="evenodd" d="M321.309 308.644C327.182 298.431 331.778 285.613 339.949 275.246C340.613 274.377 342.247 273.714 342.809 272.794C343.677 271.467 344.494 270.19 345.363 268.913C349.193 268.964 353.942 270.956 357.159 274.224C356.7 275.603 356.24 276.982 355.78 278.31C355.27 279.893 356.24 283.263 355.832 284.846C351.797 299.043 347.405 310.942 341.481 324.016C333.361 334.485 297.205 401.844 278.31 377.382C276.625 368.701 278.923 361.449 283.263 354.453C285.664 350.571 289.341 347.15 291.843 344.596C297.818 338.417 312.372 317.837 321.309 308.644Z" fill="url(#paint34_linear)"/>
<path fill-rule="evenodd" clip-rule="evenodd" d="M281.119 409.504C282.446 421.403 278.872 433.149 282.498 444.026C282.651 445.15 282.753 449.542 282.957 450.767C285.357 464.862 315.181 479.11 340.052 465.628C340.205 463.892 340.052 462.054 340.154 458.836C339.694 455.823 341.022 452.555 340.971 450.716C340.92 443.056 338.571 439.124 339.694 430.595C342.043 413.232 351.644 396.533 346.333 382.847C345.209 379.936 343.167 378.506 340.92 376.667C335.047 371.969 304.661 356.444 295.418 355.372C268.709 351.899 279.689 396.584 281.119 409.504Z" fill="url(#paint35_linear)"/>
<path opacity="0.35" fill-rule="evenodd" clip-rule="evenodd" d="M342.401 417.981C345.874 405.214 350.368 393.162 346.333 382.846C345.21 379.936 343.167 378.506 340.92 376.667C335.047 371.969 335.813 384.634 326.621 383.561C324.884 400.516 333.26 415.939 342.401 417.981Z" fill="#6266D7"/>
<path fill-rule="evenodd" clip-rule="evenodd" d="M323.659 350.009C323.352 354.248 323.557 360.376 324.323 364.666C315.59 364.36 303.487 362.113 302.159 355.627C302.21 354.861 302.261 354.044 302.312 353.278C302.21 353.176 302.057 353.074 301.955 353.022C298.839 350.929 293.682 349.397 290.362 345.618C285.051 339.54 282.242 331.369 286.379 323.199C293.988 308.184 312.373 307.929 322.637 320.083C324.629 322.433 323.148 324.884 324.323 327.182C324.527 327.642 325.344 327.846 326.314 328.612C327.642 329.684 331.472 339.081 331.37 343.983C331.319 345.975 326.825 348.733 324.782 349.805C324.629 349.805 324.22 349.907 323.659 350.009Z" fill="#FFA698"/>
<path fill-rule="evenodd" clip-rule="evenodd" d="M323.659 350.009C323.353 354.248 323.557 360.376 324.323 364.666C315.59 364.36 303.487 362.113 302.159 355.627C302.21 354.861 302.261 354.044 302.312 353.278C302.21 353.176 302.057 353.074 301.955 353.023C295.316 346.843 304.202 339.694 315.386 345.822C317.224 348.733 320.084 350.214 323.659 350.009Z" fill="url(#paint36_linear)"/>
<path fill-rule="evenodd" clip-rule="evenodd" d="M331.37 343.881C331.319 344.749 327.744 346.026 326.263 346.23C327.285 336.987 318.45 335.557 319.777 326.518C320.595 321.105 314.977 319.113 317.173 315.13C319.165 316.406 321.003 318.041 322.637 319.981C324.629 322.33 323.148 324.782 324.323 327.08C324.527 327.539 325.344 327.743 326.314 328.51C327.642 329.633 331.625 339.03 331.37 343.881Z" fill="url(#paint37_linear)"/>
<path fill-rule="evenodd" clip-rule="evenodd" d="M319.369 340.153C319.216 338.059 318.348 337.702 317.684 338.213C316.918 338.825 316.254 340.613 316.458 342.758C316.816 346.179 319.982 349.294 322.178 346.486C319.778 347.762 318.654 344.698 318.552 342.502C318.501 341.021 318.859 339.796 319.369 340.153Z" fill="#FFB49C"/>
<path fill-rule="evenodd" clip-rule="evenodd" d="M318.603 341.481C319.88 342.451 320.493 343.115 320.441 343.626C320.441 343.983 320.135 344.596 319.012 344.187C318.552 343.268 318.501 342.349 318.603 341.481Z" fill="#FF9D8E"/>
<path fill-rule="evenodd" clip-rule="evenodd" d="M302.108 355.372C299.555 356.189 297.103 358.793 297.614 360.53C300.168 370.999 319.42 373.348 331.37 370.845C331.524 370.794 326.876 364.717 324.629 363.951C317.02 364.717 304.406 361.602 302.108 355.372Z" fill="#726CDE"/>
<path fill-rule="evenodd" clip-rule="evenodd" d="M301.189 354.759C298.022 351.337 292.609 349.754 289.137 345.771C285.715 341.89 281.987 335.864 284.285 329.736C280.251 317.071 293.988 307.061 305.581 304.763C313.854 303.129 318.807 312.015 315.233 318.041C318.348 321.514 318.246 326.11 317.99 327.284C317.326 330.91 317.428 331.37 318.552 334.076C319.471 336.221 321.718 341.379 317.633 338.111C314.977 336.017 313.139 340.664 314.007 343.881C314.415 345.362 314.926 347.201 314.569 350.112C313.803 356.802 302.925 356.649 301.189 354.759Z" fill="#562E65"/>
<path fill-rule="evenodd" clip-rule="evenodd" d="M288.064 323.965C285.306 311.708 301.444 305.529 307.725 305.376C314.109 305.222 319.114 315.691 311.556 319.266C306.398 321.666 296.184 316.968 288.064 323.965Z" fill="url(#paint38_linear)"/>
<path fill-rule="evenodd" clip-rule="evenodd" d="M415.735 341.328C415.377 342.247 415.326 342.809 415.224 343.779C414.611 345.311 414.254 346.486 414.05 347.558C413.641 349.55 413.794 351.082 413.743 353.737C413.692 355.269 413.948 356.035 414.305 357.516C412.773 360.529 410.322 362.419 408.075 364.87L415.429 370.488C418.544 368.445 420.944 366.3 423.651 364.513C425.846 363.645 426.561 363.185 427.225 362.47C428.911 360.683 433.966 355.423 434.222 353.329C434.528 351.031 433.915 345.72 433.405 342.758C432.077 335.302 429.217 327.437 428.757 330.91C428.042 331.727 428.604 338.468 428.196 339.489C426.459 341.481 425.642 342.298 423.446 344.698C422.067 345.464 421.199 346.281 420.535 346.435C419.769 346.639 419.361 346.128 419.361 345.464C419.31 344.749 419.82 343.422 420.178 341.481C420.178 338.264 419.361 336.476 417.676 336.629C416.807 336.732 416.297 337.191 416.092 338.11C415.837 338.979 415.837 340 415.735 341.328Z" fill="url(#paint39_linear)"/>
<path fill-rule="evenodd" clip-rule="evenodd" d="M341.533 372.633C351.644 374.216 371.203 385.349 384.736 391.375C392.243 380.65 402.151 367.781 408.228 363.491C408.943 362.981 410.73 362.01 411.241 361.295C412.109 360.223 412.977 359.099 413.845 357.976C417.676 358.487 423.14 363.236 423.089 365.483C422.476 366.607 421.863 367.781 421.199 369.007C420.791 369.824 420.944 371.662 420.689 372.582C418.646 380.089 407.206 397.452 401.895 405.163C398.831 409.657 397.759 412.262 395.665 413.589C392.346 415.734 387.852 414.56 379.221 412.415C371.969 410.576 348.529 406.338 337.754 400.669C330.144 396.635 324.323 389.434 327.336 381.11C329.327 375.748 335.047 371.611 341.533 372.633Z" fill="url(#paint40_linear)"/>
<defs>
<linearGradient id="paint0_linear" x1="402.849" y1="108.939" x2="402.838" y2="174.91" gradientUnits="userSpaceOnUse">
<stop stop-color="#324179"/>
<stop offset="1" stop-color="#0C124D"/>
</linearGradient>
<linearGradient id="paint1_linear" x1="413.833" y1="113.149" x2="413.788" y2="225.527" gradientUnits="userSpaceOnUse">
<stop stop-color="#324179"/>
<stop offset="1" stop-color="#0C124D"/>
</linearGradient>
<linearGradient id="paint2_linear" x1="466.699" y1="224.398" x2="395.945" y2="653.831" gradientUnits="userSpaceOnUse">
<stop stop-color="#D1E8FF"/>
<stop offset="1" stop-color="#EAEFFF"/>
</linearGradient>
<linearGradient id="paint3_linear" x1="507.767" y1="143.128" x2="342.657" y2="672.044" gradientUnits="userSpaceOnUse">
<stop stop-color="#6D6AFE"/>
<stop offset="1" stop-color="#3FB0F7"/>
</linearGradient>
<linearGradient id="paint4_linear" x1="583.73" y1="488.69" x2="625.4" y2="401.052" gradientUnits="userSpaceOnUse">
<stop stop-color="#965CF2"/>
<stop offset="1" stop-color="#FF8ADC"/>
</linearGradient>
<linearGradient id="paint5_linear" x1="578.335" y1="333.682" x2="655.529" y2="220.918" gradientUnits="userSpaceOnUse">
<stop stop-color="#965CF2"/>
<stop offset="1" stop-color="#FF8ADC"/>
</linearGradient>
<linearGradient id="paint6_linear" x1="215.094" y1="448.633" x2="263.493" y2="343.073" gradientUnits="userSpaceOnUse">
<stop stop-color="#965CF2"/>
<stop offset="1" stop-color="#FF8ADC"/>
</linearGradient>
<linearGradient id="paint7_linear" x1="156.113" y1="333.664" x2="136.94" y2="388.624" gradientUnits="userSpaceOnUse">
<stop stop-color="#1C8EF4"/>
<stop offset="1" stop-color="#00CFDD"/>
</linearGradient>
<linearGradient id="paint8_linear" x1="221.262" y1="180.985" x2="260.46" y2="49.8875" gradientUnits="userSpaceOnUse">
<stop stop-color="#965CF2"/>
<stop offset="1" stop-color="#FF8ADC"/>
</linearGradient>
<linearGradient id="paint9_linear" x1="210.011" y1="49.0002" x2="165.33" y2="195.757" gradientUnits="userSpaceOnUse">
<stop stop-color="#6D6AFE"/>
<stop offset="1" stop-color="#3FB0F7"/>
</linearGradient>
<linearGradient id="paint10_linear" x1="587.152" y1="460.301" x2="600.26" y2="434.842" gradientUnits="userSpaceOnUse">
<stop stop-color="#965CF2"/>
<stop offset="1" stop-color="#FF8ADC"/>
</linearGradient>
<linearGradient id="paint11_linear" x1="429.38" y1="498.677" x2="397.843" y2="547.742" gradientUnits="userSpaceOnUse">
<stop stop-color="#FF66BC"/>
<stop offset="0.56" stop-color="#FF8ADC"/>
<stop offset="1" stop-color="#FFBBA8"/>
</linearGradient>
<linearGradient id="paint12_linear" x1="437.851" y1="516.231" x2="355.618" y2="519.763" gradientUnits="userSpaceOnUse">
<stop stop-color="#FF66BC"/>
<stop offset="0.56" stop-color="#FF8ADC"/>
<stop offset="1" stop-color="#FFBBA8"/>
</linearGradient>
<linearGradient id="paint13_linear" x1="550.61" y1="622.367" x2="565.783" y2="580.668" gradientUnits="userSpaceOnUse">
<stop stop-color="#965CF2"/>
<stop offset="1" stop-color="#FF8ADC"/>
</linearGradient>
<linearGradient id="paint14_linear" x1="554.553" y1="639.725" x2="549.01" y2="535.805" gradientUnits="userSpaceOnUse">
<stop stop-color="#965CF2"/>
<stop offset="1" stop-color="#FF8ADC"/>
</linearGradient>
<linearGradient id="paint15_linear" x1="349.64" y1="7.97151" x2="349.745" y2="82.4858" gradientUnits="userSpaceOnUse">
<stop stop-color="#5A2D68"/>
<stop offset="1" stop-color="#22043D"/>
</linearGradient>
<linearGradient id="paint16_linear" x1="351.725" y1="135.228" x2="348.53" y2="134.093" gradientUnits="userSpaceOnUse">
<stop stop-color="#FF8A78"/>
<stop offset="1" stop-color="#FFA799"/>
</linearGradient>
<linearGradient id="paint17_linear" x1="353.268" y1="109.864" x2="352.822" y2="45.8811" gradientUnits="userSpaceOnUse">
<stop stop-color="#965CF2"/>
<stop offset="1" stop-color="#FF8ADC"/>
</linearGradient>
<linearGradient id="paint18_linear" x1="393.982" y1="95.2165" x2="378.714" y2="46.6561" gradientUnits="userSpaceOnUse">
<stop stop-color="#965CF2"/>
<stop offset="1" stop-color="#FF8ADC"/>
</linearGradient>
<linearGradient id="paint19_linear" x1="356.311" y1="40.0327" x2="360.174" y2="44.7294" gradientUnits="userSpaceOnUse">
<stop stop-color="#FF8A78"/>
<stop offset="1" stop-color="#FFA799"/>
</linearGradient>
<linearGradient id="paint20_linear" x1="411.06" y1="385.812" x2="336.668" y2="93.1602" gradientUnits="userSpaceOnUse">
<stop stop-color="#965CF2"/>
<stop offset="1" stop-color="#FF8ADC"/>
</linearGradient>
<linearGradient id="paint21_linear" x1="416.03" y1="175.916" x2="389.492" y2="213.645" gradientUnits="userSpaceOnUse">
<stop stop-color="#6D6AFE"/>
<stop offset="1" stop-color="#3FB0F7"/>
</linearGradient>
<linearGradient id="paint22_linear" x1="330.851" y1="223.875" x2="324.65" y2="232.647" gradientUnits="userSpaceOnUse">
<stop stop-color="#6D6AFE"/>
<stop offset="1" stop-color="#3FB0F7"/>
</linearGradient>
<linearGradient id="paint23_linear" x1="335.903" y1="223.311" x2="316.901" y2="237.72" gradientUnits="userSpaceOnUse">
<stop stop-color="#6D6AFE"/>
<stop offset="1" stop-color="#3FB0F7"/>
</linearGradient>
<linearGradient id="paint24_linear" x1="594.438" y1="217.204" x2="566.389" y2="310.701" gradientUnits="userSpaceOnUse">
<stop stop-color="#6D6AFE"/>
<stop offset="1" stop-color="#3FB0F7"/>
</linearGradient>
<linearGradient id="paint25_linear" x1="573.029" y1="262.83" x2="585.899" y2="223.252" gradientUnits="userSpaceOnUse">
<stop stop-color="#965CF2"/>
<stop offset="1" stop-color="#FF8ADC"/>
</linearGradient>
<linearGradient id="paint26_linear" x1="570.989" y1="260.963" x2="582.719" y2="240.984" gradientUnits="userSpaceOnUse">
<stop stop-color="#6D6AFE"/>
<stop offset="1" stop-color="#3FB0F7"/>
</linearGradient>
<linearGradient id="paint27_linear" x1="363.725" y1="145.079" x2="361.05" y2="143.843" gradientUnits="userSpaceOnUse">
<stop stop-color="#FF8A78"/>
<stop offset="1" stop-color="#FFA799"/>
</linearGradient>
<linearGradient id="paint28_linear" x1="379.885" y1="118.613" x2="374.206" y2="57.5171" gradientUnits="userSpaceOnUse">
<stop stop-color="#965CF2"/>
<stop offset="1" stop-color="#FF8ADC"/>
</linearGradient>
<linearGradient id="paint29_linear" x1="310.264" y1="485.468" x2="290.484" y2="580.097" gradientUnits="userSpaceOnUse">
<stop stop-color="#40457F"/>
<stop offset="1" stop-color="#1E2353"/>
</linearGradient>
<linearGradient id="paint30_linear" x1="314.62" y1="606.511" x2="307.192" y2="617.168" gradientUnits="userSpaceOnUse">
<stop stop-color="#3773B9"/>
<stop offset="1" stop-color="#003C76"/>
</linearGradient>
<linearGradient id="paint31_linear" x1="327.895" y1="496.152" x2="260.444" y2="588.148" gradientUnits="userSpaceOnUse">
<stop stop-color="#40457F"/>
<stop offset="1" stop-color="#1E2353"/>
</linearGradient>
<linearGradient id="paint32_linear" x1="276.581" y1="628.238" x2="265.356" y2="631.108" gradientUnits="userSpaceOnUse">
<stop stop-color="#3773B9"/>
<stop offset="1" stop-color="#003C76"/>
</linearGradient>
<linearGradient id="paint33_linear" x1="346.853" y1="274.087" x2="361.054" y2="253.79" gradientUnits="userSpaceOnUse">
<stop stop-color="#FF8A78"/>
<stop offset="1" stop-color="#FFA799"/>
</linearGradient>
<linearGradient id="paint34_linear" x1="317.266" y1="324.827" x2="333.683" y2="355.632" gradientUnits="userSpaceOnUse">
<stop stop-color="#A77EF7"/>
<stop offset="1" stop-color="#5E65D6"/>
</linearGradient>
<linearGradient id="paint35_linear" x1="314.067" y1="374.73" x2="304.321" y2="460.153" gradientUnits="userSpaceOnUse">
<stop stop-color="#A77EF7"/>
<stop offset="1" stop-color="#5E65D6"/>
</linearGradient>
<linearGradient id="paint36_linear" x1="314.574" y1="349.856" x2="311.54" y2="357.484" gradientUnits="userSpaceOnUse">
<stop stop-color="#FF8A78"/>
<stop offset="1" stop-color="#FFA799"/>
</linearGradient>
<linearGradient id="paint37_linear" x1="324.858" y1="328.502" x2="320.383" y2="337.095" gradientUnits="userSpaceOnUse">
<stop stop-color="#FFB89E"/>
<stop offset="1" stop-color="#FFA799"/>
</linearGradient>
<linearGradient id="paint38_linear" x1="315.376" y1="307.603" x2="295.611" y2="318.922" gradientUnits="userSpaceOnUse">
<stop stop-color="#8A4791"/>
<stop offset="1" stop-color="#562E65"/>
</linearGradient>
<linearGradient id="paint39_linear" x1="415.555" y1="358.618" x2="428.799" y2="341.121" gradientUnits="userSpaceOnUse">
<stop stop-color="#FF8A78"/>
<stop offset="1" stop-color="#FFA799"/>
</linearGradient>
<linearGradient id="paint40_linear" x1="374.309" y1="365.112" x2="378.32" y2="446.492" gradientUnits="userSpaceOnUse">
<stop stop-color="#A77EF7"/>
<stop offset="1" stop-color="#5E65D6"/>
</linearGradient>
</defs>
</svg>
