<svg width="566" height="559" viewBox="0 0 566 559" fill="none" xmlns="http://www.w3.org/2000/svg">
<circle cx="286.642" cy="279.358" r="279.358" fill="#ECF7FF"/>
<path d="M399.616 195.741C402.188 193.497 404.216 190.697 405.545 187.553C406.874 184.409 407.47 181.004 407.287 177.596L400.039 177.212C401.272 171.659 401.318 165.908 400.172 160.337L407.419 160.059C407.645 156.656 407.098 153.246 405.817 150.085C404.537 146.924 402.557 144.094 400.026 141.808L394.63 146.662C391.576 141.865 387.542 137.768 382.794 134.64L387.727 129.35C385.483 126.778 382.683 124.75 379.539 123.421C376.395 122.092 372.99 121.496 369.581 121.679L369.198 128.927C363.645 127.693 357.894 127.648 352.322 128.794L352.045 121.547C348.642 121.321 345.232 121.868 342.071 123.149C338.91 124.429 336.08 126.409 333.794 128.94L338.647 134.349C333.867 137.388 329.783 141.404 326.665 146.133L321.375 141.2C318.803 143.444 316.776 146.244 315.447 149.387C314.118 152.531 313.522 155.936 313.704 159.345L320.965 159.728C319.721 165.28 319.671 171.032 320.82 176.604L313.572 176.882C313.346 180.285 313.894 183.695 315.174 186.856C316.454 190.017 318.434 192.846 320.965 195.133L326.361 190.279C329.415 195.075 333.449 199.172 338.198 202.301L333.265 207.591C335.509 210.163 338.309 212.19 341.452 213.519C344.596 214.848 348.002 215.444 351.41 215.261L351.793 208.014C357.347 209.25 363.099 209.29 368.669 208.133L368.947 215.394C372.35 215.62 375.76 215.072 378.921 213.792C382.082 212.512 384.911 210.532 387.198 208.001L382.212 202.578C387.01 199.531 391.104 195.496 394.22 190.742L399.616 195.741ZM351.211 190.332C346.886 188.504 343.201 185.434 340.62 181.511C338.04 177.588 336.681 172.988 336.715 168.292C336.749 163.597 338.175 159.017 340.812 155.132C343.45 151.247 347.18 148.232 351.531 146.467C355.882 144.702 360.659 144.267 365.258 145.217C369.856 146.167 374.069 148.46 377.365 151.804C380.66 155.149 382.89 159.396 383.771 164.008C384.653 168.62 384.147 173.39 382.317 177.715C379.851 183.5 375.195 188.075 369.367 190.439C363.538 192.803 357.011 192.764 351.211 190.332V190.332Z" fill="#F25050"/>
<path d="M371.989 141.213C366.598 138.931 360.651 138.3 354.901 139.399C349.15 140.497 343.855 143.276 339.684 147.384C335.514 151.492 332.655 156.744 331.469 162.477C330.284 168.21 330.825 174.166 333.024 179.591C335.224 185.016 338.982 189.667 343.825 192.956C348.668 196.245 354.377 198.024 360.231 198.069C366.085 198.113 371.821 196.42 376.713 193.204C381.605 189.988 385.433 185.394 387.714 180.003C390.772 172.774 390.833 164.626 387.884 157.351C384.935 150.077 379.218 144.272 371.989 141.213V141.213ZM351.794 188.956C347.735 187.251 344.273 184.379 341.847 180.705C339.421 177.031 338.14 172.72 338.165 168.317C338.191 163.914 339.523 159.618 341.992 155.973C344.461 152.327 347.957 149.497 352.035 147.839C356.114 146.182 360.593 145.772 364.905 146.662C369.217 147.551 373.168 149.701 376.258 152.837C379.348 155.974 381.437 159.957 382.261 164.282C383.086 168.607 382.608 173.079 380.889 177.133C378.591 182.552 374.238 186.84 368.785 189.056C363.331 191.272 357.221 191.236 351.794 188.956Z" fill="#C61010"/>
<path d="M457.94 127.71C458.874 126.159 459.441 124.415 459.599 122.611C459.758 120.807 459.502 118.991 458.853 117.301L455.136 118.293C454.863 115.296 453.962 112.389 452.491 109.763L456.102 108.44C455.655 106.696 454.819 105.075 453.655 103.7C452.491 102.326 451.031 101.233 449.383 100.505L447.452 103.838C445.13 101.913 442.425 100.502 439.517 99.6985L441.131 96.207C439.579 95.2733 437.836 94.7058 436.032 94.5477C434.228 94.3896 432.412 94.645 430.722 95.2945L431.714 99.024C428.717 99.299 425.811 100.2 423.184 101.669L421.888 98.0983C420.144 98.5434 418.525 99.3781 417.15 100.539C415.776 101.701 414.683 103.159 413.953 104.804L417.285 106.734C415.366 109.059 413.96 111.763 413.159 114.67L409.654 113.056C408.733 114.61 408.172 116.35 408.014 118.15C407.856 119.949 408.105 121.761 408.742 123.451L412.471 122.473C412.746 125.47 413.648 128.376 415.117 131.003L411.506 132.325C411.969 134.071 412.799 135.699 413.939 137.1C415.121 138.463 416.577 139.562 418.211 140.327L420.155 136.994C422.48 138.913 425.185 140.319 428.091 141.12L426.477 144.612C428.028 145.545 429.772 146.113 431.576 146.271C433.379 146.429 435.195 146.174 436.885 145.524L435.801 141.742C438.813 141.478 441.734 140.576 444.371 139.097L445.693 142.721C447.438 142.274 449.059 141.437 450.433 140.274C451.808 139.11 452.9 137.649 453.629 136.002L450.296 134.071C452.218 131.748 453.625 129.044 454.422 126.136L457.94 127.71ZM433.037 128.517C431.429 128.377 429.898 127.764 428.639 126.754C427.379 125.745 426.448 124.384 425.961 122.845C425.475 121.306 425.456 119.657 425.907 118.107C426.358 116.558 427.258 115.176 428.494 114.138C429.73 113.1 431.247 112.452 432.851 112.276C434.456 112.1 436.076 112.403 437.508 113.148C438.94 113.893 440.119 115.046 440.896 116.461C441.672 117.876 442.012 119.489 441.871 121.097C441.683 123.252 440.647 125.244 438.99 126.636C437.333 128.027 435.192 128.704 433.037 128.517V128.517Z" fill="#F25050"/>
<path d="M434.941 106.748C432.252 106.512 429.553 107.079 427.186 108.377C424.82 109.676 422.891 111.646 421.644 114.041C420.397 116.435 419.889 119.145 420.182 121.829C420.476 124.512 421.559 127.049 423.294 129.117C425.029 131.185 427.338 132.692 429.93 133.447C432.522 134.203 435.279 134.173 437.854 133.361C440.428 132.549 442.704 130.992 444.394 128.887C446.084 126.782 447.111 124.223 447.346 121.534C447.658 117.929 446.527 114.347 444.202 111.575C441.876 108.803 438.545 107.067 434.941 106.748V106.748ZM433.037 128.411C431.442 128.271 429.924 127.662 428.676 126.659C427.427 125.657 426.504 124.307 426.023 122.78C425.541 121.253 425.524 119.618 425.972 118.081C426.421 116.544 427.315 115.175 428.541 114.146C429.768 113.117 431.272 112.475 432.864 112.302C434.456 112.128 436.063 112.43 437.483 113.17C438.902 113.91 440.071 115.054 440.84 116.458C441.61 117.862 441.945 119.463 441.805 121.057C441.617 123.195 440.587 125.171 438.943 126.549C437.299 127.928 435.174 128.598 433.037 128.411V128.411Z" fill="#C61010"/>
<path d="M299.752 444.139H255.354V491.076H299.752V444.139Z" fill="#2A3993"/>
<path d="M368.418 491.076C368.418 493.052 367.634 494.947 366.238 496.345C364.842 497.744 362.948 498.531 360.972 498.535H194.121C192.145 498.531 190.252 497.744 188.856 496.345C187.46 494.947 186.676 493.052 186.676 491.076C186.676 489.1 187.46 487.204 188.856 485.806C190.252 484.407 192.145 483.62 194.121 483.616H360.972C362.948 483.62 364.842 484.407 366.238 485.806C367.634 487.204 368.418 489.1 368.418 491.076V491.076Z" fill="#1C257B"/>
<path d="M461.021 167.346H94.0716C85.6426 167.346 78.8096 174.179 78.8096 182.608V428.864C78.8096 437.293 85.6426 444.126 94.0716 444.126H461.021C469.45 444.126 476.283 437.293 476.283 428.864V182.608C476.283 174.179 469.45 167.346 461.021 167.346Z" fill="#1C257B"/>
<path d="M458.602 182.264H96.4922C94.1913 182.264 92.3262 184.129 92.3262 186.43V425.068C92.3262 427.369 94.1913 429.234 96.4922 429.234H458.602C460.902 429.234 462.768 427.369 462.768 425.068V186.43C462.768 184.129 460.902 182.264 458.602 182.264Z" fill="#D6E6FE"/>
<path opacity="0.1" d="M476.283 428.877V182.608C476.27 178.565 474.657 174.691 471.798 171.831C468.939 168.972 465.065 167.36 461.021 167.346H423.554C377.265 341.92 136.432 407.835 78.8096 421.272V428.916C78.8235 432.96 80.436 436.834 83.2951 439.693C86.1543 442.552 90.0281 444.165 94.0716 444.178H461.021C465.072 444.164 468.952 442.547 471.812 439.679C474.672 436.811 476.28 432.927 476.283 428.877V428.877Z" fill="#151B30"/>
<path d="M327.618 388.738H391.589C392.185 388.738 392.757 388.975 393.179 389.397C393.6 389.818 393.837 390.39 393.837 390.986V474.491C393.837 475.087 393.6 475.659 393.179 476.081C392.757 476.502 392.185 476.739 391.589 476.739H327.618C327.022 476.739 326.45 476.502 326.028 476.081C325.606 475.659 325.37 475.087 325.37 474.491V390.986C325.373 390.391 325.611 389.821 326.032 389.4C326.453 388.979 327.023 388.742 327.618 388.738V388.738Z" fill="#FFFFFD"/>
<path d="M386.947 396.858H332.273V401.011H386.947V396.858Z" fill="#CAD6E8"/>
<path d="M386.947 410.388H332.273V414.541H386.947V410.388Z" fill="#CAD6E8"/>
<path d="M386.947 423.904H332.273V428.057H386.947V423.904Z" fill="#CAD6E8"/>
<path d="M386.947 437.42H332.273V441.573H386.947V437.42Z" fill="#CAD6E8"/>
<path d="M386.947 450.937H332.273V455.089H386.947V450.937Z" fill="#CAD6E8"/>
<path d="M386.947 464.453H332.273V468.606H386.947V464.453Z" fill="#CAD6E8"/>
<path d="M362.268 419.315C360.478 419.322 358.763 420.036 357.497 421.302C356.231 422.568 355.517 424.283 355.51 426.073V428.44C355.503 430.231 354.789 431.946 353.523 433.211C352.257 434.477 350.542 435.192 348.752 435.199H316.085C315.222 435.182 314.365 435.35 313.572 435.69C312.779 436.031 312.067 436.536 311.484 437.173C310.901 437.81 310.46 438.563 310.191 439.384C309.922 440.204 309.83 441.072 309.922 441.93L314.379 493.125C314.572 494.949 315.425 496.64 316.776 497.879C318.128 499.119 319.886 499.822 321.719 499.857H395.437C397.263 499.825 399.013 499.118 400.348 497.873C401.684 496.627 402.512 494.931 402.671 493.112L407.34 426.086C407.414 425.221 407.306 424.35 407.023 423.529C406.739 422.708 406.287 421.956 405.695 421.32C405.103 420.685 404.385 420.18 403.586 419.84C402.787 419.499 401.926 419.329 401.058 419.341L362.268 419.315Z" fill="#F2A516"/>
<path d="M374.144 460.869C373.026 460.863 371.914 461.037 370.851 461.385C369.979 457.875 367.853 454.806 364.873 452.757C361.893 450.708 358.266 449.821 354.677 450.264C351.087 450.707 347.785 452.449 345.392 455.16C342.999 457.872 341.682 461.366 341.689 464.982C341.691 465.57 341.727 466.157 341.795 466.741C341.273 466.635 340.741 466.582 340.208 466.582C338.089 466.582 336.058 467.424 334.56 468.922C333.062 470.42 332.22 472.452 332.22 474.57C332.22 476.689 333.062 478.721 334.56 480.219C336.058 481.717 338.089 482.558 340.208 482.558H374.144C377.02 482.558 379.779 481.416 381.813 479.382C383.846 477.348 384.989 474.59 384.989 471.714C384.989 468.837 383.846 466.079 381.813 464.045C379.779 462.011 377.02 460.869 374.144 460.869Z" fill="#FFFFFD"/>
<path opacity="0.1" d="M401.058 419.315H390.742C388.705 470.894 363.723 491.552 343.752 499.857H395.437C397.263 499.825 399.012 499.118 400.348 497.873C401.684 496.627 402.511 494.931 402.671 493.112L407.34 426.086C407.418 425.219 407.312 424.345 407.031 423.521C406.749 422.697 406.298 421.941 405.706 421.303C405.113 420.664 404.394 420.157 403.593 419.815C402.792 419.472 401.928 419.302 401.058 419.315V419.315Z" fill="#151B30"/>
<path d="M437.216 494.064C437.216 495.222 436.756 496.332 435.938 497.151C435.119 497.969 434.009 498.429 432.852 498.429C431.693 498.429 430.582 497.969 429.761 497.151C428.94 496.333 428.478 495.223 428.474 494.064V424.843C428.474 424.269 428.587 423.7 428.808 423.17C429.028 422.64 429.35 422.158 429.757 421.752C430.164 421.347 430.646 421.026 431.177 420.807C431.709 420.589 432.277 420.477 432.852 420.479C434.009 420.479 435.119 420.939 435.938 421.757C436.756 422.576 437.216 423.686 437.216 424.843V494.064Z" fill="#FFFFFD"/>
<path opacity="0.3" d="M434.544 502.793C434.546 503.017 434.504 503.238 434.419 503.445C434.335 503.652 434.211 503.84 434.053 503.999C433.896 504.157 433.709 504.283 433.502 504.369C433.296 504.455 433.075 504.499 432.852 504.499V504.499C432.399 504.499 431.965 504.32 431.645 504C431.325 503.68 431.146 503.246 431.146 502.793V452.034C431.146 451.811 431.19 451.59 431.276 451.384C431.362 451.177 431.487 450.99 431.646 450.833C431.805 450.675 431.993 450.551 432.2 450.467C432.407 450.382 432.628 450.34 432.852 450.342V450.342C433.301 450.342 433.731 450.52 434.049 450.837C434.366 451.155 434.544 451.585 434.544 452.034V502.793Z" fill="#82ACEB"/>
<path d="M445.694 391.7V407.703L432.812 415.136L419.917 407.703V391.7C416.027 394.439 413.111 398.345 411.59 402.852C410.069 407.359 410.024 412.234 411.46 416.769C412.896 421.304 415.739 425.264 419.577 428.075C423.415 430.885 428.048 432.4 432.806 432.4C437.563 432.4 442.196 430.885 446.034 428.075C449.872 425.264 452.715 421.304 454.151 416.769C455.587 412.234 455.542 407.359 454.021 402.852C452.5 398.345 449.584 394.439 445.694 391.7V391.7Z" fill="#FFFFFD"/>
<g opacity="0.2">
<path opacity="0.2" d="M453.496 401.368C453.714 402.626 453.824 403.9 453.827 405.177C453.821 410.337 452.033 415.337 448.767 419.332C445.5 423.327 440.955 426.071 435.899 427.102C430.842 428.133 425.585 427.387 421.016 424.99C416.446 422.593 412.844 418.691 410.818 413.945C411.361 417.053 412.555 420.01 414.321 422.624C416.087 425.238 418.385 427.449 421.065 429.112C423.745 430.776 426.746 431.855 429.872 432.278C432.998 432.701 436.178 432.458 439.203 431.567C442.229 430.675 445.032 429.154 447.429 427.103C449.826 425.053 451.763 422.519 453.112 419.668C454.462 416.817 455.193 413.713 455.26 410.559C455.326 407.405 454.725 404.273 453.496 401.368V401.368Z" fill="#82ACEB"/>
</g>
<path d="M76.4161 154.756C75.1596 152.795 73.4303 151.182 71.3874 150.065C69.3444 148.948 67.0533 148.363 64.7249 148.363C62.3964 148.363 60.1054 148.948 58.0624 150.065C56.0194 151.182 54.2902 152.795 53.0337 154.756C52.2269 155.946 54.1578 157.057 54.9646 155.88C56.0183 154.247 57.4643 152.905 59.1705 151.976C60.8767 151.046 62.7886 150.559 64.7315 150.559C66.6744 150.559 68.5863 151.046 70.2925 151.976C71.9987 152.905 73.4447 154.247 74.4984 155.88C75.2919 157.057 77.2228 155.88 76.4161 154.756Z" fill="#F25050"/>
<path d="M84.4436 150.603C82.3329 147.279 79.417 144.542 75.9664 142.646C72.5158 140.749 68.6422 139.755 64.7048 139.755C60.7674 139.755 56.8938 140.749 53.4432 142.646C49.9926 144.542 47.0767 147.279 44.966 150.603C44.1725 151.806 46.1034 152.917 46.8837 151.727C48.8008 148.751 51.4337 146.304 54.5414 144.61C57.649 142.915 61.1321 142.027 64.6717 142.027C68.2114 142.027 71.6945 142.915 74.8021 144.61C77.9098 146.304 80.5427 148.751 82.4598 151.727C83.2401 152.917 85.1049 151.806 84.3907 150.603H84.4436Z" fill="#F25050"/>
<path d="M93.9791 147.032C90.8487 142.111 86.5271 138.059 81.4146 135.252C76.302 132.445 70.5638 130.973 64.7313 130.973C58.8988 130.973 53.1606 132.445 48.048 135.252C42.9355 138.059 38.6139 142.111 35.4835 147.032C34.7032 148.235 36.6341 149.36 37.4012 148.156C40.3289 143.563 44.3673 139.782 49.143 137.163C53.9188 134.543 59.2778 133.17 64.7247 133.17C70.1716 133.17 75.5306 134.543 80.3064 137.163C85.0821 139.782 89.1205 143.563 92.0482 148.156C92.8285 149.36 94.7594 148.235 93.9791 147.032Z" fill="#F25050"/>
<path d="M64.7249 165.825C67.296 165.825 69.3802 163.741 69.3802 161.17C69.3802 158.599 67.296 156.514 64.7249 156.514C62.1538 156.514 60.0696 158.599 60.0696 161.17C60.0696 163.741 62.1538 165.825 64.7249 165.825Z" fill="#F25050"/>
<path opacity="0.3" d="M233.85 211.981H43.4056C41.9009 211.981 40.6812 213.201 40.6812 214.706V345.266C40.6812 346.771 41.9009 347.991 43.4056 347.991H233.85C235.355 347.991 236.575 346.771 236.575 345.266V214.706C236.575 213.201 235.355 211.981 233.85 211.981Z" fill="#FFFFFD"/>
<path d="M227.039 219.295H50.2035C48.8084 219.295 47.6775 220.426 47.6775 221.821V338.151C47.6775 339.546 48.8084 340.677 50.2035 340.677H227.039C228.434 340.677 229.565 339.546 229.565 338.151V221.821C229.565 220.426 228.434 219.295 227.039 219.295Z" fill="#FFFFFD"/>
<path d="M229.565 238.366V221.821C229.562 221.152 229.294 220.512 228.822 220.039C228.349 219.566 227.708 219.299 227.039 219.295H50.2563C49.5874 219.299 48.9469 219.566 48.4739 220.039C48.0009 220.512 47.7337 221.152 47.7302 221.821V238.366H229.565Z" fill="#F25050"/>
<path d="M62.7939 229.254C62.7939 229.986 62.5767 230.702 62.1698 231.311C61.7629 231.92 61.1846 232.395 60.5079 232.675C59.8313 232.955 59.0867 233.029 58.3684 232.886C57.65 232.743 56.9902 232.39 56.4723 231.872C55.9544 231.355 55.6017 230.695 55.4589 229.976C55.316 229.258 55.3893 228.513 55.6696 227.837C55.9499 227.16 56.4245 226.582 57.0335 226.175C57.6424 225.768 58.3584 225.551 59.0908 225.551C59.5776 225.549 60.0599 225.644 60.51 225.829C60.96 226.015 61.369 226.287 61.7132 226.632C62.0574 226.976 62.3301 227.385 62.5156 227.835C62.701 228.285 62.7956 228.767 62.7939 229.254Z" fill="#FFFFFD"/>
<path d="M77.9501 229.254C77.9501 229.987 77.7326 230.703 77.3251 231.313C76.9176 231.922 76.3385 232.396 75.6611 232.676C74.9837 232.956 74.2384 233.029 73.5197 232.885C72.801 232.741 72.1412 232.387 71.6239 231.868C71.1065 231.348 70.7549 230.687 70.6135 229.968C70.4721 229.249 70.5473 228.504 70.8296 227.828C71.1119 227.151 71.5886 226.574 72.1993 226.168C72.8101 225.763 73.5273 225.548 74.2603 225.551C74.7459 225.551 75.2268 225.647 75.6754 225.833C76.1239 226.019 76.5313 226.292 76.8741 226.636C77.2169 226.98 77.4884 227.389 77.6731 227.838C77.8577 228.287 77.9519 228.768 77.9501 229.254V229.254Z" fill="#FFFFFD"/>
<path d="M93.1064 229.254C93.1064 229.987 92.8889 230.703 92.4814 231.313C92.0739 231.922 91.4947 232.396 90.8173 232.676C90.1399 232.956 89.3947 233.029 88.676 232.885C87.9573 232.741 87.2975 232.387 86.7801 231.868C86.2628 231.348 85.9111 230.687 85.7697 229.968C85.6284 229.249 85.7036 228.504 85.9859 227.828C86.2682 227.151 86.7449 226.574 87.3556 226.168C87.9663 225.763 88.6836 225.548 89.4165 225.551C89.9022 225.551 90.3831 225.647 90.8316 225.833C91.2802 226.019 91.6875 226.292 92.0303 226.636C92.3731 226.98 92.6447 227.389 92.8293 227.838C93.014 228.287 93.1081 228.768 93.1064 229.254V229.254Z" fill="#FFFFFD"/>
<path d="M223.6 243.802H53.655V333.998H223.6V243.802Z" fill="#F9DEDE"/>
<path d="M231.113 335.453C236.667 335.453 238.241 332.015 234.604 327.809L180.261 264.949C179.466 263.961 178.458 263.164 177.314 262.616C176.17 262.068 174.917 261.784 173.649 261.784C172.38 261.784 171.127 262.068 169.983 262.616C168.839 263.164 167.832 263.961 167.036 264.949L122.162 316.858C121.367 317.847 120.36 318.644 119.215 319.191C118.071 319.739 116.818 320.023 115.55 320.023C114.281 320.023 113.029 319.739 111.884 319.191C110.74 318.644 109.733 317.847 108.937 316.858L88.5304 293.251C87.7347 292.263 86.7276 291.466 85.5833 290.918C84.4389 290.371 83.1864 290.086 81.9178 290.086C80.6491 290.086 79.3966 290.371 78.2523 290.918C77.1079 291.466 76.1009 292.263 75.3051 293.251L45.4423 327.809C41.8054 332.001 43.3792 335.453 48.9338 335.453H231.113Z" fill="#FFFFFD"/>
<path d="M134.964 272.818C134.964 275.766 134.09 278.648 132.452 281.099C130.815 283.55 128.487 285.46 125.763 286.588C123.04 287.717 120.043 288.012 117.152 287.437C114.26 286.861 111.605 285.442 109.52 283.357C107.436 281.273 106.016 278.617 105.441 275.726C104.866 272.835 105.161 269.838 106.289 267.114C107.417 264.391 109.328 262.063 111.779 260.425C114.23 258.787 117.112 257.913 120.059 257.913C124.013 257.913 127.804 259.483 130.599 262.279C133.394 265.074 134.964 268.865 134.964 272.818V272.818Z" fill="#FFFFFD"/>
<path opacity="0.1" d="M227.039 340.677C227.708 340.674 228.348 340.406 228.821 339.933C229.294 339.46 229.562 338.82 229.565 338.151V221.768C229.562 221.099 229.294 220.459 228.821 219.986C228.348 219.513 227.708 219.246 227.039 219.242H210.018C204.926 339.13 116.978 340.624 113.288 340.624L227.039 340.677Z" fill="#151B30"/>
<path opacity="0.3" d="M515.007 361.454C515.007 362.36 514.648 363.23 514.009 363.872C513.369 364.514 512.501 364.876 511.595 364.88H272.72C271.813 364.876 270.945 364.514 270.306 363.872C269.666 363.23 269.307 362.36 269.307 361.454V197.103C269.307 196.197 269.666 195.328 270.306 194.686C270.945 194.044 271.813 193.681 272.72 193.678H511.595C512.501 193.681 513.369 194.044 514.009 194.686C514.648 195.328 515.007 196.197 515.007 197.103V361.454Z" fill="#FFFFFD"/>
<path d="M505.948 199.854H278.591C277.196 199.854 276.065 200.985 276.065 202.38V356.601C276.065 357.996 277.196 359.127 278.591 359.127H505.948C507.343 359.127 508.474 357.996 508.474 356.601V202.38C508.474 200.985 507.343 199.854 505.948 199.854Z" fill="#FFFFFD"/>
<path d="M508.474 218.925V202.38C508.471 201.711 508.203 201.071 507.73 200.598C507.257 200.125 506.617 199.857 505.948 199.854H278.591C277.923 199.857 277.282 200.125 276.809 200.598C276.336 201.071 276.069 201.711 276.065 202.38V218.925H508.474Z" fill="#F2A516"/>
<path d="M291.182 209.799C291.185 210.532 290.97 211.249 290.564 211.86C290.159 212.471 289.582 212.948 288.905 213.23C288.229 213.512 287.484 213.587 286.765 213.446C286.045 213.305 285.384 212.953 284.865 212.436C284.346 211.918 283.992 211.258 283.848 210.54C283.704 209.821 283.777 209.076 284.056 208.398C284.336 207.721 284.811 207.142 285.42 206.734C286.03 206.327 286.746 206.109 287.479 206.109C288.459 206.109 289.399 206.498 290.093 207.189C290.787 207.881 291.179 208.819 291.182 209.799V209.799Z" fill="#FFFFFD"/>
<path d="M306.338 209.799C306.341 210.532 306.126 211.249 305.721 211.86C305.315 212.471 304.738 212.948 304.062 213.23C303.385 213.512 302.64 213.587 301.921 213.446C301.202 213.305 300.541 212.953 300.021 212.436C299.502 211.918 299.148 211.258 299.004 210.54C298.86 209.821 298.933 209.076 299.213 208.398C299.493 207.721 299.967 207.142 300.577 206.734C301.186 206.327 301.902 206.109 302.635 206.109C303.615 206.109 304.555 206.498 305.249 207.189C305.943 207.881 306.335 208.819 306.338 209.799V209.799Z" fill="#FFFFFD"/>
<path d="M321.495 209.799C321.497 210.532 321.282 211.249 320.877 211.86C320.472 212.471 319.894 212.948 319.218 213.23C318.541 213.512 317.796 213.587 317.077 213.446C316.358 213.305 315.697 212.953 315.178 212.436C314.658 211.918 314.304 211.258 314.161 210.54C314.017 209.821 314.089 209.076 314.369 208.398C314.649 207.721 315.123 207.142 315.733 206.734C316.342 206.327 317.058 206.109 317.791 206.109C318.771 206.109 319.711 206.498 320.405 207.189C321.099 207.881 321.491 208.819 321.495 209.799V209.799Z" fill="#FFFFFD"/>
<path d="M386.801 231.436H289.463V278.227H386.801V231.436Z" fill="#F9DEDE"/>
<path d="M404.113 254.58C404.113 246.235 410.488 240.323 419.19 240.323C421.42 240.218 423.644 240.63 425.688 241.527C427.733 242.424 429.542 243.782 430.974 245.494L426.041 249.951C425.284 248.953 424.306 248.144 423.184 247.586C422.062 247.028 420.826 246.738 419.573 246.738C417.551 246.821 415.639 247.683 414.237 249.143C412.836 250.604 412.053 252.549 412.053 254.574C412.053 256.598 412.836 258.544 414.237 260.004C415.639 261.465 417.551 262.327 419.573 262.41C420.826 262.409 422.062 262.119 423.184 261.561C424.306 261.004 425.284 260.194 426.041 259.196L430.974 263.666C429.543 265.367 427.742 266.717 425.709 267.613C423.675 268.51 421.463 268.928 419.243 268.837C410.488 268.837 404.113 262.912 404.113 254.58Z" fill="#F2A516"/>
<path d="M459.17 268.282L459.091 253.734L452.041 265.571H448.603L441.593 254.157V268.295H434.425V240.932H440.813L450.441 256.802L459.844 240.932H466.219L466.298 268.348L459.17 268.282Z" fill="#F2A516"/>
<path d="M469.869 265.822L472.422 260.095C475.132 261.802 478.265 262.719 481.468 262.74C484.669 262.74 485.925 261.828 485.925 260.505C485.925 256.154 470.346 259.328 470.346 249.145C470.346 244.251 474.313 240.257 482.486 240.257C485.949 240.204 489.369 241.022 492.432 242.638L490.038 248.404C487.722 247.082 485.113 246.355 482.447 246.288C479.193 246.288 478.016 247.386 478.016 248.748C478.016 252.94 493.569 249.806 493.569 259.91C493.569 264.698 489.602 268.771 481.428 268.771C477.375 268.891 473.37 267.869 469.869 265.822V265.822Z" fill="#F2A516"/>
<path d="M386.801 287.353H289.463V292.008H386.801V287.353Z" fill="#CAD6E8"/>
<path d="M386.801 298.065H289.463V302.721H386.801V298.065Z" fill="#CAD6E8"/>
<path d="M386.801 308.778H289.463V313.433H386.801V308.778Z" fill="#CAD6E8"/>
<path d="M386.801 319.49H289.463V324.146H386.801V319.49Z" fill="#CAD6E8"/>
<path d="M386.801 330.203H289.463V334.858H386.801V330.203Z" fill="#CAD6E8"/>
<path d="M386.801 340.915H289.463V345.571H386.801V340.915Z" fill="#CAD6E8"/>
<path d="M495.09 285.594H405.634V345.571H495.09V285.594Z" fill="#F9DEDE"/>
<path d="M495.09 285.594H405.634V292.841H495.09V285.594Z" fill="#F25050"/>
<path d="M412.233 289.217C412.233 289.586 412.124 289.947 411.919 290.253C411.714 290.56 411.423 290.799 411.082 290.94C410.741 291.081 410.366 291.118 410.005 291.046C409.643 290.974 409.311 290.797 409.05 290.536C408.789 290.275 408.611 289.943 408.539 289.581C408.468 289.219 408.504 288.844 408.646 288.504C408.787 288.163 409.026 287.872 409.332 287.667C409.639 287.462 410 287.353 410.368 287.353C410.862 287.356 411.334 287.554 411.683 287.903C412.032 288.251 412.23 288.724 412.233 289.217V289.217Z" fill="#FFFFFD"/>
<path d="M419.825 289.217C419.847 289.476 419.814 289.737 419.73 289.983C419.646 290.229 419.512 290.455 419.336 290.646C419.16 290.837 418.946 290.99 418.708 291.094C418.47 291.199 418.213 291.253 417.953 291.253C417.694 291.253 417.437 291.199 417.199 291.094C416.961 290.99 416.747 290.837 416.571 290.646C416.395 290.455 416.261 290.229 416.177 289.983C416.092 289.737 416.06 289.476 416.082 289.217C416.122 288.748 416.336 288.311 416.682 287.992C417.029 287.674 417.483 287.497 417.953 287.497C418.424 287.497 418.878 287.674 419.225 287.992C419.571 288.311 419.785 288.748 419.825 289.217V289.217Z" fill="#FFFFFD"/>
<path d="M427.403 289.217C427.425 289.476 427.392 289.737 427.308 289.983C427.224 290.229 427.09 290.455 426.914 290.646C426.738 290.837 426.524 290.99 426.286 291.094C426.048 291.199 425.791 291.253 425.531 291.253C425.271 291.253 425.014 291.199 424.776 291.094C424.538 290.99 424.325 290.837 424.149 290.646C423.973 290.455 423.839 290.229 423.754 289.983C423.67 289.737 423.638 289.476 423.66 289.217C423.699 288.748 423.914 288.311 424.26 287.992C424.607 287.674 425.061 287.497 425.531 287.497C426.002 287.497 426.456 287.674 426.802 287.992C427.149 288.311 427.363 288.748 427.403 289.217V289.217Z" fill="#FFFFFD"/>
<path d="M465.915 318.115C465.912 321.19 464.998 324.196 463.287 326.752C461.577 329.308 459.147 331.299 456.305 332.474C453.462 333.65 450.336 333.956 447.319 333.354C444.303 332.752 441.533 331.27 439.36 329.095C437.186 326.919 435.706 324.148 435.107 321.131C434.508 318.114 434.816 314.988 435.994 312.147C437.172 309.305 439.165 306.877 441.722 305.169C444.28 303.46 447.286 302.549 450.362 302.549C452.405 302.549 454.429 302.951 456.317 303.734C458.205 304.516 459.92 305.663 461.364 307.109C462.809 308.554 463.954 310.27 464.735 312.159C465.516 314.047 465.917 316.071 465.915 318.115V318.115Z" fill="#F25050"/>
<path d="M447.122 309.241V326.976L457.385 318.115L447.122 309.241Z" fill="#FFFFFD"/>
<path opacity="0.1" d="M508.474 356.601V202.38C508.471 201.711 508.203 201.071 507.73 200.598C507.258 200.125 506.617 199.857 505.948 199.854H477.606C478.069 318.617 374.607 359.127 374.607 359.127H505.948C506.617 359.123 507.258 358.856 507.73 358.383C508.203 357.91 508.471 357.269 508.474 356.601V356.601Z" fill="#151B30"/>
<path opacity="0.3" d="M250.408 96.9873H126.818C125.299 96.9873 124.067 98.2189 124.067 99.7382V193.043C124.067 194.562 125.299 195.794 126.818 195.794H250.408C251.928 195.794 253.159 194.562 253.159 193.043V99.7382C253.159 98.2189 251.928 96.9873 250.408 96.9873Z" fill="#FFFFFD"/>
<path d="M245.435 103.388H131.764C130.369 103.388 129.238 104.519 129.238 105.914V186.867C129.238 188.262 130.369 189.393 131.764 189.393H245.435C246.831 189.393 247.962 188.262 247.962 186.867V105.914C247.962 104.519 246.831 103.388 245.435 103.388Z" fill="#FFFFFD"/>
<path d="M247.975 122.459V105.914C247.971 105.246 247.704 104.605 247.231 104.132C246.758 103.659 246.118 103.392 245.449 103.388H131.711C131.042 103.392 130.402 103.659 129.929 104.132C129.456 104.605 129.189 105.246 129.185 105.914V122.459H247.975Z" fill="#F2A516"/>
<path d="M144.354 113.334C144.357 114.067 144.142 114.784 143.737 115.395C143.331 116.006 142.754 116.482 142.078 116.765C141.401 117.047 140.656 117.122 139.937 116.981C139.218 116.839 138.557 116.488 138.038 115.97C137.518 115.453 137.164 114.793 137.02 114.074C136.876 113.356 136.949 112.611 137.229 111.933C137.509 111.256 137.983 110.677 138.593 110.269C139.202 109.862 139.918 109.644 140.651 109.644C141.631 109.644 142.571 110.032 143.265 110.724C143.959 111.416 144.351 112.354 144.354 113.334V113.334Z" fill="#FFFFFD"/>
<path d="M159.511 113.334C159.513 114.067 159.298 114.785 158.892 115.396C158.486 116.007 157.908 116.484 157.231 116.766C156.554 117.048 155.808 117.122 155.088 116.98C154.369 116.837 153.708 116.484 153.189 115.966C152.67 115.447 152.317 114.786 152.175 114.066C152.033 113.347 152.107 112.601 152.389 111.924C152.671 111.247 153.148 110.669 153.758 110.263C154.369 109.857 155.087 109.641 155.821 109.644C156.799 109.644 157.738 110.033 158.43 110.725C159.122 111.417 159.511 112.355 159.511 113.334Z" fill="#FFFFFD"/>
<path d="M174.667 113.334C174.669 114.067 174.454 114.785 174.048 115.396C173.642 116.007 173.064 116.484 172.387 116.766C171.71 117.048 170.964 117.122 170.244 116.98C169.525 116.837 168.864 116.484 168.345 115.966C167.826 115.447 167.473 114.786 167.331 114.066C167.189 113.347 167.263 112.601 167.545 111.924C167.827 111.247 168.304 110.669 168.915 110.263C169.525 109.857 170.243 109.641 170.977 109.644C171.955 109.644 172.894 110.033 173.586 110.725C174.278 111.417 174.667 112.355 174.667 113.334Z" fill="#FFFFFD"/>
<path d="M192.6 137.536C188.721 149.28 184.842 161.024 180.962 172.768C180.195 175.096 183.858 176.101 184.612 173.787C188.501 162.043 192.38 150.299 196.251 138.554C197.018 136.227 193.368 135.235 192.6 137.536Z" fill="#82ACEB"/>
<path d="M178.542 162.281L168.914 155.668L178.542 149.056C180.552 147.733 178.661 144.387 176.638 145.776L164.616 154.041C164.337 154.215 164.107 154.456 163.947 154.743C163.788 155.03 163.704 155.353 163.704 155.681C163.704 156.01 163.788 156.333 163.947 156.62C164.107 156.906 164.337 157.148 164.616 157.321L176.638 165.574C178.687 166.949 180.579 163.656 178.542 162.281Z" fill="#82ACEB"/>
<path d="M198.644 162.281L208.259 155.668L198.644 149.056C196.647 147.733 198.539 144.387 200.549 145.776L212.557 154.041C212.839 154.212 213.073 154.453 213.234 154.74C213.396 155.028 213.481 155.352 213.481 155.681C213.481 156.011 213.396 156.335 213.234 156.622C213.073 156.91 212.839 157.15 212.557 157.321L200.549 165.547C198.539 166.949 196.647 163.656 198.644 162.281Z" fill="#82ACEB"/>
<path opacity="0.1" d="M245.449 189.353C246.118 189.35 246.758 189.082 247.231 188.609C247.704 188.136 247.971 187.496 247.975 186.827V105.914C247.971 105.246 247.704 104.605 247.231 104.132C246.758 103.659 246.118 103.392 245.449 103.388H230.121C225.32 148.103 203.419 174.501 184.031 189.353H245.449Z" fill="#151B30"/>
<path opacity="0.3" d="M237.368 373H113.777C112.258 373 111.027 374.232 111.027 375.751V469.056C111.027 470.575 112.258 471.806 113.777 471.806H237.368C238.887 471.806 240.119 470.575 240.119 469.056V375.751C240.119 374.232 238.887 373 237.368 373Z" fill="#FFFFFD"/>
<path d="M232.409 379.401H118.737C117.342 379.401 116.211 380.532 116.211 381.927V462.892C116.211 464.287 117.342 465.418 118.737 465.418H232.409C233.804 465.418 234.935 464.287 234.935 462.892V381.927C234.935 380.532 233.804 379.401 232.409 379.401Z" fill="#FFFFFD"/>
<path d="M234.935 398.472V381.927C234.931 381.258 234.664 380.618 234.191 380.145C233.718 379.672 233.077 379.404 232.409 379.401H118.671C118.003 379.404 117.364 379.672 116.893 380.145C116.422 380.619 116.158 381.259 116.158 381.927V398.472H234.935Z" fill="#F2A516"/>
<path d="M131.314 389.346C131.317 390.079 131.102 390.796 130.697 391.407C130.291 392.018 129.714 392.494 129.038 392.777C128.361 393.059 127.616 393.134 126.897 392.993C126.178 392.852 125.517 392.5 124.998 391.983C124.478 391.465 124.124 390.805 123.98 390.087C123.836 389.368 123.909 388.623 124.189 387.945C124.469 387.268 124.943 386.689 125.553 386.281C126.162 385.874 126.878 385.656 127.611 385.656C128.097 385.655 128.578 385.749 129.027 385.933C129.477 386.118 129.885 386.39 130.229 386.732C130.573 387.075 130.846 387.482 131.032 387.931C131.218 388.38 131.314 388.86 131.314 389.346V389.346Z" fill="#FFFFFD"/>
<path d="M146.47 389.346C146.473 390.08 146.258 390.797 145.852 391.408C145.446 392.019 144.868 392.496 144.191 392.778C143.513 393.06 142.768 393.134 142.048 392.992C141.329 392.849 140.668 392.496 140.149 391.978C139.63 391.459 139.277 390.798 139.135 390.079C138.992 389.359 139.067 388.613 139.349 387.936C139.631 387.259 140.107 386.681 140.718 386.275C141.329 385.869 142.047 385.654 142.781 385.656C143.265 385.656 143.745 385.752 144.193 385.937C144.64 386.123 145.047 386.394 145.39 386.737C145.732 387.08 146.004 387.486 146.189 387.934C146.375 388.382 146.47 388.862 146.47 389.346V389.346Z" fill="#FFFFFD"/>
<path d="M161.627 389.346C161.629 390.08 161.414 390.797 161.008 391.408C160.602 392.019 160.024 392.496 159.347 392.778C158.67 393.06 157.924 393.134 157.204 392.992C156.485 392.849 155.824 392.496 155.305 391.978C154.786 391.459 154.433 390.798 154.291 390.079C154.149 389.359 154.223 388.613 154.505 387.936C154.787 387.259 155.263 386.681 155.874 386.275C156.485 385.869 157.203 385.654 157.937 385.656C158.915 385.656 159.854 386.045 160.546 386.737C161.238 387.429 161.627 388.368 161.627 389.346Z" fill="#FFFFFD"/>
<path d="M149.221 403.021H122.374V407.28H149.221V403.021Z" fill="#CAD6E8"/>
<path d="M228.243 403.021H154.115V407.28H228.243V403.021Z" fill="#82ACEB"/>
<path d="M142.82 413.906H122.374V418.164H142.82V413.906Z" fill="#CAD6E8"/>
<path d="M214.171 413.906H146.55V418.164H214.171V413.906Z" fill="#82ACEB"/>
<path d="M149.221 424.803H122.374V429.062H149.221V424.803Z" fill="#CAD6E8"/>
<path d="M200.536 424.803H154.115V429.062H200.536V424.803Z" fill="#82ACEB"/>
<path d="M142.82 435.701H122.374V439.96H142.82V435.701Z" fill="#CAD6E8"/>
<path d="M222.344 435.701H146.55V439.96H222.344V435.701Z" fill="#82ACEB"/>
<path d="M149.221 446.585H122.374V450.844H149.221V446.585Z" fill="#CAD6E8"/>
<path d="M228.243 446.585H154.115V450.844H228.243V446.585Z" fill="#82ACEB"/>
<path d="M142.82 457.483H122.374V461.742H142.82V457.483Z" fill="#CAD6E8"/>
<path d="M214.171 457.483H146.55V461.742H214.171V457.483Z" fill="#82ACEB"/>
<path opacity="0.1" d="M232.408 465.405C233.077 465.402 233.718 465.134 234.191 464.661C234.664 464.188 234.931 463.548 234.935 462.879V381.927C234.931 381.258 234.664 380.618 234.191 380.145C233.718 379.672 233.077 379.404 232.408 379.401H217.133C212.346 424.116 190.431 450.513 171.043 465.365L232.408 465.405Z" fill="#151B30"/>
<path d="M9.23128 107.819L7.16813 102.78L5.09175 107.819L0 109.644L5.09175 111.469L7.16813 116.508L9.23128 111.469L14.323 109.644L9.23128 107.819Z" fill="#90BDF4"/>
<path d="M17.669 188.559L13.7147 178.918L9.74706 188.559L0 192.051L9.74706 195.542L13.7147 205.184L17.669 195.542L27.4161 192.051L17.669 188.559Z" fill="#90BDF4"/>
<path d="M11.797 359.947L9.7338 354.908L7.65742 359.947L2.56567 361.772L7.65742 363.597L9.7338 368.636L11.797 363.597L16.8887 361.772L11.797 359.947Z" fill="#90BDF4"/>
<path d="M14.8521 286.705L13.7148 283.901L12.5509 286.705L9.7207 287.71L12.5509 288.728L13.7148 291.532L14.8521 288.728L17.6823 287.71L14.8521 286.705Z" fill="#90BDF4"/>
<path d="M95.3018 108.626L94.1512 105.835L93.0006 108.626L90.1704 109.644L93.0006 110.662L94.1512 113.453V113.466V113.453L95.3018 110.662L98.1321 109.644L95.3018 108.626Z" fill="#90BDF4"/>
<path d="M49.9652 403.815L48.8146 401.024L47.664 403.815L44.8337 404.833L47.664 405.852L48.8146 408.642V408.655V408.642L49.9652 405.852L52.7954 404.833L49.9652 403.815Z" fill="#90BDF4"/>
<path d="M293.258 128.345L291.182 123.306L289.105 128.345L284.014 130.17L289.105 132.008L291.182 137.034L293.258 132.008L298.35 130.17L293.258 128.345Z" fill="#90BDF4"/>
<path d="M364.424 86.7641L360.456 77.1228V77.1096V77.1228L356.488 86.7641L346.755 90.2424L356.488 93.7471L360.456 103.388L364.424 93.7471L374.171 90.2424L364.424 86.7641Z" fill="#90BDF4"/>
<path d="M276.304 67.7066L275.153 64.9028L274.002 67.7066L271.172 68.7117L274.002 69.7301L275.153 72.5338L276.304 69.7301L279.134 68.7117L276.304 67.7066Z" fill="#90BDF4"/>
<path d="M65.8753 67.7066L64.7247 64.9028L63.5741 67.7066L60.7439 68.7117L63.5741 69.7301L64.7247 72.5338L65.8753 69.7301L68.7055 68.7117L65.8753 67.7066Z" fill="#90BDF4"/>
<path d="M179.402 42.1419L177.325 37.1163V37.103V37.1163L175.262 42.1419L170.17 43.967L175.262 45.8053L177.325 50.8309V50.8441V50.8309L179.402 45.8053L184.493 43.967L179.402 42.1419Z" fill="#90BDF4"/>
<path d="M552.105 253.985L548.137 244.344V244.331V244.344L544.169 253.985L534.436 257.477L544.169 260.968L548.137 270.609L552.105 260.968L561.838 257.477L552.105 253.985Z" fill="#90BDF4"/>
<path d="M550.213 180.439L548.137 175.4L546.061 180.439L540.969 182.264L546.061 184.089L548.137 189.128L550.213 184.089L555.305 182.264L550.213 180.439Z" fill="#90BDF4"/>
<path d="M516.158 151.357L515.007 148.553L513.857 151.357L511.026 152.375L513.857 153.393L515.007 156.184L516.158 153.393L518.988 152.375L516.158 151.357Z" fill="#90BDF4"/>
<path d="M535.586 93.4429L534.435 90.6523L533.272 93.4429L530.441 94.4612L533.272 95.4796L534.435 98.2701L535.586 95.4796L538.403 94.4612L535.586 93.4429Z" fill="#90BDF4"/>
<path d="M512.177 412.887L511.027 410.097L509.876 412.887L507.046 413.906L509.876 414.924L511.027 417.728L512.177 414.924L515.008 413.906L512.177 412.887Z" fill="#90BDF4"/>
<path d="M543.045 335.678L540.982 330.639L538.905 335.678L533.814 337.503L538.905 339.328L540.982 344.367L543.045 339.328L548.137 337.503L543.045 335.678Z" fill="#90BDF4"/>
<path d="M460.784 49.8257L459.633 47.022L458.483 49.8257L455.652 50.8441L458.483 51.8492L459.633 54.653L460.784 51.8492L463.614 50.8441L460.784 49.8257Z" fill="#90BDF4"/>
<path d="M333.424 36.098L332.273 33.2942L331.122 36.098L328.292 37.1031L331.122 38.1214L332.273 40.9252L333.424 38.1214L336.254 37.1031L333.424 36.098Z" fill="#90BDF4"/>
</svg>
