<svg width="624" height="600" viewBox="0 0 624 600" fill="none" xmlns="http://www.w3.org/2000/svg">
<circle cx="312.358" cy="300.358" r="279.358" fill="#ECF7FF"/>
<path d="M487.233 70.5532H426.208V73.1999H487.233V70.5532Z" fill="#CDCDCD"/>
<path d="M276.756 375.351H210.17V379.076H276.756V375.351Z" fill="#60A4C2"/>
<path d="M239.97 356.72H140.473L115.574 334.402L118.057 331.625L141.897 352.995H239.97V356.72Z" fill="#9900A6"/>
<path d="M121.481 144.639L119.182 147.569L250.928 250.946L253.227 248.015L121.481 144.639Z" fill="#EEBD3A"/>
<path d="M143.334 178.511L142.19 179.981L255.386 268.133L256.531 266.664L143.334 178.511Z" fill="#CACACA"/>
<path d="M373.679 238.878L372.313 237.617L387.736 220.966V187.395H389.598V221.691L373.679 238.878Z" fill="#C84B2A"/>
<path d="M376.07 250.531L373.332 248.008L395.192 224.325V119.815H386.258V116.096H398.917V225.782L376.07 250.531Z" fill="#CDCDCD"/>
<path d="M457.551 284.657H395.617V288.382H457.551V284.657Z" fill="#CDCDCD"/>
<path d="M506.904 295.832H404.93V299.557H506.904V295.832Z" fill="#CDCDCD"/>
<path d="M463.02 293.956C461.457 293.956 459.93 293.493 458.631 292.625C457.331 291.757 456.319 290.523 455.721 289.079C455.123 287.635 454.966 286.047 455.271 284.514C455.576 282.981 456.328 281.574 457.433 280.469C458.538 279.364 459.946 278.611 461.479 278.306C463.011 278.001 464.6 278.158 466.044 278.756C467.487 279.354 468.721 280.367 469.59 281.666C470.458 282.965 470.921 284.493 470.921 286.055C470.918 288.15 470.084 290.157 468.603 291.638C467.122 293.119 465.115 293.953 463.02 293.956V293.956ZM463.02 281.618C462.143 281.618 461.285 281.878 460.555 282.366C459.825 282.853 459.256 283.547 458.921 284.357C458.585 285.168 458.497 286.06 458.668 286.921C458.839 287.782 459.262 288.573 459.882 289.193C460.503 289.814 461.294 290.236 462.154 290.408C463.015 290.579 463.907 290.491 464.718 290.155C465.529 289.819 466.222 289.25 466.71 288.521C467.197 287.791 467.457 286.933 467.457 286.055C467.457 284.879 466.99 283.75 466.158 282.918C465.326 282.086 464.197 281.618 463.02 281.618V281.618Z" fill="#CDCDCD"/>
<path d="M616.099 296.754C614.536 296.754 613.009 296.29 611.709 295.422C610.41 294.554 609.397 293.32 608.799 291.876C608.201 290.433 608.045 288.844 608.35 287.311C608.655 285.779 609.407 284.371 610.512 283.266C611.617 282.161 613.025 281.408 614.558 281.104C616.09 280.799 617.679 280.955 619.123 281.553C620.566 282.151 621.8 283.164 622.668 284.463C623.537 285.763 624 287.29 624 288.853C623.996 290.947 623.163 292.955 621.682 294.436C620.201 295.917 618.193 296.75 616.099 296.754V296.754ZM616.099 284.415C615.221 284.415 614.363 284.676 613.634 285.163C612.904 285.651 612.335 286.344 611.999 287.155C611.664 287.965 611.576 288.858 611.747 289.718C611.918 290.579 612.341 291.37 612.961 291.99C613.582 292.611 614.373 293.034 615.233 293.205C616.094 293.376 616.986 293.288 617.797 292.952C618.608 292.616 619.301 292.048 619.788 291.318C620.276 290.588 620.536 289.73 620.536 288.853C620.535 287.676 620.067 286.549 619.235 285.717C618.403 284.885 617.275 284.417 616.099 284.415Z" fill="#CDCDCD"/>
<path d="M158.536 510.053C156.973 510.053 155.446 509.59 154.146 508.722C152.847 507.854 151.834 506.62 151.236 505.176C150.638 503.732 150.482 502.144 150.787 500.611C151.091 499.078 151.844 497.671 152.949 496.566C154.054 495.461 155.462 494.708 156.994 494.403C158.527 494.098 160.116 494.255 161.559 494.853C163.003 495.451 164.237 496.464 165.105 497.763C165.973 499.062 166.437 500.59 166.437 502.152C166.435 504.247 165.602 506.256 164.121 507.737C162.639 509.219 160.631 510.052 158.536 510.053ZM158.536 497.715C157.658 497.715 156.8 497.975 156.07 498.463C155.341 498.951 154.772 499.644 154.436 500.454C154.1 501.265 154.012 502.157 154.184 503.018C154.355 503.879 154.777 504.67 155.398 505.29C156.019 505.911 156.809 506.333 157.67 506.505C158.531 506.676 159.423 506.588 160.234 506.252C161.045 505.916 161.738 505.347 162.225 504.618C162.713 503.888 162.973 503.03 162.973 502.152C162.973 500.976 162.506 499.847 161.673 499.015C160.841 498.183 159.713 497.715 158.536 497.715V497.715Z" fill="#CDCDCD"/>
<path d="M295.433 599.46C293.869 599.462 292.339 598.999 291.038 598.131C289.736 597.262 288.722 596.027 288.122 594.582C287.523 593.137 287.366 591.546 287.671 590.012C287.976 588.477 288.729 587.068 289.835 585.962C290.942 584.855 292.351 584.102 293.886 583.797C295.42 583.492 297.011 583.649 298.456 584.249C299.901 584.848 301.136 585.863 302.004 587.164C302.873 588.465 303.336 589.995 303.334 591.56C303.331 593.654 302.497 595.662 301.016 597.143C299.535 598.624 297.528 599.457 295.433 599.46V599.46ZM295.433 587.116C294.554 587.114 293.694 587.374 292.963 587.861C292.231 588.349 291.66 589.043 291.323 589.854C290.986 590.666 290.897 591.56 291.067 592.422C291.238 593.285 291.661 594.077 292.282 594.7C292.903 595.322 293.695 595.746 294.557 595.918C295.42 596.09 296.313 596.002 297.126 595.666C297.938 595.33 298.633 594.76 299.121 594.029C299.61 593.298 299.871 592.439 299.871 591.56C299.871 590.382 299.403 589.253 298.571 588.42C297.739 587.586 296.611 587.117 295.433 587.116Z" fill="#CDCDCD"/>
<path d="M418.313 36.5969C416.749 36.5982 415.219 36.1353 413.918 35.2669C412.616 34.3985 411.602 33.1636 411.003 31.7185C410.403 30.2733 410.246 28.6828 410.551 27.1483C410.856 25.6138 411.609 24.2042 412.715 23.0979C413.822 21.9916 415.231 21.2384 416.766 20.9335C418.3 20.6286 419.891 20.7857 421.336 21.385C422.781 21.9843 424.016 22.9989 424.885 24.3003C425.753 25.6016 426.216 27.1314 426.214 28.6959C426.211 30.7903 425.377 32.7979 423.896 34.2789C422.416 35.7599 420.408 36.5934 418.313 36.5969V36.5969ZM418.313 24.2585C417.436 24.2585 416.578 24.5188 415.848 25.0064C415.119 25.494 414.55 26.187 414.214 26.9978C413.878 27.8086 413.79 28.7008 413.961 29.5616C414.133 30.4223 414.555 31.213 415.176 31.8336C415.796 32.4542 416.587 32.8768 417.448 33.048C418.309 33.2192 419.201 33.1313 420.012 32.7955C420.822 32.4596 421.515 31.8909 422.003 31.1612C422.491 30.4314 422.751 29.5735 422.751 28.6959C422.746 27.5218 422.276 26.3975 421.445 25.5686C420.613 24.7396 419.488 24.2733 418.313 24.2716V24.2585Z" fill="#CDCDCD"/>
<path d="M116.574 150.537C115.011 150.535 113.484 150.071 112.186 149.202C110.887 148.333 109.876 147.099 109.279 145.655C108.682 144.211 108.526 142.623 108.832 141.09C109.137 139.558 109.89 138.151 110.996 137.047C112.101 135.942 113.509 135.19 115.041 134.886C116.574 134.582 118.162 134.739 119.605 135.337C121.049 135.935 122.282 136.948 123.15 138.247C124.018 139.546 124.481 141.073 124.481 142.636C124.478 144.731 123.643 146.74 122.161 148.221C120.678 149.702 118.669 150.535 116.574 150.537V150.537ZM116.574 138.198C115.696 138.2 114.839 138.461 114.11 138.949C113.381 139.438 112.814 140.131 112.479 140.942C112.144 141.753 112.057 142.645 112.229 143.505C112.401 144.366 112.824 145.156 113.445 145.776C114.066 146.396 114.856 146.818 115.717 146.988C116.577 147.159 117.469 147.071 118.28 146.735C119.09 146.399 119.783 145.83 120.27 145.1C120.757 144.371 121.018 143.513 121.018 142.636C121.016 141.458 120.547 140.33 119.714 139.498C118.88 138.666 117.751 138.198 116.574 138.198V138.198Z" fill="#EEBD3A"/>
<path d="M168.731 300.126C167.168 300.126 165.64 299.662 164.341 298.794C163.042 297.926 162.029 296.692 161.431 295.248C160.833 293.805 160.677 292.216 160.981 290.683C161.286 289.151 162.039 287.743 163.144 286.638C164.249 285.533 165.657 284.78 167.189 284.475C168.722 284.171 170.31 284.327 171.754 284.925C173.198 285.523 174.432 286.536 175.3 287.835C176.168 289.134 176.632 290.662 176.632 292.225C176.63 294.32 175.797 296.328 174.315 297.81C172.834 299.291 170.825 300.124 168.731 300.126ZM168.731 287.787C167.853 287.787 166.995 288.048 166.265 288.535C165.536 289.023 164.967 289.716 164.631 290.527C164.295 291.337 164.207 292.23 164.378 293.09C164.55 293.951 164.972 294.742 165.593 295.362C166.213 295.983 167.004 296.406 167.865 296.577C168.726 296.748 169.618 296.66 170.429 296.324C171.239 295.988 171.933 295.42 172.42 294.69C172.908 293.96 173.168 293.102 173.168 292.225C173.168 291.048 172.7 289.919 171.868 289.087C171.036 288.255 169.907 287.787 168.731 287.787V287.787Z" fill="#CDCDCD"/>
<path d="M233.337 442.029C231.774 442.029 230.247 441.566 228.947 440.698C227.648 439.83 226.635 438.596 226.037 437.152C225.439 435.708 225.283 434.12 225.588 432.587C225.892 431.054 226.645 429.647 227.75 428.542C228.855 427.437 230.263 426.684 231.795 426.379C233.328 426.074 234.917 426.231 236.36 426.829C237.804 427.427 239.038 428.44 239.906 429.739C240.774 431.038 241.238 432.566 241.238 434.128C241.236 436.223 240.403 438.232 238.922 439.713C237.44 441.195 235.432 442.028 233.337 442.029V442.029ZM233.337 429.691C232.459 429.691 231.601 429.951 230.872 430.439C230.142 430.926 229.573 431.62 229.237 432.43C228.901 433.241 228.813 434.133 228.985 434.994C229.156 435.855 229.579 436.646 230.199 437.266C230.82 437.887 231.61 438.309 232.471 438.48C233.332 438.652 234.224 438.564 235.035 438.228C235.846 437.892 236.539 437.323 237.026 436.594C237.514 435.864 237.774 435.006 237.774 434.128C237.772 432.952 237.304 431.824 236.473 430.993C235.641 430.161 234.513 429.693 233.337 429.691Z" fill="#CDCDCD"/>
<path d="M439.736 437.376C438.172 437.374 436.644 436.908 435.345 436.037C434.047 435.166 433.035 433.93 432.439 432.484C431.843 431.039 431.688 429.449 431.995 427.916C432.302 426.383 433.057 424.975 434.164 423.87C435.271 422.766 436.681 422.015 438.215 421.712C439.749 421.408 441.338 421.566 442.782 422.166C444.226 422.766 445.46 423.781 446.328 425.082C447.195 426.383 447.658 427.912 447.656 429.475C447.653 431.573 446.817 433.584 445.331 435.065C443.846 436.547 441.834 437.378 439.736 437.376ZM439.736 425.038C438.858 425.038 438 425.298 437.27 425.786C436.541 426.273 435.972 426.966 435.636 427.777C435.3 428.588 435.212 429.48 435.384 430.341C435.555 431.202 435.977 431.992 436.598 432.613C437.219 433.234 438.009 433.656 438.87 433.827C439.731 433.999 440.623 433.911 441.434 433.575C442.245 433.239 442.938 432.67 443.425 431.941C443.913 431.211 444.173 430.353 444.173 429.475C444.173 428.298 443.706 427.17 442.873 426.338C442.041 425.506 440.913 425.038 439.736 425.038V425.038Z" fill="#CDCDCD"/>
<path d="M233.337 33.192C231.774 33.192 230.247 32.7286 228.947 31.8605C227.648 30.9923 226.635 29.7583 226.037 28.3146C225.439 26.8709 225.283 25.2823 225.588 23.7496C225.892 22.217 226.645 20.8092 227.75 19.7042C228.855 18.5992 230.263 17.8468 231.795 17.5419C233.328 17.237 234.917 17.3935 236.36 17.9915C237.804 18.5895 239.038 19.6022 239.906 20.9015C240.774 22.2008 241.238 23.7284 241.238 25.291C241.236 27.386 240.403 29.3946 238.922 30.876C237.44 32.3573 235.432 33.1903 233.337 33.192V33.192ZM233.337 20.8537C232.459 20.8537 231.601 21.1139 230.872 21.6015C230.142 22.0891 229.573 22.7821 229.237 23.5929C228.901 24.4038 228.813 25.296 228.985 26.1567C229.156 27.0175 229.579 27.8082 230.199 28.4287C230.82 29.0493 231.61 29.4719 232.471 29.6431C233.332 29.8144 234.224 29.7265 235.035 29.3906C235.846 29.0548 236.539 28.486 237.026 27.7563C237.514 27.0266 237.774 26.1687 237.774 25.291C237.772 24.1147 237.304 22.9871 236.473 22.1553C235.641 21.3235 234.513 20.8554 233.337 20.8537V20.8537Z" fill="#CDCDCD"/>
<path d="M496.238 336.964H403.727V338.827H496.238V336.964Z" fill="#60A4C2"/>
<path d="M484.436 327.959H407.138V331.684H484.436V327.959Z" fill="#EEBD3A"/>
<path d="M277.076 286.52H215.143V288.382H277.076V286.52Z" fill="#CDCDCD"/>
<path d="M275.214 304.216H213.28V306.079H275.214V304.216Z" fill="#CDCDCD"/>
<path d="M258.902 316.784H184.545V318.646H258.902V316.784Z" fill="#CDCDCD"/>
<path d="M63.2599 208.039L39.9099 185.637V170.266H43.3735V184.166L65.6583 205.536L63.2599 208.039Z" fill="#CDCDCD"/>
<path d="M388.291 249.289L385.559 246.76L446.101 181.441H512.066V185.166H447.728L388.291 249.289Z" fill="#CDCDCD"/>
<path d="M365.941 293.375L363.209 290.839L423.751 225.521H449.355V229.246H425.378L365.941 293.375Z" fill="#CDCDCD"/>
<path d="M388.847 257.353L387.481 256.085L447.748 191.061H513.308V192.923H448.565L388.847 257.353Z" fill="#CDCDCD"/>
<path d="M239.826 297.204H199.929V300.668H239.826V297.204Z" fill="#CDCDCD"/>
<path d="M232.99 325.606H164.542V329.07H232.99V325.606Z" fill="#CDCDCD"/>
<path d="M234.722 29.9505H231.259V90.4854H234.722V29.9505Z" fill="#CDCDCD"/>
<path d="M587.344 490.807H533.874L464.981 445.826L466.876 442.924L534.907 487.344H587.344V490.807Z" fill="#A9C732"/>
<path d="M241.937 99.7978H238.473V54.712L265.032 26.892L267.535 29.2838L241.937 56.0974V99.7978Z" fill="#CDCDCD"/>
<path d="M113.783 409.295H68.1484V411.157H113.783V409.295Z" fill="#CDCDCD"/>
<path d="M344.787 539.376L342.094 536.802L362.66 515.275H406.295V519H364.255L344.787 539.376Z" fill="#CDCDCD"/>
<path d="M408.158 505.962H375.097V507.825H408.158V505.962Z" fill="#CACACA"/>
<path d="M246.145 486.514H242.42V383.612H269.424V387.337H246.145V486.514Z" fill="#CDCDCD"/>
<path d="M234.964 439.951H231.239V491.174H234.964V439.951Z" fill="#CDCDCD"/>
<path d="M247.23 521.712H243.505V576.856H247.23V521.712Z" fill="#CDCDCD"/>
<path d="M368.063 351.785L367.046 353.346L440.721 401.319L441.738 399.758L368.063 351.785Z" fill="#CDCDCD"/>
<path d="M345.238 398.12H343.375V469.83H345.238V398.12Z" fill="#CACACA"/>
<path d="M337.48 397.813H333.755V442.513H337.48V397.813Z" fill="#CDCDCD"/>
<path d="M256.785 244.335L132.833 146.812V77.7549H134.696V145.91L257.935 242.871L256.785 244.335Z" fill="#EEBD3A"/>
<path d="M291.656 176.161H287.931V244.146H291.656V176.161Z" fill="#CDCDCD"/>
<path d="M163.228 238.062H122.73L56.3916 181.932L58.7965 179.089L124.096 234.337H163.228V238.062Z" fill="#CDCDCD"/>
<path d="M540.938 217.574H516.203L449.865 161.444L452.27 158.601L517.569 213.849H540.938V217.574Z" fill="#CDCDCD"/>
<path d="M559.956 210.124H519.804L519.543 209.902L453.727 154.209L454.93 152.791L520.484 208.261H559.956V210.124Z" fill="#CDCDCD"/>
<path d="M458.054 147.234L456.851 148.656L522.665 204.352L523.868 202.93L458.054 147.234Z" fill="#CDCDCD"/>
<path d="M571.981 478.031H537.638V481.495H571.981V478.031Z" fill="#CDCDCD"/>
<path d="M335.049 47.3796H331.324V224.789H335.049V47.3796Z" fill="#CDCDCD"/>
<path d="M274.586 198.511H272.724V251.596H274.586V198.511Z" fill="#CACACA"/>
<path d="M281.285 210.157H277.821V251.596H281.285V210.157Z" fill="#CDCDCD"/>
<path d="M461.602 77.8334H425.763V79.1535H461.602V77.8334Z" fill="#CDCDCD"/>
<path d="M83.362 308.092H33.0742V309.954H83.362V308.092Z" fill="#CDCDCD"/>
<path d="M132.408 247.485C132.433 248.39 132.188 249.281 131.705 250.047C131.223 250.813 130.524 251.418 129.698 251.786C128.871 252.155 127.954 252.27 127.062 252.117C126.17 251.964 125.344 251.55 124.687 250.927C124.031 250.304 123.574 249.501 123.374 248.618C123.174 247.736 123.24 246.814 123.564 245.969C123.889 245.124 124.456 244.394 125.195 243.872C125.934 243.35 126.811 243.059 127.716 243.035C128.928 243.003 130.104 243.454 130.983 244.289C131.863 245.123 132.376 246.273 132.408 247.485V247.485Z" fill="#CDCDCD"/>
<path d="M94.8849 220.354L93.7292 221.815L124.926 246.496L126.081 245.036L94.8849 220.354Z" fill="#CDCDCD"/>
<path d="M89.9025 225.667L87.5527 228.557L162.905 289.817L165.255 286.926L89.9025 225.667Z" fill="#CDCDCD"/>
<path d="M49.2618 170.266C49.2618 171.671 48.8452 173.045 48.0646 174.213C47.2841 175.381 46.1746 176.291 44.8766 176.829C43.5786 177.367 42.1502 177.507 40.7723 177.233C39.3943 176.959 38.1285 176.283 37.1351 175.289C36.1416 174.296 35.465 173.03 35.1909 171.652C34.9168 170.274 35.0575 168.846 35.5952 167.548C36.1328 166.25 37.0433 165.14 38.2115 164.36C39.3797 163.579 40.7532 163.162 42.1581 163.162C43.091 163.162 44.0147 163.346 44.8766 163.703C45.7384 164.06 46.5216 164.583 47.1812 165.243C47.8408 165.903 48.3641 166.686 48.7211 167.548C49.0781 168.41 49.2618 169.333 49.2618 170.266V170.266Z" fill="#828282"/>
<path d="M216.541 377.73C216.543 379.174 216.116 380.586 215.314 381.787C214.513 382.989 213.373 383.925 212.04 384.479C210.706 385.032 209.238 385.178 207.822 384.897C206.405 384.616 205.104 383.921 204.082 382.901C203.061 381.88 202.365 380.579 202.083 379.163C201.8 377.747 201.945 376.279 202.497 374.945C203.049 373.61 203.985 372.47 205.185 371.668C206.386 370.865 207.798 370.437 209.242 370.437C211.177 370.437 213.032 371.205 214.401 372.573C215.77 373.94 216.54 375.795 216.541 377.73V377.73Z" fill="#60A4C2"/>
<path d="M383.063 117.403C383.063 118.705 382.677 119.977 381.954 121.06C381.231 122.142 380.203 122.985 379 123.483C377.798 123.981 376.475 124.112 375.198 123.858C373.922 123.604 372.749 122.977 371.829 122.057C370.908 121.137 370.281 119.964 370.028 118.687C369.774 117.411 369.904 116.088 370.402 114.885C370.9 113.683 371.744 112.655 372.826 111.932C373.908 111.209 375.18 110.823 376.482 110.823C377.346 110.823 378.202 110.993 379 111.324C379.799 111.654 380.524 112.139 381.135 112.75C381.746 113.361 382.231 114.087 382.562 114.885C382.893 115.684 383.063 116.539 383.063 117.403V117.403Z" fill="#BDC2C5"/>
<path d="M376.482 127.18C374.543 127.18 372.648 126.605 371.036 125.528C369.424 124.451 368.168 122.92 367.426 121.129C366.684 119.338 366.49 117.367 366.868 115.465C367.246 113.564 368.18 111.817 369.551 110.446C370.922 109.075 372.668 108.141 374.57 107.763C376.471 107.385 378.442 107.579 380.233 108.321C382.025 109.063 383.556 110.319 384.633 111.931C385.71 113.543 386.285 115.439 386.285 117.377C386.285 119.977 385.252 122.471 383.414 124.309C381.575 126.147 379.082 127.18 376.482 127.18ZM376.482 109.097C374.839 109.096 373.233 109.582 371.866 110.494C370.499 111.406 369.433 112.703 368.804 114.22C368.174 115.738 368.008 117.408 368.328 119.02C368.648 120.632 369.439 122.112 370.6 123.275C371.761 124.437 373.241 125.229 374.853 125.55C376.464 125.871 378.135 125.707 379.653 125.078C381.171 124.45 382.468 123.385 383.381 122.019C384.294 120.653 384.782 119.047 384.782 117.404C384.78 115.202 383.905 113.092 382.349 111.534C380.793 109.977 378.683 109.101 376.482 109.097Z" fill="#BDC2C5"/>
<path d="M382.873 466.248C382.873 467.55 382.487 468.822 381.764 469.905C381.041 470.987 380.013 471.83 378.811 472.328C377.608 472.827 376.285 472.957 375.009 472.703C373.732 472.449 372.56 471.822 371.639 470.902C370.719 469.981 370.092 468.809 369.838 467.532C369.584 466.256 369.715 464.933 370.213 463.73C370.711 462.528 371.554 461.5 372.636 460.777C373.719 460.054 374.991 459.668 376.293 459.668C378.038 459.668 379.712 460.361 380.946 461.595C382.18 462.829 382.873 464.503 382.873 466.248V466.248Z" fill="#BDC2C5"/>
<path d="M376.293 476.025C374.354 476.025 372.459 475.45 370.847 474.373C369.235 473.296 367.978 471.765 367.236 469.974C366.494 468.183 366.3 466.212 366.678 464.31C367.057 462.409 367.99 460.662 369.361 459.291C370.732 457.92 372.479 456.986 374.38 456.608C376.282 456.23 378.253 456.424 380.044 457.166C381.835 457.908 383.366 459.164 384.443 460.776C385.52 462.388 386.095 464.284 386.095 466.222C386.095 468.822 385.063 471.316 383.224 473.154C381.386 474.992 378.893 476.025 376.293 476.025ZM376.293 457.942C374.65 457.941 373.043 458.427 371.676 459.339C370.309 460.251 369.244 461.548 368.614 463.065C367.984 464.583 367.819 466.253 368.139 467.865C368.459 469.477 369.249 470.957 370.411 472.12C371.572 473.282 373.052 474.074 374.663 474.395C376.275 474.716 377.945 474.552 379.463 473.923C380.981 473.295 382.279 472.23 383.192 470.864C384.105 469.498 384.592 467.892 384.592 466.249C384.591 464.047 383.716 461.937 382.16 460.379C380.604 458.822 378.494 457.946 376.293 457.942Z" fill="#BDC2C5"/>
<path d="M116.639 326.103C116.638 327.404 116.251 328.676 115.527 329.757C114.803 330.838 113.775 331.681 112.572 332.178C111.369 332.675 110.046 332.804 108.77 332.55C107.494 332.295 106.322 331.668 105.402 330.747C104.483 329.827 103.857 328.654 103.603 327.378C103.35 326.101 103.481 324.778 103.979 323.576C104.477 322.374 105.321 321.347 106.403 320.624C107.485 319.901 108.757 319.515 110.058 319.515C110.923 319.515 111.779 319.686 112.578 320.017C113.377 320.348 114.103 320.833 114.714 321.445C115.325 322.057 115.81 322.783 116.14 323.582C116.47 324.382 116.64 325.238 116.639 326.103V326.103Z" fill="#9900A6"/>
<path d="M110.058 335.906C108.119 335.906 106.224 335.331 104.612 334.254C103 333.176 101.743 331.645 101.002 329.854C100.26 328.063 100.065 326.092 100.444 324.19C100.822 322.289 101.756 320.542 103.127 319.171C104.497 317.8 106.244 316.867 108.146 316.489C110.047 316.11 112.018 316.304 113.809 317.046C115.601 317.788 117.132 319.045 118.209 320.657C119.286 322.269 119.861 324.164 119.861 326.103C119.861 328.703 118.828 331.196 116.99 333.034C115.151 334.873 112.658 335.906 110.058 335.906V335.906ZM110.058 317.823C108.414 317.823 106.807 318.311 105.441 319.225C104.074 320.138 103.01 321.437 102.382 322.956C101.754 324.476 101.591 326.147 101.913 327.759C102.236 329.371 103.03 330.851 104.194 332.012C105.358 333.172 106.841 333.961 108.454 334.279C110.067 334.596 111.738 334.428 113.255 333.795C114.772 333.163 116.068 332.094 116.977 330.725C117.887 329.355 118.369 327.747 118.364 326.103C118.362 323.901 117.487 321.789 115.929 320.231C114.372 318.674 112.26 317.798 110.058 317.797V317.823Z" fill="#9900A6"/>
<path d="M262.536 239.761L139.819 143.747L139.701 62.2406L148.086 62.2275L148.197 139.656L267.698 233.16L262.536 239.761Z" fill="#979797"/>
<path d="M351.727 225.985H343.349V173.991C343.356 167.201 346.057 160.691 350.858 155.889C355.66 151.087 362.17 148.387 368.96 148.38H377.959V156.758H368.96C364.391 156.763 360.011 158.581 356.78 161.811C353.55 165.042 351.732 169.422 351.727 173.991V225.985Z" fill="#979797"/>
<path d="M436.475 266.96H400.152V275.338H436.475V266.96Z" fill="#979797"/>
<path d="M455.57 275.345H432.756V266.96H455.57C460.137 266.953 464.515 265.136 467.744 261.907C470.973 258.678 472.79 254.3 472.797 249.733V221.175H481.181V249.733C481.173 256.523 478.472 263.032 473.67 267.834C468.869 272.635 462.36 275.336 455.57 275.345Z" fill="#979797"/>
<path d="M325.737 164.711H317.352V219.469H325.737V164.711Z" fill="#979797"/>
<path d="M325.737 168.436H317.352V116.75C317.349 112.182 315.533 107.803 312.303 104.573C309.073 101.343 304.694 99.5269 300.126 99.5235H291.663V91.1389H300.126C306.916 91.1458 313.427 93.8464 318.228 98.6479C323.03 103.449 325.73 109.96 325.737 116.75V168.436Z" fill="#979797"/>
<path d="M247.655 360.713H221.508V369.091H247.655V360.713Z" fill="#979797"/>
<path d="M179.605 395.637H171.22V386.324C171.234 379.538 173.938 373.035 178.739 368.239C183.539 363.443 190.046 360.746 196.832 360.739H225.233V369.117H196.832C192.263 369.122 187.884 370.94 184.654 374.171C181.424 377.402 179.608 381.782 179.605 386.35V395.637Z" fill="#979797"/>
<path d="M153.994 430.56H150.582V422.169H153.994C158.56 422.166 162.939 420.351 166.169 417.122C169.398 413.894 171.215 409.516 171.22 404.949V385.239H179.605V404.949C179.598 411.74 176.897 418.25 172.096 423.051C167.294 427.853 160.784 430.553 153.994 430.56V430.56Z" fill="#979797"/>
<path d="M260.751 461.06H252.386C252.393 454.269 255.094 447.759 259.895 442.957C264.697 438.156 271.207 435.455 277.998 435.448H290.813V443.833H277.998C273.427 443.833 269.043 445.647 265.81 448.877C262.576 452.107 260.757 456.489 260.751 461.06V461.06Z" fill="#979797"/>
<path d="M294.577 443.827H282.095V435.449H294.577C299.139 435.442 303.513 433.628 306.742 430.405C309.97 427.181 311.79 422.81 311.804 418.248V397.185H320.182V418.248C320.166 425.032 317.463 431.533 312.664 436.327C307.865 441.121 301.361 443.818 294.577 443.827V443.827Z" fill="#979797"/>
<path d="M380.307 163.11C386.308 163.019 391.1 158.079 391.008 152.078C390.917 146.077 385.978 141.285 379.977 141.376C373.975 141.468 369.184 146.407 369.275 152.408C369.366 158.41 374.305 163.201 380.307 163.11Z" fill="#979797"/>
<path d="M437.834 349.793L453.42 349.904L441.696 364.895L437.834 349.793Z" fill="#979797"/>
<path d="M523.954 433.723L508.367 433.743L519.967 418.66L523.954 433.723Z" fill="#505050"/>
<path d="M514.726 431.41L503.531 423.98L508.165 416.994L519.359 424.431L514.726 431.41ZM491.853 416.255L480.214 408.531L484.906 401.551L496.545 409.276L491.853 416.255ZM468.575 400.806L456.936 393.082L461.569 386.102L473.208 393.827L468.575 400.806ZM445.297 385.357L433.658 377.632L438.291 370.653L449.963 378.384L445.297 385.357ZM422.051 369.888L410.406 362.19L415.039 355.204L426.678 362.928L422.051 369.888Z" fill="#505050"/>
<path d="M445.46 351.128L440.849 358.131L540.333 423.629L544.943 416.626L445.46 351.128Z" fill="#979797"/>
<path d="M223.56 349.231H209.595V340.846H223.56V349.231ZM195.622 349.231H181.676V340.846H195.642L195.622 349.231ZM167.685 349.231H159.901C157.432 349.23 154.976 348.874 152.608 348.172L154.994 340.14C156.587 340.611 158.24 340.849 159.901 340.846H167.685V349.231ZM139.198 338.716C135.987 334.339 134.262 329.048 134.277 323.62V323.156H142.662V323.62C142.65 327.268 143.806 330.825 145.962 333.769L139.198 338.716ZM142.662 309.183H134.29V295.211H142.675L142.662 309.183Z" fill="#505050"/>
<path d="M29.6433 274.403H25.6112C18.8208 274.397 12.3105 271.696 7.50898 266.894C2.70745 262.093 0.00692014 255.583 0 248.792L0 237.617H8.38457V248.792C8.38803 253.36 10.2041 257.74 13.4339 260.97C16.6638 264.199 21.0434 266.015 25.6112 266.019H29.6433V274.403Z" fill="#505050"/>
<path d="M29.6433 274.403H25.6112C18.8208 274.397 12.3105 271.696 7.50898 266.894C2.70745 262.093 0.00692014 255.583 0 248.792L0 237.617H8.38457V248.792C8.38803 253.36 10.2041 257.74 13.4339 260.97C16.6638 264.199 21.0434 266.015 25.6112 266.019H29.6433V274.403Z" fill="#505050"/>
<path d="M8.38457 238.48H0V234.448C0.00692014 227.657 2.70745 221.147 7.50898 216.346C12.3105 211.544 18.8208 208.844 25.6112 208.837H28.4017V217.215H25.6112C21.0428 217.22 16.6632 219.037 13.4335 222.268C10.2039 225.499 8.38803 229.879 8.38457 234.448V238.48Z" fill="#505050"/>
<path d="M8.38457 238.48H0V234.448C0.00692014 227.657 2.70745 221.147 7.50898 216.346C12.3105 211.544 18.8208 208.844 25.6112 208.837H28.4017V217.215H25.6112C21.0428 217.22 16.6632 219.037 13.4335 222.268C10.2039 225.499 8.38803 229.879 8.38457 234.448V238.48Z" fill="#505050"/>
<path d="M42.132 212.895L26.1602 225.2V200.583L42.132 212.895Z" fill="#505050"/>
<path d="M142.655 295.675H134.271V291.643C134.265 287.075 132.449 282.696 129.22 279.465C125.99 276.235 121.612 274.417 117.044 274.41H28.48V266.032H117.044C123.834 266.039 130.345 268.739 135.146 273.541C139.948 278.342 142.648 284.853 142.655 291.643V295.675Z" fill="#505050"/>
<path d="M491.422 307.007H407.602V315.385H491.422V307.007Z" fill="#979797"/>
<path d="M466.543 452.093C465.137 452.093 463.764 451.677 462.595 450.896C461.427 450.115 460.517 449.005 459.979 447.707C459.442 446.408 459.301 444.98 459.576 443.601C459.851 442.223 460.528 440.957 461.522 439.964C462.516 438.971 463.782 438.295 465.161 438.022C466.539 437.748 467.968 437.89 469.266 438.429C470.564 438.967 471.673 439.879 472.452 441.048C473.232 442.217 473.648 443.591 473.646 444.996C473.646 445.929 473.463 446.852 473.105 447.714C472.748 448.575 472.225 449.358 471.565 450.017C470.906 450.676 470.122 451.199 469.261 451.555C468.399 451.911 467.475 452.094 466.543 452.093Z" fill="#A9C732"/>
<path d="M195.4 305.262C193.995 305.262 192.622 304.846 191.454 304.065C190.286 303.285 189.375 302.175 188.837 300.877C188.3 299.579 188.159 298.151 188.433 296.773C188.707 295.395 189.384 294.129 190.377 293.136C191.371 292.142 192.636 291.466 194.014 291.192C195.392 290.917 196.821 291.058 198.119 291.596C199.417 292.133 200.526 293.044 201.307 294.212C202.087 295.38 202.504 296.754 202.504 298.159C202.504 300.043 201.756 301.85 200.423 303.182C199.091 304.514 197.284 305.262 195.4 305.262Z" fill="#CDCDCD"/>
<path d="M378.024 456.472H374.561V399.91L344.845 380.397L346.747 377.501L378.024 398.041V456.472Z" fill="#CDCDCD"/>
<path d="M360.263 373.796L358.35 376.684L434.246 426.976L436.16 424.089L360.263 373.796Z" fill="#CDCDCD"/>
<path d="M490.958 549.127C489.395 549.127 487.868 548.664 486.568 547.795C485.269 546.927 484.256 545.693 483.658 544.25C483.06 542.806 482.904 541.217 483.209 539.685C483.514 538.152 484.266 536.744 485.371 535.639C486.476 534.534 487.884 533.782 489.416 533.477C490.949 533.172 492.538 533.328 493.981 533.927C495.425 534.525 496.659 535.537 497.527 536.836C498.395 538.136 498.859 539.663 498.859 541.226C498.857 543.321 498.024 545.33 496.543 546.811C495.061 548.292 493.053 549.125 490.958 549.127V549.127ZM490.958 536.789C490.08 536.789 489.222 537.049 488.493 537.536C487.763 538.024 487.194 538.717 486.858 539.528C486.522 540.339 486.435 541.231 486.606 542.092C486.777 542.952 487.2 543.743 487.82 544.364C488.441 544.984 489.231 545.407 490.092 545.578C490.953 545.749 491.845 545.661 492.656 545.326C493.467 544.99 494.16 544.421 494.647 543.691C495.135 542.962 495.395 542.104 495.395 541.226C495.393 540.05 494.925 538.922 494.094 538.09C493.262 537.258 492.134 536.79 490.958 536.789V536.789Z" fill="#CDCDCD"/>
<path d="M468.306 522.795L466.353 525.656L485.446 538.695L487.4 535.835L468.306 522.795Z" fill="#CDCDCD"/>
<path d="M278.684 21.5659C278.684 22.8675 278.298 24.1398 277.575 25.2221C276.852 26.3043 275.824 27.1478 274.621 27.6459C273.419 28.1439 272.096 28.2743 270.819 28.0203C269.543 27.7664 268.37 27.1396 267.45 26.2193C266.529 25.2989 265.903 24.1263 265.649 22.8498C265.395 21.5732 265.525 20.25 266.023 19.0475C266.521 17.845 267.365 16.8172 268.447 16.0941C269.529 15.371 270.802 14.985 272.103 14.985C273.848 14.985 275.522 15.6784 276.756 16.9125C277.991 18.1467 278.684 19.8206 278.684 21.5659V21.5659Z" fill="#A9C732"/>
<path d="M272.103 31.3686C270.164 31.3686 268.269 30.7937 266.657 29.7165C265.045 28.6394 263.788 27.1084 263.046 25.3172C262.305 23.526 262.11 21.555 262.489 19.6535C262.867 17.7519 263.801 16.0053 265.171 14.6343C266.542 13.2634 268.289 12.3298 270.191 11.9515C272.092 11.5733 274.063 11.7674 275.854 12.5094C277.646 13.2513 279.176 14.5078 280.254 16.1198C281.331 17.7318 281.906 19.6271 281.906 21.5659C281.906 24.1657 280.873 26.6591 279.035 28.4974C277.196 30.3358 274.703 31.3686 272.103 31.3686ZM272.103 13.2859C270.459 13.2846 268.851 13.7713 267.484 14.6844C266.116 15.5974 265.051 16.8958 264.422 18.4149C263.793 19.9341 263.629 21.6057 263.951 23.2181C264.273 24.8305 265.066 26.311 266.23 27.4723C267.394 28.6335 268.877 29.4232 270.49 29.7413C272.103 30.0593 273.774 29.8915 275.292 29.259C276.809 28.6265 278.105 27.5578 279.015 26.1883C279.925 24.8188 280.408 23.2101 280.403 21.5659C280.399 19.3657 279.524 17.2567 277.968 15.701C276.412 14.1453 274.303 13.2697 272.103 13.2663V13.2859Z" fill="#A9C732"/>
<path d="M343.251 545.265C343.251 546.566 342.865 547.839 342.142 548.921C341.419 550.003 340.391 550.847 339.188 551.345C337.986 551.843 336.663 551.973 335.386 551.719C334.11 551.465 332.937 550.839 332.017 549.918C331.096 548.998 330.469 547.825 330.216 546.549C329.962 545.272 330.092 543.949 330.59 542.746C331.088 541.544 331.932 540.516 333.014 539.793C334.096 539.07 335.368 538.684 336.67 538.684C337.534 538.684 338.39 538.854 339.188 539.185C339.987 539.516 340.712 540 341.323 540.612C341.934 541.223 342.419 541.948 342.75 542.746C343.081 543.545 343.251 544.401 343.251 545.265Z" fill="#BDC2C5"/>
<path d="M336.67 555.041C334.731 555.041 332.836 554.466 331.224 553.389C329.612 552.312 328.355 550.781 327.613 548.99C326.871 547.199 326.677 545.228 327.056 543.326C327.434 541.425 328.367 539.678 329.738 538.307C331.109 536.936 332.856 536.003 334.757 535.624C336.659 535.246 338.63 535.44 340.421 536.182C342.212 536.924 343.743 538.18 344.821 539.793C345.898 541.405 346.473 543.3 346.473 545.239C346.473 547.838 345.44 550.332 343.601 552.17C341.763 554.009 339.27 555.041 336.67 555.041V555.041ZM336.67 536.959C335.027 536.959 333.421 537.446 332.055 538.358C330.689 539.271 329.625 540.568 328.996 542.086C328.367 543.604 328.203 545.274 328.523 546.885C328.844 548.496 329.635 549.976 330.797 551.138C331.958 552.3 333.438 553.091 335.049 553.411C336.661 553.732 338.331 553.567 339.849 552.939C341.366 552.31 342.663 551.245 343.576 549.879C344.489 548.513 344.976 546.908 344.976 545.265C344.974 543.062 344.099 540.951 342.541 539.393C340.984 537.836 338.872 536.96 336.67 536.959Z" fill="#BDC2C5"/>
<path d="M290.63 588.894L269.104 568.321V544.507H272.829V566.726L293.205 586.201L290.63 588.894Z" fill="#CDCDCD"/>
<path d="M393.088 184.421C393.112 185.326 392.868 186.217 392.386 186.982C391.903 187.748 391.205 188.353 390.379 188.721C389.553 189.09 388.636 189.205 387.744 189.053C386.852 188.9 386.026 188.487 385.369 187.865C384.712 187.243 384.255 186.44 384.054 185.558C383.854 184.676 383.919 183.754 384.242 182.909C384.566 182.064 385.132 181.334 385.87 180.811C386.608 180.288 387.485 179.996 388.389 179.971C388.99 179.954 389.588 180.056 390.15 180.271C390.711 180.486 391.224 180.809 391.661 181.222C392.097 181.636 392.448 182.131 392.693 182.68C392.938 183.229 393.072 183.82 393.088 184.421V184.421Z" fill="#C84B2A"/>
<path d="M504.838 337.775C504.863 338.679 504.618 339.571 504.136 340.336C503.653 341.102 502.955 341.707 502.128 342.076C501.302 342.444 500.384 342.559 499.492 342.406C498.601 342.253 497.774 341.839 497.117 341.216C496.461 340.594 496.004 339.79 495.804 338.908C495.604 338.025 495.67 337.103 495.995 336.258C496.319 335.413 496.886 334.684 497.625 334.162C498.364 333.639 499.242 333.348 500.146 333.324C501.359 333.293 502.534 333.744 503.414 334.578C504.293 335.413 504.806 336.562 504.838 337.775V337.775Z" fill="#60A4C2"/>
<path d="M278.226 195.439C278.252 196.344 278.009 197.236 277.527 198.003C277.045 198.769 276.347 199.375 275.521 199.745C274.694 200.114 273.777 200.23 272.885 200.078C271.992 199.926 271.165 199.512 270.508 198.89C269.851 198.268 269.393 197.464 269.193 196.581C268.992 195.699 269.058 194.776 269.382 193.931C269.706 193.086 270.274 192.356 271.013 191.833C271.752 191.311 272.629 191.019 273.534 190.996C274.745 190.964 275.92 191.414 276.799 192.247C277.679 193.08 278.192 194.228 278.226 195.439V195.439Z" fill="#60A4C2"/>
<path d="M565.066 208.941C565.092 209.846 564.848 210.737 564.367 211.504C563.886 212.27 563.188 212.876 562.362 213.246C561.536 213.615 560.619 213.732 559.727 213.58C558.835 213.428 558.008 213.016 557.35 212.394C556.693 211.772 556.235 210.969 556.033 210.087C555.832 209.205 555.897 208.283 556.22 207.437C556.543 206.592 557.11 205.861 557.848 205.338C558.586 204.815 559.463 204.522 560.368 204.497C561.58 204.464 562.756 204.913 563.637 205.747C564.518 206.58 565.032 207.729 565.066 208.941V208.941Z" fill="#828282"/>
<path d="M145.165 176.971C145.19 177.877 144.946 178.771 144.463 179.538C143.98 180.305 143.28 180.912 142.452 181.28C141.624 181.649 140.705 181.763 139.811 181.609C138.918 181.454 138.091 181.037 137.435 180.412C136.779 179.786 136.323 178.979 136.126 178.094C135.93 177.209 136 176.286 136.329 175.441C136.658 174.596 137.231 173.868 137.974 173.349C138.718 172.831 139.599 172.545 140.505 172.527C141.711 172.504 142.877 172.958 143.749 173.791C144.622 174.623 145.13 175.766 145.165 176.971V176.971Z" fill="#828282"/>
<path d="M185.944 317.712C185.97 318.616 185.726 319.509 185.244 320.275C184.763 321.041 184.065 321.648 183.238 322.017C182.412 322.386 181.495 322.502 180.602 322.35C179.71 322.198 178.883 321.785 178.226 321.162C177.568 320.54 177.111 319.736 176.91 318.854C176.71 317.971 176.776 317.049 177.1 316.203C177.424 315.358 177.991 314.628 178.73 314.106C179.469 313.583 180.347 313.291 181.252 313.268C182.463 313.236 183.637 313.686 184.517 314.519C185.397 315.352 185.91 316.501 185.944 317.712V317.712Z" fill="#828282"/>
<path d="M349.629 466.517C349.653 467.421 349.409 468.313 348.926 469.078C348.444 469.844 347.745 470.449 346.919 470.818C346.092 471.186 345.175 471.301 344.283 471.148C343.391 470.995 342.565 470.581 341.908 469.958C341.252 469.336 340.795 468.532 340.595 467.65C340.395 466.767 340.461 465.845 340.785 465C341.11 464.155 341.677 463.426 342.416 462.903C343.155 462.381 344.032 462.09 344.937 462.066C346.149 462.035 347.324 462.486 348.204 463.32C349.084 464.155 349.597 465.304 349.629 466.517V466.517Z" fill="#828282"/>
<path d="M255.216 496.611H253.354V568.321H255.216V496.611Z" fill="#CACACA"/>
<path d="M259.601 565.008C259.627 565.912 259.383 566.804 258.902 567.57C258.421 568.336 257.723 568.943 256.897 569.312C256.071 569.682 255.154 569.798 254.262 569.646C253.37 569.495 252.543 569.082 251.885 568.46C251.228 567.838 250.769 567.035 250.568 566.153C250.367 565.271 250.432 564.349 250.755 563.504C251.078 562.658 251.645 561.928 252.383 561.404C253.121 560.881 253.998 560.589 254.902 560.564C256.115 560.53 257.291 560.98 258.172 561.813C259.053 562.646 259.567 563.795 259.601 565.008V565.008Z" fill="#828282"/>
<path d="M380.135 506.766C380.161 507.671 379.917 508.563 379.436 509.329C378.955 510.095 378.257 510.701 377.431 511.071C376.605 511.441 375.688 511.557 374.796 511.405C373.904 511.254 373.076 510.841 372.419 510.219C371.762 509.597 371.303 508.794 371.102 507.912C370.901 507.03 370.966 506.108 371.289 505.263C371.612 504.417 372.179 503.687 372.917 503.163C373.655 502.64 374.532 502.347 375.436 502.323C376.649 502.289 377.825 502.738 378.706 503.572C379.587 504.405 380.101 505.554 380.135 506.766Z" fill="#828282"/>
<path d="M444.578 406.432C443.7 406.654 442.777 406.609 441.925 406.305C441.072 406.002 440.329 405.452 439.789 404.725C439.249 403.999 438.937 403.129 438.892 402.225C438.846 401.321 439.07 400.424 439.535 399.648C440 398.871 440.684 398.25 441.502 397.862C442.32 397.475 443.234 397.339 444.13 397.471C445.025 397.603 445.861 397.998 446.532 398.606C447.202 399.213 447.678 400.006 447.898 400.884C448.193 402.06 448.009 403.305 447.386 404.345C446.764 405.386 445.754 406.136 444.578 406.432V406.432Z" fill="#CDCDCD"/>
<path d="M73.651 409.792C73.6766 410.697 73.4331 411.589 72.9515 412.355C72.4698 413.121 71.7716 413.728 70.9453 414.097C70.1189 414.467 69.2015 414.583 68.3092 414.43C67.4169 414.278 66.5898 413.865 65.9326 413.242C65.2754 412.62 64.8176 411.816 64.6172 410.934C64.4168 410.051 64.4827 409.129 64.8067 408.283C65.1307 407.438 65.6982 406.708 66.4373 406.186C67.1764 405.663 68.0539 405.371 68.9588 405.348C70.17 405.316 71.3442 405.766 72.2239 406.599C73.1036 407.433 73.6168 408.581 73.651 409.792V409.792Z" fill="#636363"/>
<path d="M116.734 455.97L114.25 458.384L153.958 499.231L156.442 496.817L116.734 455.97Z" fill="#CDCDCD"/>
<path d="M170.75 235.879C170.751 237.323 170.324 238.735 169.522 239.937C168.72 241.138 167.581 242.075 166.246 242.628C164.912 243.181 163.444 243.326 162.027 243.045C160.611 242.764 159.309 242.068 158.288 241.047C157.267 240.026 156.572 238.724 156.29 237.308C156.009 235.891 156.154 234.423 156.707 233.089C157.26 231.755 158.197 230.615 159.398 229.813C160.6 229.011 162.012 228.584 163.456 228.586C165.39 228.587 167.244 229.356 168.612 230.724C169.979 232.091 170.748 233.945 170.75 235.879V235.879Z" fill="#BDC2C5"/>
<path d="M250.566 588.919C253.414 586.07 253.414 581.453 250.566 578.605C247.718 575.756 243.1 575.756 240.252 578.605C237.404 581.453 237.404 586.071 240.252 588.919C243.1 591.767 247.718 591.767 250.566 588.919Z" fill="#BDC2C5"/>
<path d="M207.379 484.259H159.274L159 483.998L123.684 449.617L124.984 448.283L160.032 482.397H207.379V484.259Z" fill="#CACACA"/>
<path d="M211.79 483.05C211.816 483.955 211.573 484.847 211.091 485.613C210.609 486.38 209.911 486.986 209.085 487.356C208.258 487.725 207.341 487.841 206.449 487.689C205.556 487.537 204.729 487.123 204.072 486.501C203.415 485.878 202.957 485.075 202.757 484.192C202.556 483.309 202.622 482.387 202.946 481.542C203.27 480.697 203.838 479.967 204.577 479.444C205.316 478.921 206.193 478.63 207.098 478.606C208.309 478.575 209.484 479.025 210.363 479.858C211.243 480.691 211.756 481.839 211.79 483.05V483.05Z" fill="#828282"/>
<path d="M78.4804 309.458C78.4561 308.553 78.7007 307.662 79.1832 306.896C79.6657 306.131 80.3643 305.525 81.1908 305.157C82.0174 304.789 82.9346 304.673 83.8265 304.826C84.7184 304.979 85.5449 305.393 86.2014 306.016C86.858 306.639 87.3151 307.442 87.515 308.325C87.7148 309.207 87.6484 310.129 87.3242 310.974C87 311.819 86.4325 312.549 85.6935 313.071C84.9545 313.593 84.0772 313.885 83.1726 313.908C81.9604 313.94 80.7851 313.489 79.9053 312.654C79.0254 311.82 78.5129 310.67 78.4804 309.458V309.458Z" fill="#CDCDCD"/>
<path d="M606.747 368.32H537.521V370.182H606.747V368.32Z" fill="#CDCDCD"/>
<path d="M601.885 369.679C601.861 368.774 602.105 367.883 602.588 367.117C603.07 366.352 603.769 365.746 604.596 365.378C605.422 365.01 606.339 364.895 607.231 365.048C608.123 365.2 608.95 365.615 609.606 366.237C610.263 366.86 610.72 367.663 610.92 368.546C611.12 369.429 611.053 370.351 610.729 371.195C610.405 372.04 609.837 372.77 609.098 373.292C608.359 373.814 607.482 374.106 606.577 374.129C605.365 374.161 604.19 373.71 603.31 372.875C602.43 372.041 601.918 370.891 601.885 369.679V369.679Z" fill="#CDCDCD"/>
<path d="M581.914 372.973H531.626V374.835H581.914V372.973Z" fill="#CDCDCD"/>
<path d="M412.112 26.2253H360.269V28.0879H412.112V26.2253Z" fill="#CDCDCD"/>
<path d="M365.144 26.7222C365.168 27.6268 364.924 28.5182 364.441 29.2838C363.959 30.0494 363.26 30.6546 362.433 31.0231C361.607 31.3915 360.69 31.5065 359.798 31.3536C358.906 31.2006 358.079 30.7866 357.423 30.1639C356.766 29.5412 356.309 28.7377 356.109 27.8552C355.909 26.9726 355.976 26.0506 356.3 25.2057C356.624 24.3609 357.192 23.6312 357.931 23.109C358.67 22.5867 359.547 22.2954 360.452 22.2718C361.664 22.2401 362.839 22.6912 363.719 23.5257C364.599 24.3602 365.111 25.5099 365.144 26.7222V26.7222Z" fill="#9900A6"/>
<path d="M413.504 30.8786H379.201V32.7411H413.504V30.8786Z" fill="#CDCDCD"/>
<path d="M296.897 171.972C296.897 173.377 296.481 174.751 295.7 175.919C294.919 177.087 293.809 177.998 292.511 178.535C291.212 179.073 289.784 179.213 288.405 178.939C287.027 178.664 285.761 177.987 284.768 176.993C283.775 175.998 283.099 174.732 282.826 173.354C282.552 171.975 282.694 170.547 283.233 169.249C283.771 167.951 284.683 166.842 285.852 166.062C287.021 165.282 288.395 164.867 289.8 164.868C290.733 164.868 291.656 165.052 292.518 165.409C293.379 165.766 294.162 166.289 294.821 166.949C295.48 167.609 296.003 168.392 296.359 169.254C296.715 170.116 296.898 171.039 296.897 171.972V171.972Z" fill="#CDCDCD"/>
<path d="M611.093 287.121H557.891V290.584H611.093V287.121Z" fill="#CDCDCD"/>
<path d="M123.645 454.464L122.328 455.781L147.785 481.239L149.102 479.922L123.645 454.464Z" fill="#CDCDCD"/>
<path d="M146.134 189.394L144.989 190.863L252.903 274.993L254.048 273.524L146.134 189.394Z" fill="#CDCDCD"/>
<path d="M60.2543 189.116L58.9878 190.475L74.5401 204.962L75.8066 203.603L60.2543 189.116Z" fill="#CDCDCD"/>
<path d="M351.139 381.357H349.276V428.541H351.139V381.357Z" fill="#CDCDCD"/>
<path d="M406.295 498.356H385.808V500.218H406.295V498.356Z" fill="#CDCDCD"/>
<path d="M388.496 371.969L387.497 373.541L407.509 386.255L408.508 384.683L388.496 371.969Z" fill="#CDCDCD"/>
<path d="M599.179 294.126H551.996V295.989H599.179V294.126Z" fill="#CDCDCD"/>
<path d="M570.739 149.609C569.174 149.61 567.644 149.147 566.343 148.279C565.042 147.41 564.027 146.175 563.428 144.73C562.829 143.285 562.671 141.695 562.976 140.16C563.281 138.625 564.034 137.216 565.141 136.11C566.247 135.003 567.657 134.25 569.191 133.945C570.726 133.64 572.316 133.797 573.761 134.397C575.206 134.996 576.441 136.011 577.31 137.312C578.178 138.613 578.641 140.143 578.64 141.708C578.636 143.802 577.803 145.81 576.322 147.291C574.841 148.772 572.833 149.605 570.739 149.609V149.609ZM570.739 137.27C569.861 137.27 569.003 137.531 568.273 138.018C567.544 138.506 566.975 139.199 566.639 140.01C566.303 140.82 566.215 141.713 566.387 142.573C566.558 143.434 566.98 144.225 567.601 144.845C568.222 145.466 569.012 145.888 569.873 146.06C570.734 146.231 571.626 146.143 572.437 145.807C573.248 145.471 573.941 144.903 574.428 144.173C574.916 143.443 575.176 142.585 575.176 141.708C575.174 140.531 574.706 139.404 573.874 138.572C573.043 137.74 571.915 137.272 570.739 137.27Z" fill="#CDCDCD"/>
<path d="M565.733 139.976H516.262V143.439H565.733V139.976Z" fill="#CDCDCD"/>
<path d="M553.819 146.981H510.361V148.844H553.819V146.981Z" fill="#CDCDCD"/>
<path d="M122.802 549.336C121.239 549.336 119.711 548.873 118.412 548.005C117.113 547.137 116.1 545.903 115.502 544.459C114.904 543.015 114.748 541.427 115.052 539.894C115.357 538.361 116.11 536.954 117.215 535.849C118.32 534.744 119.728 533.991 121.26 533.686C122.793 533.381 124.381 533.538 125.825 534.136C127.269 534.734 128.503 535.747 129.371 537.046C130.239 538.345 130.703 539.873 130.703 541.435C130.699 543.53 129.866 545.537 128.385 547.018C126.904 548.499 124.896 549.333 122.802 549.336V549.336ZM122.802 536.998C121.924 536.998 121.066 537.258 120.336 537.746C119.607 538.233 119.038 538.926 118.702 539.737C118.366 540.548 118.278 541.44 118.45 542.301C118.621 543.162 119.043 543.952 119.664 544.573C120.285 545.194 121.075 545.616 121.936 545.787C122.797 545.959 123.689 545.871 124.5 545.535C125.311 545.199 126.004 544.63 126.491 543.901C126.979 543.171 127.239 542.313 127.239 541.435C127.237 540.259 126.769 539.131 125.937 538.3C125.106 537.468 123.978 537 122.802 536.998V536.998Z" fill="#CDCDCD"/>
<path d="M181.01 539.703H127.808V543.167H181.01V539.703Z" fill="#CDCDCD"/>
<path d="M186.905 549.042H139.721V550.905H186.905V549.042Z" fill="#CDCDCD"/>
<path d="M226.475 46.713H224.612V86.4466H226.475V46.713Z" fill="#CDCDCD"/>
<path d="M248.819 58.8162H246.956V98.5497H248.819V58.8162Z" fill="#CDCDCD"/>
<path d="M219.953 60.0578H218.09V102.745H219.953V60.0578Z" fill="#CDCDCD"/>
<path d="M594.951 335.18H586.593L576.111 328.031L577.163 326.495L587.168 333.318H594.951V335.18Z" fill="#CDCDCD"/>
<path d="M594.331 341.696H582.705L555.375 322.201L556.453 320.685L583.299 339.833H594.331V341.696Z" fill="#CDCDCD"/>
<path d="M466.118 227.965C466.119 229.268 465.734 230.543 465.01 231.627C464.287 232.711 463.258 233.557 462.054 234.056C460.85 234.555 459.525 234.686 458.247 234.433C456.968 234.179 455.794 233.551 454.872 232.629C453.951 231.708 453.323 230.533 453.069 229.255C452.815 227.976 452.946 226.651 453.446 225.447C453.945 224.244 454.79 223.215 455.875 222.491C456.959 221.768 458.233 221.383 459.537 221.384C460.401 221.384 461.257 221.554 462.055 221.885C462.854 222.216 463.579 222.7 464.19 223.311C464.801 223.923 465.286 224.648 465.617 225.446C465.947 226.245 466.118 227.101 466.118 227.965V227.965Z" fill="#60A4C2"/>
<path d="M459.537 237.741C457.598 237.741 455.703 237.166 454.091 236.089C452.479 235.012 451.222 233.481 450.48 231.69C449.738 229.899 449.544 227.928 449.922 226.026C450.301 224.125 451.234 222.378 452.605 221.007C453.976 219.636 455.723 218.703 457.624 218.324C459.526 217.946 461.497 218.14 463.288 218.882C465.079 219.624 466.61 220.881 467.687 222.493C468.765 224.105 469.34 226 469.34 227.939C469.34 230.538 468.307 233.032 466.468 234.87C464.63 236.709 462.137 237.741 459.537 237.741ZM459.537 219.659C457.894 219.657 456.287 220.143 454.92 221.055C453.554 221.967 452.488 223.264 451.858 224.782C451.229 226.299 451.063 227.97 451.383 229.581C451.703 231.193 452.493 232.673 453.655 233.836C454.816 234.998 456.296 235.79 457.907 236.111C459.519 236.432 461.189 236.268 462.707 235.639C464.226 235.011 465.523 233.946 466.436 232.58C467.349 231.214 467.836 229.608 467.836 227.965C467.835 225.763 466.96 223.653 465.404 222.096C463.848 220.539 461.738 219.662 459.537 219.659V219.659Z" fill="#60A4C2"/>
<path d="M502.74 71.8864C502.742 73.1898 502.356 74.4643 501.633 75.5486C500.91 76.6329 499.881 77.4782 498.677 77.9776C497.473 78.477 496.148 78.608 494.87 78.354C493.591 78.1001 492.417 77.4725 491.495 76.5509C490.573 75.6292 489.946 74.4549 489.692 73.1764C489.438 71.898 489.569 70.5729 490.068 69.369C490.568 68.165 491.413 67.1363 492.497 66.4129C493.582 65.6896 494.856 65.3042 496.16 65.3055C497.024 65.3055 497.88 65.4757 498.678 65.8064C499.476 66.1371 500.202 66.6219 500.813 67.233C501.424 67.8441 501.909 68.5695 502.24 69.368C502.57 70.1664 502.74 71.0221 502.74 71.8864V71.8864Z" fill="#BDC2C5"/>
<path d="M496.16 81.6369C494.221 81.6369 492.326 81.062 490.714 79.9848C489.102 78.9077 487.845 77.3767 487.103 75.5855C486.361 73.7943 486.167 71.8233 486.546 69.9218C486.924 68.0202 487.857 66.2736 489.228 64.9026C490.599 63.5317 492.346 62.5981 494.247 62.2199C496.149 61.8416 498.12 62.0357 499.911 62.7777C501.702 63.5196 503.233 64.7761 504.31 66.3881C505.388 68.0002 505.963 69.8954 505.963 71.8342C505.963 74.434 504.93 76.9274 503.091 78.7657C501.253 80.6041 498.76 81.6369 496.16 81.6369V81.6369ZM496.16 63.5542C494.516 63.5529 492.91 64.0391 491.543 64.9513C490.176 65.8635 489.11 67.1607 488.481 68.6787C487.851 70.1967 487.686 71.8673 488.006 73.4792C488.327 75.091 489.118 76.5716 490.28 77.7337C491.442 78.8957 492.923 79.6869 494.534 80.0072C496.146 80.3275 497.817 80.1624 499.335 79.533C500.853 78.9035 502.15 77.8378 503.062 76.4709C503.975 75.104 504.461 73.4971 504.459 71.8538C504.456 69.6537 503.58 67.5446 502.025 65.9889C500.469 64.4332 498.36 63.5576 496.16 63.5542V63.5542Z" fill="#BDC2C5"/>
<path d="M412.536 47.0531H407.962V44.8181H406.968V47.0531H399.388V44.8181H398.394V47.0531H393.82C393.561 47.0531 393.314 47.1557 393.131 47.3383C392.949 47.5209 392.846 47.7685 392.846 48.0268V60.1233C392.846 60.3816 392.949 60.6292 393.131 60.8119C393.314 60.9945 393.561 61.0971 393.82 61.0971H412.523C412.652 61.0988 412.78 61.0749 412.9 61.0267C413.02 60.9786 413.128 60.9071 413.22 60.8165C413.312 60.7259 413.385 60.618 413.435 60.499C413.484 60.38 413.51 60.2523 413.51 60.1233V48.0333C413.511 47.9049 413.486 47.7776 413.438 47.6587C413.389 47.5398 413.318 47.4317 413.227 47.3406C413.137 47.2495 413.029 47.1772 412.91 47.1278C412.792 47.0785 412.665 47.0531 412.536 47.0531V47.0531ZM396.61 51.8629C396.61 51.5101 396.715 51.1651 396.911 50.8717C397.107 50.5783 397.386 50.3497 397.712 50.2146C398.038 50.0796 398.396 50.0443 398.742 50.1131C399.088 50.182 399.406 50.3519 399.656 50.6014C399.905 50.8509 400.075 51.1688 400.144 51.5149C400.213 51.8609 400.178 52.2197 400.043 52.5457C399.908 52.8717 399.679 53.1503 399.385 53.3463C399.092 53.5424 398.747 53.647 398.394 53.647C398.16 53.6479 397.928 53.6025 397.712 53.5136C397.496 53.4246 397.299 53.2938 397.133 53.1287C396.967 52.9635 396.836 52.7673 396.746 52.5512C396.656 52.3351 396.61 52.1034 396.61 51.8695V51.8629ZM409.184 58.6202H397.185V57.3132H409.184V58.6202ZM407.975 53.647C407.621 53.6483 407.276 53.5446 406.981 53.3491C406.687 53.1535 406.457 52.875 406.321 52.5487C406.185 52.2224 406.149 51.8632 406.218 51.5165C406.287 51.1698 406.457 50.8513 406.707 50.6014C406.957 50.3515 407.275 50.1814 407.622 50.1128C407.968 50.0442 408.328 50.0801 408.654 50.2159C408.98 50.3517 409.259 50.5814 409.454 50.8758C409.65 51.1702 409.754 51.516 409.752 51.8695C409.752 52.3415 409.565 52.7943 409.232 53.1287C408.899 53.4631 408.447 53.6518 407.975 53.6535V53.647Z" fill="#999999"/>
<path d="M390.154 72.7557H386.442V62.3256H390.154V72.7557Z" fill="#999999"/>
<path d="M390.154 83.9502H386.442V73.5135H390.154V83.9502Z" fill="#999999"/>
<path d="M388.298 84.1856C387.318 84.1828 386.37 84.5291 385.623 85.1624C384.877 85.7957 384.38 86.6744 384.222 87.6408C384.065 88.6073 384.257 89.5982 384.765 90.4358C385.272 91.2733 386.061 91.9026 386.991 92.2107V90.8383C386.425 90.5493 385.973 90.0782 385.707 89.501C385.442 88.9238 385.378 88.274 385.527 87.6563C385.676 87.0386 386.028 86.4889 386.527 86.0957C387.026 85.7025 387.643 85.4887 388.278 85.4887C388.913 85.4887 389.53 85.7025 390.029 86.0957C390.528 86.4889 390.881 87.0386 391.029 87.6563C391.178 88.274 391.114 88.9238 390.849 89.501C390.583 90.0782 390.131 90.5493 389.565 90.8383V92.2434C390.495 91.9353 391.284 91.306 391.792 90.4685C392.299 89.6309 392.491 88.64 392.334 87.6735C392.176 86.7071 391.68 85.8283 390.933 85.1951C390.186 84.5618 389.238 84.2155 388.258 84.2182L388.298 84.1856Z" fill="#999999"/>
<path d="M420.039 72.7557H416.333V62.3256H420.039V72.7557Z" fill="#999999"/>
<path d="M420.039 83.9502H416.333V73.5135H420.039V83.9502Z" fill="#999999"/>
<path d="M418.183 84.1856C417.204 84.1828 416.255 84.5291 415.509 85.1624C414.762 85.7957 414.265 86.6744 414.108 87.6408C413.95 88.6073 414.142 89.5982 414.65 90.4358C415.157 91.2733 415.946 91.9026 416.876 92.2107V90.8383C416.31 90.5493 415.858 90.0782 415.592 89.501C415.327 88.9238 415.263 88.274 415.412 87.6563C415.561 87.0386 415.913 86.4889 416.412 86.0957C416.911 85.7025 417.528 85.4887 418.163 85.4887C418.798 85.4887 419.415 85.7025 419.914 86.0957C420.413 86.4889 420.766 87.0386 420.914 87.6563C421.063 88.274 420.999 88.9238 420.734 89.501C420.468 90.0782 420.016 90.5493 419.451 90.8383V92.2434C420.38 91.9353 421.169 91.306 421.677 90.4685C422.184 89.6309 422.376 88.64 422.219 87.6735C422.061 86.7071 421.565 85.8283 420.818 85.1951C420.071 84.5618 419.123 84.2155 418.143 84.2182L418.183 84.1856Z" fill="#999999"/>
<path d="M414.575 61.7636H391.794C391.664 61.7601 391.535 61.7827 391.414 61.8302C391.293 61.8776 391.183 61.9489 391.091 62.0397C390.998 62.1306 390.925 62.2392 390.875 62.359C390.825 62.4789 390.8 62.6075 390.801 62.7373V79.9443C390.801 80.2008 390.902 80.4468 391.084 80.6282C391.265 80.8096 391.511 80.9115 391.768 80.9115H414.549C414.806 80.9115 415.052 80.8096 415.233 80.6282C415.415 80.4468 415.516 80.2008 415.516 79.9443V62.7373C415.518 62.4842 415.421 62.2404 415.245 62.0583C415.069 61.8762 414.828 61.7704 414.575 61.7636V61.7636ZM410.929 75.1541C410.927 75.536 410.774 75.9017 410.503 76.1711C410.233 76.4405 409.866 76.5918 409.485 76.5918H404.969L408.034 73.5268C408.202 73.3535 408.294 73.1205 408.291 72.8791C408.287 72.6376 408.187 72.4075 408.014 72.2394C407.841 72.0713 407.608 71.9789 407.366 71.9826C407.125 71.9863 406.895 72.0857 406.727 72.259L402.394 76.5918H396.852C396.47 76.5918 396.104 76.4405 395.833 76.1711C395.562 75.9017 395.41 75.536 395.408 75.1541V70.109C395.408 69.9196 395.445 69.7321 395.518 69.5572C395.591 69.3824 395.697 69.2236 395.831 69.09C395.965 68.9564 396.125 68.8507 396.3 68.7788C396.475 68.7069 396.663 68.6704 396.852 68.6712H409.452C409.641 68.6704 409.829 68.7069 410.004 68.7788C410.179 68.8507 410.338 68.9564 410.473 69.09C410.607 69.2236 410.713 69.3824 410.786 69.5572C410.859 69.7321 410.896 69.9196 410.896 70.109L410.929 75.1541Z" fill="#999999"/>
<path d="M401.786 81.957H395.663V91.4982H401.786V81.957Z" fill="#999999"/>
<path d="M401.786 92.485H395.663V97.0139H401.786V92.485Z" fill="#999999"/>
<path d="M402.766 99.6542C402.799 100.155 402.632 100.649 402.303 101.028C401.974 101.407 401.509 101.642 401.008 101.68H394.068C393.567 101.642 393.102 101.407 392.773 101.028C392.444 100.649 392.278 100.155 392.31 99.6542V99.6542C392.278 99.1531 392.444 98.6595 392.773 98.2803C393.102 97.901 393.567 97.6668 394.068 97.6283H400.995C401.496 97.6668 401.961 97.901 402.29 98.2803C402.619 98.6595 402.786 99.1531 402.753 99.6542H402.766Z" fill="#999999"/>
<path d="M410.824 81.957H404.701V91.4982H410.824V81.957Z" fill="#999999"/>
<path d="M410.824 92.485H404.701V97.0139H410.824V92.485Z" fill="#999999"/>
<path d="M403.714 99.6542C403.682 100.155 403.848 100.649 404.177 101.028C404.506 101.407 404.971 101.642 405.472 101.68H412.406C412.906 101.642 413.37 101.407 413.698 101.028C414.026 100.648 414.191 100.155 414.157 99.6542V99.6542C414.191 99.1538 414.026 98.6601 413.698 98.2807C413.37 97.9013 412.906 97.6668 412.406 97.6283H405.472C404.971 97.6668 404.506 97.901 404.177 98.2803C403.848 98.6595 403.682 99.1531 403.714 99.6542V99.6542Z" fill="#999999"/>
<path d="M81.8981 354.707C81.8981 349.413 76.7354 344.963 69.7428 343.669C70.0324 344.747 70.1796 345.859 70.1806 346.976C70.168 349.379 69.4893 351.732 68.2201 353.772C66.9144 355.875 65.1797 357.679 63.1292 359.066C60.4388 360.906 57.4224 362.217 54.2415 362.928C57.6206 365.077 61.5564 366.186 65.5603 366.117C66.2138 366.117 66.815 366.117 67.4228 366.039L78.5325 371.195L73.4874 364.66C78.5194 362.699 81.8981 358.987 81.8981 354.707Z" fill="#BDC2C5"/>
<path d="M68.0306 346.976C68.0306 338.905 58.6658 332.364 47.1182 332.364C35.5706 332.364 26.2058 338.899 26.2058 346.976C26.2058 353.113 31.6234 358.36 39.2761 360.53L35.8321 369.745L48.4579 361.556C59.3912 361.066 68.0306 354.727 68.0306 346.976Z" fill="#BDC2C5"/>
<path d="M350.753 492.396C350.815 491.678 350.731 490.956 350.506 490.272C350.281 489.588 349.921 488.957 349.446 488.416C349.036 487.973 348.535 487.624 347.979 487.39C347.422 487.157 346.822 487.045 346.218 487.063H338.618C338.618 485.965 338.618 484.24 338.683 482.711C338.801 480.502 337.566 477.809 336.343 476.391C335.867 475.748 335.168 475.305 334.383 475.149C334.166 475.122 333.948 475.109 333.729 475.11C332.324 475.11 330.671 475.672 330.351 476.901C330.253 477.467 330.298 478.049 330.481 478.593C330.773 479.617 330.833 480.693 330.658 481.743C330.24 484.096 326.652 489.814 325.547 490.781C325.152 491.089 324.711 491.331 324.24 491.5C324.076 491.068 323.787 490.695 323.41 490.427C323.033 490.159 322.585 490.01 322.123 489.997H313.791C313.548 489.991 313.308 490.037 313.085 490.132C312.862 490.227 312.662 490.369 312.499 490.548C312.336 490.727 312.213 490.939 312.139 491.17C312.066 491.401 312.043 491.645 312.072 491.886L311.987 508.283C311.984 508.328 311.984 508.374 311.987 508.42C312.074 508.957 312.345 509.446 312.754 509.804C313.164 510.162 313.685 510.366 314.229 510.38H324.881C325.129 510.386 325.376 510.338 325.603 510.238C325.831 510.138 326.033 509.989 326.197 509.802C326.36 509.614 326.48 509.394 326.549 509.155C326.617 508.916 326.632 508.665 326.593 508.42L326.515 507.884C326.811 507.917 327.102 507.983 327.384 508.08C328.279 508.439 332.847 510.25 335.069 510.25H344.571C345.225 510.25 347.375 510.106 348.022 508.289C348.299 507.504 348.261 506.642 347.917 505.884C347.917 505.819 347.917 505.76 347.917 505.714V505.668C348.465 505.554 348.966 505.275 349.351 504.868C349.736 504.462 349.988 503.948 350.074 503.394C350.184 502.883 350.187 502.354 350.084 501.842C349.98 501.329 349.772 500.843 349.473 500.414C350.095 500.128 350.605 499.646 350.927 499.042C351.248 498.437 351.361 497.744 351.25 497.068C351.203 496.519 351.041 495.987 350.774 495.505C350.507 495.023 350.141 494.602 349.701 494.271C350.005 494.056 350.256 493.776 350.438 493.452C350.62 493.127 350.728 492.767 350.753 492.396V492.396Z" fill="#BDC2C5"/>
<path d="M212.699 259.876C212.346 259.876 212.006 259.876 211.666 259.928C211.666 259.667 211.666 259.399 211.666 259.131C211.66 256.138 210.503 253.262 208.434 251.1C206.365 248.937 203.543 247.654 200.554 247.515C197.564 247.376 194.636 248.393 192.376 250.355C190.116 252.317 188.697 255.073 188.414 258.052C189.475 258.874 190.336 259.925 190.932 261.127C191.529 262.329 191.845 263.651 191.858 264.993H191.943C193.835 264.961 195.664 265.677 197.032 266.985C198.4 268.292 199.196 270.087 199.25 271.979C199.239 273.13 198.942 274.26 198.383 275.266C197.825 276.273 197.025 277.124 196.054 277.743H212.718C217.881 277.743 222.051 273.73 222.051 268.809C222.051 263.888 217.881 259.876 212.699 259.876Z" fill="#636363"/>
<path d="M198.014 271.979C197.994 271.206 197.821 270.445 197.506 269.738C197.191 269.032 196.74 268.395 196.179 267.863C195.617 267.331 194.957 266.916 194.234 266.64C193.512 266.363 192.742 266.233 191.969 266.254C191.754 266.254 191.525 266.254 191.316 266.287L190.564 266.365L190.616 265.62C190.616 265.437 190.616 265.261 190.616 265.091C190.637 263.102 189.882 261.182 188.511 259.74C187.141 258.298 185.263 257.446 183.275 257.366C181.287 257.285 179.346 257.981 177.863 259.308C176.38 260.634 175.472 262.486 175.331 264.47L175.278 265.124L174.625 265.039C174.346 265.002 174.064 264.984 173.782 264.987C172.131 265.035 170.564 265.724 169.413 266.907C168.261 268.09 167.614 269.675 167.61 271.326C167.606 272.977 168.244 274.565 169.39 275.755C170.536 276.944 172.099 277.64 173.749 277.697H192.002C193.556 277.732 195.062 277.151 196.188 276.079C197.315 275.008 197.971 273.533 198.014 271.979V271.979Z" fill="#636363"/>
<path d="M290.258 405.426H289.401V404.596C289.401 404.516 289.37 404.44 289.313 404.384C289.257 404.327 289.181 404.296 289.101 404.296H284.454C284.375 404.296 284.298 404.327 284.242 404.384C284.185 404.44 284.154 404.516 284.154 404.596V405.426H280.638L279.141 403.158C279.133 403.059 279.086 402.967 279.01 402.902C278.934 402.837 278.836 402.805 278.736 402.812H272.619C272.521 402.807 272.424 402.84 272.35 402.904C272.275 402.969 272.229 403.06 272.221 403.158L270.724 405.426H261.104C260.858 405.425 260.614 405.473 260.386 405.567C260.158 405.661 259.951 405.799 259.776 405.974C259.602 406.148 259.464 406.355 259.37 406.583C259.276 406.811 259.228 407.055 259.229 407.302V425.332C259.229 425.578 259.277 425.822 259.372 426.049C259.466 426.276 259.604 426.482 259.778 426.656C259.953 426.83 260.16 426.967 260.387 427.061C260.615 427.154 260.858 427.202 261.104 427.201H290.258C290.754 427.201 291.23 427.004 291.581 426.654C291.933 426.304 292.131 425.828 292.133 425.332V407.302C292.133 407.055 292.085 406.812 291.99 406.584C291.896 406.356 291.758 406.15 291.584 405.976C291.41 405.801 291.203 405.663 290.975 405.569C290.748 405.475 290.504 405.426 290.258 405.426V405.426ZM275.678 424.175C274.127 424.175 272.61 423.715 271.321 422.854C270.031 421.992 269.026 420.767 268.432 419.334C267.839 417.901 267.684 416.325 267.986 414.803C268.289 413.282 269.036 411.885 270.132 410.788C271.229 409.691 272.627 408.944 274.148 408.642C275.669 408.339 277.246 408.495 278.679 409.088C280.112 409.682 281.336 410.687 282.198 411.976C283.06 413.266 283.52 414.782 283.52 416.333C283.52 418.413 282.694 420.408 281.223 421.879C279.752 423.349 277.758 424.175 275.678 424.175V424.175Z" fill="#CDCDCD"/>
<path d="M275.678 411.059C274.644 411.059 273.633 411.366 272.773 411.941C271.913 412.515 271.243 413.332 270.848 414.287C270.452 415.242 270.348 416.293 270.55 417.307C270.752 418.322 271.25 419.253 271.981 419.984C272.712 420.716 273.644 421.213 274.658 421.415C275.672 421.617 276.723 421.513 277.679 421.118C278.634 420.722 279.45 420.052 280.025 419.192C280.599 418.332 280.906 417.322 280.906 416.288C280.906 414.901 280.355 413.571 279.375 412.591C278.394 411.61 277.064 411.059 275.678 411.059Z" fill="#CDCDCD"/>
<path d="M541.389 365.915C541.389 374.41 526.012 385.18 526.012 385.18C526.012 385.18 510.642 374.404 510.642 365.915C510.642 357.426 521.849 356.066 526.012 363.301C529.933 356.204 541.389 357.426 541.389 365.915Z" fill="#999999"/>
<path d="M216.633 547.925H215.006V571.451C213.24 571.066 211.399 571.233 209.732 571.928C206.32 573.235 204.19 575.98 204.987 578.045C205.785 580.11 209.196 580.731 212.607 579.417C215.47 578.319 217.417 576.222 217.509 574.353V556.178C219.685 557.12 222.194 560.42 222.253 564.073C222.312 567.726 221.325 569.301 220.77 569.719C219.999 570.373 220.835 570.758 221.338 570.373C222.26 569.68 224.403 568.072 224.403 562.472C224.403 556.871 221.025 554.525 218.626 551.924C216.489 549.604 216.633 547.925 216.633 547.925Z" fill="#636363"/>
<path d="M339.121 31.4666L339.624 27.4933C343.05 25.647 346.093 23.1652 348.59 20.1805C356.432 10.6653 355.661 2.85585 355.661 2.85585L357.975 0L354.857 1.92133C354.857 1.92133 347.27 -0.0392104 336.664 6.26719C333.333 8.27835 330.414 10.9041 328.063 14.0048L324.038 13.8937C324.038 13.8937 318.346 14.887 312.229 22.1541C312.229 22.1541 318.561 21.0039 321.75 23.3435L320.221 25.8137C320.221 25.8137 319.973 27.2842 322.62 30.3883C325.266 33.4925 326.756 33.4533 326.756 33.4533L329.423 32.3031C331.246 35.8125 329.142 41.8836 329.142 41.8836C337.271 36.9431 339.121 31.4666 339.121 31.4666ZM343.539 12.4167C343.197 12.0199 342.981 11.5307 342.918 11.011C342.854 10.4913 342.946 9.96452 343.182 9.49722C343.419 9.02993 343.788 8.64313 344.244 8.38576C344.7 8.12838 345.222 8.01199 345.744 8.0513C346.266 8.09062 346.764 8.28387 347.177 8.60662C347.589 8.92937 347.896 9.36711 348.059 9.86449C348.223 10.3619 348.235 10.8965 348.095 11.4008C347.954 11.9052 347.667 12.3565 347.27 12.6977C346.737 13.1519 346.045 13.3771 345.347 13.3245C344.648 13.2718 343.998 12.9456 343.539 12.4167V12.4167Z" fill="#9900A6"/>
<path d="M78.5195 488.991C74.4089 488.991 71.0825 494.023 71.0825 500.231C71.0825 500.523 71.0825 500.817 71.0825 501.113H81.4342C81.6436 498.089 82.471 495.14 83.8652 492.448C82.5386 490.317 80.6303 488.991 78.5195 488.991Z" fill="#60A4C2"/>
<path d="M78.5195 479.345C77.6351 479.386 76.7822 479.686 76.0665 480.207C75.3509 480.728 74.8039 481.448 74.4934 482.277C74.183 483.106 74.1227 484.008 74.3201 484.871C74.5175 485.734 74.9639 486.52 75.6039 487.132C76.2439 487.743 77.0494 488.154 77.9204 488.312C78.7915 488.47 79.6899 488.369 80.5041 488.022C81.3183 487.674 82.0126 487.095 82.5009 486.357C82.9892 485.618 83.25 484.753 83.2509 483.867C83.2373 483.26 83.1042 482.661 82.859 482.104C82.6139 481.548 82.2615 481.046 81.8221 480.626C81.3827 480.206 80.8649 479.877 80.2982 479.657C79.7316 479.437 79.1271 479.331 78.5195 479.345Z" fill="#60A4C2"/>
<path d="M103.32 492.997C101.36 488.965 98.1443 486.351 94.5566 486.351C91.1322 486.351 88.0802 488.729 86.0609 492.461C84.7069 495.071 83.9039 497.932 83.7017 500.865C83.6494 501.519 83.6233 502.172 83.6233 502.826C83.6233 503.264 83.6233 503.695 83.6233 504.133H105.405C105.405 503.701 105.405 503.27 105.405 502.826C105.405 502.505 105.405 502.172 105.405 501.858C105.336 498.791 104.626 495.773 103.32 492.997V492.997Z" fill="#60A4C2"/>
<path d="M94.5567 472.196C93.258 472.256 92.0055 472.696 90.9546 473.461C89.9037 474.227 89.1007 475.284 88.6451 476.502C88.1895 477.719 88.1015 479.044 88.3918 480.311C88.6822 481.578 89.3382 482.733 90.2785 483.63C91.2188 484.528 92.402 485.13 93.6813 485.362C94.9606 485.593 96.2798 485.444 97.4751 484.933C98.6704 484.422 99.6894 483.571 100.405 482.486C101.122 481.4 101.503 480.129 101.504 478.829C101.483 477.937 101.287 477.058 100.927 476.242C100.567 475.426 100.049 474.689 99.4044 474.073C98.7592 473.457 97.9991 472.974 97.1673 472.652C96.3355 472.33 95.4484 472.175 94.5567 472.196V472.196Z" fill="#60A4C2"/>
<path d="M165.071 451.394C165.07 454.779 165.977 458.103 167.699 461.017C169.421 463.931 171.893 466.33 174.859 467.963C177.824 469.595 181.173 470.402 184.557 470.298C187.94 470.194 191.234 469.184 194.093 467.373L196.315 471.294L199.91 464.51L203.504 457.72L195.832 457.38L188.166 457.034L190.303 460.726C188.446 462.005 186.244 462.689 183.99 462.687C182.109 462.687 180.259 462.216 178.607 461.318C176.955 460.419 175.554 459.121 174.532 457.543C173.51 455.964 172.9 454.154 172.756 452.279C172.613 450.404 172.941 448.523 173.711 446.807C174.481 445.092 175.668 443.596 177.165 442.457C178.661 441.317 180.418 440.571 182.277 440.285C184.136 439.999 186.036 440.183 187.806 440.82C189.575 441.457 191.157 442.526 192.407 443.931C192.741 444.307 193.146 444.613 193.598 444.832C194.05 445.051 194.541 445.179 195.042 445.208C195.544 445.238 196.046 445.168 196.521 445.003C196.996 444.839 197.433 444.582 197.809 444.248C198.184 443.914 198.49 443.51 198.709 443.058C198.928 442.606 199.056 442.115 199.086 441.613C199.115 441.112 199.045 440.609 198.881 440.134C198.716 439.66 198.459 439.222 198.125 438.847C195.568 435.998 192.209 433.991 188.488 433.089C184.768 432.187 180.862 432.432 177.284 433.793C173.707 435.154 170.625 437.567 168.445 440.713C166.265 443.86 165.088 447.593 165.071 451.42V451.394Z" fill="#CDCDCD"/>
<path d="M28.7545 317.235C27.1922 317.233 25.6652 316.769 24.3668 315.9C23.0683 315.031 22.0567 313.797 21.4597 312.353C20.8627 310.909 20.7071 309.32 21.0127 307.788C21.3183 306.256 22.0713 304.849 23.1766 303.745C24.2818 302.64 25.6896 301.888 27.2221 301.584C28.7545 301.28 30.3428 301.437 31.7862 302.035C33.2295 302.633 34.4631 303.646 35.3309 304.945C36.1988 306.244 36.662 307.771 36.662 309.334C36.6586 311.429 35.8242 313.438 34.3418 314.919C32.8594 316.4 30.8501 317.233 28.7545 317.235V317.235ZM28.7545 304.896C27.8772 304.898 27.0199 305.159 26.2911 305.647C25.5622 306.136 24.9945 306.829 24.6596 307.64C24.3248 308.451 24.2378 309.343 24.4098 310.203C24.5817 311.064 25.0049 311.854 25.6257 312.474C26.2465 313.094 27.0372 313.516 27.8978 313.686C28.7584 313.857 29.6502 313.769 30.4607 313.433C31.2711 313.097 31.9638 312.528 32.4511 311.798C32.9383 311.069 33.1984 310.211 33.1984 309.334C33.1967 308.156 32.7277 307.028 31.8945 306.196C31.0613 305.364 29.932 304.896 28.7545 304.896Z" fill="#C84B2A"/>
<path d="M573.784 330.834C573.025 330.342 572.429 329.635 572.072 328.804C571.714 327.973 571.611 327.054 571.776 326.164C571.94 325.275 572.365 324.454 572.996 323.805C573.627 323.157 574.437 322.71 575.322 322.522C576.207 322.334 577.128 322.412 577.968 322.747C578.809 323.082 579.531 323.659 580.044 324.405C580.556 325.151 580.836 326.031 580.848 326.936C580.86 327.841 580.603 328.729 580.11 329.488C579.45 330.505 578.412 331.218 577.226 331.471C576.04 331.723 574.802 331.494 573.784 330.834V330.834Z" fill="#CDCDCD"/>
<path d="M301.673 509.799C302.115 487.682 284.544 469.393 262.426 468.951C240.309 468.509 222.02 486.08 221.578 508.197C221.136 530.315 238.707 548.603 260.824 549.045C282.942 549.488 301.23 531.917 301.673 509.799Z" fill="#C84B2A"/>
<path d="M201.988 541.854C202.509 546.682 201.587 551.556 199.338 555.86C197.089 560.164 193.614 563.705 189.353 566.034C185.092 568.363 180.236 569.376 175.399 568.945C170.562 568.514 165.961 566.659 162.179 563.613C158.396 560.567 155.602 556.468 154.149 551.835C152.696 547.201 152.65 542.24 154.017 537.58C155.383 532.92 158.101 528.77 161.826 525.655C165.552 522.54 170.117 520.599 174.945 520.079C181.419 519.381 187.904 521.283 192.976 525.366C198.047 529.45 201.289 535.38 201.988 541.854V541.854Z" fill="#EEBD3A"/>
<path d="M488.828 497.48C490.009 506.07 488.617 514.818 484.827 522.618C481.037 530.417 475.02 536.918 467.535 541.297C460.051 545.676 451.436 547.738 442.78 547.221C434.124 546.705 425.815 543.633 418.905 538.394C411.995 533.156 406.793 525.985 403.958 517.791C401.123 509.596 400.781 500.744 402.977 492.355C405.172 483.966 409.806 476.417 416.292 470.661C422.778 464.905 430.825 461.203 439.415 460.02C445.12 459.235 450.922 459.582 456.493 461.039C462.063 462.497 467.291 465.038 471.88 468.516C476.468 471.995 480.326 476.343 483.234 481.312C486.142 486.282 488.043 491.776 488.828 497.48V497.48Z" fill="#9900A6"/>
<path d="M572.026 294.238C572.026 301.79 569.787 309.173 565.591 315.452C561.395 321.731 555.431 326.626 548.454 329.516C541.477 332.406 533.799 333.162 526.392 331.689C518.985 330.215 512.181 326.579 506.841 321.238C501.5 315.898 497.864 309.094 496.39 301.687C494.917 294.28 495.673 286.602 498.563 279.625C501.453 272.648 506.348 266.684 512.627 262.488C518.906 258.292 526.289 256.053 533.841 256.053C543.968 256.053 553.681 260.076 560.842 267.237C568.003 274.398 572.026 284.11 572.026 294.238V294.238Z" fill="#A9C732"/>
<path d="M107.137 213.235C107.137 218.117 105.689 222.889 102.977 226.948C100.265 231.007 96.4098 234.171 91.8995 236.039C87.3893 237.907 82.4263 238.396 77.6382 237.444C72.8502 236.491 68.4521 234.14 65.0001 230.688C61.548 227.236 59.1972 222.838 58.2448 218.05C57.2924 213.262 57.7812 208.299 59.6494 203.789C61.5176 199.279 64.6813 195.424 68.7405 192.711C72.7996 189.999 77.5718 188.552 82.4537 188.552C89.0001 188.552 95.2783 191.152 99.9073 195.781C104.536 200.41 107.137 206.688 107.137 213.235Z" fill="#60A4C2"/>
<path d="M406.883 342.213C425.162 293.865 400.786 239.854 352.438 221.575C304.089 203.296 250.078 227.672 231.799 276.02C213.52 324.368 237.896 378.38 286.244 396.659C334.592 414.938 388.604 390.562 406.883 342.213Z" fill="#60A4C2"/>
<path d="M145.191 424.509C145.192 431.325 143.172 437.988 139.386 443.656C135.6 449.324 130.218 453.742 123.921 456.351C117.624 458.959 110.695 459.642 104.01 458.313C97.3249 456.984 91.1842 453.701 86.3645 448.882C81.5449 444.062 78.2627 437.921 76.9333 431.236C75.6039 424.551 76.2869 417.622 78.8958 411.325C81.5048 405.028 85.9226 399.646 91.5905 395.86C97.2584 392.074 103.922 390.054 110.738 390.055C119.875 390.055 128.639 393.685 135.1 400.147C141.561 406.608 145.191 415.371 145.191 424.509Z" fill="#A9C732"/>
<path d="M535.011 153.876C535.011 165.848 531.462 177.55 524.811 187.505C518.161 197.459 508.708 205.218 497.648 209.8C486.588 214.383 474.418 215.583 462.676 213.25C450.934 210.916 440.148 205.153 431.681 196.69C423.214 188.227 417.446 177.443 415.108 165.702C412.769 153.961 413.964 141.79 418.542 130.728C423.12 119.667 430.874 110.211 440.826 103.556C450.777 96.9011 462.479 93.3464 474.45 93.3412C482.402 93.3378 490.276 94.901 497.624 97.9416C504.971 100.982 511.648 105.441 517.272 111.062C522.896 116.684 527.357 123.358 530.401 130.704C533.444 138.05 535.011 145.924 535.011 153.876V153.876Z" fill="#EEBD3A"/>
<path d="M288.068 120.645C288.068 130.727 285.079 140.582 279.478 148.965C273.877 157.347 265.916 163.881 256.601 167.739C247.287 171.597 237.038 172.606 227.15 170.64C217.262 168.673 208.179 163.818 201.05 156.689C193.921 149.56 189.067 140.478 187.1 130.59C185.133 120.702 186.142 110.452 190.001 101.138C193.859 91.8239 200.392 83.8628 208.775 78.2617C217.157 72.6607 227.013 69.6711 237.094 69.6711C250.614 69.6711 263.579 75.0415 273.138 84.601C282.698 94.1605 288.068 107.126 288.068 120.645V120.645Z" fill="#C84B2A"/>
<path d="M479.508 144.616L483.083 142.355C482.719 140.507 482.133 138.71 481.338 137.002L477.11 137.31C476.7 136.58 476.242 135.88 475.738 135.212L477.698 131.474C476.454 130.058 475.046 128.797 473.503 127.716L470 130.095C469.279 129.669 468.533 129.289 467.765 128.958L467.595 124.736C465.812 124.13 463.962 123.744 462.086 123.586L460.243 127.389C459.629 127.389 459.008 127.389 458.387 127.461L457.733 127.533L455.498 123.952C453.65 124.318 451.853 124.906 450.146 125.703L450.453 129.931C449.723 130.34 449.022 130.798 448.355 131.304L444.611 129.343C443.196 130.585 441.936 131.994 440.86 133.539L443.232 137.042C442.806 137.762 442.427 138.509 442.095 139.277L437.873 139.44C437.27 141.226 436.884 143.078 436.723 144.956L440.533 146.799C440.533 147.413 440.533 148.034 440.598 148.655C440.598 148.877 440.651 149.086 440.677 149.308L437.095 151.563C437.458 153.412 438.046 155.209 438.847 156.915L443.068 156.608C443.478 157.337 443.937 158.038 444.441 158.706L442.48 162.444C443.722 163.861 445.131 165.122 446.676 166.201L450.179 163.823C450.896 164.253 451.643 164.633 452.414 164.96L452.584 169.188C454.367 169.792 456.217 170.176 458.093 170.332L459.936 166.528C460.55 166.528 461.171 166.528 461.798 166.463C462.014 166.463 462.223 166.411 462.452 166.384L464.713 169.966C466.56 169.603 468.355 169.015 470.059 168.214L469.758 163.993C470.483 163.576 471.184 163.118 471.856 162.62L475.594 164.581C477.007 163.333 478.269 161.922 479.352 160.379L476.973 156.882C477.398 156.16 477.778 155.411 478.11 154.641L482.332 154.477C482.938 152.695 483.324 150.845 483.482 148.968L479.678 147.112C479.678 146.498 479.678 145.877 479.606 145.256C479.561 145.041 479.534 144.825 479.508 144.616ZM469.706 146.112C469.873 148.021 469.471 149.936 468.55 151.615C467.629 153.295 466.229 154.663 464.53 155.547C462.83 156.431 460.907 156.791 459.003 156.58C457.099 156.37 455.3 155.6 453.834 154.367C452.368 153.133 451.301 151.493 450.768 149.653C450.235 147.813 450.26 145.856 450.84 144.03C451.42 142.205 452.529 140.592 454.026 139.397C455.523 138.202 457.341 137.477 459.249 137.316C460.515 137.206 461.79 137.346 463.001 137.728C464.212 138.11 465.337 138.728 466.309 139.544C467.282 140.361 468.084 141.362 468.671 142.489C469.257 143.616 469.615 144.847 469.725 146.112H469.706Z" fill="white"/>
<path d="M507.577 155.301C507.016 154.676 506.404 154.099 505.747 153.575L506.525 150.484C505.422 149.731 504.241 149.1 503.002 148.602L500.859 150.961C500.064 150.701 499.248 150.509 498.421 150.386L497.545 147.315C496.216 147.211 494.879 147.255 493.559 147.445L492.905 150.556C492.089 150.733 491.289 150.978 490.514 151.288L488.22 149.066C487.013 149.635 485.876 150.339 484.828 151.164L485.802 154.209C485.181 154.77 484.606 155.38 484.083 156.033L480.985 155.261C480.23 156.362 479.597 157.54 479.097 158.777L481.462 160.927C481.208 161.724 481.018 162.539 480.894 163.365L477.822 164.241C477.717 165.57 477.759 166.907 477.947 168.227L481.064 168.881C481.242 169.7 481.484 170.504 481.789 171.286L479.567 173.573C479.857 174.173 480.177 174.758 480.528 175.324C480.88 175.891 481.261 176.439 481.672 176.965L484.71 175.991C485.273 176.612 485.885 177.187 486.54 177.71L485.763 180.807C486.863 181.558 488.042 182.187 489.278 182.683L491.422 180.324C492.22 180.578 493.038 180.768 493.866 180.892L494.735 183.964C496.067 184.066 497.406 184.024 498.728 183.84L499.382 180.722C500.2 180.547 501.002 180.305 501.78 179.997L504.074 182.219C504.677 181.935 505.262 181.614 505.825 181.258C506.393 180.907 506.94 180.525 507.466 180.115L506.472 177.102C507.093 176.539 507.668 175.927 508.191 175.272L511.282 176.05C512.038 174.951 512.669 173.772 513.164 172.534L510.799 170.384C511.056 169.59 511.248 168.777 511.374 167.953L514.445 167.077C514.548 165.745 514.506 164.407 514.321 163.084L511.204 162.431C511.024 161.613 510.779 160.811 510.472 160.032L512.7 157.738C512.411 157.137 512.088 156.552 511.733 155.987C511.384 155.418 511.002 154.871 510.59 154.347L507.577 155.301ZM501.93 162.489C502.654 163.657 503.015 165.013 502.967 166.385C502.92 167.758 502.467 169.086 501.666 170.201C500.864 171.317 499.75 172.169 498.464 172.652C497.178 173.134 495.778 173.224 494.441 172.911C493.104 172.598 491.889 171.896 490.951 170.892C490.013 169.889 489.393 168.631 489.17 167.276C488.947 165.92 489.131 164.529 489.698 163.279C490.265 162.028 491.19 160.973 492.357 160.248C493.919 159.273 495.805 158.958 497.6 159.372C499.395 159.786 500.953 160.895 501.93 162.457V162.489Z" fill="white"/>
<path d="M372.502 257.516H263.483C262.445 257.479 261.435 257.856 260.674 258.563C259.913 259.269 259.464 260.249 259.425 261.287V337.271C259.462 338.31 259.911 339.292 260.672 340C261.433 340.708 262.444 341.086 263.483 341.048H372.502C373.54 341.084 374.55 340.706 375.309 339.998C376.069 339.29 376.516 338.309 376.554 337.271V261.287C376.515 260.251 376.066 259.272 375.307 258.565C374.547 257.858 373.539 257.481 372.502 257.516V257.516ZM365.268 328.488C365.216 329.305 364.843 330.068 364.231 330.611C363.619 331.155 362.817 331.434 362 331.39H273.985C273.168 331.433 272.368 331.152 271.756 330.609C271.144 330.066 270.771 329.304 270.718 328.488V270.07C270.771 269.254 271.144 268.492 271.756 267.949C272.368 267.406 273.168 267.126 273.985 267.169H361.981C362.798 267.124 363.599 267.404 364.211 267.947C364.823 268.491 365.196 269.254 365.248 270.07L365.268 328.488Z" fill="white"/>
<path d="M251.727 344.159V349.198C251.727 351.962 253.779 354.204 256.301 354.204H379.691C382.227 354.204 384.265 351.962 384.265 349.198V344.159H251.727ZM327.109 349.989H308.857C308.55 349.94 308.27 349.783 308.068 349.546C307.866 349.31 307.756 349.009 307.756 348.698C307.756 348.387 307.866 348.086 308.068 347.85C308.27 347.613 308.55 347.456 308.857 347.407H327.109C327.416 347.456 327.696 347.613 327.898 347.85C328.099 348.086 328.21 348.387 328.21 348.698C328.21 349.009 328.099 349.31 327.898 349.546C327.696 349.783 327.416 349.94 327.109 349.989V349.989Z" fill="white"/>
<path d="M510.465 283.396V305.105C510.477 305.851 510.785 306.562 511.32 307.081C511.855 307.601 512.575 307.887 513.321 307.876H553.728C554.098 307.882 554.465 307.815 554.809 307.679C555.153 307.543 555.467 307.341 555.733 307.084C555.999 306.826 556.211 306.519 556.358 306.18C556.505 305.84 556.584 305.475 556.59 305.105V283.415L533.521 295.832L510.465 283.396Z" fill="white"/>
<path d="M553.728 279.148H513.321C512.563 279.15 511.837 279.452 511.301 279.989C510.766 280.525 510.465 281.252 510.465 282.01V282.487L533.528 293.898L556.59 282.487V282.01C556.59 281.251 556.288 280.523 555.752 279.986C555.215 279.45 554.487 279.148 553.728 279.148Z" fill="white"/>
<path d="M470.712 522.046L472.254 522.967C473.522 523.725 475.391 522.921 476.43 521.183C477.469 519.445 477.28 517.419 476.012 516.661L474.391 515.7C473.959 516.971 473.399 518.196 472.718 519.353C472.149 520.321 471.477 521.224 470.712 522.046V522.046Z" fill="white"/>
<path d="M417.281 485.959C414.639 490.346 413.74 495.565 414.762 500.583C415.784 505.602 418.653 510.054 422.8 513.058C426.947 516.063 432.072 517.401 437.159 516.808C442.245 516.216 446.925 513.735 450.27 509.857L468.418 520.667C470.103 518.852 471.366 516.687 472.117 514.328L453.995 503.551C455.767 498.772 455.69 493.503 453.778 488.778C451.867 484.053 448.259 480.212 443.662 478.01C439.065 475.807 433.811 475.401 428.931 476.872C424.05 478.342 419.896 481.583 417.281 485.959V485.959ZM447.179 503.76C445.726 506.206 443.58 508.167 441.012 509.392C438.445 510.618 435.571 511.055 432.756 510.647C429.94 510.239 427.308 509.004 425.195 507.1C423.081 505.195 421.579 502.707 420.881 499.949C420.182 497.191 420.318 494.287 421.27 491.606C422.222 488.925 423.948 486.587 426.23 484.887C428.512 483.188 431.247 482.204 434.088 482.059C436.93 481.915 439.75 482.617 442.193 484.076C445.46 486.029 447.82 489.198 448.755 492.888C449.69 496.578 449.123 500.487 447.179 503.76V503.76Z" fill="white"/>
<path d="M269.018 101.223H206.268V104.993H269.018V101.223Z" fill="white"/>
<path d="M269.018 108.503H206.268V112.273H269.018V108.503Z" fill="white"/>
<path d="M269.018 115.776H206.268V119.547H269.018V115.776Z" fill="white"/>
<path d="M269.018 123.056H206.268V126.827H269.018V123.056Z" fill="white"/>
<path d="M269.018 130.33H206.268V134.101H269.018V130.33Z" fill="white"/>
<path d="M237.473 137.604H206.268V141.374H237.473V137.604Z" fill="white"/>
<path d="M278.311 497.905H277.004V493.67C277.004 491.55 276.587 489.451 275.776 487.493C274.965 485.534 273.776 483.755 272.277 482.256C270.778 480.757 268.998 479.568 267.04 478.757C265.081 477.946 262.982 477.528 260.863 477.528C258.743 477.528 256.644 477.946 254.686 478.757C252.727 479.568 250.948 480.757 249.449 482.256C247.95 483.755 246.761 485.534 245.95 487.493C245.138 489.451 244.721 491.55 244.721 493.67V497.905H243.414C242.111 497.905 240.861 498.423 239.939 499.344C239.017 500.266 238.5 501.516 238.5 502.819V526.137C238.5 527.44 239.017 528.69 239.939 529.612C240.861 530.533 242.111 531.051 243.414 531.051H278.351C279.654 531.051 280.904 530.533 281.826 529.612C282.747 528.69 283.265 527.44 283.265 526.137V502.819C283.265 502.17 283.137 501.528 282.887 500.929C282.638 500.331 282.272 499.787 281.812 499.33C281.351 498.873 280.805 498.512 280.204 498.268C279.603 498.023 278.96 497.9 278.311 497.905V497.905ZM251.779 493.67C251.779 491.266 252.734 488.96 254.434 487.261C256.134 485.561 258.439 484.606 260.843 484.606C263.247 484.606 265.553 485.561 267.252 487.261C268.952 488.96 269.907 491.266 269.907 493.67V497.905H251.779V493.67Z" fill="white"/>
<path d="M178.233 528.672L183.023 538.376L193.734 539.932L185.983 547.486L187.813 558.152L178.233 553.12L168.652 558.152L170.482 547.486L162.731 539.932L173.442 538.376L178.233 528.672Z" fill="white"/>
<path d="M90.7271 210.228L87.9823 210.196C86.4584 208.003 84.5311 206.12 82.3033 204.647C75.1996 200.014 69.9389 201.158 69.9389 201.158L67.8149 199.805L69.3638 201.765C69.3638 201.765 68.5992 207.098 73.7358 213.842C75.3669 215.946 77.3828 217.72 79.6762 219.07L79.9115 221.822C79.9115 221.822 81.029 225.632 86.4466 229.239C86.4466 229.239 85.1722 225.011 86.525 222.658L88.3287 223.521C88.3287 223.521 89.3482 223.58 91.2499 221.56C93.1516 219.541 93.0275 218.489 93.0275 218.489L92.0407 216.757C94.2953 215.247 98.5758 216.208 98.5758 216.208C94.609 211.085 90.7271 210.228 90.7271 210.228ZM77.415 208.686C77.1708 208.95 76.8539 209.135 76.5044 209.218C76.155 209.302 75.7886 209.279 75.4517 209.155C75.1148 209.03 74.8225 208.808 74.6117 208.517C74.4009 208.226 74.281 207.879 74.2673 207.52C74.2536 207.161 74.3467 206.806 74.5347 206.5C74.7227 206.194 74.9973 205.95 75.3237 205.8C75.6501 205.65 76.0137 205.6 76.3685 205.657C76.7233 205.713 77.0534 205.874 77.317 206.118C77.4929 206.28 77.6351 206.474 77.7353 206.691C77.8355 206.908 77.8918 207.143 77.9009 207.382C77.91 207.62 77.8718 207.859 77.7884 208.082C77.705 208.306 77.5781 208.512 77.415 208.686V208.686Z" fill="white"/>
<path d="M112.404 431.789C111.281 431.803 110.187 432.15 109.261 432.786C108.336 433.422 107.619 434.318 107.202 435.361C106.786 436.404 106.688 437.547 106.921 438.646C107.154 439.745 107.708 440.75 108.512 441.534C109.316 442.318 110.335 442.846 111.439 443.051C112.543 443.256 113.684 443.129 114.716 442.686C115.748 442.244 116.626 441.505 117.238 440.563C117.85 439.621 118.169 438.519 118.155 437.396C118.146 436.65 117.989 435.914 117.695 435.228C117.401 434.543 116.975 433.922 116.441 433.401C115.907 432.881 115.276 432.47 114.583 432.194C113.89 431.917 113.15 431.779 112.404 431.789V431.789Z" fill="white"/>
<path d="M112.175 418.627C105.863 418.706 100.255 421.96 96.5957 426.992L102.477 432.09C103.594 430.466 105.091 429.14 106.837 428.227C108.583 427.314 110.527 426.843 112.497 426.853C114.468 426.863 116.406 427.355 118.143 428.286C119.879 429.217 121.362 430.559 122.462 432.194L128.278 427.031C124.501 421.843 118.671 418.542 112.175 418.627Z" fill="white"/>
<path d="M112.012 405.511C101.961 405.635 93.0603 410.876 87.2898 418.941L93.1714 424.038C97.5826 417.856 104.405 413.837 112.123 413.739C120.024 413.634 127.108 417.66 131.663 424.025L137.48 418.862C131.52 410.628 122.292 405.38 112.012 405.511Z" fill="white"/>
</svg>
