<svg width="641" height="559" viewBox="0 0 641 559" fill="none" xmlns="http://www.w3.org/2000/svg">
<circle cx="320.358" cy="279.358" r="279.358" fill="#ECF7FF"/>
<path d="M102.962 182.85C103.764 175.168 106.496 167.814 110.904 161.471C115.312 155.128 121.252 150.003 128.172 146.572C135.092 143.142 142.768 141.517 150.485 141.849C158.202 142.181 165.709 144.46 172.309 148.472C178.291 144.269 185.249 141.667 192.521 140.914C199.794 140.161 207.137 141.282 213.854 144.17C220.57 147.058 226.436 151.617 230.892 157.413C235.348 163.209 238.246 170.05 239.31 177.283C250.194 179.811 259.768 186.255 266.207 195.387C272.647 204.519 275.502 215.701 274.228 226.802C272.955 237.903 267.642 248.148 259.303 255.585C250.963 263.021 240.179 267.13 229.005 267.129H119.473C109.33 267.126 99.5016 263.6 91.6703 257.153C83.8391 250.706 78.491 241.738 76.5408 231.783C74.5905 221.829 76.1593 211.506 80.9789 202.58C85.7984 193.654 93.5692 186.68 102.962 182.85V182.85Z" fill="#66C5FF"/>
<path opacity="0.6" d="M214.504 217.627C215.589 212.408 215.589 207.022 214.504 201.802L208.314 200.925C207.614 198.384 206.602 195.941 205.299 193.65L209 188.641C206.087 184.19 202.285 180.388 197.833 177.474L192.84 181.223C190.543 179.918 188.095 178.9 185.55 178.192L184.688 172.05C179.469 170.965 174.082 170.965 168.863 172.05L167.986 178.224C165.436 178.935 162.983 179.953 160.679 181.255L155.686 177.506C151.239 180.426 147.439 184.226 144.519 188.673L148.268 193.698C146.947 195.971 145.913 198.398 145.189 200.925L139 201.802C137.915 207.022 137.915 212.408 139 217.627L145.189 218.505C145.89 221.047 146.909 223.491 148.22 225.779L144.455 230.804C147.375 235.251 151.175 239.052 155.622 241.971L160.631 238.206C162.926 239.513 165.375 240.526 167.922 241.221L168.799 247.427C174.016 248.533 179.407 248.533 184.624 247.427L185.502 241.221C188.049 240.526 190.498 239.513 192.792 238.206L197.801 241.971C202.248 239.052 206.049 235.251 208.968 230.804L205.203 225.795C206.512 223.5 207.53 221.051 208.234 218.505L214.504 217.627ZM176.76 228.3C173.085 228.297 169.493 227.204 166.439 225.16C163.385 223.116 161.005 220.212 159.601 216.816C158.197 213.42 157.831 209.683 158.55 206.079C159.269 202.475 161.04 199.165 163.64 196.568C166.239 193.97 169.551 192.202 173.156 191.486C176.76 190.77 180.496 191.139 183.891 192.546C187.286 193.953 190.188 196.335 192.229 199.391C194.271 202.447 195.361 206.04 195.361 209.715C195.361 212.157 194.879 214.575 193.944 216.831C193.009 219.087 191.639 221.136 189.911 222.862C188.184 224.588 186.133 225.957 183.877 226.89C181.62 227.823 179.202 228.302 176.76 228.3V228.3Z" fill="white"/>
<path d="M352.575 139.746C353.764 128.482 359.076 118.055 367.49 110.472C375.904 102.888 386.825 98.6841 398.152 98.6679C406.517 98.6651 414.72 100.973 421.857 105.336C427.834 101.139 434.784 98.5389 442.048 97.7831C449.313 97.0272 456.649 98.1406 463.362 101.018C470.075 103.894 475.941 108.439 480.403 114.221C484.866 120.002 487.776 126.828 488.859 134.051C499.87 136.458 509.596 142.865 516.155 152.031C522.713 161.197 525.637 172.471 524.361 183.67C523.084 194.868 517.697 205.195 509.244 212.65C500.79 220.105 489.871 224.158 478.601 224.024H369.038C358.898 224.011 349.078 220.477 341.255 214.026C333.432 207.575 328.092 198.607 326.148 188.656C324.204 178.704 325.777 168.386 330.597 159.465C335.417 150.544 343.185 143.574 352.575 139.746V139.746Z" fill="#66C5FF"/>
<g opacity="0.6">
<path opacity="0.6" d="M405.219 178.511C405.219 172.369 408.505 168.94 412.908 168.94C417.311 168.94 420.581 172.433 420.581 178.511C420.581 184.589 417.39 188.083 412.908 188.083C408.425 188.083 405.219 184.653 405.219 178.511ZM417.981 178.511C417.981 173.725 415.923 171.269 412.987 171.269C410.052 171.269 407.978 173.693 407.978 178.511C407.978 183.329 410.036 185.754 412.987 185.754C415.939 185.754 417.837 183.329 417.837 178.511H417.981Z" fill="white"/>
<path opacity="0.6" d="M423.117 178.511C423.117 172.369 426.404 168.94 430.823 168.94C435.241 168.94 438.496 172.433 438.496 178.511C438.496 184.589 435.21 188.083 430.823 188.083C426.436 188.083 423.117 184.653 423.117 178.511ZM435.8 178.511C435.8 173.725 433.758 171.269 430.823 171.269C427.887 171.269 425.813 173.693 425.813 178.511C425.813 183.329 427.855 185.754 430.823 185.754C433.79 185.754 435.8 183.329 435.8 178.511Z" fill="white"/>
<path opacity="0.6" d="M446.856 169.083V188.003H444.191V171.428H439.932V169.083H446.856Z" fill="white"/>
<path opacity="0.6" d="M450.987 178.511C450.987 172.369 454.273 168.94 458.692 168.94C463.111 168.94 466.365 172.433 466.365 178.511C466.365 184.589 463.079 188.083 458.692 188.083C454.305 188.083 450.987 184.653 450.987 178.511ZM463.669 178.511C463.669 173.725 461.612 171.269 458.692 171.269C455.773 171.269 453.667 173.693 453.667 178.511C453.667 183.329 455.725 185.754 458.692 185.754C461.659 185.754 463.669 183.329 463.669 178.511Z" fill="white"/>
<path opacity="0.6" d="M474.725 169.083V188.003H472.045V171.428H467.801V169.083H474.725Z" fill="white"/>
<path opacity="0.6" d="M478.841 178.511C478.841 172.369 482.127 168.94 486.546 168.94C490.965 168.94 494.219 172.433 494.219 178.511C494.219 184.589 490.933 188.083 486.546 188.083C482.159 188.083 478.841 184.653 478.841 178.511ZM491.603 178.511C491.603 173.725 489.561 171.269 486.626 171.269C483.69 171.269 481.616 173.693 481.616 178.511C481.616 183.329 483.658 185.754 486.626 185.754C489.593 185.754 491.523 183.329 491.523 178.511H491.603Z" fill="white"/>
<path opacity="0.6" d="M502.53 169.083V188.003H499.866V171.428H495.607V169.083H502.53Z" fill="white"/>
</g>
<path d="M209.941 384.764C209.94 374.414 206.641 364.334 200.522 355.986C194.403 347.639 185.784 341.458 175.914 338.342C174.929 330.594 171.982 323.226 167.353 316.936C162.724 310.646 156.565 305.641 149.461 302.397C142.357 299.152 134.542 297.775 126.757 298.395C118.971 299.016 111.473 301.613 104.972 305.942C98.473 301.612 90.9758 299.014 83.1912 298.394C75.4065 297.773 67.5923 299.15 60.4891 302.395C53.3858 305.64 47.2287 310.645 42.6013 316.936C37.9738 323.226 35.0292 330.594 34.0466 338.342C22.956 341.836 13.4827 349.185 7.34157 359.059C1.20045 368.933 -1.20266 380.68 0.567202 392.172C2.33707 403.665 8.16296 414.144 16.9903 421.713C25.8177 429.282 37.0632 433.441 48.6912 433.436H162.354C175.074 433.152 187.177 427.9 196.071 418.802C204.966 409.705 209.945 397.487 209.941 384.764Z" fill="#24A7FF"/>
<path d="M104.574 305.687C98.0639 301.447 90.584 298.931 82.8357 298.374C75.0873 297.816 67.3243 299.236 60.2749 302.5C53.2255 305.764 47.1206 310.765 42.533 317.035C37.9453 323.304 35.0253 330.635 34.0466 338.342C22.956 341.836 13.4827 349.185 7.34157 359.059C1.20045 368.933 -1.20266 380.68 0.567202 392.172C2.33707 403.665 8.16296 414.144 16.9903 421.713C25.8177 429.282 37.0632 433.441 48.6912 433.436H82.8779L104.574 305.687Z" fill="#3BB0FF"/>
<path d="M223.485 409.651H99.3252V418.887H223.485V409.651Z" fill="#3D4959"/>
<path d="M223.485 364.871H99.3252V374.108H223.485V364.871Z" fill="#3D4959"/>
<path d="M229.037 416.606H93.231C89.698 416.606 86.834 419.47 86.834 423.003V451.734C86.834 455.267 89.698 458.131 93.231 458.131H229.037C232.57 458.131 235.434 455.267 235.434 451.734V423.003C235.434 419.47 232.57 416.606 229.037 416.606Z" fill="#D6E0EA"/>
<path d="M148.507 416.606L141.743 458.083H93.2312C91.5388 458.083 89.9158 457.411 88.7191 456.214C87.5224 455.017 86.8501 453.394 86.8501 451.702V422.987C86.8501 421.294 87.5224 419.671 88.7191 418.475C89.9158 417.278 91.5388 416.606 93.2312 416.606H148.507Z" fill="#EDEDED"/>
<path d="M226.309 449.005V425.762H95.9912V449.005H226.309Z" fill="#3D4959"/>
<path d="M216.004 437.376C216.004 438.169 215.768 438.943 215.328 439.602C214.887 440.261 214.261 440.774 213.528 441.077C212.796 441.379 211.99 441.458 211.212 441.302C210.435 441.146 209.722 440.763 209.162 440.202C208.603 439.64 208.223 438.925 208.07 438.147C207.918 437.37 207.999 436.564 208.305 435.833C208.61 435.101 209.126 434.477 209.787 434.039C210.447 433.601 211.223 433.369 212.015 433.372C212.541 433.372 213.06 433.476 213.545 433.677C214.03 433.878 214.471 434.174 214.841 434.546C215.212 434.918 215.505 435.359 215.705 435.845C215.904 436.331 216.006 436.851 216.004 437.376V437.376Z" fill="#24A7FF"/>
<path d="M198.727 437.376C198.727 438.055 198.525 438.718 198.149 439.282C197.772 439.846 197.236 440.286 196.609 440.545C195.983 440.805 195.293 440.873 194.628 440.74C193.962 440.608 193.351 440.281 192.872 439.802C192.392 439.322 192.065 438.711 191.933 438.045C191.801 437.38 191.868 436.691 192.128 436.064C192.388 435.437 192.827 434.901 193.391 434.525C193.955 434.148 194.618 433.947 195.297 433.947C196.205 433.951 197.075 434.313 197.717 434.956C198.36 435.598 198.722 436.468 198.727 437.376V437.376Z" fill="#24A7FF"/>
<path d="M182.008 437.376C182.008 438.055 181.807 438.718 181.43 439.282C181.053 439.846 180.518 440.286 179.891 440.545C179.264 440.805 178.574 440.873 177.909 440.74C177.244 440.608 176.633 440.281 176.153 439.802C175.673 439.322 175.347 438.711 175.214 438.045C175.082 437.38 175.15 436.691 175.41 436.064C175.669 435.437 176.109 434.901 176.673 434.525C177.237 434.148 177.9 433.947 178.578 433.947C179.487 433.951 180.357 434.313 180.999 434.956C181.641 435.598 182.004 436.468 182.008 437.376V437.376Z" fill="white"/>
<path d="M165.29 437.376C165.29 438.055 165.089 438.718 164.712 439.282C164.335 439.846 163.799 440.286 163.173 440.545C162.546 440.805 161.856 440.873 161.191 440.74C160.526 440.608 159.914 440.281 159.435 439.802C158.955 439.322 158.628 438.711 158.496 438.045C158.364 437.38 158.432 436.691 158.691 436.064C158.951 435.437 159.39 434.901 159.955 434.525C160.519 434.148 161.182 433.947 161.86 433.947C162.77 433.947 163.642 434.308 164.285 434.951C164.928 435.594 165.29 436.467 165.29 437.376V437.376Z" fill="#24A7FF"/>
<path d="M148.571 437.376C148.571 438.057 148.369 438.722 147.99 439.287C147.611 439.852 147.072 440.291 146.443 440.549C145.813 440.807 145.121 440.872 144.455 440.736C143.788 440.6 143.177 440.269 142.699 439.784C142.222 439.3 141.899 438.684 141.772 438.016C141.645 437.347 141.72 436.656 141.987 436.03C142.254 435.404 142.701 434.872 143.271 434.501C143.841 434.13 144.509 433.937 145.189 433.946C146.091 433.959 146.951 434.326 147.584 434.968C148.217 435.61 148.571 436.475 148.571 437.376V437.376Z" fill="white"/>
<path d="M229.037 371.125H93.231C89.698 371.125 86.834 373.989 86.834 377.522V406.252C86.834 409.785 89.698 412.649 93.231 412.649H229.037C232.57 412.649 235.434 409.785 235.434 406.252V377.522C235.434 373.989 232.57 371.125 229.037 371.125Z" fill="#D6E0EA"/>
<path d="M155.909 371.125L149.146 412.602H93.2312C91.5388 412.602 89.9158 411.929 88.7191 410.733C87.5224 409.536 86.8501 407.913 86.8501 406.221V377.506C86.8501 375.813 87.5224 374.19 88.7191 372.994C89.9158 371.797 91.5388 371.125 93.2312 371.125H155.909Z" fill="#EDEDED"/>
<path d="M226.293 403.492V380.249H95.9751V403.492H226.293Z" fill="#3D4959"/>
<path d="M229.037 326.345H93.231C89.698 326.345 86.834 329.209 86.834 332.742V361.473C86.834 365.006 89.698 367.87 93.231 367.87H229.037C232.57 367.87 235.434 365.006 235.434 361.473V332.742C235.434 329.209 232.57 326.345 229.037 326.345Z" fill="#D6E0EA"/>
<path d="M163.216 326.345L156.452 367.822H93.2312C91.5388 367.822 89.9158 367.15 88.7191 365.953C87.5224 364.757 86.8501 363.134 86.8501 361.441V332.726C86.8501 331.034 87.5224 329.411 88.7191 328.214C89.9158 327.018 91.5388 326.345 93.2312 326.345H163.216Z" fill="#EDEDED"/>
<path d="M226.309 358.745V335.502H95.9912V358.745H226.309Z" fill="#3D4959"/>
<path d="M212.015 395.883C214.227 395.883 216.019 394.09 216.019 391.879C216.019 389.667 214.227 387.875 212.015 387.875C209.804 387.875 208.011 389.667 208.011 391.879C208.011 394.09 209.804 395.883 212.015 395.883Z" fill="#24A7FF"/>
<path d="M198.727 391.879C198.727 392.557 198.525 393.221 198.149 393.785C197.772 394.349 197.236 394.788 196.609 395.048C195.983 395.307 195.293 395.375 194.628 395.243C193.962 395.111 193.351 394.784 192.872 394.304C192.392 393.825 192.065 393.214 191.933 392.548C191.801 391.883 191.868 391.193 192.128 390.567C192.388 389.94 192.827 389.404 193.391 389.027C193.955 388.65 194.618 388.449 195.297 388.449C196.206 388.449 197.079 388.811 197.722 389.454C198.365 390.097 198.727 390.969 198.727 391.879V391.879Z" fill="#24A7FF"/>
<path d="M182.008 391.879C182.008 392.557 181.807 393.221 181.43 393.785C181.053 394.349 180.518 394.788 179.891 395.048C179.264 395.307 178.574 395.375 177.909 395.243C177.244 395.111 176.633 394.784 176.153 394.304C175.673 393.825 175.347 393.214 175.214 392.548C175.082 391.883 175.15 391.193 175.41 390.567C175.669 389.94 176.109 389.404 176.673 389.027C177.237 388.65 177.9 388.449 178.578 388.449C179.488 388.449 180.36 388.811 181.004 389.454C181.647 390.097 182.008 390.969 182.008 391.879V391.879Z" fill="white"/>
<path d="M165.29 391.879C165.29 392.557 165.089 393.221 164.712 393.785C164.335 394.349 163.799 394.788 163.173 395.048C162.546 395.307 161.856 395.375 161.191 395.243C160.526 395.111 159.914 394.784 159.435 394.304C158.955 393.825 158.628 393.214 158.496 392.548C158.364 391.883 158.432 391.193 158.691 390.567C158.951 389.94 159.39 389.404 159.955 389.027C160.519 388.65 161.182 388.449 161.86 388.449C162.77 388.449 163.642 388.811 164.285 389.454C164.928 390.097 165.29 390.969 165.29 391.879V391.879Z" fill="#24A7FF"/>
<path d="M148.571 391.879C148.571 392.56 148.369 393.225 147.99 393.79C147.611 394.355 147.072 394.794 146.443 395.052C145.813 395.31 145.121 395.375 144.455 395.239C143.788 395.103 143.177 394.771 142.699 394.287C142.222 393.803 141.899 393.187 141.772 392.518C141.645 391.85 141.72 391.159 141.987 390.533C142.254 389.907 142.701 389.375 143.271 389.004C143.841 388.633 144.509 388.44 145.189 388.449C146.091 388.462 146.951 388.829 147.584 389.471C148.217 390.113 148.571 390.978 148.571 391.879V391.879Z" fill="white"/>
<path d="M216.004 347.116C216.004 347.908 215.768 348.683 215.328 349.342C214.887 350.001 214.261 350.514 213.528 350.817C212.796 351.119 211.99 351.198 211.212 351.042C210.435 350.886 209.722 350.503 209.162 349.941C208.603 349.38 208.223 348.665 208.07 347.887C207.918 347.109 207.999 346.304 208.305 345.572C208.61 344.841 209.126 344.217 209.787 343.779C210.447 343.341 211.223 343.108 212.015 343.112C213.075 343.116 214.089 343.54 214.836 344.29C215.584 345.04 216.004 346.057 216.004 347.116Z" fill="#24A7FF"/>
<path d="M198.727 347.116C198.727 347.794 198.525 348.457 198.149 349.021C197.772 349.585 197.236 350.025 196.609 350.284C195.983 350.544 195.293 350.612 194.628 350.48C193.962 350.347 193.351 350.021 192.872 349.541C192.392 349.061 192.065 348.45 191.933 347.785C191.801 347.119 191.868 346.43 192.128 345.803C192.388 345.176 192.827 344.641 193.391 344.264C193.955 343.887 194.618 343.686 195.297 343.686C196.206 343.686 197.079 344.047 197.722 344.69C198.365 345.334 198.727 346.206 198.727 347.116V347.116Z" fill="white"/>
<path d="M182.008 347.116C182.008 347.794 181.807 348.457 181.43 349.021C181.053 349.585 180.518 350.025 179.891 350.284C179.264 350.544 178.574 350.612 177.909 350.48C177.244 350.347 176.633 350.021 176.153 349.541C175.673 349.061 175.347 348.45 175.214 347.785C175.082 347.119 175.15 346.43 175.41 345.803C175.669 345.176 176.109 344.641 176.673 344.264C177.237 343.887 177.9 343.686 178.578 343.686C179.488 343.686 180.36 344.047 181.004 344.69C181.647 345.334 182.008 346.206 182.008 347.116V347.116Z" fill="white"/>
<path d="M165.29 347.116C165.29 347.794 165.089 348.457 164.712 349.021C164.335 349.585 163.799 350.025 163.173 350.284C162.546 350.544 161.856 350.612 161.191 350.48C160.526 350.347 159.914 350.021 159.435 349.541C158.955 349.061 158.628 348.45 158.496 347.785C158.364 347.119 158.432 346.43 158.691 345.803C158.951 345.176 159.39 344.641 159.955 344.264C160.519 343.887 161.182 343.686 161.86 343.686C162.77 343.686 163.642 344.047 164.285 344.69C164.928 345.334 165.29 346.206 165.29 347.116V347.116Z" fill="#24A7FF"/>
<path d="M148.571 347.115C148.571 347.796 148.369 348.461 147.99 349.026C147.611 349.591 147.072 350.03 146.443 350.289C145.813 350.547 145.121 350.612 144.455 350.475C143.788 350.339 143.177 350.008 142.699 349.523C142.222 349.039 141.899 348.423 141.772 347.755C141.645 347.086 141.72 346.395 141.987 345.769C142.254 345.144 142.701 344.611 143.271 344.24C143.841 343.869 144.509 343.676 145.189 343.686C146.091 343.698 146.951 344.065 147.584 344.707C148.217 345.349 148.571 346.214 148.571 347.115V347.115Z" fill="#24A7FF"/>
<path d="M408.026 394.99C408.038 386.811 405.439 378.841 400.607 372.242C395.775 365.643 388.963 360.758 381.162 358.298C380.378 352.185 378.047 346.373 374.39 341.412C370.732 336.451 365.868 332.506 360.26 329.95C354.651 327.394 348.483 326.312 342.339 326.806C336.196 327.3 330.28 329.355 325.152 332.774C320.025 329.354 314.11 327.299 307.967 326.804C301.824 326.31 295.657 327.392 290.049 329.948C284.442 332.505 279.579 336.45 275.923 341.411C272.267 346.373 269.939 352.185 269.158 358.298C260.366 361.037 252.85 366.84 247.977 374.654C243.104 382.467 241.199 391.77 242.608 400.87C244.016 409.969 248.646 418.261 255.653 424.235C262.66 430.209 271.579 433.468 280.787 433.42H370.442C380.488 433.203 390.049 429.058 397.076 421.874C404.102 414.69 408.033 405.038 408.026 394.99V394.99Z" fill="#24A7FF"/>
<path d="M324.833 332.551C319.694 329.201 313.787 327.213 307.668 326.773C301.55 326.332 295.419 327.454 289.853 330.033C284.287 332.612 279.468 336.564 275.848 341.516C272.228 346.469 269.926 352.26 269.158 358.346C260.404 361.113 252.929 366.923 248.088 374.723C243.246 382.524 241.357 391.8 242.762 400.873C244.168 409.946 248.775 418.215 255.75 424.185C262.725 430.156 271.607 433.431 280.788 433.42H307.795L324.833 332.551Z" fill="#3BB0FF"/>
<path d="M387.511 475.902H263.351V485.139H387.511V475.902Z" fill="#3D4959"/>
<path d="M387.511 431.139H263.351V440.375H387.511V431.139Z" fill="#3D4959"/>
<path d="M393.063 482.857H257.257C253.724 482.857 250.86 485.721 250.86 489.254V517.985C250.86 521.518 253.724 524.382 257.257 524.382H393.063C396.596 524.382 399.46 521.518 399.46 517.985V489.254C399.46 485.721 396.596 482.857 393.063 482.857Z" fill="#D6E0EA"/>
<path d="M312.517 482.857L305.753 524.334H257.241C255.549 524.334 253.926 523.662 252.729 522.465C251.532 521.269 250.86 519.646 250.86 517.953V489.238C250.86 487.546 251.532 485.923 252.729 484.726C253.926 483.53 255.549 482.857 257.241 482.857H312.517Z" fill="#EDEDED"/>
<path d="M390.303 515.257V492.014H259.985V515.257H390.303Z" fill="#3D4959"/>
<path d="M380.03 503.628C380.03 504.42 379.795 505.194 379.355 505.852C378.915 506.511 378.289 507.024 377.558 507.327C376.826 507.63 376.021 507.709 375.244 507.555C374.467 507.4 373.754 507.019 373.194 506.459C372.634 505.899 372.253 505.186 372.098 504.409C371.944 503.632 372.023 502.827 372.326 502.095C372.629 501.364 373.142 500.738 373.801 500.298C374.459 499.858 375.233 499.624 376.025 499.624C377.087 499.624 378.106 500.045 378.857 500.796C379.608 501.547 380.03 502.566 380.03 503.628V503.628Z" fill="#24A7FF"/>
<path d="M362.737 503.628C362.737 504.306 362.535 504.969 362.159 505.533C361.782 506.097 361.246 506.537 360.619 506.797C359.993 507.056 359.303 507.124 358.638 506.992C357.972 506.859 357.361 506.533 356.882 506.053C356.402 505.573 356.075 504.962 355.943 504.297C355.811 503.632 355.878 502.942 356.138 502.315C356.398 501.689 356.837 501.153 357.401 500.776C357.965 500.399 358.628 500.198 359.307 500.198C360.216 500.198 361.089 500.559 361.732 501.203C362.375 501.846 362.737 502.718 362.737 503.628V503.628Z" fill="#24A7FF"/>
<path d="M346.018 503.628C346.018 504.306 345.817 504.969 345.44 505.533C345.063 506.097 344.528 506.537 343.901 506.797C343.274 507.056 342.585 507.124 341.919 506.992C341.254 506.859 340.643 506.533 340.163 506.053C339.684 505.573 339.357 504.962 339.225 504.297C339.092 503.632 339.16 502.942 339.42 502.315C339.679 501.689 340.119 501.153 340.683 500.776C341.247 500.399 341.91 500.198 342.589 500.198C343.498 500.198 344.371 500.559 345.014 501.203C345.657 501.846 346.018 502.718 346.018 503.628V503.628Z" fill="white"/>
<path d="M329.3 503.628C329.3 504.306 329.098 504.969 328.722 505.533C328.345 506.097 327.809 506.537 327.182 506.797C326.556 507.056 325.866 507.124 325.201 506.992C324.535 506.859 323.924 506.533 323.445 506.053C322.965 505.573 322.638 504.962 322.506 504.297C322.373 503.632 322.441 502.942 322.701 502.315C322.961 501.689 323.4 501.153 323.964 500.776C324.528 500.399 325.191 500.198 325.87 500.198C326.779 500.198 327.652 500.559 328.295 501.203C328.938 501.846 329.3 502.718 329.3 503.628V503.628Z" fill="#24A7FF"/>
<path d="M312.581 503.628C312.581 504.306 312.38 504.969 312.003 505.533C311.626 506.097 311.09 506.537 310.464 506.797C309.837 507.056 309.147 507.124 308.482 506.992C307.817 506.859 307.205 506.533 306.726 506.053C306.246 505.573 305.919 504.962 305.787 504.297C305.655 503.632 305.723 502.942 305.982 502.315C306.242 501.689 306.681 501.153 307.246 500.776C307.81 500.399 308.473 500.198 309.151 500.198C310.061 500.198 310.933 500.559 311.576 501.203C312.22 501.846 312.581 502.718 312.581 503.628V503.628Z" fill="white"/>
<path d="M393.063 437.376H257.257C253.724 437.376 250.86 440.24 250.86 443.773V472.504C250.86 476.037 253.724 478.901 257.257 478.901H393.063C396.596 478.901 399.46 476.037 399.46 472.504V443.773C399.46 440.24 396.596 437.376 393.063 437.376Z" fill="#D6E0EA"/>
<path d="M319.919 437.376L313.171 478.853H257.241C255.549 478.853 253.926 478.181 252.729 476.984C251.532 475.788 250.86 474.164 250.86 472.472V443.757C250.86 442.065 251.532 440.442 252.729 439.245C253.926 438.048 255.549 437.376 257.241 437.376H319.919Z" fill="#EDEDED"/>
<path d="M390.319 469.76V446.517H260.001V469.76H390.319Z" fill="#3D4959"/>
<path d="M393.063 392.612H257.257C253.724 392.612 250.86 395.476 250.86 399.009V427.74C250.86 431.273 253.724 434.137 257.257 434.137H393.063C396.596 434.137 399.46 431.273 399.46 427.74V399.009C399.46 395.476 396.596 392.612 393.063 392.612Z" fill="#D6E0EA"/>
<path d="M327.226 392.597L320.462 434.074H257.241C255.549 434.074 253.926 433.402 252.729 432.205C251.532 431.009 250.86 429.386 250.86 427.693V398.978C250.86 397.286 251.532 395.663 252.729 394.466C253.926 393.27 255.549 392.597 257.241 392.597H327.226Z" fill="#EDEDED"/>
<path d="M390.319 424.997V401.754H260.001V424.997H390.319Z" fill="#3D4959"/>
<path d="M380.03 458.147C380.03 458.939 379.795 459.713 379.355 460.371C378.915 461.03 378.289 461.543 377.558 461.846C376.826 462.149 376.021 462.228 375.244 462.074C374.467 461.919 373.754 461.538 373.194 460.978C372.634 460.418 372.253 459.704 372.098 458.928C371.944 458.151 372.023 457.346 372.326 456.614C372.629 455.883 373.142 455.257 373.801 454.817C374.459 454.377 375.233 454.142 376.025 454.142C377.086 454.147 378.102 454.57 378.852 455.32C379.602 456.07 380.025 457.086 380.03 458.147V458.147Z" fill="#24A7FF"/>
<path d="M362.737 458.147C362.737 458.825 362.535 459.488 362.159 460.052C361.782 460.616 361.246 461.056 360.619 461.316C359.993 461.575 359.303 461.643 358.638 461.511C357.972 461.378 357.361 461.052 356.882 460.572C356.402 460.092 356.075 459.481 355.943 458.816C355.811 458.151 355.878 457.461 356.138 456.834C356.398 456.207 356.837 455.672 357.401 455.295C357.965 454.918 358.628 454.717 359.307 454.717C360.216 454.717 361.089 455.078 361.732 455.721C362.375 456.365 362.737 457.237 362.737 458.147V458.147Z" fill="#24A7FF"/>
<path d="M346.018 458.147C346.018 458.825 345.817 459.488 345.44 460.052C345.063 460.616 344.528 461.056 343.901 461.316C343.274 461.575 342.585 461.643 341.919 461.511C341.254 461.378 340.643 461.052 340.163 460.572C339.684 460.092 339.357 459.481 339.225 458.816C339.092 458.151 339.16 457.461 339.42 456.834C339.679 456.207 340.119 455.672 340.683 455.295C341.247 454.918 341.91 454.717 342.589 454.717C343.498 454.717 344.371 455.078 345.014 455.721C345.657 456.365 346.018 457.237 346.018 458.147V458.147Z" fill="white"/>
<path d="M329.3 458.147C329.3 458.825 329.098 459.488 328.722 460.052C328.345 460.616 327.809 461.056 327.182 461.316C326.556 461.575 325.866 461.643 325.201 461.511C324.535 461.378 323.924 461.052 323.445 460.572C322.965 460.092 322.638 459.481 322.506 458.816C322.373 458.151 322.441 457.461 322.701 456.834C322.961 456.207 323.4 455.672 323.964 455.295C324.528 454.918 325.191 454.717 325.87 454.717C326.779 454.717 327.652 455.078 328.295 455.721C328.938 456.365 329.3 457.237 329.3 458.147V458.147Z" fill="#24A7FF"/>
<path d="M312.581 458.147C312.581 458.825 312.38 459.488 312.003 460.052C311.626 460.616 311.09 461.056 310.464 461.316C309.837 461.575 309.147 461.643 308.482 461.511C307.817 461.378 307.205 461.052 306.726 460.572C306.246 460.092 305.919 459.481 305.787 458.816C305.655 458.151 305.723 457.461 305.982 456.834C306.242 456.207 306.681 455.672 307.246 455.295C307.81 454.918 308.473 454.717 309.151 454.717C310.061 454.717 310.933 455.078 311.576 455.721C312.22 456.365 312.581 457.237 312.581 458.147V458.147Z" fill="white"/>
<path d="M380.029 413.368C380.033 414.16 379.8 414.936 379.362 415.596C378.924 416.257 378.3 416.773 377.569 417.078C376.837 417.384 376.032 417.465 375.254 417.313C374.476 417.16 373.761 416.78 373.2 416.221C372.638 415.661 372.255 414.948 372.099 414.171C371.944 413.393 372.022 412.588 372.325 411.855C372.627 411.122 373.14 410.496 373.799 410.055C374.458 409.615 375.233 409.379 376.025 409.379C377.085 409.379 378.101 409.799 378.851 410.547C379.602 411.294 380.025 412.308 380.029 413.368V413.368Z" fill="#24A7FF"/>
<path d="M362.737 413.367C362.737 414.046 362.535 414.709 362.159 415.273C361.782 415.837 361.246 416.277 360.619 416.536C359.993 416.796 359.303 416.864 358.638 416.731C357.972 416.599 357.361 416.272 356.882 415.793C356.402 415.313 356.075 414.702 355.943 414.037C355.811 413.371 355.878 412.682 356.138 412.055C356.398 411.428 356.837 410.893 357.401 410.516C357.965 410.139 358.628 409.938 359.307 409.938C360.216 409.938 361.089 410.299 361.732 410.942C362.375 411.585 362.737 412.458 362.737 413.367V413.367Z" fill="white"/>
<path d="M346.018 413.367C346.018 414.046 345.817 414.709 345.44 415.273C345.063 415.837 344.528 416.277 343.901 416.536C343.274 416.796 342.585 416.864 341.919 416.731C341.254 416.599 340.643 416.272 340.163 415.793C339.684 415.313 339.357 414.702 339.225 414.037C339.092 413.371 339.16 412.682 339.42 412.055C339.679 411.428 340.119 410.893 340.683 410.516C341.247 410.139 341.91 409.938 342.589 409.938C343.498 409.938 344.371 410.299 345.014 410.942C345.657 411.585 346.018 412.458 346.018 413.367V413.367Z" fill="white"/>
<path d="M329.3 413.367C329.3 414.046 329.098 414.709 328.722 415.273C328.345 415.837 327.809 416.277 327.182 416.536C326.556 416.796 325.866 416.864 325.201 416.731C324.535 416.599 323.924 416.272 323.445 415.793C322.965 415.313 322.638 414.702 322.506 414.037C322.373 413.371 322.441 412.682 322.701 412.055C322.961 411.428 323.4 410.893 323.964 410.516C324.528 410.139 325.191 409.938 325.87 409.938C326.779 409.938 327.652 410.299 328.295 410.942C328.938 411.585 329.3 412.458 329.3 413.367V413.367Z" fill="#24A7FF"/>
<path d="M312.581 413.367C312.581 414.046 312.38 414.709 312.003 415.273C311.626 415.837 311.09 416.277 310.464 416.536C309.837 416.796 309.147 416.864 308.482 416.731C307.817 416.599 307.205 416.272 306.726 415.793C306.246 415.313 305.919 414.702 305.787 414.037C305.655 413.371 305.723 412.682 305.982 412.055C306.242 411.428 306.681 410.893 307.246 410.516C307.81 410.139 308.473 409.938 309.151 409.938C310.061 409.938 310.933 410.299 311.576 410.942C312.22 411.585 312.581 412.458 312.581 413.367V413.367Z" fill="#24A7FF"/>
<path d="M641 384.764C640.999 374.414 637.699 364.334 631.581 355.986C625.462 347.639 616.842 341.458 606.973 338.342C605.987 330.594 603.041 323.226 598.411 316.936C593.782 310.646 587.624 305.641 580.52 302.397C573.415 299.152 565.601 297.775 557.815 298.395C550.03 299.016 542.532 301.613 536.031 305.942C529.532 301.612 522.034 299.014 514.25 298.394C506.465 297.773 498.651 299.15 491.548 302.395C484.444 305.64 478.287 310.645 473.66 316.936C469.032 323.226 466.088 330.594 465.105 338.342C454.015 341.836 444.541 349.185 438.4 359.059C432.259 368.933 429.856 380.68 431.626 392.172C433.396 403.665 439.222 414.144 448.049 421.713C456.876 429.282 468.122 433.441 479.75 433.436H593.461C606.172 433.14 618.263 427.882 627.147 418.786C636.031 409.69 641.003 397.479 641 384.764Z" fill="#24A7FF"/>
<path d="M535.632 305.687C529.122 301.447 521.643 298.931 513.894 298.374C506.146 297.816 498.383 299.236 491.333 302.5C484.284 305.764 478.179 310.765 473.592 317.035C469.004 323.304 466.084 330.635 465.105 338.342C454.015 341.836 444.541 349.185 438.4 359.059C432.259 368.933 429.856 380.68 431.626 392.172C433.396 403.665 439.222 414.144 448.049 421.713C456.876 429.282 468.122 433.441 479.75 433.436H513.937L535.632 305.687Z" fill="#3BB0FF"/>
<path d="M551.521 409.651H427.361V418.887H551.521V409.651Z" fill="#3D4959"/>
<path d="M551.521 364.871H427.361V374.108H551.521V364.871Z" fill="#3D4959"/>
<path d="M557.073 416.606H421.267C417.734 416.606 414.87 419.47 414.87 423.003V451.734C414.87 455.267 417.734 458.131 421.267 458.131H557.073C560.606 458.131 563.47 455.267 563.47 451.734V423.003C563.47 419.47 560.606 416.606 557.073 416.606Z" fill="#D6E0EA"/>
<path d="M476.528 416.606L469.764 458.083H421.267C419.575 458.083 417.952 457.411 416.755 456.214C415.559 455.017 414.886 453.394 414.886 451.702V422.987C414.886 421.294 415.559 419.671 416.755 418.475C417.952 417.278 419.575 416.606 421.267 416.606H476.528Z" fill="#EDEDED"/>
<path d="M554.329 448.99V425.747H424.011V448.99H554.329Z" fill="#3D4959"/>
<path d="M544.008 437.376C544.008 438.168 543.773 438.942 543.333 439.601C542.893 440.259 542.267 440.772 541.536 441.075C540.804 441.378 539.999 441.458 539.222 441.303C538.446 441.149 537.732 440.767 537.172 440.207C536.612 439.647 536.231 438.934 536.076 438.157C535.922 437.38 536.001 436.575 536.304 435.844C536.607 435.112 537.12 434.487 537.779 434.047C538.437 433.607 539.211 433.372 540.003 433.372C540.53 433.37 541.051 433.472 541.538 433.672C542.025 433.873 542.467 434.168 542.839 434.54C543.212 434.912 543.507 435.354 543.707 435.841C543.908 436.328 544.01 436.85 544.008 437.376V437.376Z" fill="#24A7FF"/>
<path d="M523.317 440.806C525.211 440.806 526.746 439.271 526.746 437.376C526.746 435.482 525.211 433.947 523.317 433.947C521.422 433.947 519.887 435.482 519.887 437.376C519.887 439.271 521.422 440.806 523.317 440.806Z" fill="#24A7FF"/>
<path d="M510.028 437.376C510.028 438.055 509.827 438.718 509.45 439.282C509.073 439.846 508.537 440.286 507.911 440.545C507.284 440.805 506.594 440.873 505.929 440.74C505.264 440.608 504.652 440.281 504.173 439.802C503.693 439.322 503.366 438.711 503.234 438.045C503.102 437.38 503.17 436.691 503.429 436.064C503.689 435.437 504.129 434.901 504.693 434.525C505.257 434.148 505.92 433.947 506.598 433.947C507.508 433.947 508.38 434.308 509.023 434.951C509.667 435.594 510.028 436.467 510.028 437.376V437.376Z" fill="white"/>
<path d="M493.309 437.376C493.309 438.055 493.108 438.718 492.731 439.282C492.354 439.846 491.819 440.286 491.192 440.545C490.565 440.805 489.876 440.873 489.21 440.74C488.545 440.608 487.934 440.281 487.454 439.802C486.975 439.322 486.648 438.711 486.516 438.045C486.383 437.38 486.451 436.691 486.711 436.064C486.97 435.437 487.41 434.901 487.974 434.525C488.538 434.148 489.201 433.947 489.88 433.947C490.789 433.947 491.662 434.308 492.305 434.951C492.948 435.594 493.309 436.467 493.309 437.376V437.376Z" fill="#24A7FF"/>
<path d="M476.591 437.376C476.591 438.055 476.39 438.718 476.013 439.282C475.636 439.846 475.101 440.286 474.474 440.545C473.847 440.805 473.157 440.873 472.492 440.74C471.827 440.608 471.216 440.281 470.736 439.802C470.256 439.322 469.93 438.711 469.797 438.045C469.665 437.38 469.733 436.691 469.993 436.064C470.252 435.437 470.692 434.901 471.256 434.525C471.82 434.148 472.483 433.947 473.161 433.947C474.071 433.947 474.943 434.308 475.587 434.951C476.23 435.594 476.591 436.467 476.591 437.376V437.376Z" fill="white"/>
<path d="M557.073 371.125H421.267C417.734 371.125 414.87 373.989 414.87 377.522V406.252C414.87 409.785 417.734 412.649 421.267 412.649H557.073C560.606 412.649 563.47 409.785 563.47 406.252V377.522C563.47 373.989 560.606 371.125 557.073 371.125Z" fill="#D6E0EA"/>
<path d="M483.946 371.125L477.182 412.602H421.267C419.575 412.602 417.952 411.929 416.755 410.733C415.559 409.536 414.886 407.913 414.886 406.221V377.506C414.886 375.813 415.559 374.19 416.755 372.994C417.952 371.797 419.575 371.125 421.267 371.125H483.946Z" fill="#EDEDED"/>
<path d="M554.329 403.508V380.265H424.011V403.508H554.329Z" fill="#3D4959"/>
<path d="M557.073 326.345H421.267C417.734 326.345 414.87 329.209 414.87 332.742V361.473C414.87 365.006 417.734 367.87 421.267 367.87H557.073C560.606 367.87 563.47 365.006 563.47 361.473V332.742C563.47 329.209 560.606 326.345 557.073 326.345Z" fill="#D6E0EA"/>
<path d="M491.236 326.345L484.472 367.822H421.267C419.575 367.822 417.952 367.15 416.755 365.953C415.559 364.757 414.886 363.134 414.886 361.441V332.726C414.886 331.034 415.559 329.411 416.755 328.214C417.952 327.018 419.575 326.345 421.267 326.345H491.236Z" fill="#EDEDED"/>
<path d="M554.329 358.729V335.486H424.011V358.729H554.329Z" fill="#3D4959"/>
<path d="M544.008 391.879C544.008 392.671 543.773 393.445 543.333 394.103C542.893 394.762 542.267 395.275 541.536 395.578C540.804 395.881 539.999 395.961 539.222 395.806C538.446 395.652 537.732 395.27 537.172 394.71C536.612 394.15 536.231 393.437 536.076 392.66C535.922 391.883 536.001 391.078 536.304 390.347C536.607 389.615 537.12 388.99 537.779 388.55C538.437 388.11 539.211 387.875 540.003 387.875C541.065 387.875 542.084 388.297 542.835 389.048C543.586 389.798 544.008 390.817 544.008 391.879Z" fill="#24A7FF"/>
<path d="M526.746 391.879C526.746 392.557 526.545 393.221 526.168 393.785C525.791 394.349 525.256 394.788 524.629 395.048C524.002 395.307 523.313 395.375 522.647 395.243C521.982 395.111 521.371 394.784 520.891 394.304C520.412 393.825 520.085 393.214 519.953 392.548C519.82 391.883 519.888 391.193 520.148 390.567C520.407 389.94 520.847 389.404 521.411 389.027C521.975 388.65 522.638 388.449 523.317 388.449C524.226 388.449 525.099 388.811 525.742 389.454C526.385 390.097 526.746 390.969 526.746 391.879V391.879Z" fill="#24A7FF"/>
<path d="M510.028 391.879C510.028 392.557 509.827 393.221 509.45 393.785C509.073 394.349 508.537 394.788 507.911 395.048C507.284 395.307 506.594 395.375 505.929 395.243C505.264 395.111 504.652 394.784 504.173 394.304C503.693 393.825 503.366 393.214 503.234 392.548C503.102 391.883 503.17 391.193 503.429 390.567C503.689 389.94 504.129 389.404 504.693 389.027C505.257 388.65 505.92 388.449 506.598 388.449C507.508 388.449 508.38 388.811 509.023 389.454C509.667 390.097 510.028 390.969 510.028 391.879V391.879Z" fill="white"/>
<path d="M493.309 391.879C493.309 392.557 493.108 393.221 492.731 393.785C492.354 394.349 491.819 394.788 491.192 395.048C490.565 395.307 489.876 395.375 489.21 395.243C488.545 395.111 487.934 394.784 487.454 394.304C486.975 393.825 486.648 393.214 486.516 392.548C486.383 391.883 486.451 391.193 486.711 390.567C486.97 389.94 487.41 389.404 487.974 389.027C488.538 388.65 489.201 388.449 489.88 388.449C490.789 388.449 491.662 388.811 492.305 389.454C492.948 390.097 493.309 390.969 493.309 391.879V391.879Z" fill="#24A7FF"/>
<path d="M476.591 391.879C476.591 392.557 476.39 393.221 476.013 393.785C475.636 394.349 475.101 394.788 474.474 395.048C473.847 395.307 473.157 395.375 472.492 395.243C471.827 395.111 471.216 394.784 470.736 394.304C470.256 393.825 469.93 393.214 469.797 392.548C469.665 391.883 469.733 391.193 469.993 390.567C470.252 389.94 470.692 389.404 471.256 389.027C471.82 388.65 472.483 388.449 473.161 388.449C474.071 388.449 474.943 388.811 475.587 389.454C476.23 390.097 476.591 390.969 476.591 391.879V391.879Z" fill="white"/>
<path d="M544.008 347.116C544.008 347.908 543.773 348.682 543.333 349.34C542.893 349.999 542.267 350.512 541.536 350.815C540.804 351.118 539.999 351.197 539.222 351.043C538.446 350.888 537.732 350.507 537.172 349.947C536.612 349.387 536.231 348.674 536.076 347.897C535.922 347.12 536.001 346.315 536.304 345.583C536.607 344.852 537.12 344.226 537.779 343.786C538.437 343.346 539.211 343.112 540.003 343.112C541.065 343.112 542.084 343.533 542.835 344.284C543.586 345.035 544.008 346.054 544.008 347.116Z" fill="#24A7FF"/>
<path d="M526.746 347.116C526.746 347.794 526.545 348.457 526.168 349.021C525.791 349.585 525.256 350.025 524.629 350.284C524.002 350.544 523.313 350.612 522.647 350.48C521.982 350.347 521.371 350.021 520.891 349.541C520.412 349.061 520.085 348.45 519.953 347.785C519.82 347.119 519.888 346.43 520.148 345.803C520.407 345.176 520.847 344.641 521.411 344.264C521.975 343.887 522.638 343.686 523.317 343.686C524.226 343.686 525.099 344.047 525.742 344.69C526.385 345.334 526.746 346.206 526.746 347.116V347.116Z" fill="white"/>
<path d="M510.028 347.116C510.028 347.794 509.827 348.457 509.45 349.021C509.073 349.585 508.537 350.025 507.911 350.284C507.284 350.544 506.594 350.612 505.929 350.48C505.264 350.347 504.652 350.021 504.173 349.541C503.693 349.061 503.366 348.45 503.234 347.785C503.102 347.119 503.17 346.43 503.429 345.803C503.689 345.176 504.129 344.641 504.693 344.264C505.257 343.887 505.92 343.686 506.598 343.686C507.508 343.686 508.38 344.047 509.023 344.69C509.667 345.334 510.028 346.206 510.028 347.116V347.116Z" fill="white"/>
<path d="M493.309 347.116C493.309 347.794 493.108 348.457 492.731 349.021C492.354 349.585 491.819 350.025 491.192 350.284C490.565 350.544 489.876 350.612 489.21 350.48C488.545 350.347 487.934 350.021 487.454 349.541C486.975 349.061 486.648 348.45 486.516 347.785C486.383 347.119 486.451 346.43 486.711 345.803C486.97 345.176 487.41 344.641 487.974 344.264C488.538 343.887 489.201 343.686 489.88 343.686C490.789 343.686 491.662 344.047 492.305 344.69C492.948 345.334 493.309 346.206 493.309 347.116V347.116Z" fill="#24A7FF"/>
<path d="M476.591 347.116C476.591 347.794 476.39 348.457 476.013 349.021C475.636 349.585 475.101 350.025 474.474 350.284C473.847 350.544 473.157 350.612 472.492 350.48C471.827 350.347 471.216 350.021 470.736 349.541C470.256 349.061 469.93 348.45 469.797 347.785C469.665 347.119 469.733 346.43 469.993 345.803C470.252 345.176 470.692 344.641 471.256 344.264C471.82 343.887 472.483 343.686 473.161 343.686C474.071 343.686 474.943 344.047 475.587 344.69C476.23 345.334 476.591 346.206 476.591 347.116V347.116Z" fill="#24A7FF"/>
<path d="M216.753 54.0002H433.567C437.294 54.0002 440.869 55.4809 443.505 58.1167C446.14 60.7524 447.621 64.3271 447.621 68.0546V197.942C447.621 202.384 445.856 206.645 442.715 209.786C439.574 212.927 435.313 214.692 430.871 214.692H219.449C217.243 214.703 215.056 214.277 213.015 213.44C210.973 212.603 209.117 211.371 207.553 209.814C205.989 208.258 204.749 206.408 203.902 204.37C203.055 202.333 202.619 200.148 202.619 197.942V68.0546C202.619 66.2022 202.985 64.3681 203.697 62.6577C204.408 60.9474 205.45 59.3945 206.764 58.0883C208.077 56.7822 209.636 55.7487 211.35 55.0471C213.065 54.3455 214.901 53.9897 216.753 54.0002V54.0002Z" fill="#3BB0FF"/>
<path opacity="0.2" d="M323.014 54.0004H216.753C214.907 53.9983 213.079 54.3604 211.372 55.0659C209.666 55.7715 208.116 56.8066 206.811 58.1121C205.505 59.4176 204.47 60.9678 203.765 62.6739C203.059 64.38 202.697 66.2085 202.699 68.0547V197.942C202.703 202.382 204.47 206.638 207.611 209.776C210.752 212.914 215.01 214.676 219.449 214.676H290.678L323.014 54.0004Z" fill="white"/>
<path d="M202.619 80.4498H447.621V227.087C447.621 230.815 446.14 234.39 443.505 237.025C440.869 239.661 437.294 241.142 433.567 241.142H216.753C214.901 241.152 213.065 240.796 211.35 240.095C209.636 239.393 208.077 238.36 206.764 237.054C205.45 235.747 204.408 234.195 203.697 232.484C202.985 230.774 202.619 228.94 202.619 227.087V80.4498Z" fill="#D6E0EA"/>
<path d="M441 80.4498V227.087C441 229.059 440.217 230.95 438.823 232.344C437.429 233.738 435.538 234.521 433.567 234.521H216.737C214.765 234.521 212.875 233.738 211.48 232.344C210.086 230.95 209.303 229.059 209.303 227.087V80.4498L441 80.4498Z" fill="#F3F9FF"/>
<path d="M368.655 188.45V174.092L358.764 172.688C357.998 169.485 356.733 166.422 355.015 163.611L360.982 155.635L350.82 145.409L342.844 151.392C340.032 149.677 336.969 148.412 333.766 147.643L332.347 137.8H317.989L316.569 147.643C313.349 148.381 310.265 149.619 307.428 151.312L299.452 145.329L289.226 155.555L295.209 163.532C293.465 166.329 292.198 169.396 291.46 172.609L281.617 174.013V188.37L291.46 189.774C292.206 193.004 293.472 196.091 295.209 198.915L289.226 206.891L299.452 217.053L307.428 211.071C310.224 212.832 313.291 214.12 316.506 214.883L317.925 224.71H332.283L333.703 214.883C336.917 214.12 339.984 212.832 342.78 211.071L350.756 217.053L360.918 206.891L354.952 198.915C356.648 196.087 357.911 193.023 358.701 189.822L368.655 188.45ZM325.152 203.015C320.843 203.018 316.63 201.742 313.046 199.35C309.463 196.958 306.669 193.556 305.02 189.576C303.37 185.595 302.938 181.215 303.779 176.989C304.62 172.763 306.696 168.882 309.744 165.836C312.792 162.79 316.675 160.717 320.902 159.879C325.128 159.041 329.508 159.476 333.488 161.129C337.467 162.781 340.866 165.577 343.256 169.163C345.646 172.748 346.918 176.962 346.911 181.271C346.916 184.129 346.356 186.96 345.263 189.601C344.171 192.242 342.568 194.641 340.547 196.661C338.525 198.681 336.125 200.282 333.483 201.373C330.841 202.463 328.01 203.021 325.152 203.015V203.015Z" fill="#425160"/>
<path d="M325.088 203.015C319.313 203.015 313.774 200.721 309.691 196.637C305.607 192.553 303.313 187.015 303.313 181.239C303.313 175.464 305.607 169.925 309.691 165.842C313.774 161.758 319.313 159.464 325.088 159.464V137.768H317.925L316.506 147.611C313.306 148.365 310.243 149.614 307.428 151.312L299.452 145.33L289.226 155.555L295.209 163.532C293.465 166.329 292.198 169.396 291.46 172.609L281.617 174.013V188.37L291.46 189.774C292.206 193.004 293.472 196.091 295.209 198.915L289.226 206.891L299.452 217.053L307.428 211.071C310.224 212.832 313.291 214.12 316.506 214.884L317.925 224.711H325.088V203.015Z" fill="#3D4959"/>
<path d="M422.129 130.366V120.093L415.078 119.088C414.538 116.831 413.639 114.677 412.414 112.707L416.673 107.043L409.43 99.753L403.719 104.012C401.72 102.759 399.534 101.833 397.242 101.268L396.237 94.2493H385.964L384.959 101.268C382.673 101.81 380.487 102.709 378.482 103.933L372.819 99.6732L365.528 106.964L369.804 112.627C368.559 114.589 367.653 116.746 367.124 119.008L360.104 120.013V130.286L367.124 131.292C367.658 133.597 368.563 135.801 369.804 137.816L365.528 143.463L372.819 150.722L378.498 146.526C380.491 147.785 382.68 148.702 384.975 149.238L385.98 156.258H396.253L397.258 149.238C399.548 148.702 401.732 147.785 403.719 146.526L409.43 150.802L416.673 143.543L412.414 137.848C413.633 135.841 414.532 133.656 415.078 131.371L422.129 130.366ZM391.133 140.751C388.061 140.755 385.057 139.846 382.501 138.141C379.946 136.436 377.954 134.011 376.778 131.173C375.601 128.335 375.294 125.212 375.893 122.199C376.493 119.186 377.973 116.419 380.147 114.248C382.32 112.077 385.089 110.6 388.102 110.003C391.116 109.406 394.238 109.717 397.075 110.897C399.912 112.076 402.335 114.07 404.037 116.627C405.74 119.185 406.645 122.189 406.639 125.261C406.641 127.297 406.241 129.314 405.462 131.195C404.684 133.077 403.541 134.786 402.101 136.225C400.66 137.664 398.95 138.804 397.068 139.581C395.186 140.358 393.169 140.756 391.133 140.751V140.751Z" fill="#41566D"/>
<path d="M294.953 88.538H217.615V94.9669H294.953V88.538Z" fill="#D6E0EA"/>
<path d="M294.953 103.725H217.615V110.154H294.953V103.725Z" fill="#D6E0EA"/>
<path d="M294.953 118.912H217.615V125.341H294.953V118.912Z" fill="#D6E0EA"/>
<path d="M278.235 134.099H217.615V140.528H278.235V134.099Z" fill="#D6E0EA"/>
<path d="M278.235 149.286H217.615V155.715H278.235V149.286Z" fill="#D6E0EA"/>
<path d="M389.633 67.4642C389.633 68.5306 389.316 69.5731 388.724 70.4598C388.131 71.3465 387.289 72.0376 386.304 72.4457C385.319 72.8539 384.235 72.9606 383.189 72.7526C382.143 72.5445 381.182 72.031 380.428 71.2769C379.674 70.5228 379.16 69.562 378.952 68.5161C378.744 67.4701 378.851 66.386 379.259 65.4007C379.667 64.4155 380.358 63.5733 381.245 62.9809C382.132 62.3884 383.174 62.0721 384.241 62.0721C385.671 62.0721 387.042 62.6402 388.053 63.6514C389.065 64.6626 389.633 66.0341 389.633 67.4642Z" fill="white"/>
<path d="M411.68 67.4642C411.68 68.5306 411.363 69.5731 410.771 70.4598C410.178 71.3465 409.336 72.0376 408.351 72.4457C407.366 72.8539 406.282 72.9606 405.236 72.7526C404.19 72.5445 403.229 72.031 402.475 71.2769C401.721 70.5228 401.207 69.562 400.999 68.5161C400.791 67.4701 400.898 66.386 401.306 65.4007C401.714 64.4155 402.405 63.5733 403.292 62.9809C404.179 62.3884 405.221 62.0721 406.288 62.0721C407.718 62.0721 409.089 62.6402 410.1 63.6514C411.111 64.6626 411.68 66.0341 411.68 67.4642Z" fill="white"/>
<path d="M433.726 67.4642C433.726 68.5306 433.41 69.5731 432.818 70.4598C432.225 71.3465 431.383 72.0376 430.398 72.4457C429.413 72.8539 428.328 72.9606 427.282 72.7526C426.237 72.5445 425.276 72.031 424.522 71.2769C423.768 70.5228 423.254 69.562 423.046 68.5161C422.838 67.4701 422.945 66.386 423.353 65.4007C423.761 64.4155 424.452 63.5733 425.339 62.9809C426.225 62.3884 427.268 62.0721 428.334 62.0721C429.763 62.0764 431.132 62.6458 432.142 63.6561C433.153 64.6664 433.722 66.0354 433.726 67.4642Z" fill="white"/>
<path d="M377.461 217.994C377.458 218.845 377.202 219.677 376.727 220.383C376.252 221.089 375.578 221.639 374.791 221.962C374.004 222.286 373.138 222.369 372.304 222.201C371.469 222.033 370.703 221.621 370.102 221.018C369.502 220.415 369.093 219.648 368.928 218.813C368.763 217.978 368.849 217.112 369.176 216.326C369.502 215.54 370.054 214.868 370.762 214.396C371.47 213.923 372.302 213.671 373.154 213.671C373.721 213.671 374.282 213.783 374.806 214C375.329 214.218 375.805 214.537 376.205 214.938C376.605 215.34 376.922 215.817 377.138 216.341C377.353 216.865 377.463 217.427 377.461 217.994V217.994Z" fill="#24A7FF"/>
<path d="M396.093 217.994C396.093 218.849 395.84 219.685 395.365 220.396C394.89 221.107 394.215 221.661 393.425 221.988C392.635 222.316 391.765 222.401 390.927 222.234C390.088 222.068 389.318 221.656 388.713 221.051C388.109 220.447 387.697 219.676 387.53 218.838C387.363 217.999 387.449 217.13 387.776 216.34C388.103 215.55 388.657 214.875 389.368 214.4C390.079 213.925 390.915 213.671 391.77 213.671C392.339 213.669 392.902 213.779 393.427 213.996C393.953 214.212 394.43 214.531 394.832 214.933C395.234 215.334 395.552 215.812 395.769 216.337C395.985 216.863 396.096 217.426 396.093 217.994V217.994Z" fill="#24A7FF"/>
<path d="M416.481 217.994C416.488 219.202 416.135 220.384 415.469 221.39C414.802 222.397 413.852 223.183 412.738 223.649C411.624 224.114 410.397 224.239 409.212 224.006C408.028 223.773 406.939 223.194 406.084 222.341C405.229 221.488 404.647 220.401 404.411 219.217C404.175 218.033 404.296 216.806 404.759 215.691C405.222 214.576 406.005 213.623 407.01 212.954C408.015 212.285 409.196 211.929 410.403 211.932C412.011 211.937 413.552 212.576 414.691 213.712C415.829 214.847 416.473 216.387 416.481 217.994V217.994Z" fill="#24A7FF"/>
<path d="M433.327 217.994C433.324 218.845 433.069 219.677 432.593 220.383C432.118 221.089 431.444 221.639 430.657 221.962C429.87 222.286 429.004 222.369 428.17 222.201C427.335 222.033 426.569 221.621 425.969 221.018C425.368 220.415 424.959 219.648 424.794 218.813C424.629 217.978 424.716 217.112 425.042 216.326C425.368 215.54 425.921 214.868 426.629 214.396C427.336 213.923 428.169 213.671 429.02 213.671C429.587 213.671 430.148 213.783 430.672 214C431.195 214.218 431.671 214.537 432.071 214.938C432.471 215.34 432.788 215.817 433.004 216.341C433.219 216.865 433.329 217.427 433.327 217.994Z" fill="#24A7FF"/>
<path d="M225.591 217.994C225.588 218.845 225.333 219.677 224.857 220.383C224.382 221.089 223.708 221.639 222.921 221.962C222.134 222.286 221.268 222.369 220.434 222.201C219.599 222.033 218.833 221.621 218.232 221.018C217.632 220.415 217.223 219.648 217.058 218.813C216.893 217.978 216.979 217.112 217.306 216.326C217.632 215.54 218.184 214.868 218.892 214.396C219.6 213.923 220.433 213.671 221.284 213.671C221.851 213.671 222.412 213.783 222.936 214C223.459 214.218 223.935 214.537 224.335 214.938C224.735 215.34 225.052 215.817 225.268 216.341C225.483 216.865 225.593 217.427 225.591 217.994V217.994Z" fill="#24A7FF"/>
<path d="M244.224 217.994C244.221 218.845 243.965 219.677 243.49 220.383C243.015 221.089 242.341 221.639 241.554 221.962C240.767 222.286 239.901 222.369 239.067 222.201C238.232 222.033 237.466 221.621 236.865 221.018C236.265 220.415 235.856 219.648 235.691 218.813C235.526 217.978 235.612 217.112 235.939 216.326C236.265 215.54 236.817 214.868 237.525 214.396C238.233 213.923 239.065 213.671 239.917 213.671C240.484 213.671 241.045 213.783 241.569 214C242.092 214.218 242.568 214.537 242.968 214.938C243.368 215.34 243.685 215.817 243.901 216.341C244.116 216.865 244.226 217.427 244.224 217.994V217.994Z" fill="#24A7FF"/>
<path d="M262.841 217.994C262.838 218.845 262.583 219.677 262.107 220.383C261.632 221.089 260.958 221.639 260.171 221.962C259.384 222.286 258.518 222.369 257.684 222.201C256.849 222.033 256.083 221.621 255.482 221.018C254.882 220.415 254.473 219.648 254.308 218.813C254.143 217.978 254.229 217.112 254.556 216.326C254.882 215.54 255.435 214.868 256.142 214.396C256.85 213.923 257.683 213.671 258.534 213.671C259.101 213.671 259.662 213.783 260.186 214C260.709 214.218 261.185 214.537 261.585 214.938C261.985 215.34 262.302 215.817 262.518 216.341C262.733 216.865 262.843 217.427 262.841 217.994V217.994Z" fill="#24A7FF"/>
<path d="M281.474 217.994C281.474 218.85 281.22 219.686 280.744 220.398C280.268 221.109 279.592 221.663 278.801 221.99C278.01 222.317 277.14 222.401 276.301 222.233C275.462 222.065 274.692 221.652 274.088 221.046C273.484 220.439 273.073 219.668 272.908 218.828C272.743 217.988 272.831 217.118 273.161 216.329C273.49 215.539 274.047 214.865 274.76 214.392C275.473 213.919 276.311 213.668 277.166 213.671C277.733 213.671 278.295 213.783 278.818 214C279.342 214.218 279.817 214.537 280.218 214.938C280.618 215.34 280.935 215.817 281.15 216.341C281.366 216.865 281.476 217.427 281.474 217.994V217.994Z" fill="#24A7FF"/>
<path d="M187.177 95.7485V83.9275L179.057 82.7151C178.44 80.0893 177.406 77.5794 175.994 75.2811L180.891 68.7565L172.548 60.3813L165.928 65.3266C163.619 63.92 161.106 62.8813 158.478 62.2477L157.393 54.1757H145.572L144.408 62.2477C141.781 62.8842 139.268 63.9228 136.958 65.3266L130.449 60.3813L122.058 68.8043L126.971 75.329C125.54 77.6017 124.499 80.0983 123.892 82.7151L115.82 83.8796V95.7006L123.892 96.8652C124.502 99.5109 125.542 102.038 126.971 104.347L122.058 110.92L130.449 119.247L136.958 114.349C139.251 115.811 141.767 116.888 144.408 117.54L145.572 125.612H157.393L158.542 117.54C161.183 116.891 163.7 115.813 165.992 114.349L172.548 119.247L180.891 110.92L175.994 104.363C177.39 102.051 178.423 99.5383 179.057 96.913L187.177 95.7485ZM151.57 104.65C148.64 104.656 145.774 103.793 143.335 102.17C140.896 100.546 138.994 98.2352 137.869 95.5297C136.744 92.8242 136.447 89.8458 137.016 86.9716C137.585 84.0973 138.994 81.4565 141.065 79.3835C143.135 77.3106 145.775 75.8987 148.648 75.3267C151.522 74.7547 154.501 75.0483 157.207 76.1703C159.914 77.2923 162.227 79.1922 163.853 81.6295C165.479 84.0668 166.346 86.9319 166.343 89.8619C166.347 91.8038 165.968 93.7273 165.227 95.5224C164.486 97.3174 163.399 98.9486 162.026 100.322C160.654 101.696 159.024 102.786 157.23 103.528C155.435 104.271 153.512 104.652 151.57 104.65V104.65Z" fill="#E4EFF7"/>
<path d="M555.175 259.057V248.815L548.155 247.81C547.608 245.556 546.709 243.403 545.491 241.429L549.735 235.782L542.412 228.459L536.765 232.671C534.795 231.442 532.641 230.537 530.384 229.991L529.379 223.004H519.137L518.132 229.991C515.876 230.537 513.721 231.442 511.751 232.671L506.12 228.412L498.845 235.67L503.105 241.317C501.868 243.281 500.967 245.438 500.441 247.698L493.438 248.703V258.945L500.441 259.95C500.969 262.245 501.869 264.438 503.105 266.443L498.845 272.074L506.12 279.301L511.751 275.041C513.713 276.293 515.87 277.21 518.132 277.753L519.137 284.741H529.379L530.384 277.753C532.647 277.21 534.803 276.293 536.765 275.041L542.412 279.412L549.639 272.186L545.396 266.507C546.6 264.526 547.498 262.375 548.06 260.126L555.175 259.057ZM524.274 266.762C521.75 266.762 519.283 266.013 517.184 264.611C515.085 263.209 513.449 261.216 512.483 258.884C511.517 256.552 511.265 253.986 511.757 251.51C512.25 249.034 513.465 246.76 515.25 244.975C517.035 243.191 519.309 241.975 521.784 241.483C524.26 240.99 526.826 241.243 529.158 242.209C531.49 243.175 533.483 244.811 534.886 246.909C536.288 249.008 537.036 251.476 537.036 254C537.036 255.681 536.704 257.346 536.059 258.898C535.413 260.451 534.468 261.861 533.276 263.047C532.084 264.232 530.67 265.171 529.114 265.809C527.558 266.446 525.892 266.77 524.21 266.762H524.274Z" fill="#DDE9F2"/>
<path d="M466.142 493.594V486.814L461.5 486.144C461.147 484.637 460.549 483.198 459.729 481.884L462.537 478.151L457.751 473.365L453.986 476.173C452.67 475.361 451.232 474.763 449.727 474.402L449.057 469.776H442.293L441.623 474.402C440.114 474.766 438.672 475.363 437.348 476.173L433.631 473.365L428.845 478.151L431.653 481.884C430.838 483.198 430.246 484.637 429.898 486.144L425.271 486.814V493.594L429.898 494.248C430.251 495.762 430.844 497.211 431.653 498.539L428.829 502.272L433.615 507.058L437.332 504.25C438.651 505.072 440.095 505.675 441.607 506.037L442.277 510.663H449.041L449.711 506.037C451.219 505.678 452.658 505.074 453.97 504.25L457.735 507.058L462.521 502.272L459.713 498.523C460.522 497.198 461.119 495.756 461.484 494.248L466.142 493.594ZM445.707 498.682C444.027 498.686 442.384 498.19 440.986 497.259C439.588 496.327 438.498 495.002 437.853 493.451C437.209 491.899 437.039 490.192 437.366 488.544C437.693 486.896 438.502 485.382 439.69 484.195C440.878 483.007 442.391 482.198 444.039 481.871C445.687 481.544 447.395 481.714 448.946 482.358C450.498 483.002 451.823 484.092 452.754 485.491C453.685 486.889 454.181 488.532 454.178 490.212C454.18 491.325 453.962 492.427 453.537 493.456C453.112 494.484 452.488 495.419 451.701 496.206C450.914 496.993 449.98 497.617 448.951 498.042C447.922 498.467 446.82 498.685 445.707 498.682V498.682Z" fill="#E4EFF7"/>
<path d="M266.254 541.197C266.254 536.507 268.759 533.843 272.125 533.843C275.491 533.843 277.98 536.507 277.98 541.197C277.98 545.887 275.475 548.535 272.125 548.535C268.775 548.535 266.254 545.871 266.254 541.197ZM275.922 541.197C275.922 537.512 274.326 535.677 272.125 535.677C269.924 535.677 268.312 537.512 268.312 541.197C268.312 544.882 269.908 546.716 272.125 546.716C274.342 546.716 276.002 544.866 276.002 541.197H275.922Z" fill="#DDE9F2"/>
<path d="M279.958 541.197C279.958 536.507 282.463 533.843 285.813 533.843C289.163 533.843 291.667 536.507 291.667 541.197C291.667 545.887 289.163 548.535 285.813 548.535C282.463 548.535 279.958 545.871 279.958 541.197ZM289.609 541.197C289.609 537.512 288.014 535.677 285.813 535.677C283.611 535.677 282 537.512 282 541.197C282 544.882 283.595 546.716 285.813 546.716C288.03 546.716 289.609 544.866 289.609 541.197Z" fill="#DDE9F2"/>
<path d="M298.032 534.002V548.359H296.006V535.773H292.816V533.986L298.032 534.002Z" fill="#DDE9F2"/>
<path d="M301.175 541.197C301.175 536.507 303.68 533.843 307.046 533.843C310.412 533.843 312.9 536.507 312.9 541.197C312.9 545.887 310.396 548.535 307.046 548.535C303.696 548.535 301.175 545.871 301.175 541.197ZM310.842 541.197C310.842 537.512 309.247 535.677 307.046 535.677C304.844 535.677 303.233 537.512 303.233 541.197C303.233 544.882 304.828 546.716 307.046 546.716C309.263 546.716 310.842 544.866 310.842 541.197Z" fill="#DDE9F2"/>
<path d="M319.266 534.002V548.359H317.224V535.773H314.033V533.986L319.266 534.002Z" fill="#DDE9F2"/>
<path d="M322.408 541.197C322.408 536.507 324.913 533.843 328.279 533.843C331.645 533.843 334.118 536.507 334.118 541.197C334.118 545.887 331.613 548.535 328.279 548.535C324.945 548.535 322.408 545.871 322.408 541.197ZM332.076 541.197C332.076 537.512 330.481 535.677 328.279 535.677C326.078 535.677 324.45 537.512 324.45 541.197C324.45 544.882 326.046 546.716 328.279 546.716C330.512 546.716 332.076 544.866 332.076 541.197Z" fill="#DDE9F2"/>
<path d="M340.483 534.002V548.359H338.457V535.773H335.266V533.986L340.483 534.002Z" fill="#DDE9F2"/>
<path d="M47.686 283.879C47.686 278.008 50.8766 274.658 55.0562 274.658C59.2358 274.658 62.4104 278.008 62.4104 283.879C62.4104 289.75 59.2199 293.116 55.0562 293.116C50.8925 293.116 47.686 289.766 47.686 283.879ZM59.8261 283.879C59.8261 279.269 57.8639 276.94 55.0402 276.94C52.2166 276.94 50.2544 279.269 50.2544 283.879C50.2544 288.489 52.2166 290.818 55.0402 290.818C57.8639 290.818 59.8261 288.505 59.8261 283.879Z" fill="#DDE9F2"/>
<path d="M64.8831 283.879C64.8831 278.008 68.0736 274.658 72.2532 274.658C76.4328 274.658 79.6074 278.008 79.6074 283.879C79.6074 289.75 76.4169 293.116 72.2532 293.116C68.0896 293.116 64.8831 289.766 64.8831 283.879ZM77.0231 283.879C77.0231 279.269 75.0769 276.94 72.2373 276.94C69.3977 276.94 67.4514 279.269 67.4514 283.879C67.4514 288.489 69.4136 290.818 72.2373 290.818C75.0609 290.818 77.0231 288.505 77.0231 283.879V283.879Z" fill="#DDE9F2"/>
<path d="M87.5999 274.85V292.908H85.0474V277.099H80.9795V274.85H87.5999Z" fill="#DDE9F2"/>
<path d="M91.5562 283.879C91.5562 278.008 94.7467 274.658 98.9263 274.658C103.106 274.658 106.281 278.008 106.281 283.879C106.281 289.75 103.09 293.116 98.9263 293.116C94.7626 293.116 91.5562 289.766 91.5562 283.879ZM103.696 283.879C103.696 279.269 101.734 276.94 98.9104 276.94C96.0867 276.94 94.1245 279.269 94.1245 283.879C94.1245 288.489 96.0867 290.818 98.9104 290.818C101.734 290.818 103.712 288.505 103.712 283.879H103.696Z" fill="#DDE9F2"/>
<path d="M114.273 274.85V292.908H111.688V277.099H107.652V274.85H114.273Z" fill="#DDE9F2"/>
<path d="M123.828 274.85V292.908H121.26V277.099H117.192V274.85H123.828Z" fill="#DDE9F2"/>
<path d="M127.769 283.879C127.769 278.008 130.96 274.658 135.139 274.658C139.319 274.658 142.493 278.008 142.493 283.879C142.493 289.75 139.303 293.116 135.139 293.116C130.976 293.116 127.769 289.766 127.769 283.879ZM139.909 283.879C139.909 279.269 137.963 276.94 135.123 276.94C132.284 276.94 130.337 279.269 130.337 283.879C130.337 288.489 132.3 290.818 135.123 290.818C137.947 290.818 139.909 288.505 139.909 283.879Z" fill="#DDE9F2"/>
<path d="M144.982 283.879C144.982 278.008 148.172 274.658 152.352 274.658C156.531 274.658 159.69 278.008 159.69 283.879C159.69 289.75 156.5 293.116 152.352 293.116C148.204 293.116 144.982 289.766 144.982 283.879ZM157.122 283.879C157.122 279.269 155.16 276.94 152.336 276.94C149.512 276.94 147.55 279.269 147.55 283.879C147.55 288.489 149.512 290.818 152.336 290.818C155.16 290.818 157.122 288.505 157.122 283.879Z" fill="#DDE9F2"/>
<path d="M162.179 283.879C162.179 278.008 165.369 274.658 169.549 274.658C173.728 274.658 176.903 278.008 176.903 283.879C176.903 289.75 173.713 293.116 169.549 293.116C165.385 293.116 162.179 289.766 162.179 283.879ZM174.319 283.879C174.319 279.269 172.357 276.94 169.533 276.94C166.709 276.94 164.747 279.269 164.747 283.879C164.747 288.489 166.709 290.818 169.533 290.818C172.357 290.818 174.319 288.505 174.319 283.879Z" fill="#DDE9F2"/>
<path d="M184.896 274.85V292.908H182.343V277.099H178.275V274.85H184.896Z" fill="#DDE9F2"/>
<path d="M188.852 283.879C188.852 278.008 192.042 274.658 196.222 274.658C200.401 274.658 203.576 278.008 203.576 283.879C203.576 289.75 200.385 293.116 196.222 293.116C192.058 293.116 188.852 289.766 188.852 283.879ZM200.992 283.879C200.992 279.269 199.029 276.94 196.206 276.94C193.382 276.94 191.42 279.269 191.42 283.879C191.42 288.489 193.366 290.818 196.206 290.818C199.045 290.818 201.023 288.505 201.023 283.879H200.992Z" fill="#DDE9F2"/>
<path d="M211.568 274.85V292.908H209V277.099H204.932V274.85H211.568Z" fill="#DDE9F2"/>
<path d="M332.156 305.096C332.156 299.226 335.346 295.86 339.526 295.86C343.705 295.86 346.88 299.226 346.88 305.096C346.88 310.967 343.689 314.333 339.526 314.333C335.362 314.333 332.156 310.983 332.156 305.096ZM344.296 305.096C344.296 300.486 342.333 298.157 339.51 298.157C336.686 298.157 334.724 300.486 334.724 305.096C334.724 309.707 336.686 312.036 339.51 312.036C342.333 312.036 344.296 309.707 344.296 305.096Z" fill="#DDE9F2"/>
<path d="M354.872 296.067V314.126H352.319V298.316H348.251V296.067H354.872Z" fill="#DDE9F2"/>
<path d="M364.412 296.067V314.126H361.859V298.316H357.792V296.067H364.412Z" fill="#DDE9F2"/>
<path d="M368.368 305.096C368.368 299.226 371.558 295.86 375.738 295.86C379.917 295.86 383.092 299.226 383.092 305.096C383.092 310.967 379.902 314.333 375.738 314.333C371.574 314.333 368.368 310.983 368.368 305.096ZM380.508 305.096C380.508 300.486 378.546 298.157 375.722 298.157C372.898 298.157 370.936 300.486 370.936 305.096C370.936 309.707 372.898 312.036 375.722 312.036C378.546 312.036 380.508 309.707 380.508 305.096V305.096Z" fill="#DDE9F2"/>
<path d="M385.565 305.096C385.565 299.226 388.755 295.86 392.951 295.86C397.146 295.86 400.289 299.226 400.289 305.096C400.289 310.967 397.099 314.333 392.951 314.333C388.803 314.333 385.565 310.983 385.565 305.096ZM397.721 305.096C397.721 300.486 395.759 298.157 392.935 298.157C390.111 298.157 388.149 300.486 388.149 305.096C388.149 309.707 390.111 312.036 392.935 312.036C395.759 312.036 397.721 309.707 397.721 305.096Z" fill="#DDE9F2"/>
<path d="M402.778 305.096C402.778 299.226 405.968 295.86 410.148 295.86C414.328 295.86 417.502 299.226 417.502 305.096C417.502 310.967 414.312 314.333 410.148 314.333C405.984 314.333 402.778 310.983 402.778 305.096ZM414.918 305.096C414.918 300.486 412.956 298.157 410.132 298.157C407.308 298.157 405.346 300.486 405.346 305.096C405.346 309.707 407.308 312.036 410.132 312.036C412.956 312.036 414.918 309.707 414.918 305.096Z" fill="#DDE9F2"/>
<path d="M465.361 88.538C465.377 89.3931 465.138 90.2336 464.674 90.9523C464.21 91.6711 463.543 92.2355 462.758 92.5738C461.972 92.9121 461.104 93.0088 460.263 92.8518C459.423 92.6947 458.648 92.2909 458.037 91.6918C457.427 91.0927 457.009 90.3255 456.836 89.4879C456.663 88.6502 456.744 87.7801 457.067 86.9884C457.391 86.1967 457.943 85.5193 458.653 85.0424C459.362 84.5655 460.198 84.3107 461.054 84.3105C462.182 84.3104 463.266 84.7532 464.071 85.5438C464.877 86.3344 465.34 87.4095 465.361 88.538V88.538Z" fill="#DDE9F2"/>
<path d="M483.993 88.538C483.996 89.3944 483.745 90.2324 483.271 90.9458C482.798 91.6592 482.123 92.2158 481.332 92.545C480.541 92.8741 479.671 92.9611 478.831 92.7948C477.991 92.6285 477.219 92.2164 476.613 91.6109C476.008 91.0053 475.596 90.2335 475.429 89.3934C475.263 88.5533 475.35 87.6827 475.679 86.8921C476.008 86.1015 476.565 85.4265 477.278 84.9527C477.992 84.4789 478.83 84.2276 479.686 84.2307C480.828 84.2307 481.924 84.6845 482.732 85.4923C483.54 86.3001 483.993 87.3956 483.993 88.538Z" fill="#DDE9F2"/>
<path d="M504.381 88.5378C504.381 89.74 504.024 90.9151 503.357 91.9146C502.689 92.9141 501.739 93.6932 500.629 94.1532C499.518 94.6132 498.296 94.7336 497.117 94.4991C495.938 94.2645 494.855 93.6857 494.005 92.8356C493.155 91.9856 492.576 90.9026 492.342 89.7236C492.107 88.5446 492.227 87.3225 492.687 86.2119C493.148 85.1013 493.927 84.152 494.926 83.4842C495.926 82.8163 497.101 82.4599 498.303 82.4599C499.102 82.4578 499.893 82.6135 500.631 82.9182C501.37 83.2229 502.041 83.6706 502.605 84.2354C503.17 84.8002 503.618 85.471 503.922 86.2094C504.227 86.9478 504.383 87.7391 504.381 88.5378Z" fill="#DDE9F2"/>
<path d="M521.243 88.538C521.262 89.3956 521.025 90.2393 520.563 90.962C520.101 91.6847 519.435 92.2536 518.649 92.5965C517.862 92.9393 516.992 93.0405 516.148 92.8872C515.304 92.734 514.525 92.3331 513.909 91.7357C513.294 91.1383 512.87 90.3713 512.692 89.5323C512.514 88.6934 512.589 87.8203 512.908 87.0243C513.227 86.2282 513.776 85.5451 514.485 85.0619C515.194 84.5786 516.03 84.3171 516.888 84.3106C518.025 84.2978 519.12 84.735 519.936 85.5269C520.752 86.3189 521.222 87.4012 521.243 88.538Z" fill="#DDE9F2"/>
<path d="M208.522 475.902C208.522 475.047 208.775 474.211 209.25 473.5C209.725 472.79 210.4 472.235 211.19 471.908C211.98 471.581 212.849 471.495 213.688 471.662C214.527 471.829 215.297 472.241 215.902 472.845C216.506 473.45 216.918 474.22 217.085 475.059C217.252 475.898 217.166 476.767 216.839 477.557C216.512 478.347 215.957 479.022 215.247 479.497C214.536 479.972 213.7 480.225 212.845 480.225C212.276 480.228 211.713 480.117 211.188 479.901C210.662 479.684 210.185 479.366 209.783 478.964C209.381 478.562 209.063 478.085 208.846 477.559C208.63 477.034 208.519 476.471 208.522 475.902Z" fill="#DDE9F2"/>
<path d="M189.857 475.902C189.86 475.051 190.115 474.219 190.591 473.513C191.066 472.807 191.74 472.257 192.527 471.934C193.314 471.61 194.18 471.527 195.014 471.695C195.849 471.863 196.615 472.275 197.215 472.878C197.816 473.481 198.225 474.248 198.39 475.083C198.555 475.918 198.468 476.784 198.142 477.57C197.816 478.356 197.263 479.028 196.556 479.5C195.848 479.973 195.015 480.225 194.164 480.225C193.597 480.225 193.036 480.113 192.512 479.896C191.989 479.678 191.513 479.359 191.113 478.958C190.713 478.556 190.396 478.079 190.18 477.555C189.965 477.031 189.855 476.469 189.857 475.902Z" fill="#DDE9F2"/>
<path d="M169.501 475.902C169.501 474.697 169.859 473.519 170.528 472.517C171.198 471.515 172.15 470.734 173.263 470.272C174.377 469.811 175.602 469.69 176.784 469.926C177.966 470.161 179.052 470.741 179.904 471.593C180.756 472.446 181.337 473.531 181.572 474.714C181.807 475.896 181.686 477.121 181.225 478.234C180.764 479.348 179.983 480.3 178.981 480.969C177.979 481.639 176.8 481.996 175.595 481.996C173.979 481.996 172.429 481.354 171.286 480.211C170.143 479.069 169.501 477.519 169.501 475.902Z" fill="#DDE9F2"/>
<path d="M152.655 475.902C152.658 475.051 152.914 474.219 153.389 473.513C153.864 472.807 154.538 472.257 155.325 471.934C156.112 471.61 156.978 471.527 157.812 471.695C158.647 471.863 159.413 472.275 160.014 472.878C160.614 473.481 161.023 474.248 161.188 475.083C161.353 475.918 161.267 476.784 160.94 477.57C160.614 478.356 160.062 479.028 159.354 479.5C158.646 479.973 157.814 480.225 156.962 480.225C156.395 480.225 155.834 480.113 155.31 479.896C154.787 479.678 154.311 479.359 153.911 478.958C153.511 478.556 153.194 478.079 152.978 477.555C152.763 477.031 152.653 476.469 152.655 475.902V475.902Z" fill="#DDE9F2"/>
<path d="M431.334 317.986H424.011V322.309H431.334V317.986Z" fill="#55738E"/>
<path d="M431.334 309.866H424.011V314.189H431.334V309.866Z" fill="#55738E"/>
<path d="M431.334 301.746H424.011V306.069H431.334V301.746Z" fill="#55738E"/>
<path d="M431.334 293.626H424.011V297.95H431.334V293.626Z" fill="#55738E"/>
<path d="M431.334 285.506H424.011V289.829H431.334V285.506Z" fill="#55738E"/>
<path d="M431.334 277.386H424.011V281.709H431.334V277.386Z" fill="#55738E"/>
<path d="M431.334 269.266H424.011V273.59H431.334V269.266Z" fill="#55738E"/>
<path d="M431.334 261.146H424.011V265.47H431.334V261.146Z" fill="#55738E"/>
<path d="M431.334 253.027H424.011V257.35H431.334V253.027Z" fill="#55738E"/>
<path d="M431.334 244.906H424.011V249.23H431.334V244.906Z" fill="#55738E"/>
<path d="M328.821 317.986H321.499V322.309H328.821V317.986Z" fill="#55738E"/>
<path d="M328.821 309.866H321.499V314.189H328.821V309.866Z" fill="#55738E"/>
<path d="M328.821 301.746H321.499V306.069H328.821V301.746Z" fill="#55738E"/>
<path d="M328.821 293.626H321.499V297.95H328.821V293.626Z" fill="#55738E"/>
<path d="M328.821 285.506H321.499V289.829H328.821V285.506Z" fill="#55738E"/>
<path d="M328.821 277.386H321.499V281.709H328.821V277.386Z" fill="#55738E"/>
<path d="M328.821 269.266H321.499V273.59H328.821V269.266Z" fill="#55738E"/>
<path d="M328.821 261.146H321.499V265.47H328.821V261.146Z" fill="#55738E"/>
<path d="M328.821 253.027H321.499V257.35H328.821V253.027Z" fill="#55738E"/>
<path d="M328.821 244.906H321.499V249.23H328.821V244.906Z" fill="#55738E"/>
<path d="M226.293 317.986H218.971V322.309H226.293V317.986Z" fill="#55738E"/>
<path d="M226.293 309.866H218.971V314.189H226.293V309.866Z" fill="#55738E"/>
<path d="M226.293 301.746H218.971V306.069H226.293V301.746Z" fill="#55738E"/>
<path d="M226.293 293.626H218.971V297.95H226.293V293.626Z" fill="#55738E"/>
<path d="M226.293 285.506H218.971V289.829H226.293V285.506Z" fill="#55738E"/>
<path d="M226.293 277.386H218.971V281.709H226.293V277.386Z" fill="#55738E"/>
<path d="M226.293 269.266H218.971V273.59H226.293V269.266Z" fill="#55738E"/>
<path d="M226.293 261.146H218.971V265.47H226.293V261.146Z" fill="#55738E"/>
<path d="M226.293 253.027H218.971V257.35H226.293V253.027Z" fill="#55738E"/>
<path d="M226.293 244.906H218.971V249.23H226.293V244.906Z" fill="#55738E"/>
</svg>
