<svg width="292" height="130" viewBox="0 0 292 130" fill="none" xmlns="http://www.w3.org/2000/svg">
<rect y="19" width="58" height="58" rx="29" fill="#273244"/>
<path d="M32.9709 48.9L33.4687 45.7148H30.3561V43.6478C30.3561 42.7764 30.7909 41.927 32.185 41.927H33.6V39.2152C33.6 39.2152 32.3159 39 31.0881 39C28.5248 39 26.8493 40.5256 26.8493 43.2873V45.7148H24V48.9H26.8493V56.6H30.3561V48.9H32.9709Z" fill="white"/>
<rect x="78" y="19" width="58" height="58" rx="29" fill="#273244"/>
<path d="M113.791 43.8863C113.802 44.0568 113.802 44.2274 113.802 44.398C113.802 49.6 110.173 55.5939 103.539 55.5939C101.495 55.5939 99.597 54.9482 98 53.8274C98.2904 53.8639 98.5695 53.8761 98.8711 53.8761C100.557 53.8761 102.11 53.2548 103.349 52.1949C101.763 52.1584 100.435 51.0254 99.9766 49.466C100.2 49.5025 100.423 49.5269 100.658 49.5269C100.982 49.5269 101.306 49.4781 101.607 49.3929C99.9543 49.0274 98.7147 47.4436 98.7147 45.531V45.4822C99.1949 45.7746 99.7533 45.9574 100.345 45.9817C99.3736 45.2751 98.737 44.069 98.737 42.7045C98.737 41.9736 98.9157 41.3035 99.2284 40.7188C101.004 43.1066 103.673 44.6659 106.666 44.8365C106.61 44.5441 106.577 44.2396 106.577 43.935C106.577 41.7665 108.185 40 110.184 40C111.222 40 112.16 40.4751 112.819 41.2426C113.634 41.0721 114.416 40.7431 115.109 40.2924C114.841 41.2061 114.271 41.9736 113.523 42.4609C114.249 42.3757 114.952 42.1563 115.6 41.8518C115.109 42.6315 114.494 43.3258 113.791 43.8863V43.8863Z" fill="white"/>
<g filter="url(#filter0_d)">
<rect x="156" y="19" width="58" height="58" rx="29" fill="url(#paint0_linear)"/>
</g>
<path d="M192.829 39H176.367C175.613 39 175 39.5955 175 40.3266V56.0734C175 56.8045 175.613 57.4 176.367 57.4H192.829C193.583 57.4 194.2 56.8045 194.2 56.0734V40.3266C194.2 39.5955 193.583 39 192.829 39ZM180.803 54.7714H177.957V45.9904H180.807V54.7714H180.803ZM179.38 44.7911C178.467 44.7911 177.73 44.0805 177.73 43.2098C177.73 42.3391 178.467 41.6286 179.38 41.6286C180.289 41.6286 181.03 42.3391 181.03 43.2098C181.03 44.0846 180.293 44.7911 179.38 44.7911V44.7911ZM191.47 54.7714H188.624V50.5C188.624 49.4814 188.603 48.1712 187.146 48.1712C185.663 48.1712 185.436 49.2802 185.436 50.4261V54.7714H182.59V45.9904H185.32V47.1896H185.359C185.74 46.4996 186.67 45.7727 188.054 45.7727C190.934 45.7727 191.47 47.5921 191.47 49.9579V54.7714V54.7714Z" fill="white"/>
<rect x="234" y="19" width="58" height="58" rx="29" fill="white" fill-opacity="0.09"/>
<path d="M262.802 43.2876C260.305 43.2876 258.291 45.3023 258.291 47.8C258.291 50.2977 260.305 52.3124 262.802 52.3124C265.299 52.3124 267.313 50.2977 267.313 47.8C267.313 45.3023 265.299 43.2876 262.802 43.2876ZM262.802 50.7337C261.188 50.7337 259.869 49.418 259.869 47.8C259.869 46.182 261.184 44.8663 262.802 44.8663C264.42 44.8663 265.735 46.182 265.735 47.8C265.735 49.418 264.416 50.7337 262.802 50.7337V50.7337ZM268.55 43.103C268.55 43.6882 268.079 44.1555 267.498 44.1555C266.913 44.1555 266.446 43.6842 266.446 43.103C266.446 42.5218 266.917 42.0505 267.498 42.0505C268.079 42.0505 268.55 42.5218 268.55 43.103ZM271.538 44.1712C271.471 42.7613 271.149 41.5125 270.117 40.4835C269.088 39.4546 267.84 39.1325 266.43 39.0619C264.977 38.9794 260.623 38.9794 259.17 39.0619C257.764 39.1286 256.516 39.4507 255.483 40.4796C254.451 41.5085 254.133 42.7574 254.062 44.1673C253.979 45.6204 253.979 49.9757 254.062 51.4288C254.129 52.8387 254.451 54.0875 255.483 55.1165C256.516 56.1454 257.76 56.4675 259.17 56.5381C260.623 56.6206 264.977 56.6206 266.43 56.5381C267.84 56.4714 269.088 56.1493 270.117 55.1165C271.146 54.0875 271.467 52.8387 271.538 51.4288C271.621 49.9757 271.621 45.6243 271.538 44.1712V44.1712ZM269.661 52.9879C269.355 53.7576 268.762 54.3507 267.989 54.6609C266.83 55.1204 264.082 55.0144 262.802 55.0144C261.522 55.0144 258.77 55.1165 257.615 54.6609C256.846 54.3546 256.253 53.7616 255.943 52.9879C255.483 51.8294 255.589 49.0803 255.589 47.8C255.589 46.5197 255.487 43.7667 255.943 42.6121C256.249 41.8424 256.842 41.2493 257.615 40.9391C258.773 40.4796 261.522 40.5856 262.802 40.5856C264.082 40.5856 266.834 40.4835 267.989 40.9391C268.758 41.2454 269.351 41.8384 269.661 42.6121C270.121 43.7706 270.015 46.5197 270.015 47.8C270.015 49.0803 270.121 51.8333 269.661 52.9879Z" fill="white"/>
<defs>
<filter id="filter0_d" x="120" y="0" width="130" height="130" filterUnits="userSpaceOnUse" color-interpolation-filters="sRGB">
<feFlood flood-opacity="0" result="BackgroundImageFix"/>
<feColorMatrix in="SourceAlpha" type="matrix" values="0 0 0 0 0 0 0 0 0 0 0 0 0 0 0 0 0 0 127 0" result="hardAlpha"/>
<feOffset dy="17"/>
<feGaussianBlur stdDeviation="18"/>
<feComposite in2="hardAlpha" operator="out"/>
<feColorMatrix type="matrix" values="0 0 0 0 0.231373 0 0 0 0 0.258824 0 0 0 0 0.890196 0 0 0 0.22 0"/>
<feBlend mode="normal" in2="BackgroundImageFix" result="effect1_dropShadow"/>
<feBlend mode="normal" in="SourceGraphic" in2="effect1_dropShadow" result="shape"/>
</filter>
<linearGradient id="paint0_linear" x1="217.889" y1="77" x2="174.304" y2="89.483" gradientUnits="userSpaceOnUse">
<stop stop-color="#3C93F0"/>
<stop offset="1" stop-color="#3B41E3"/>
</linearGradient>
</defs>
</svg>
