<svg width="581" height="559" viewBox="0 0 581 559" fill="none" xmlns="http://www.w3.org/2000/svg">
<circle cx="279.358" cy="279.358" r="279.358" fill="#ECF7FF"/>
<path d="M580.462 469.61L34.4565 465.119V478.409C34.4565 482.016 36.8375 485.082 40.0626 485.629L194.456 511.799C196.286 512.109 198.147 512.192 199.997 512.045L574.528 482.208C577.871 481.941 580.462 478.865 580.462 475.159V469.61Z" fill="url(#paint0_linear)"/>
<path d="M382.318 448.068L40.1034 472.379C33.9793 472.814 29 468.192 29 462.052V216.119C28.999 213.174 30.1679 210.349 32.2499 208.265C34.3319 206.181 37.1567 205.008 40.1034 205.005H382.318C387.363 205.005 391.438 209.504 391.438 215.052V437.37C391.442 442.921 387.363 447.709 382.318 448.068Z" fill="url(#paint1_linear)"/>
<path d="M387.774 448.068L45.5599 472.379C39.4358 472.814 34.4565 468.192 34.4565 462.052V216.119C34.4555 213.174 35.6244 210.349 37.7065 208.265C39.7885 206.181 42.6132 205.008 45.5599 205.005H387.774C392.82 205.005 396.895 209.504 396.895 215.052V437.37C396.898 442.921 392.82 447.709 387.774 448.068Z" fill="url(#paint2_linear)"/>
<path d="M384.643 227.515V423.63C384.643 428.192 381.278 432.115 377.114 432.394L313.35 436.618L82.5844 451.916L58.375 453.521C53.3957 453.847 49.344 450.05 49.344 445.043V229.72C49.3403 227.317 50.2878 225.01 51.9797 223.302C53.6716 221.594 55.9705 220.625 58.375 220.605L179.164 220.105L220.108 219.932L252.723 219.798L281.405 219.678L377.121 219.282C381.278 219.271 384.643 222.953 384.643 227.515Z" fill="url(#paint3_linear)"/>
<g style="mix-blend-mode:multiply" opacity="0.3">
<path style="mix-blend-mode:multiply" opacity="0.3" d="M352.815 356.207C358.487 355.237 362.67 349.852 362.164 344.152L360.433 324.716C359.927 319.014 354.922 315.151 349.25 316.098L338.312 317.907C336.01 309.245 332.756 300.864 328.609 292.917L337.924 285.617C342.581 281.961 343.714 275.368 340.435 270.878L329.253 255.592C325.966 251.103 319.508 250.416 314.832 254.074L305.021 261.726C298.689 255.745 291.714 250.482 284.223 246.035L289.414 234.419C291.833 229.004 289.573 222.93 284.368 220.843L281.409 219.664L252.727 219.784L247.389 231.686C238.682 229.868 229.808 228.972 220.913 229.014L220.108 219.936L179.164 220.108C179.027 220.956 178.998 221.817 179.076 222.672L180.209 235.448C171.371 238.259 162.831 241.931 154.712 246.411L147.338 236.439C143.973 231.892 137.354 231.192 132.557 234.888L116.156 247.494C111.338 251.19 110.164 257.89 113.544 262.446L120.784 272.193C114.112 278.991 108.104 286.411 102.845 294.352L91.6559 289.996C86.3041 287.911 79.9393 290.683 77.44 296.19L68.9174 314.979C66.4103 320.5 68.7234 326.655 74.1024 328.727L84.7905 332.861C82.0703 341.963 80.3014 351.322 79.5124 360.788L68.1568 362.667C62.2519 363.637 57.8722 369.16 58.4001 374.982L60.1601 394.837C60.6801 400.655 65.8845 404.566 71.7893 403.564L82.5124 401.76C84.6434 410.826 87.8022 419.619 91.9276 427.968L83.4923 434.562C78.6411 438.34 77.4769 445.079 80.8669 449.615L82.5842 451.913L313.349 436.622C316.326 432.701 319.104 428.633 321.672 424.433L330.249 427.749C335.434 429.747 341.579 426.974 343.984 421.522L352.169 402.999C354.567 397.569 352.322 391.536 347.151 389.525L338.133 386.009C340.559 376.833 342.018 367.428 342.486 357.949L352.815 356.207ZM219.036 440.021C175.318 447.585 136.539 418.342 132.66 374.666C128.781 330.99 161.317 289.831 205.075 282.753C248.572 275.719 286.751 305.055 290.584 348.258C294.416 391.46 262.493 432.522 219.036 440.021Z" fill="url(#paint4_linear)"/>
</g>
<path d="M228.752 211.733C228.752 214.017 226.992 215.875 224.817 215.881C222.642 215.887 220.872 214.037 220.872 211.746C220.872 209.456 222.64 207.598 224.817 207.598C226.994 207.598 228.752 209.446 228.752 211.733Z" fill="white"/>
<g style="mix-blend-mode:soft-light" opacity="0.48">
<path d="M305.324 380.618C278.933 366.348 258.197 384.429 238.183 366.589C226.045 355.773 232.005 347.707 217.071 331.545C200.524 313.641 189.757 319.653 173.133 303.556C152.113 283.193 162.627 267.335 144.52 252.709C122.556 234.964 98.8687 251.388 77.962 234.37C68.9446 227.032 63.9906 216.362 61.4117 205.013H40.9533C39.2263 205.017 37.5718 205.707 36.3535 206.93C35.1353 208.154 34.4529 209.811 34.4566 211.537V466.461C34.4566 470.064 37.3673 472.777 40.9533 472.521L389.734 447.634C391.446 447.511 392.963 446.507 393.937 445.05C368.406 444.116 352.722 435.511 342.695 426.627C323.073 409.217 326.475 392.058 305.324 380.618Z" fill="white"/>
</g>
<path d="M401.414 446.964L34.4565 472.564L194.456 499.683C196.286 499.993 198.147 500.075 199.997 499.928L580.462 469.618L407.253 447.147C405.317 446.892 403.361 446.831 401.414 446.964Z" fill="url(#paint5_linear)"/>
<path style="mix-blend-mode:multiply" opacity="0.3" d="M88.0022 473.2L393.505 451.576L488.056 463.746L185.185 486.859L88.0022 473.2Z" fill="url(#paint6_linear)"/>
<path d="M474.157 49.2273L203.226 40.0096C194.16 39.7013 186.78 46.838 186.78 55.9529V253.572C186.767 255.719 187.186 257.847 188.011 259.83C188.837 261.813 190.053 263.609 191.587 265.113C193.121 266.617 194.942 267.798 196.941 268.585C198.94 269.372 201.077 269.75 203.226 269.695L474.157 263.468C482.012 263.288 488.353 256.304 488.353 247.87V64.9902C488.353 56.5464 482.012 49.5027 474.157 49.2273Z" fill="url(#paint7_linear)"/>
<g style="mix-blend-mode:soft-light" opacity="0.74">
<path d="M192.047 249.415V60.169C192.047 51.7348 198.867 45.1197 207.25 45.3951L470.652 54.0057C477.943 54.2462 483.834 60.7818 483.834 68.607V244.193C483.834 252.018 477.943 258.49 470.652 258.647L207.252 264.358C205.264 264.405 203.287 264.052 201.438 263.32C199.589 262.589 197.905 261.494 196.487 260.101C195.069 258.707 193.946 257.044 193.183 255.208C192.42 253.373 192.034 251.403 192.047 249.415Z" fill="white"/>
</g>
<path d="M474.157 49.2273L203.226 40.0096C194.16 39.7013 186.78 46.838 186.78 55.9529V67.7829L488.353 75.9281V64.9825C488.353 56.5464 482.012 49.5027 474.157 49.2273Z" fill="url(#paint8_linear)"/>
<path d="M216.023 55.2412C216.03 55.9373 215.895 56.6276 215.628 57.2704C215.36 57.9132 214.965 58.4953 214.467 58.9818C213.969 59.4682 213.377 59.8489 212.728 60.1009C212.079 60.3529 211.385 60.4711 210.689 60.4483C209.255 60.3943 207.899 59.7885 206.902 58.7577C205.905 57.7268 205.346 56.3508 205.341 54.9173C205.334 54.22 205.469 53.5286 205.738 52.8849C206.006 52.2411 206.402 51.6583 206.902 51.1717C207.401 50.6851 207.995 50.3047 208.645 50.0535C209.296 49.8023 209.991 49.6855 210.689 49.7102C212.12 49.7681 213.473 50.3756 214.466 51.4059C215.46 52.4363 216.018 53.8101 216.023 55.2412V55.2412Z" fill="white"/>
<path d="M234.644 55.8055C234.652 56.4969 234.52 57.1827 234.255 57.8217C233.991 58.4607 233.601 59.0397 233.107 59.524C232.613 60.0082 232.027 60.3877 231.382 60.6395C230.738 60.8913 230.049 61.0103 229.358 60.9894C227.935 60.9323 226.589 60.3277 225.602 59.302C224.615 58.2763 224.062 56.9088 224.06 55.4855C224.052 54.7931 224.184 54.1062 224.449 53.4662C224.714 52.8263 225.106 52.2466 225.601 51.7621C226.096 51.2777 226.684 50.8985 227.33 50.6475C227.975 50.3965 228.665 50.2788 229.358 50.3017C230.779 50.3617 232.122 50.9675 233.107 51.993C234.091 53.0184 234.642 54.3842 234.644 55.8055Z" fill="white"/>
<path d="M253.092 56.3664C253.102 57.0532 252.972 57.7349 252.711 58.3703C252.45 59.0058 252.064 59.582 251.574 60.0641C251.085 60.5463 250.503 60.9244 249.863 61.1758C249.223 61.4272 248.54 61.5467 247.853 61.527C244.955 61.4417 242.613 58.9884 242.613 56.0484C242.604 55.3616 242.733 54.6799 242.994 54.0444C243.255 53.4089 243.642 52.8328 244.131 52.3506C244.621 51.8685 245.203 51.4903 245.842 51.2389C246.482 50.9875 247.166 50.8681 247.853 50.8878C250.75 50.9789 253.092 53.4322 253.092 56.3664Z" fill="white"/>
<path d="M471.783 194.817L205.95 196.072V117.932L471.783 121.838V194.817Z" fill="url(#paint9_linear)"/>
<path d="M471.783 213.247L205.95 215.803V207.413L471.783 205.41V213.247Z" fill="white"/>
<path d="M471.783 232.472L205.95 236.387V227.997L471.783 224.635V232.472Z" fill="white"/>
<path d="M348.92 101.002L205.95 98.2012V106.591L348.92 109.094V101.002Z" fill="white"/>
<path d="M456.615 103.112V110.98L471.785 111.246V103.409L456.615 103.112Z" fill="white"/>
<g style="mix-blend-mode:soft-light" opacity="0.5">
<g style="mix-blend-mode:soft-light" opacity="0.5">
<path d="M368.711 150.455C337.058 104.425 282.31 118.952 247.692 68.1378C242.025 59.7633 237.528 50.6556 234.324 41.0666L203.226 40.0096C194.16 39.7013 186.78 46.838 186.78 55.9529V253.572C186.767 255.719 187.186 257.847 188.011 259.83C188.837 261.813 190.053 263.609 191.587 265.113C193.121 266.617 194.942 267.798 196.941 268.585C198.94 269.372 201.077 269.75 203.226 269.695L409.283 264.963C402.753 255.598 397.167 245.609 392.606 235.144C374.135 192.731 387.813 178.236 368.711 150.455Z" fill="white"/>
</g>
</g>
<g style="mix-blend-mode:soft-light">
<g style="mix-blend-mode:soft-light">
<path d="M243.064 137.541L210.683 137.196V127.914L243.064 128.331V137.541Z" fill="white"/>
</g>
<g style="mix-blend-mode:soft-light">
<path d="M416.051 139.382L263.735 137.76V128.597L416.051 130.556V139.382Z" fill="white"/>
</g>
<g style="mix-blend-mode:soft-light">
<path d="M295.305 153.63L263.735 153.412V144.249L295.305 144.536V153.63Z" fill="white"/>
</g>
<g style="mix-blend-mode:soft-light">
<path d="M464.058 154.788L315.461 153.768V144.719L464.058 146.066V154.788Z" fill="white"/>
</g>
<g style="mix-blend-mode:soft-light">
<path d="M295.305 169.164L263.735 169.067V159.904L295.305 160.07V169.164Z" fill="white"/>
</g>
<g style="mix-blend-mode:soft-light">
<path d="M464.058 169.682L315.461 169.226V160.177L464.058 160.963V169.682Z" fill="white"/>
</g>
<g style="mix-blend-mode:soft-light">
<path d="M243.064 184.735L210.683 184.758V175.476L243.064 175.525V184.735Z" fill="white"/>
</g>
<g style="mix-blend-mode:soft-light">
<path d="M416.051 184.611L263.735 184.72V175.556L416.051 175.785V184.611Z" fill="white"/>
</g>
</g>
<path d="M559.468 96.1395L385.525 94.301C377.3 94.2137 370.605 101.18 370.605 109.86V384.292C370.605 392.973 377.3 399.549 385.525 398.983L559.468 387.007C566.933 386.493 572.964 379.411 572.964 371.188V111.173C572.964 102.948 566.933 96.2171 559.468 96.1395Z" fill="url(#paint10_linear)"/>
<g style="mix-blend-mode:soft-light" opacity="0.74">
<path d="M375.375 380.123V113.759C375.375 105.724 381.563 99.2678 389.17 99.3396L556.124 100.881C563.056 100.945 568.656 107.182 568.656 114.812V367.798C568.656 375.43 563.056 381.992 556.124 382.46L389.177 393.735C381.571 394.251 375.375 388.156 375.375 380.123Z" fill="white"/>
</g>
<path d="M559.468 96.1395L385.525 94.301C377.3 94.2137 370.605 101.18 370.605 109.86V121.134L572.964 121.849V111.173C572.964 102.948 566.933 96.217 559.468 96.1395Z" fill="url(#paint11_linear)"/>
<path d="M559.526 108.756C559.526 111.552 557.391 113.807 554.77 113.798C552.148 113.788 550.002 111.498 550.002 108.695C550.002 105.893 552.136 103.636 554.77 103.653C557.403 103.671 559.526 105.959 559.526 108.756Z" fill="white"/>
<path d="M557.211 320.18L387.998 328.738V168.475L557.211 166.988V320.18Z" fill="url(#paint12_linear)"/>
<path d="M557.211 338.148L387.998 347.536V339.542L557.211 330.507V338.148Z" fill="white"/>
<path d="M557.211 356.892L387.998 367.145V359.151L557.211 349.251V356.892Z" fill="white"/>
<path d="M517.961 149.173L387.998 149.678V157.672L517.961 156.896V149.173Z" fill="white"/>
<path d="M542.793 149.076V156.746L557.211 156.66V149.019L542.793 149.076Z" fill="white"/>
<g opacity="0.15">
<path opacity="0.15" d="M513.762 260.164C485.788 223.363 450.704 222.31 431.163 182.93C417.019 154.421 419.026 121.966 425.303 94.7265L385.523 94.3076C377.298 94.2203 370.603 101.186 370.603 109.867V384.293C370.603 392.973 377.298 399.55 385.523 398.983L541.914 388.216C546.73 318.718 529.998 281.525 513.762 260.164Z" fill="white"/>
</g>
<g style="mix-blend-mode:soft-light">
<g style="mix-blend-mode:soft-light">
<path d="M417.105 184.508L399.13 184.748L399.159 176.758L417.136 176.572L417.105 184.508Z" fill="white"/>
</g>
<g style="mix-blend-mode:soft-light">
<path d="M513.721 183.214L428.598 184.355L428.629 176.452L513.756 175.569L513.721 183.214Z" fill="white"/>
</g>
<g style="mix-blend-mode:soft-light">
<path d="M446.124 197.524L428.548 197.85L428.577 189.949L446.155 189.676L446.124 197.524Z" fill="white"/>
</g>
<g style="mix-blend-mode:soft-light">
<path d="M540.645 195.771L457.366 197.315L457.397 189.501L540.682 188.208L540.645 195.771Z" fill="white"/>
</g>
<g style="mix-blend-mode:soft-light">
<path d="M446.07 210.926L428.495 211.343L428.524 203.444L446.101 203.081L446.07 210.926Z" fill="white"/>
</g>
<g style="mix-blend-mode:soft-light">
<path d="M540.583 208.685L457.309 210.66L457.342 202.848L540.62 201.126L540.583 208.685Z" fill="white"/>
</g>
<g style="mix-blend-mode:soft-light">
<path d="M416.953 225.162L398.982 225.68L399.012 217.696L416.982 217.23L416.953 225.162Z" fill="white"/>
</g>
<g style="mix-blend-mode:soft-light">
<path d="M513.538 222.375L428.443 224.831L428.474 216.934L513.573 214.736L513.538 222.375Z" fill="white"/>
</g>
<g style="mix-blend-mode:soft-light">
<path d="M445.961 237.717L428.39 238.315L428.421 230.422L445.994 229.877L445.961 237.717Z" fill="white"/>
</g>
<g style="mix-blend-mode:soft-light">
<path d="M540.455 234.506L457.199 237.336L457.232 229.53L540.492 226.95L540.455 234.506Z" fill="white"/>
</g>
<g style="mix-blend-mode:soft-light">
<path d="M445.909 251.11L428.338 251.797L428.369 243.904L445.94 243.269L445.909 251.11Z" fill="white"/>
</g>
<g style="mix-blend-mode:soft-light">
<path d="M540.391 247.412L457.145 250.67L457.178 242.865L540.43 239.857L540.391 247.412Z" fill="white"/>
</g>
<g style="mix-blend-mode:soft-light">
<path d="M445.855 264.498L428.286 265.275L428.317 257.384L445.886 256.661L445.855 264.498Z" fill="white"/>
</g>
<g style="mix-blend-mode:soft-light">
<path d="M540.329 260.315L457.09 264L457.121 256.198L540.365 252.761L540.329 260.315Z" fill="white"/>
</g>
<g style="mix-blend-mode:soft-light">
<path d="M474.484 276.465L457.305 277.313L457.336 269.513L474.519 268.716L474.484 276.465Z" fill="white"/>
</g>
<g style="mix-blend-mode:soft-light">
<path d="M553.246 272.574L485.473 275.923L485.506 268.206L553.285 265.061L553.246 272.574Z" fill="white"/>
</g>
<g style="mix-blend-mode:soft-light">
<path d="M416.697 292.849L398.738 293.829L398.767 285.854L416.728 284.927L416.697 292.849Z" fill="white"/>
</g>
<g style="mix-blend-mode:soft-light">
<path d="M513.234 287.582L428.183 292.223L428.212 284.336L513.269 279.951L513.234 287.582Z" fill="white"/>
</g>
<g style="mix-blend-mode:soft-light">
<path d="M445.694 304.642L428.13 305.689L428.159 297.806L445.725 296.809L445.694 304.642Z" fill="white"/>
</g>
<g style="mix-blend-mode:soft-light">
<path d="M540.138 299.004L456.923 303.971L456.956 296.173L540.175 291.456L540.138 299.004Z" fill="white"/>
</g>
<g style="mix-blend-mode:soft-light">
<path d="M445.639 318.015L428.078 319.154L428.109 311.272L445.67 310.186L445.639 318.015Z" fill="white"/>
</g>
<g style="mix-blend-mode:soft-light">
<path d="M540.075 311.893L456.869 317.288L456.902 309.492L540.111 304.347L540.075 311.893Z" fill="white"/>
</g>
</g>
<g opacity="0.5">
<path opacity="0.5" d="M495.428 528.077C494.582 513.726 504.098 484.469 511.022 470.642C517.798 457.113 524.277 435.708 524.343 435.493L524.764 435.621C524.7 435.836 518.207 457.276 511.416 470.839C504.513 484.624 495.024 513.763 495.868 528.05L495.428 528.077Z" fill="white"/>
</g>
<path d="M121.318 350.814C121.318 350.814 33.6223 223.808 119.29 122.877L97.3455 118.941L165.379 98.8219L145.025 153.414L136.273 136.29C136.273 136.29 71.9622 198.847 121.318 350.814Z" fill="url(#paint13_linear)"/>
<path d="M191.823 410.996C191.823 410.996 326.617 456.764 394.628 355.414L403.648 373.877L404.377 308.504L361.048 340.289L378.451 343.737C378.451 343.737 339.119 416.496 191.823 410.996Z" fill="url(#paint14_linear)"/>
<path d="M84.4528 354.561L85.5336 366.734C85.8518 370.307 89.0439 372.705 92.6649 372.097L99.2431 370.987C100.55 376.548 102.487 381.942 105.018 387.064L99.8446 391.102C96.8718 393.42 96.1577 397.554 98.2321 400.333L105.323 409.799C107.395 412.572 111.489 412.935 114.453 410.608L119.346 406.772C123.433 410.755 127.976 414.244 132.879 417.165L130.444 422.595C128.923 425.989 130.337 429.739 133.603 430.971L144.718 435.16C147.974 436.387 151.84 434.634 153.353 431.246L155.682 426.031C161.455 427.232 167.347 427.771 173.243 427.637L173.722 433.032C174.037 436.57 177.173 438.926 180.724 438.296L192.809 436.147C196.348 435.519 198.96 432.148 198.648 428.62L198.17 423.243C203.948 421.299 209.505 418.754 214.75 415.65L217.88 419.87C219.91 422.609 223.895 422.973 226.785 420.667L236.609 412.85C239.487 410.559 240.182 406.489 238.162 403.754L234.925 399.375C239.066 394.924 242.751 390.069 245.926 384.885L251.186 386.919C254.367 388.146 258.137 386.438 259.61 383.102L264.628 371.74C266.099 368.41 264.723 364.712 261.552 363.476L256.02 361.322C257.507 355.694 258.402 349.926 258.69 344.112L265.026 343.045C268.505 342.463 271.07 339.149 270.76 335.652L269.702 323.731C269.392 320.241 266.322 317.867 262.843 318.443L256.132 319.554C254.72 314.243 252.724 309.105 250.181 304.233L255.896 299.755C258.758 297.512 259.447 293.468 257.436 290.718L250.577 281.343C248.563 278.589 244.602 278.171 241.732 280.41L235.717 285.104C231.832 281.437 227.554 278.209 222.96 275.481L226.142 268.356C227.627 265.035 226.241 261.312 223.038 260.038L212.132 255.684C208.928 254.404 205.119 256.062 203.627 259.39L200.353 266.694C195.016 265.572 189.575 265.016 184.121 265.037L183.429 257.224C183.114 253.694 179.988 251.284 176.443 251.838L164.336 253.733C160.777 254.29 158.146 257.612 158.461 261.149L159.155 268.984C153.735 270.707 148.497 272.959 143.517 275.706L138.996 269.591C136.935 266.8 132.875 266.372 129.93 268.635L119.872 276.363C116.917 278.632 116.199 282.74 118.271 285.534L122.725 291.521C118.632 295.689 114.948 300.24 111.722 305.11L104.859 302.437C101.576 301.157 97.679 302.858 96.1402 306.237L90.901 317.76C89.3641 321.146 90.7884 324.92 94.0795 326.194L100.638 328.727C98.9701 334.308 97.8861 340.047 97.4035 345.851L90.4353 347.015C86.826 347.607 84.1365 350.989 84.4528 354.561ZM129.998 354.367C127.621 327.585 147.573 302.335 174.413 297.996C201.091 293.683 224.505 311.678 226.856 338.168C229.208 364.657 209.627 389.857 182.975 394.453C156.161 399.086 132.377 381.153 129.998 354.367Z" fill="white"/>
<defs>
<linearGradient id="paint0_linear" x1="265.154" y1="490.336" x2="226.825" y2="506.443" gradientUnits="userSpaceOnUse">
<stop stop-color="#40447E"/>
<stop offset="1" stop-color="#3C3B6B"/>
</linearGradient>
<linearGradient id="paint1_linear" x1="325020" y1="399740" x2="260030" y2="436735" gradientUnits="userSpaceOnUse">
<stop stop-color="#40447E"/>
<stop offset="1" stop-color="#3C3B6B"/>
</linearGradient>
<linearGradient id="paint2_linear" x1="10226.2" y1="412072" x2="687188" y2="412072" gradientUnits="userSpaceOnUse">
<stop stop-color="#40447E"/>
<stop offset="1" stop-color="#3C3B6B"/>
</linearGradient>
<linearGradient id="paint3_linear" x1="263.555" y1="250.622" x2="-14.8557" y2="706.029" gradientUnits="userSpaceOnUse">
<stop stop-color="#FFC444"/>
<stop offset="1" stop-color="#F36F56"/>
</linearGradient>
<linearGradient id="paint4_linear" x1="99143.2" y1="320992" x2="574445" y2="263346" gradientUnits="userSpaceOnUse">
<stop stop-color="#FFC444"/>
<stop offset="1" stop-color="#F36F56"/>
</linearGradient>
<linearGradient id="paint5_linear" x1="15388.1" y1="119132" x2="1.55172e+06" y2="119132" gradientUnits="userSpaceOnUse">
<stop stop-color="#40447E"/>
<stop offset="1" stop-color="#3C3B6B"/>
</linearGradient>
<linearGradient id="paint6_linear" x1="121728" y1="78539.3" x2="946492" y2="78539.3" gradientUnits="userSpaceOnUse">
<stop stop-color="#40447E"/>
<stop offset="1" stop-color="#3C3B6B"/>
</linearGradient>
<linearGradient id="paint7_linear" x1="423.322" y1="-19.4776" x2="175.806" y2="475.845" gradientUnits="userSpaceOnUse">
<stop stop-color="#FF9085"/>
<stop offset="1" stop-color="#FB6FBB"/>
</linearGradient>
<linearGradient id="paint8_linear" x1="311.615" y1="-38.392" x2="362.74" y2="166.238" gradientUnits="userSpaceOnUse">
<stop stop-color="#AB316D"/>
<stop offset="1" stop-color="#792D3D"/>
</linearGradient>
<linearGradient id="paint9_linear" x1="242617" y1="47260.5" x2="606793" y2="47260.5" gradientUnits="userSpaceOnUse">
<stop stop-color="#FF9085"/>
<stop offset="1" stop-color="#FB6FBB"/>
</linearGradient>
<linearGradient id="paint10_linear" x1="370.605" y1="246.661" x2="572.964" y2="246.661" gradientUnits="userSpaceOnUse">
<stop stop-color="#E38DDD"/>
<stop offset="1" stop-color="#9571F6"/>
</linearGradient>
<linearGradient id="paint11_linear" x1="463414" y1="9212.78" x2="463020" y2="35324.1" gradientUnits="userSpaceOnUse">
<stop stop-color="#40447E"/>
<stop offset="1" stop-color="#3C3B6B"/>
</linearGradient>
<linearGradient id="paint12_linear" x1="313441" y1="173534" x2="460999" y2="173534" gradientUnits="userSpaceOnUse">
<stop stop-color="#E38DDD"/>
<stop offset="1" stop-color="#9571F6"/>
</linearGradient>
<linearGradient id="paint13_linear" x1="167.892" y1="69.0435" x2="22.2359" y2="477.12" gradientUnits="userSpaceOnUse">
<stop stop-color="#FB6FBB"/>
<stop offset="1" stop-color="#FF9085"/>
</linearGradient>
<linearGradient id="paint14_linear" x1="178544" y1="189286" x2="411369" y2="189286" gradientUnits="userSpaceOnUse">
<stop stop-color="#E38DDD"/>
<stop offset="1" stop-color="#9571F6"/>
</linearGradient>
</defs>
</svg>
