<svg width="559" height="559" viewBox="0 0 559 559" fill="none" xmlns="http://www.w3.org/2000/svg">
<circle cx="279.358" cy="279.358" r="279.358" fill="#ECF7FF"/>
<path d="M347.463 378.773H225.753V423.597H347.463V378.773Z" fill="#1E2531"/>
<path d="M62.0942 47H511.172C514.044 47 516.798 48.1408 518.829 50.1714C520.859 52.2019 522 54.956 522 57.8277V373.359C522 376.227 520.861 378.976 518.834 381.004C516.806 383.031 514.056 384.17 511.189 384.17H62.0942C59.2226 384.17 56.4685 383.029 54.4379 380.999C52.4074 378.968 51.2666 376.214 51.2666 373.343V57.8108C51.2666 56.3897 51.5468 54.9826 52.0911 53.6698C52.6355 52.3571 53.4333 51.1646 54.439 50.1605C55.4446 49.1564 56.6384 48.3604 57.952 47.8181C59.2655 47.2758 60.6731 46.9978 62.0942 47V47Z" fill="#303945"/>
<path d="M487.567 71.228H85.6493C80.5329 71.228 76.3853 75.3756 76.3853 80.492V350.696C76.3853 355.812 80.5329 359.96 85.6493 359.96H487.567C492.683 359.96 496.831 355.812 496.831 350.696V80.492C496.831 75.3756 492.683 71.228 487.567 71.228Z" fill="#101722"/>
<path d="M482.22 76.675H91.0128C86.0914 76.675 82.1018 80.6646 82.1018 85.5859V345.601C82.1018 350.522 86.0914 354.512 91.0128 354.512H482.22C487.142 354.512 491.131 350.522 491.131 345.601V85.5859C491.131 80.6646 487.142 76.675 482.22 76.675Z" fill="#65BEBD"/>
<path d="M456.194 83.0809H117.04V348.089H456.194V83.0809Z" fill="white"/>
<path d="M456.194 83.0809H117.04V103.526H456.194V83.0809Z" fill="#003A54"/>
<path d="M415.187 86.4944H406.679C405.268 86.4944 404.124 87.6386 404.124 89.05V97.5575C404.124 98.9689 405.268 100.113 406.679 100.113H415.187C416.598 100.113 417.742 98.9689 417.742 97.5575V89.05C417.742 87.6386 416.598 86.4944 415.187 86.4944Z" fill="#00B9C5"/>
<path d="M431.26 86.4944H422.752C421.341 86.4944 420.197 87.6386 420.197 89.05V97.5575C420.197 98.9689 421.341 100.113 422.752 100.113H431.26C432.671 100.113 433.815 98.9689 433.815 97.5575V89.05C433.815 87.6386 432.671 86.4944 431.26 86.4944Z" fill="#00B9C5"/>
<path d="M447.35 86.4944H438.842C437.431 86.4944 436.287 87.6386 436.287 89.05V97.5575C436.287 98.9689 437.431 100.113 438.842 100.113H447.35C448.761 100.113 449.905 98.9689 449.905 97.5575V89.05C449.905 87.6386 448.761 86.4944 447.35 86.4944Z" fill="#00B9C5"/>
<path d="M456.194 103.542H117.04V107.258H456.194V103.542Z" fill="#00B9C5"/>
<path d="M320.68 119.296H134.71V122.978H320.68V119.296Z" fill="#8DC63F"/>
<path d="M174.742 126.24H134.71V129.922H174.742V126.24Z" fill="#E67067"/>
<path d="M158.131 132.763H134.71V136.445H158.131V132.763Z" fill="#FBB040"/>
<path d="M283.876 139.27H134.71V142.952H283.876V139.27Z" fill="#003A54"/>
<path d="M320.68 146.853H134.71V150.535H320.68V146.853Z" fill="#00B9C5"/>
<path d="M332.937 153.797H134.71V157.479H332.937V153.797Z" fill="#00B9C5"/>
<path d="M312.273 160.304H134.71V163.986H312.273V160.304Z" fill="#00B9C5"/>
<path d="M192.177 166.827H134.71V170.509H192.177V166.827Z" fill="#003A54"/>
<path d="M214.858 177.722L174.843 178.462L174.759 174.78L214.774 174.04L214.858 177.722Z" fill="#00B9C5"/>
<path d="M352.373 181.354H174.792V185.036H352.373V181.354Z" fill="#00B9C5"/>
<path d="M198.213 187.86H174.792V191.542H198.213V187.86Z" fill="#FBB040"/>
<path d="M323.958 194.384H174.792V198.066H323.958V194.384Z" fill="#003A54"/>
<path d="M320.68 201.966H192.177V205.648H320.68V201.966Z" fill="#00B9C5"/>
<path d="M313.467 208.893H192.177V212.575H313.467V208.893Z" fill="#00B9C5"/>
<path d="M263.129 215.417H192.177V219.099H263.129V215.417Z" fill="#00B9C5"/>
<path d="M295.242 221.924H192.177V225.606H295.242V221.924Z" fill="#00B9C5"/>
<path d="M320.68 229.506H134.71V233.188H320.68V229.506Z" fill="#00B9C5"/>
<path d="M290.332 236.45H134.71V240.132H290.332V236.45Z" fill="#00B9C5"/>
<path d="M225.753 242.974H134.71V246.656H225.753V242.974Z" fill="#00B9C5"/>
<path d="M283.876 249.481H134.71V253.163H283.876V249.481Z" fill="#00B9C5"/>
<path d="M214.858 257.063H134.71V260.745H214.858V257.063Z" fill="#8DC63F"/>
<path d="M174.742 264.007H134.71V267.689H174.742V264.007Z" fill="#E67067"/>
<path d="M158.131 270.513H134.71V274.196H158.131V270.513Z" fill="#FBB040"/>
<path d="M192.177 277.037H134.71V280.719H192.177V277.037Z" fill="#003A54"/>
<path d="M364.612 284.603H178.643V288.285H364.612V284.603Z" fill="#00B9C5"/>
<path d="M356.206 291.547H178.643V295.229H356.206V291.547Z" fill="#00B9C5"/>
<path d="M282.514 298.07H178.643V301.752H282.514V298.07Z" fill="#00B9C5"/>
<path d="M327.809 304.577H178.643V308.259H327.809V304.577Z" fill="#00B9C5"/>
<path d="M320.68 312.159H134.71V315.842H320.68V312.159Z" fill="#00B9C5"/>
<path d="M174.742 319.103H134.71V322.785H174.742V319.103Z" fill="#E67067"/>
<path d="M158.131 325.627H134.71V329.309H158.131V325.627Z" fill="#FBB040"/>
<path d="M171.514 332.133H134.71V335.815H171.514V332.133Z" fill="#E67067"/>
<path opacity="0.5" d="M67.3062 54.0955C64.5416 54.0955 61.8901 55.1937 59.9352 57.1486C57.9803 59.1035 56.8821 61.755 56.8821 64.5196V368.349C56.8821 371.114 57.9803 373.765 59.9352 375.72C61.8901 377.675 64.5416 378.773 67.3062 378.773H499.639C501.007 378.773 502.361 378.504 503.625 377.98C504.889 377.456 506.037 376.687 507.004 375.719C507.97 374.751 508.736 373.602 509.258 372.337C509.78 371.073 510.048 369.717 510.046 368.349L67.3062 54.0955Z" fill="white"/>
<path d="M389.849 430.457H183.384L208.738 415.039H361.99L389.849 430.457Z" fill="#3B4553"/>
<path d="M389.832 430.456H183.384V442.427H389.832V430.456Z" fill="#212934"/>
<path d="M37.0427 526.762H505.994L506.213 535.169C503.237 540.869 496.259 540.112 481.985 539.91H58.1095C58.1095 539.91 35.8994 540.667 37.0427 526.762Z" fill="#070F1A"/>
<path d="M506.213 525.821L450.729 462.368C448.611 459.611 443.264 458.837 438.153 458.837H100.126C95.0818 458.837 90.2396 459.392 86.6752 462.368L39.1614 525.821H506.213Z" fill="#BCBEC0"/>
<path d="M114.248 467.58C116.703 465.579 119.914 465.192 123.361 465.192H421.273C424.635 465.192 428.317 465.73 429.679 467.58L465.811 508.738C465.811 510.05 467.66 517.901 454.68 517.901H98.4104C78.7223 517.901 83.7999 509.596 83.7999 508.284L114.248 467.58Z" fill="white"/>
<path d="M136.862 477.886H121.461L127.648 469.782H142.36L136.862 477.886Z" fill="#BCBEC0"/>
<path d="M156.803 477.886H141.419L146.732 469.782H161.46L156.803 477.886Z" fill="#BCBEC0"/>
<path d="M151.204 468.219H128.842C129.75 467.008 130.221 466.42 131.146 465.192H153.053L151.204 468.219Z" fill="#BCBEC0"/>
<path d="M177.415 468.219H155.037C155.794 467.008 156.164 466.42 156.903 465.192H178.895L177.415 468.219Z" fill="#BCBEC0"/>
<path d="M203.627 468.219H181.249C181.82 467.008 182.106 466.42 182.661 465.192H204.653C204.249 466.42 204.031 467.008 203.627 468.219Z" fill="#BCBEC0"/>
<path d="M229.839 468.219H207.461C207.847 467.008 208.049 466.42 208.419 465.192H230.394L229.839 468.219Z" fill="#BCBEC0"/>
<path d="M256.05 468.219H233.756C233.974 467.008 234.075 466.42 234.277 465.192H256.269C256.134 466.42 256.1 467.008 256.05 468.219Z" fill="#BCBEC0"/>
<path d="M282.262 468.219H259.884L259.968 465.192H281.943C282.06 466.42 282.128 467.008 282.262 468.219Z" fill="#BCBEC0"/>
<path d="M308.473 468.219H286.112C285.96 467.008 285.876 466.42 285.725 465.192H307.733C308.019 466.42 308.171 467.008 308.473 468.219Z" fill="#BCBEC0"/>
<path d="M334.635 468.219H312.307C311.987 467.008 311.819 466.42 311.5 465.192H333.491C333.962 466.42 334.197 467.008 334.635 468.219Z" fill="#BCBEC0"/>
<path d="M360.897 468.219H338.519L337.258 465.192H359.249C359.854 466.42 360.241 467.008 360.897 468.219Z" fill="#BCBEC0"/>
<path d="M387.108 468.219H364.73C364.057 467.008 363.704 466.42 363.049 465.192H385.074C385.847 466.42 386.268 467.008 387.108 468.219Z" fill="#BCBEC0"/>
<path d="M416.346 468.219H390.942C390.084 467.008 389.647 466.42 388.79 465.192H413.757L416.346 468.219Z" fill="#BCBEC0"/>
<path d="M176.743 477.886H161.359L165.814 469.782H180.526L176.743 477.886Z" fill="#BCBEC0"/>
<path d="M196.767 477.886H181.299L184.881 469.782H199.609L196.767 477.886Z" fill="#BCBEC0"/>
<path d="M216.64 477.886H201.256L203.98 469.782H218.708L216.64 477.886Z" fill="#BCBEC0"/>
<path d="M236.598 477.886H221.197C221.937 474.641 222.306 473.027 223.063 469.782H237.791C237.304 473.027 237.119 474.641 236.598 477.886Z" fill="#BCBEC0"/>
<path d="M256.538 477.886H241.154C241.54 474.641 241.742 473.027 242.146 469.782H256.857C256.723 473.027 256.655 474.641 256.538 477.886Z" fill="#BCBEC0"/>
<path d="M276.478 477.886H261.094C261.094 474.641 261.178 473.027 261.229 469.782H275.957C276.159 473.027 276.276 474.641 276.478 477.886Z" fill="#BCBEC0"/>
<path d="M296.435 477.886H281.051C280.765 474.641 280.614 473.027 280.312 469.782H295.04C295.595 473.027 295.864 474.641 296.435 477.886Z" fill="#BCBEC0"/>
<path d="M316.376 477.886H301.008C300.386 474.641 300.067 473.027 299.428 469.782H314.156C315.014 473.027 315.468 474.641 316.376 477.886Z" fill="#BCBEC0"/>
<path d="M129.515 488.697H113.223L119.427 480.593H135.03L129.515 488.697Z" fill="#BCBEC0"/>
<path d="M150.599 488.697H134.323L139.603 480.593H155.205L150.599 488.697Z" fill="#BCBEC0"/>
<path d="M171.699 488.697H155.424L159.879 480.593H175.482L171.699 488.697Z" fill="#BCBEC0"/>
<path d="M192.799 488.697H176.592L180.173 480.593H195.792L192.799 488.697Z" fill="#BCBEC0"/>
<path d="M213.9 488.697H197.625L200.348 480.593H215.951C215.144 483.838 214.724 485.452 213.9 488.697Z" fill="#BCBEC0"/>
<path d="M235 488.697H218.725L220.575 480.593H236.194C235.723 483.838 235.437 485.452 235 488.697Z" fill="#BCBEC0"/>
<path d="M256.084 488.697H239.826C240.212 485.452 240.431 483.838 240.818 480.593H256.42L256.084 488.697Z" fill="#BCBEC0"/>
<path d="M277.201 488.697H260.926C260.926 485.452 261.01 483.838 261.061 480.593H276.663C276.882 483.838 276.983 485.452 277.201 488.697Z" fill="#BCBEC0"/>
<path d="M298.302 488.697H282.027C281.741 485.452 281.59 483.838 281.304 480.593H296.906C297.461 483.838 297.73 485.452 298.302 488.697Z" fill="#BCBEC0"/>
<path d="M319.402 488.697H303.11L301.513 480.593H317.132L319.402 488.697Z" fill="#BCBEC0"/>
<path d="M122.151 499.508H104.984L111.172 491.404H127.665L122.151 499.508Z" fill="#BCBEC0"/>
<path d="M144.411 499.508H127.245L132.558 491.404H149.051L144.411 499.508Z" fill="#BCBEC0"/>
<path d="M166.655 499.508H149.489L153.944 491.404H170.438L166.655 499.508Z" fill="#BCBEC0"/>
<path d="M188.899 499.508H171.733C173.179 496.263 173.885 494.632 175.331 491.404H191.824C190.664 494.649 190.042 496.263 188.899 499.508Z" fill="#BCBEC0"/>
<path d="M211.159 499.508H193.993C195.086 496.263 195.674 494.649 196.717 491.404H213.211L211.159 499.508Z" fill="#BCBEC0"/>
<path d="M233.403 499.508H216.237C216.977 496.263 217.364 494.649 218.103 491.404H234.597C234.126 494.649 233.891 496.263 233.403 499.508Z" fill="#BCBEC0"/>
<path d="M255.613 499.508H238.464C238.867 496.263 239.052 494.649 239.456 491.404H255.949L255.613 499.508Z" fill="#BCBEC0"/>
<path d="M277.907 499.508H260.741C260.741 496.263 260.741 494.649 260.876 491.404H277.369C277.588 494.649 277.689 496.263 277.907 499.508Z" fill="#BCBEC0"/>
<path d="M300.168 499.508H283.002C282.716 496.263 282.565 494.649 282.262 491.404H298.756C299.328 494.649 299.597 496.263 300.168 499.508Z" fill="#BCBEC0"/>
<path d="M322.412 499.508H305.229C304.607 496.263 304.287 494.649 303.648 491.404H320.142L322.412 499.508Z" fill="#BCBEC0"/>
<path d="M114.803 510.319H96.7461L102.933 502.199H120.318L114.803 510.319Z" fill="#BCBEC0"/>
<path d="M138.207 510.319H120.167C122.285 507.075 123.344 505.444 125.479 502.199H142.864L138.207 510.319Z" fill="#BCBEC0"/>
<path d="M161.611 510.319H143.554L148.009 502.199H165.394L161.611 510.319Z" fill="#BCBEC0"/>
<path d="M184.998 510.571H166.84L170.539 502.165H187.94L184.998 510.571Z" fill="#BCBEC0"/>
<path d="M325.421 510.319H190.344C191.437 507.075 192.026 505.444 193.068 502.199H323.168C324.076 505.444 324.547 507.075 325.421 510.319Z" fill="#BCBEC0"/>
<path d="M334.416 477.886H319.032C318.074 474.641 317.603 473.027 316.662 469.782H331.373C332.6 473.027 333.206 474.641 334.416 477.886Z" fill="#BCBEC0"/>
<path d="M338.485 488.697H322.193C321.251 485.452 320.781 483.838 319.822 480.593H335.442C336.652 483.838 337.257 485.452 338.485 488.697Z" fill="#BCBEC0"/>
<path d="M342.537 499.508H325.371L322.983 491.404H339.494C340.721 494.649 341.36 496.263 342.537 499.508Z" fill="#BCBEC0"/>
<path d="M346.589 510.319H328.531C327.59 507.075 327.102 505.444 326.161 502.199H343.545C344.722 505.444 345.378 507.075 346.589 510.319Z" fill="#BCBEC0"/>
<path d="M352.457 477.886H337.073L333.912 469.782H348.64L352.457 477.886Z" fill="#BCBEC0"/>
<path d="M357.568 488.697H341.36L338.216 480.593H353.818L357.568 488.697Z" fill="#BCBEC0"/>
<path d="M362.662 499.508H345.496L342.335 491.404H358.829C360.376 494.649 361.132 496.263 362.662 499.508Z" fill="#BCBEC0"/>
<path d="M367.756 510.319H349.766L346.605 502.199H364.007L367.756 510.319Z" fill="#BCBEC0"/>
<path d="M370.514 477.886H355.113C353.55 474.641 352.759 473.027 351.179 469.782H365.907C367.74 473.027 368.665 474.641 370.514 477.886Z" fill="#BCBEC0"/>
<path d="M376.667 488.697H360.392C358.812 485.452 358.022 483.838 356.458 480.593H372.061L376.667 488.697Z" fill="#BCBEC0"/>
<path d="M382.788 499.508H365.622C364.041 496.263 363.251 494.649 361.687 491.404H378.181C380.03 494.649 380.955 496.263 382.788 499.508Z" fill="#BCBEC0"/>
<path d="M388.924 510.319H370.867C369.303 507.075 368.513 505.444 366.933 502.199H384.317L388.924 510.319Z" fill="#BCBEC0"/>
<path d="M388.554 477.886H373.17L368.446 469.782H383.157L388.554 477.886Z" fill="#BCBEC0"/>
<path d="M395.734 488.697H379.459L374.734 480.593H390.353L395.734 488.697Z" fill="#BCBEC0"/>
<path d="M402.913 499.508H385.747L381.039 491.404H397.533L402.913 499.508Z" fill="#BCBEC0"/>
<path d="M410.092 510.319H392.035L387.327 502.199H404.712L410.092 510.319Z" fill="#BCBEC0"/>
<path d="M406.595 477.886H391.194C389.008 474.641 387.831 473.027 385.696 469.782H400.424L406.595 477.886Z" fill="#BCBEC0"/>
<path d="M414.817 488.697H398.525L393.027 480.593H408.613L414.817 488.697Z" fill="#BCBEC0"/>
<path d="M423.038 499.508H405.872L400.374 491.404H416.868C419.339 494.649 420.584 496.263 423.038 499.508Z" fill="#BCBEC0"/>
<path d="M431.26 510.319H413.202L407.705 502.199H425.106L431.26 510.319Z" fill="#BCBEC0"/>
<path d="M424.635 477.886H409.251L402.963 469.782H417.691L424.635 477.886Z" fill="#BCBEC0"/>
<path d="M433.832 488.697H417.557L411.269 480.593H426.888L433.832 488.697Z" fill="#BCBEC0"/>
<path d="M443.163 499.508H425.997L419.726 491.404H436.219L443.163 499.508Z" fill="#BCBEC0"/>
<path d="M452.428 510.319H434.37L428.099 502.199H445.484L452.428 510.319Z" fill="#BCBEC0"/>
</svg>
