<svg width="631" height="559" viewBox="0 0 631 559" fill="none" xmlns="http://www.w3.org/2000/svg">
<circle cx="297.642" cy="279.358" r="279.358" fill="#ECF7FF"/>
<path d="M42.3215 257.346L43.4068 257.317C43.0506 244.459 54.9554 231.018 55.0769 230.884L54.2514 230.159C53.7653 230.721 41.9569 244.052 42.3215 257.346Z" fill="#39AE96"/>
<path d="M47.09 305.456L48.167 305.321C46.4573 291.365 66.0974 277.66 66.2944 277.547L65.6784 276.655C64.8487 277.225 45.3008 290.85 47.09 305.456Z" fill="#39AE96"/>
<path d="M44.7937 276.705L45.8707 276.592C45.217 270.422 37.2344 264.626 36.8949 264.383L36.2622 265.263C36.3418 265.318 44.1945 271.013 44.7937 276.705Z" fill="#39AE96"/>
<path d="M45.506 283.498L46.5871 283.41C45.5688 271.307 55.0767 262.795 55.1731 262.711L54.4566 261.898C54.356 261.982 44.4416 270.858 45.506 283.498Z" fill="#39AE96"/>
<path d="M38.3491 394.826L38.5754 394.687C34.5443 387.982 25.9708 389.168 25.8828 389.18L25.9247 389.449C26.0085 389.432 34.4102 388.279 38.3491 394.826Z" fill="#F9A876"/>
<path d="M326.02 440.332H219.586C219.586 440.332 217.428 475.906 213.116 483.454H332.49C328.174 475.919 326.02 440.332 326.02 440.332Z" fill="url(#paint0_linear)"/>
<path d="M342.455 486.434C335.985 485.625 332.486 483.471 332.486 483.471H213.107C213.107 483.471 209.604 485.625 203.138 486.434C196.673 487.243 192.357 487.779 192.357 491.015H353.232C353.232 487.775 348.921 487.239 342.455 486.434Z" fill="url(#paint1_linear)"/>
<path d="M507.429 428.484C507.43 430.042 507.123 431.584 506.528 433.023C505.932 434.462 505.059 435.769 503.958 436.871C502.858 437.972 501.551 438.846 500.112 439.442C498.674 440.038 497.132 440.345 495.575 440.345H50.019C48.4619 440.345 46.9201 440.038 45.4816 439.442C44.043 438.846 42.736 437.972 41.6352 436.871C40.5343 435.769 39.6612 434.462 39.0657 433.023C38.4702 431.584 38.164 430.042 38.1646 428.484V128.861C38.164 127.303 38.4702 125.761 39.0657 124.322C39.6612 122.883 40.5343 121.576 41.6352 120.474C42.736 119.373 44.043 118.499 45.4816 117.903C46.9201 117.307 48.4619 117 50.019 117H495.575C497.132 117 498.674 117.307 500.112 117.903C501.551 118.499 502.858 119.373 503.958 120.474C505.059 121.576 505.932 122.883 506.528 124.322C507.123 125.761 507.43 127.303 507.429 128.861V428.484Z" fill="url(#paint2_linear)"/>
<path d="M495.575 117H50.019C48.4619 117 46.9201 117.307 45.4816 117.903C44.043 118.499 42.736 119.373 41.6352 120.474C40.5343 121.576 39.6612 122.883 39.0657 124.322C38.4702 125.761 38.164 127.303 38.1646 128.861V397.927H507.429V128.861C507.43 127.303 507.123 125.761 506.528 124.322C505.932 122.883 505.059 121.576 503.958 120.474C502.858 119.373 501.551 118.499 500.112 117.903C498.674 117.307 497.132 117 495.575 117V117ZM488.032 381.087H57.6036V133.856H488.011L488.032 381.087Z" fill="url(#paint3_linear)"/>
<path d="M57.5869 133.856V381.087H252.509H488.011V133.856H403.655H57.5869Z" fill="url(#paint4_linear)"/>
<path opacity="0.15" d="M326.02 440.332H219.586C219.586 440.332 219.263 445.621 218.622 452.549H326.98C326.339 445.634 326.02 440.332 326.02 440.332Z" fill="black"/>
<path d="M272.857 427.851C277.116 427.851 280.568 424.399 280.568 420.14C280.568 415.881 277.116 412.428 272.857 412.428C268.599 412.428 265.147 415.881 265.147 420.14C265.147 424.399 268.599 427.851 272.857 427.851Z" fill="url(#paint5_linear)"/>
<path d="M67.7816 187.309H67.3625V330.241H67.7816V187.309Z" fill="#6C3B75"/>
<path d="M93.41 201.173H92.991V296.373H93.41V201.173Z" fill="#6C3B75"/>
<path d="M118.707 210.327H118.288V281.206H118.707V210.327Z" fill="#6C3B75"/>
<path d="M118.121 303.305H117.702V374.184H118.121V303.305Z" fill="#6C3B75"/>
<path d="M133.625 327.127H133.206V374.989H133.625V327.127Z" fill="#6C3B75"/>
<path d="M171.397 160.424C171.07 160.859 170.654 161.218 170.176 161.477C169.698 161.736 169.169 161.888 168.627 161.924V160.906C170.378 160.78 171.191 159.736 171.652 158.416H172.566V176.241H171.397V160.424Z" fill="url(#paint6_linear)"/>
<path d="M176.99 162.787C176.99 160.168 178.189 158.286 180.908 158.286C183.628 158.286 184.822 160.168 184.822 162.787V171.89C184.822 174.485 183.628 176.392 180.908 176.392C178.189 176.392 176.99 174.485 176.99 171.89V162.787ZM178.164 171.945C178.164 173.902 178.952 175.327 180.908 175.327C182.865 175.327 183.653 173.902 183.653 171.945V162.724C183.653 160.792 182.865 159.372 180.908 159.372C178.952 159.372 178.164 160.797 178.164 162.724V171.945Z" fill="url(#paint7_linear)"/>
<path d="M192.046 160.424C191.72 160.859 191.304 161.218 190.826 161.477C190.348 161.736 189.819 161.888 189.277 161.924V160.906C191.028 160.78 191.845 159.736 192.302 158.416H193.216V176.241H192.046V160.424Z" fill="url(#paint8_linear)"/>
<path d="M197.645 162.787C197.645 160.168 198.839 158.286 201.559 158.286C204.278 158.286 205.472 160.168 205.472 162.787V171.89C205.472 174.485 204.278 176.392 201.559 176.392C198.839 176.392 197.645 174.485 197.645 171.89V162.787ZM198.818 171.945C198.818 173.902 199.606 175.327 201.563 175.327C203.52 175.327 204.307 173.902 204.307 171.945V162.724C204.307 160.792 203.52 159.372 201.563 159.372C199.606 159.372 198.818 160.797 198.818 162.724V171.945Z" fill="url(#paint9_linear)"/>
<path d="M212.697 160.424C212.37 160.859 211.954 161.218 211.476 161.477C210.998 161.736 210.469 161.888 209.927 161.924V160.906C211.683 160.78 212.495 159.736 212.952 158.416H213.866V176.241H212.697V160.424Z" fill="url(#paint10_linear)"/>
<path d="M221.752 160.424C221.426 160.859 221.009 161.218 220.531 161.477C220.053 161.736 219.525 161.888 218.982 161.924V160.906C220.734 160.78 221.551 159.736 222.008 158.416H222.921V176.241H221.752V160.424Z" fill="url(#paint11_linear)"/>
<path d="M227.346 162.787C227.346 160.168 228.544 158.286 231.264 158.286C233.983 158.286 235.178 160.168 235.178 162.787V171.89C235.178 174.485 233.983 176.392 231.264 176.392C228.544 176.392 227.346 174.485 227.346 171.89V162.787ZM228.519 171.945C228.519 173.902 229.303 175.327 231.264 175.327C233.225 175.327 234.009 173.902 234.009 171.945V162.724C234.009 160.792 233.221 159.372 231.264 159.372C229.307 159.372 228.519 160.797 228.519 162.724V171.945Z" fill="url(#paint12_linear)"/>
<path d="M242.398 160.424C242.072 160.859 241.655 161.218 241.177 161.477C240.699 161.736 240.171 161.888 239.628 161.924V160.906C241.38 160.78 242.197 159.736 242.654 158.416H243.567V176.241H242.398V160.424Z" fill="url(#paint13_linear)"/>
<path d="M248 162.787C248 160.168 249.195 158.286 251.914 158.286C254.634 158.286 255.832 160.168 255.832 162.787V171.89C255.832 174.485 254.634 176.392 251.914 176.392C249.195 176.392 248 174.485 248 171.89V162.787ZM249.169 171.945C249.169 173.902 249.957 175.327 251.914 175.327C253.871 175.327 254.659 173.902 254.659 171.945V162.724C254.659 160.792 253.871 159.372 251.914 159.372C249.957 159.372 249.169 160.797 249.169 162.724V171.945Z" fill="url(#paint14_linear)"/>
<path d="M263.052 160.424C262.726 160.859 262.309 161.218 261.831 161.477C261.353 161.736 260.825 161.888 260.282 161.924V160.906C262.038 160.78 262.851 159.736 263.308 158.416H264.221V176.241H263.052V160.424Z" fill="url(#paint15_linear)"/>
<path d="M268.65 162.787C268.65 160.168 269.845 158.286 272.564 158.286C275.284 158.286 276.482 160.168 276.482 162.787V171.89C276.482 174.485 275.284 176.392 272.564 176.392C269.845 176.392 268.65 174.485 268.65 171.89V162.787ZM269.819 171.945C269.819 173.902 270.607 175.327 272.564 175.327C274.521 175.327 275.309 173.902 275.309 171.945V162.724C275.309 160.792 274.521 159.372 272.564 159.372C270.607 159.372 269.819 160.797 269.819 162.724V171.945Z" fill="url(#paint16_linear)"/>
<path d="M283.707 160.424C283.379 160.858 282.961 161.217 282.483 161.475C282.004 161.734 281.475 161.887 280.933 161.924V160.906C282.688 160.78 283.501 159.736 283.958 158.416H284.876V176.241H283.707V160.424Z" fill="url(#paint17_linear)"/>
<path d="M289.301 162.787C289.301 160.168 290.495 158.286 293.219 158.286C295.942 158.286 297.132 160.168 297.132 162.787V171.89C297.132 174.485 295.938 176.392 293.219 176.392C290.499 176.392 289.301 174.485 289.301 171.89V162.787ZM290.47 171.945C290.47 173.902 291.257 175.327 293.219 175.327C295.18 175.327 295.963 173.902 295.963 171.945V162.724C295.963 160.792 295.175 159.372 293.219 159.372C291.262 159.372 290.47 160.797 290.47 162.724V171.945Z" fill="url(#paint18_linear)"/>
<path d="M304.356 160.424C304.03 160.859 303.612 161.219 303.134 161.478C302.655 161.737 302.126 161.889 301.582 161.924V160.906C303.338 160.78 304.151 159.736 304.608 158.416H305.525V176.241H304.356V160.424Z" fill="url(#paint19_linear)"/>
<path d="M309.95 162.787C309.95 160.168 311.145 158.286 313.868 158.286C316.592 158.286 317.782 160.168 317.782 162.787V171.89C317.782 174.485 316.588 176.392 313.868 176.392C311.149 176.392 309.95 174.485 309.95 171.89V162.787ZM311.12 171.945C311.12 173.902 311.907 175.327 313.868 175.327C315.829 175.327 316.613 173.902 316.613 171.945V162.724C316.613 160.792 315.825 159.372 313.868 159.372C311.912 159.372 311.12 160.797 311.12 162.724V171.945Z" fill="url(#paint20_linear)"/>
<path d="M325.006 160.424C324.68 160.859 324.264 161.218 323.786 161.477C323.308 161.736 322.779 161.888 322.237 161.924V160.906C323.988 160.78 324.801 159.736 325.262 158.416H326.175V176.241H325.006V160.424Z" fill="url(#paint21_linear)"/>
<path d="M333.383 160.424C333.057 160.859 332.64 161.218 332.162 161.477C331.684 161.736 331.156 161.888 330.613 161.924V160.906C332.365 160.78 333.182 159.736 333.638 158.416H334.552V176.241H333.383V160.424Z" fill="url(#paint22_linear)"/>
<path d="M338.981 162.787C338.981 160.168 340.175 158.286 342.895 158.286C345.614 158.286 346.813 160.168 346.813 162.787V171.89C346.813 174.485 345.614 176.392 342.895 176.392C340.175 176.392 338.981 174.485 338.981 171.89V162.787ZM340.15 171.945C340.15 173.902 340.938 175.327 342.895 175.327C344.852 175.327 345.64 173.902 345.64 171.945V162.724C345.64 160.792 344.852 159.372 342.895 159.372C340.938 159.372 340.15 160.797 340.15 162.724V171.945Z" fill="url(#paint23_linear)"/>
<path d="M354.033 160.424C353.706 160.859 353.29 161.218 352.812 161.477C352.334 161.736 351.805 161.888 351.263 161.924V160.906C353.019 160.78 353.832 159.736 354.288 158.416H355.202V176.241H354.033V160.424Z" fill="url(#paint24_linear)"/>
<path d="M359.631 162.787C359.631 160.168 360.826 158.286 363.545 158.286C366.265 158.286 367.463 160.168 367.463 162.787V171.89C367.463 174.485 366.265 176.392 363.545 176.392C360.826 176.392 359.631 174.485 359.631 171.89V162.787ZM360.8 171.945C360.8 173.902 361.588 175.327 363.545 175.327C365.502 175.327 366.29 173.902 366.29 171.945V162.724C366.29 160.792 365.502 159.372 363.545 159.372C361.588 159.372 360.8 160.797 360.8 162.724V171.945Z" fill="url(#paint25_linear)"/>
<path d="M374.683 160.424C374.357 160.859 373.94 161.218 373.462 161.477C372.984 161.736 372.456 161.888 371.913 161.924V160.906C373.669 160.78 374.482 159.736 374.939 158.416H375.856V176.241H374.683V160.424Z" fill="url(#paint26_linear)"/>
<path d="M275.699 291.797H156.508C156.277 291.797 156.089 291.985 156.089 292.216V299.223C156.089 299.455 156.277 299.642 156.508 299.642H275.699C275.93 299.642 276.118 299.455 276.118 299.223V292.216C276.118 291.985 275.93 291.797 275.699 291.797Z" fill="url(#paint27_linear)"/>
<path d="M227.061 303.305H182.137C181.905 303.305 181.718 303.493 181.718 303.724V310.732C181.718 310.963 181.905 311.151 182.137 311.151H227.061C227.293 311.151 227.48 310.963 227.48 310.732V303.724C227.48 303.493 227.293 303.305 227.061 303.305Z" fill="url(#paint28_linear)"/>
<path d="M241.966 314.814H182.137C181.905 314.814 181.718 315.002 181.718 315.233V322.241C181.718 322.472 181.905 322.66 182.137 322.66H241.966C242.198 322.66 242.385 322.472 242.385 322.241V315.233C242.385 315.002 242.198 314.814 241.966 314.814Z" fill="url(#paint29_linear)"/>
<path d="M275.699 197.25H156.508C156.277 197.25 156.089 197.438 156.089 197.67V204.677C156.089 204.909 156.277 205.096 156.508 205.096H275.699C275.93 205.096 276.118 204.909 276.118 204.677V197.67C276.118 197.438 275.93 197.25 275.699 197.25Z" fill="url(#paint30_linear)"/>
<path d="M178.16 208.759H118.33C118.098 208.759 117.911 208.947 117.911 209.178V216.186C117.911 216.417 118.098 216.605 118.33 216.605H178.16C178.391 216.605 178.579 216.417 178.579 216.186V209.178C178.579 208.947 178.391 208.759 178.16 208.759Z" fill="url(#paint31_linear)"/>
<path d="M178.16 220.268H118.33C118.098 220.268 117.911 220.456 117.911 220.687V227.695C117.911 227.926 118.098 228.114 118.33 228.114H178.16C178.391 228.114 178.579 227.926 178.579 227.695V220.687C178.579 220.456 178.391 220.268 178.16 220.268Z" fill="url(#paint32_linear)"/>
<path d="M178.16 303.305H118.33C118.098 303.305 117.911 303.493 117.911 303.724V310.732C117.911 310.963 118.098 311.151 118.33 311.151H178.16C178.391 311.151 178.579 310.963 178.579 310.732V303.724C178.579 303.493 178.391 303.305 178.16 303.305Z" fill="url(#paint33_linear)"/>
<path d="M178.16 314.814H118.33C118.098 314.814 117.911 315.002 117.911 315.233V322.241C117.911 322.472 118.098 322.66 118.33 322.66H178.16C178.391 322.66 178.579 322.472 178.579 322.241V315.233C178.579 315.002 178.391 314.814 178.16 314.814Z" fill="url(#paint34_linear)"/>
<path d="M227.061 208.759H182.137C181.905 208.759 181.718 208.947 181.718 209.178V216.186C181.718 216.417 181.905 216.605 182.137 216.605H227.061C227.293 216.605 227.48 216.417 227.48 216.186V209.178C227.48 208.947 227.293 208.759 227.061 208.759Z" fill="url(#paint35_linear)"/>
<path d="M241.966 220.268H182.137C181.905 220.268 181.718 220.456 181.718 220.687V227.695C181.718 227.926 181.905 228.114 182.137 228.114H241.966C242.198 228.114 242.385 227.926 242.385 227.695V220.687C242.385 220.456 242.198 220.268 241.966 220.268Z" fill="url(#paint36_linear)"/>
<path d="M289.556 326.323H205.67C205.438 326.323 205.25 326.51 205.25 326.742V333.749C205.25 333.981 205.438 334.168 205.67 334.168H289.556C289.788 334.168 289.975 333.981 289.975 333.749V326.742C289.975 326.51 289.788 326.323 289.556 326.323Z" fill="url(#paint37_linear)"/>
<path d="M277.006 337.832H205.67C205.438 337.832 205.25 338.019 205.25 338.251V345.258C205.25 345.49 205.438 345.677 205.67 345.677H277.006C277.237 345.677 277.425 345.49 277.425 345.258V338.251C277.425 338.019 277.237 337.832 277.006 337.832Z" fill="url(#paint38_linear)"/>
<path d="M265.499 360.844H205.67C205.438 360.844 205.25 361.032 205.25 361.264V368.271C205.25 368.503 205.438 368.69 205.67 368.69H265.499C265.731 368.69 265.918 368.503 265.918 368.271V361.264C265.918 361.032 265.731 360.844 265.499 360.844Z" fill="url(#paint39_linear)"/>
<path d="M201.693 231.772H141.863C141.631 231.772 141.444 231.96 141.444 232.192V239.199C141.444 239.43 141.631 239.618 141.863 239.618H201.693C201.924 239.618 202.112 239.43 202.112 239.199V232.192C202.112 231.96 201.924 231.772 201.693 231.772Z" fill="url(#paint40_linear)"/>
<path d="M201.693 243.281H141.863C141.631 243.281 141.444 243.468 141.444 243.7V250.707C141.444 250.939 141.631 251.126 141.863 251.126H201.693C201.924 251.126 202.112 250.939 202.112 250.707V243.7C202.112 243.468 201.924 243.281 201.693 243.281Z" fill="url(#paint41_linear)"/>
<path d="M201.693 254.79H141.863C141.631 254.79 141.444 254.977 141.444 255.209V262.216C141.444 262.448 141.631 262.636 141.863 262.636H201.693C201.924 262.636 202.112 262.448 202.112 262.216V255.209C202.112 254.977 201.924 254.79 201.693 254.79Z" fill="url(#paint42_linear)"/>
<path d="M183.976 266.298H141.863C141.631 266.298 141.444 266.486 141.444 266.717V273.725C141.444 273.956 141.631 274.144 141.863 274.144H183.976C184.207 274.144 184.395 273.956 184.395 273.725V266.717C184.395 266.486 184.207 266.298 183.976 266.298Z" fill="url(#paint43_linear)"/>
<path d="M152.532 291.797H92.7017C92.4703 291.797 92.2827 291.985 92.2827 292.216V299.223C92.2827 299.455 92.4703 299.642 92.7017 299.642H152.532C152.763 299.642 152.951 299.455 152.951 299.223V292.216C152.951 291.985 152.763 291.797 152.532 291.797Z" fill="url(#paint44_linear)"/>
<path d="M275.699 303.305H230.774C230.543 303.305 230.355 303.493 230.355 303.724V310.732C230.355 310.963 230.543 311.151 230.774 311.151H275.699C275.93 311.151 276.118 310.963 276.118 310.732V303.724C276.118 303.493 275.93 303.305 275.699 303.305Z" fill="url(#paint45_linear)"/>
<path d="M201.693 326.323H141.863C141.631 326.323 141.444 326.51 141.444 326.742V333.749C141.444 333.981 141.631 334.168 141.863 334.168H201.693C201.924 334.168 202.112 333.981 202.112 333.749V326.742C202.112 326.51 201.924 326.323 201.693 326.323Z" fill="url(#paint46_linear)"/>
<path d="M201.693 337.832H141.863C141.631 337.832 141.444 338.019 141.444 338.251V345.258C141.444 345.49 141.631 345.677 141.863 345.677H201.693C201.924 345.677 202.112 345.49 202.112 345.258V338.251C202.112 338.019 201.924 337.832 201.693 337.832Z" fill="url(#paint47_linear)"/>
<path d="M201.693 349.336H141.863C141.631 349.336 141.444 349.524 141.444 349.755V356.763C141.444 356.994 141.631 357.182 141.863 357.182H201.693C201.924 357.182 202.112 356.994 202.112 356.763V349.755C202.112 349.524 201.924 349.336 201.693 349.336Z" fill="url(#paint48_linear)"/>
<path d="M183.976 360.844H141.863C141.631 360.844 141.444 361.032 141.444 361.264V368.271C141.444 368.503 141.631 368.69 141.863 368.69H183.976C184.207 368.69 184.395 368.503 184.395 368.271V361.264C184.395 361.032 184.207 360.844 183.976 360.844Z" fill="url(#paint49_linear)"/>
<path d="M152.532 197.25H92.7017C92.4703 197.25 92.2827 197.438 92.2827 197.67V204.677C92.2827 204.909 92.4703 205.096 92.7017 205.096H152.532C152.763 205.096 152.951 204.909 152.951 204.677V197.67C152.951 197.438 152.763 197.25 152.532 197.25Z" fill="url(#paint50_linear)"/>
<path d="M243.01 231.772H205.67C205.438 231.772 205.25 231.96 205.25 232.192V239.199C205.25 239.43 205.438 239.618 205.67 239.618H243.01C243.241 239.618 243.429 239.43 243.429 239.199V232.192C243.429 231.96 243.241 231.772 243.01 231.772Z" fill="url(#paint51_linear)"/>
<path d="M277.006 243.281H205.67C205.438 243.281 205.25 243.468 205.25 243.7V250.707C205.25 250.939 205.438 251.126 205.67 251.126H277.006C277.237 251.126 277.425 250.939 277.425 250.707V243.7C277.425 243.468 277.237 243.281 277.006 243.281Z" fill="url(#paint52_linear)"/>
<path d="M265.499 254.79H205.67C205.438 254.79 205.25 254.977 205.25 255.209V262.216C205.25 262.448 205.438 262.636 205.67 262.636H265.499C265.731 262.636 265.918 262.448 265.918 262.216V255.209C265.918 254.977 265.731 254.79 265.499 254.79Z" fill="url(#paint53_linear)"/>
<path d="M265.499 266.298H205.67C205.438 266.298 205.25 266.486 205.25 266.717V273.725C205.25 273.956 205.438 274.144 205.67 274.144H265.499C265.731 274.144 265.918 273.956 265.918 273.725V266.717C265.918 266.486 265.731 266.298 265.499 266.298Z" fill="url(#paint54_linear)"/>
<path d="M284 231.772H246.66C246.428 231.772 246.24 231.96 246.24 232.192V239.199C246.24 239.43 246.428 239.618 246.66 239.618H284C284.231 239.618 284.419 239.43 284.419 239.199V232.192C284.419 231.96 284.231 231.772 284 231.772Z" fill="url(#paint55_linear)"/>
<path d="M275.699 208.759H230.774C230.543 208.759 230.355 208.947 230.355 209.178V216.186C230.355 216.417 230.543 216.605 230.774 216.605H275.699C275.93 216.605 276.118 216.417 276.118 216.186V209.178C276.118 208.947 275.93 208.759 275.699 208.759Z" fill="url(#paint56_linear)"/>
<path d="M126.908 185.742H67.0777C66.8463 185.742 66.6587 185.929 66.6587 186.161V193.168C66.6587 193.4 66.8463 193.587 67.0777 193.587H126.908C127.139 193.587 127.327 193.4 127.327 193.168V186.161C127.327 185.929 127.139 185.742 126.908 185.742Z" fill="url(#paint57_linear)"/>
<path d="M265.499 349.336H205.67C205.438 349.336 205.25 349.524 205.25 349.755V356.763C205.25 356.994 205.438 357.182 205.67 357.182H265.499C265.731 357.182 265.918 356.994 265.918 356.763V349.755C265.918 349.524 265.731 349.336 265.499 349.336Z" fill="url(#paint58_linear)"/>
<path d="M76.7192 153.807C78.2734 151.212 77.4298 147.848 74.8349 146.293C72.24 144.739 68.8765 145.582 67.3223 148.178C65.768 150.773 66.6116 154.137 69.2065 155.692C71.8014 157.246 75.1649 156.402 76.7192 153.807Z" fill="url(#paint59_linear)"/>
<path d="M93.49 151.995C94.049 149.021 92.0923 146.158 89.1197 145.599C86.147 145.04 83.2841 146.997 82.7251 149.97C82.166 152.943 84.1227 155.807 87.0953 156.366C90.068 156.925 92.931 154.968 93.49 151.995Z" fill="url(#paint60_linear)"/>
<path d="M109.595 151.996C110.143 149.021 108.177 146.164 105.202 145.615C102.228 145.067 99.3716 147.034 98.823 150.009C98.2743 152.984 100.241 155.84 103.216 156.389C106.19 156.938 109.046 154.971 109.595 151.996Z" fill="url(#paint61_linear)"/>
<path opacity="0.1" d="M521.756 191.446H339.476C336.652 191.446 333.944 192.568 331.947 194.565C329.95 196.562 328.828 199.271 328.828 202.095V471.535C328.828 474.363 329.951 477.075 331.95 479.074C333.95 481.074 336.661 482.197 339.488 482.197H521.769C523.168 482.197 524.555 481.921 525.848 481.385C527.141 480.849 528.317 480.064 529.306 479.074C530.296 478.084 531.082 476.909 531.617 475.615C532.153 474.321 532.429 472.935 532.429 471.535V202.095C532.429 200.695 532.153 199.308 531.616 198.014C531.079 196.72 530.293 195.545 529.301 194.556C528.31 193.567 527.133 192.783 525.838 192.249C524.544 191.716 523.156 191.443 521.756 191.446V191.446Z" fill="black"/>
<path d="M534.955 199.715H352.692C346.804 199.715 342.032 204.488 342.032 210.377V479.8C342.032 485.688 346.804 490.462 352.692 490.462H534.955C540.843 490.462 545.616 485.688 545.616 479.8V210.377C545.616 204.488 540.843 199.715 534.955 199.715Z" fill="url(#paint62_linear)"/>
<path d="M396.988 250.913H368.716V254.266H396.988V250.913Z" fill="url(#paint63_linear)"/>
<path d="M416.536 267.468H389.932V270.82H416.536V267.468Z" fill="url(#paint64_linear)"/>
<path d="M416.536 275.732H389.932V279.085H416.536V275.732Z" fill="url(#paint65_linear)"/>
<path d="M434.274 284.018H408.399V287.371H434.274V284.018Z" fill="url(#paint66_linear)"/>
<path d="M449.058 259.178H421.929V262.531H449.058V259.178Z" fill="url(#paint67_linear)"/>
<path d="M416.536 300.573H389.932V303.926H416.536V300.573Z" fill="url(#paint68_linear)"/>
<path d="M416.536 308.858H389.932V312.211H416.536V308.858Z" fill="url(#paint69_linear)"/>
<path d="M416.536 317.128H389.932V320.481H416.536V317.128Z" fill="url(#paint70_linear)"/>
<path d="M416.536 325.413H389.932V328.766H416.536V325.413Z" fill="url(#paint71_linear)"/>
<path d="M396.988 341.968H368.716V345.321H396.988V341.968Z" fill="url(#paint72_linear)"/>
<path d="M416.536 358.523H389.932V361.876H416.536V358.523Z" fill="url(#paint73_linear)"/>
<path d="M416.536 366.787H389.932V370.161H416.536V366.787Z" fill="url(#paint74_linear)"/>
<path d="M434.274 375.073H408.399V378.426H434.274V375.073Z" fill="url(#paint75_linear)"/>
<path d="M449.058 350.233H421.929V353.586H449.058V350.233Z" fill="url(#paint76_linear)"/>
<path d="M416.536 391.628H389.932V394.981H416.536V391.628Z" fill="url(#paint77_linear)"/>
<path d="M416.536 399.914H389.932V403.266H416.536V399.914Z" fill="url(#paint78_linear)"/>
<path d="M396.988 413.493H368.716V416.846H396.988V413.493Z" fill="url(#paint79_linear)"/>
<path d="M416.536 430.047H389.932V433.4H416.536V430.047Z" fill="url(#paint80_linear)"/>
<path d="M416.536 438.312H389.932V441.665H416.536V438.312Z" fill="url(#paint81_linear)"/>
<path d="M434.274 446.598H408.399V449.951H434.274V446.598Z" fill="url(#paint82_linear)"/>
<path d="M449.058 421.758H421.929V425.11H449.058V421.758Z" fill="url(#paint83_linear)"/>
<path d="M416.536 463.153H389.932V466.506H416.536V463.153Z" fill="url(#paint84_linear)"/>
<path d="M416.536 471.438H389.932V474.791H416.536V471.438Z" fill="url(#paint85_linear)"/>
<path d="M498.562 267.468H483.054V270.82H498.562V267.468Z" fill="url(#paint86_linear)"/>
<path d="M460.904 284.018H441.666V287.371H460.904V284.018Z" fill="url(#paint87_linear)"/>
<path d="M465.274 308.858H453.948V312.211H465.274V308.858Z" fill="url(#paint88_linear)"/>
<path d="M433.256 341.968H406.504V345.321H433.256V341.968Z" fill="url(#paint89_linear)"/>
<path d="M484.889 358.523H462.362V361.876H484.889V358.523Z" fill="url(#paint90_linear)"/>
<path d="M486.804 391.628H474.853V394.981H486.804V391.628Z" fill="url(#paint91_linear)"/>
<path d="M465.274 399.914H453.948V403.266H465.274V399.914Z" fill="url(#paint92_linear)"/>
<path d="M453.616 413.493H440.107V416.846H453.616V413.493Z" fill="url(#paint93_linear)"/>
<path d="M445.349 438.312H424.657V441.665H445.349V438.312Z" fill="url(#paint94_linear)"/>
<path d="M504.496 430.047H490.797V433.4H504.496V430.047Z" fill="url(#paint95_linear)"/>
<path d="M486.804 463.153H474.853V466.506H486.804V463.153Z" fill="url(#paint96_linear)"/>
<path d="M465.274 471.438H453.948V474.791H465.274V471.438Z" fill="url(#paint97_linear)"/>
<path d="M414.307 259.178H368.716V262.531H414.307V259.178Z" fill="url(#paint98_linear)"/>
<path d="M454.719 250.913H406.504V254.266H454.719V250.913Z" fill="url(#paint99_linear)"/>
<path d="M440.186 267.468H424.657V270.82H440.186V267.468Z" fill="url(#paint100_linear)"/>
<path d="M490.776 275.732H457.174V279.085H490.776V275.732Z" fill="url(#paint101_linear)"/>
<path d="M448.617 308.858H424.657V312.211H448.617V308.858Z" fill="url(#paint102_linear)"/>
<path d="M486.804 300.573H474.853V303.926H486.804V300.573Z" fill="url(#paint103_linear)"/>
<path d="M473.437 325.413H424.657V328.766H473.437V325.413Z" fill="url(#paint104_linear)"/>
<path d="M477.141 317.128H447.578V320.481H477.141V317.128Z" fill="url(#paint105_linear)"/>
<path d="M414.307 350.233H368.716V353.586H414.307V350.233Z" fill="url(#paint106_linear)"/>
<path d="M505.33 341.968H462.362V345.321H505.33V341.968Z" fill="url(#paint107_linear)"/>
<path d="M490.781 366.787H451.266V370.161H490.781V366.787Z" fill="url(#paint108_linear)"/>
<path d="M468.459 391.628H424.657V394.981H468.459V391.628Z" fill="url(#paint109_linear)"/>
<path d="M448.617 399.914H424.657V403.266H448.617V399.914Z" fill="url(#paint110_linear)"/>
<path d="M414.307 421.758H368.716V425.11H414.307V421.758Z" fill="url(#paint111_linear)"/>
<path d="M433.256 413.493H406.504V416.846H433.256V413.493Z" fill="url(#paint112_linear)"/>
<path d="M454.97 430.047H424.657V433.4H454.97V430.047Z" fill="url(#paint113_linear)"/>
<path d="M490.781 438.312H451.266V441.665H490.781V438.312Z" fill="url(#paint114_linear)"/>
<path d="M468.459 463.153H424.657V466.506H468.459V463.153Z" fill="url(#paint115_linear)"/>
<path d="M484.617 250.913H461.591V254.266H484.617V250.913Z" fill="url(#paint116_linear)"/>
<path d="M524.442 250.913H493.358V254.266H524.442V250.913Z" fill="url(#paint117_linear)"/>
<path d="M451.262 275.732H424.657V279.085H451.262V275.732Z" fill="url(#paint118_linear)"/>
<path d="M477.141 267.468H447.578V270.82H477.141V267.468Z" fill="url(#paint119_linear)"/>
<path d="M524.442 267.468H505.225V270.82H524.442V267.468Z" fill="url(#paint120_linear)"/>
<path d="M505.833 275.732H495.797V279.085H505.833V275.732Z" fill="url(#paint121_linear)"/>
<path d="M440.186 300.573H424.657V303.926H440.186V300.573Z" fill="url(#paint122_linear)"/>
<path d="M470.311 300.573H447.578V303.926H470.311V300.573Z" fill="url(#paint123_linear)"/>
<path d="M506.704 300.573H491.925V303.926H506.704V300.573Z" fill="url(#paint124_linear)"/>
<path d="M498.562 308.858H471.937V312.211H498.562V308.858Z" fill="url(#paint125_linear)"/>
<path d="M440.186 317.128H424.657V320.481H440.186V317.128Z" fill="url(#paint126_linear)"/>
<path d="M498.562 317.128H483.054V320.481H498.562V317.128Z" fill="url(#paint127_linear)"/>
<path d="M524.442 317.128H505.225V320.481H524.442V317.128Z" fill="url(#paint128_linear)"/>
<path d="M506.704 325.413H479.349V328.766H506.704V325.413Z" fill="url(#paint129_linear)"/>
<path d="M453.616 341.968H440.107V345.321H453.616V341.968Z" fill="url(#paint130_linear)"/>
<path d="M454.97 358.523H424.657V361.876H454.97V358.523Z" fill="url(#paint131_linear)"/>
<path d="M445.349 366.787H424.657V370.161H445.349V366.787Z" fill="url(#paint132_linear)"/>
<path d="M505.833 366.787H495.797V370.161H505.833V366.787Z" fill="url(#paint133_linear)"/>
<path d="M460.904 375.073H441.666V378.426H460.904V375.073Z" fill="url(#paint134_linear)"/>
<path d="M500.98 375.073H465.169V378.426H500.98V375.073Z" fill="url(#paint135_linear)"/>
<path d="M517.008 375.073H506.306V378.426H517.008V375.073Z" fill="url(#paint136_linear)"/>
<path d="M506.704 391.628H491.925V394.981H506.704V391.628Z" fill="url(#paint137_linear)"/>
<path d="M498.562 399.914H471.937V403.266H498.562V399.914Z" fill="url(#paint138_linear)"/>
<path d="M524.442 413.493H462.362V416.846H524.442V413.493Z" fill="url(#paint139_linear)"/>
<path d="M484.889 430.047H462.362V433.4H484.889V430.047Z" fill="url(#paint140_linear)"/>
<path d="M524.442 430.047H511.158V433.4H524.442V430.047Z" fill="url(#paint141_linear)"/>
<path d="M505.833 438.312H495.797V441.665H505.833V438.312Z" fill="url(#paint142_linear)"/>
<path d="M460.904 446.598H441.666V449.951H460.904V446.598Z" fill="url(#paint143_linear)"/>
<path d="M448.617 471.438H424.657V474.791H448.617V471.438Z" fill="url(#paint144_linear)"/>
<path d="M506.704 463.153H491.925V466.506H506.704V463.153Z" fill="url(#paint145_linear)"/>
<path d="M498.562 471.438H471.937V474.791H498.562V471.438Z" fill="url(#paint146_linear)"/>
<path d="M352.679 199.715H534.96C536.358 199.715 537.742 199.99 539.034 200.525C540.326 201.061 541.5 201.845 542.489 202.834C543.477 203.823 544.262 204.997 544.797 206.289C545.332 207.581 545.607 208.966 545.607 210.364V226.068H342.032V210.364C342.032 207.54 343.154 204.831 345.15 202.834C347.147 200.837 349.855 199.715 352.679 199.715Z" fill="url(#paint147_linear)"/>
<path d="M362.755 217.952C365.549 216.795 366.876 213.59 365.719 210.795C364.561 208 361.357 206.673 358.563 207.831C355.768 208.988 354.441 212.193 355.599 214.988C356.756 217.783 359.96 219.11 362.755 217.952Z" fill="url(#paint148_linear)"/>
<path d="M382.066 214.136C382.761 211.192 380.938 208.241 377.994 207.547C375.05 206.852 372.101 208.675 371.406 211.619C370.711 214.564 372.534 217.514 375.478 218.209C378.422 218.904 381.372 217.08 382.066 214.136Z" fill="url(#paint149_linear)"/>
<path d="M396.712 216.765C398.851 214.626 398.851 211.158 396.712 209.019C394.573 206.879 391.105 206.879 388.967 209.019C386.828 211.158 386.828 214.626 388.967 216.765C391.105 218.904 394.573 218.904 396.712 216.765Z" fill="url(#paint150_linear)"/>
<path d="M372.546 247.254L361.324 242.598V239.664L372.546 234.999V238.503L365.728 241.135L372.546 243.771V247.254Z" fill="url(#paint151_linear)"/>
<path d="M377.235 233.65H379.288L375.651 248.616H373.623L377.235 233.65Z" fill="url(#paint152_linear)"/>
<path d="M380.294 243.771L387.111 241.144L380.294 238.512V235.008L391.515 239.672V242.606L380.294 247.262V243.771Z" fill="url(#paint153_linear)"/>
<path d="M129.33 493.534L130.226 493.953C130.902 494.266 131.668 494.323 132.382 494.113C133.096 493.902 133.709 493.438 134.107 492.809L143.464 477.943C143.983 477.117 144.158 476.121 143.95 475.168C143.743 474.214 143.169 473.381 142.353 472.847L141.729 472.427L129.33 493.534Z" fill="#1A1A1A"/>
<path d="M4.85955 382.521C4.85955 382.521 3.30074 376.72 6.3555 369.767C9.41026 362.814 13.0601 359.097 21.7047 360.161C30.3494 361.226 34.4811 363.653 35.7717 369.801C37.0624 375.949 33.8777 387.018 36.4422 390.576C39.4634 394.767 39.212 395.651 45.5939 400.903C48.678 403.417 48.8917 415.479 42.0447 416.447C32.8888 417.742 24.8391 402.122 16.5506 406.158C8.26211 410.194 -2.89679 413.509 0.69015 410.157C4.27709 406.804 4.85955 382.521 4.85955 382.521Z" fill="#333333"/>
<path d="M74.0046 454.674C35.5875 394.415 34.5315 397.478 34.5315 397.478L39.5222 424.59C39.5222 424.59 60.0759 453.211 66.9103 459.376C69.412 459.192 74.2811 457.935 74.0046 454.674Z" fill="url(#paint154_linear)"/>
<path d="M120.79 478.492L127.046 482.176L123.585 487.842L116.738 484.313L120.79 478.492Z" fill="#FDA893"/>
<path d="M125.181 484.07C125.407 483.761 125.56 483.403 125.626 483.025C125.693 482.648 125.673 482.26 125.567 481.891C125.336 481.053 125.148 479.867 125.592 479.221C126.346 478.153 136.583 476.401 138.93 473.773C141.276 471.145 143.12 473.048 143.883 474.259C144.515 475.24 135.758 488.043 132.368 492.93C132.006 493.454 131.467 493.828 130.85 493.982C130.232 494.136 129.58 494.06 129.015 493.769C126.748 492.574 123.291 490.621 122.219 489.305C120.836 487.633 123.681 486.057 125.181 484.07Z" fill="#333333"/>
<path d="M120.278 484.376C120.016 484.642 119.736 484.889 119.44 485.118C118.8 485.667 118.108 486.153 117.375 486.568C117.375 486.568 91.7841 474.05 75.601 460.948C75.601 460.948 51.1126 477.063 36.6014 473.806C36.2498 473.662 35.9442 473.424 35.7172 473.119V473.119C35.4535 472.809 35.2113 472.482 34.9923 472.138C33.3958 469.687 31.8118 465.051 34.1878 462.055C34.1878 462.055 62.636 446.393 76.3301 448.505C90.0241 450.617 122.688 477.985 122.688 477.985C123.149 480.282 122.135 482.528 120.278 484.376Z" fill="url(#paint155_linear)"/>
<path opacity="0.15" d="M70.9414 463.773C69.419 462.546 67.657 461.652 65.7684 461.146C63.8799 460.641 61.9066 460.537 59.9753 460.839C55.6341 461.51 57.9471 466.95 57.9471 466.95C57.9471 466.95 69.194 466.497 70.9414 463.773Z" fill="black"/>
<path d="M107.8 492.385C107.561 492.662 107.305 492.922 107.033 493.165C106.518 493.652 105.971 494.103 105.394 494.514C105.394 494.514 78.6389 484.716 61.1861 473.354C61.1861 473.354 34.1207 490.307 19.2575 489.862C7.54969 489.531 7.43235 471.573 10.1309 466.481C10.1309 466.481 46.7839 460.194 60.6204 460.906C74.457 461.619 109.404 486.195 109.404 486.195C110.121 488.53 109.446 490.546 107.8 492.385Z" fill="url(#paint156_linear)"/>
<path d="M40.1507 442.931C40.3938 451.833 40.1088 452.642 42.732 458.932C42.9332 459.431 42.935 459.988 42.7368 460.488C42.5387 460.989 42.1559 461.393 41.6676 461.619C27.9903 467.75 22.2831 469.41 10.9189 470.114C10.4013 470.146 9.89061 469.982 9.48789 469.656C9.08517 469.329 8.81973 468.863 8.74407 468.35C7.66715 460.885 6.52319 452.394 6.08739 444.704C4.9099 424.017 5.14037 409.717 5.24932 405.555C5.25845 405.178 5.37121 404.811 5.57521 404.494C5.77922 404.176 6.06661 403.922 6.40586 403.757L11.8533 401.104L18.1891 398.015C18.4506 397.888 18.7364 397.818 19.0272 397.81L30.4417 397.424L32.9559 397.34L33.6976 397.315C34.1501 397.301 34.5949 397.435 34.9636 397.698C35.3323 397.96 35.6045 398.337 35.7383 398.77C36.8194 402.286 39.7443 411.343 43.3689 419.222C47.1193 427.374 43.788 429.36 42.0448 431.523C41.9735 431.607 41.9107 431.69 41.8478 431.774C41.6068 432.09 41.4173 432.443 41.2863 432.818L41.1732 433.182C41.0852 433.509 41.0014 433.874 40.9301 434.264C40.2639 437.612 40.1507 442.931 40.1507 442.931Z" fill="url(#paint157_linear)"/>
<path d="M29.591 397.454C30.7601 401.121 33.2324 408.531 27.6383 409.155C20.9086 409.901 13.5965 403.828 11.8533 401.104L18.583 397.827L29.591 397.454Z" fill="#FDA893"/>
<path opacity="0.15" d="M5.45046 430.663C5.45046 430.663 12.6746 446.506 16.5633 448.957C20.4519 451.409 34.5566 458.4 40.1885 460.332C45.8203 462.264 19.1571 437.025 19.1571 437.025L5.99102 424.976C5.99102 424.976 5.3038 426.606 5.45046 430.663Z" fill="black"/>
<path opacity="0.15" d="M13.9066 420.215C13.9066 420.215 24.6381 437.881 26.9847 439.721C29.3313 441.56 30.3076 442.889 40.3938 450.437C41.3408 451.145 33.8317 451.208 33.8317 451.208C33.8317 451.208 23.8 441.628 22.7901 440.504C21.7802 439.381 10.9943 424.855 10.8853 423.61C10.7764 422.365 13.9066 420.215 13.9066 420.215Z" fill="black"/>
<path d="M49.8973 456.166C39.807 450.931 25.9704 440.005 25.9704 440.005C25.9704 440.005 20.2087 433.719 5.7478 404.264C5.7478 404.264 -0.466486 412.198 5.32877 428.279C10.9983 443.945 18.411 449.113 18.411 449.113C18.411 449.113 37.1964 460.299 46.8342 462.65C48.1206 460.051 48.7575 458.819 49.8973 456.166Z" fill="url(#paint158_linear)"/>
<path d="M80.0033 452.162L42.4634 459.162C42.0539 459.238 41.7838 459.632 41.8602 460.042L42.473 463.329C42.5493 463.739 42.9432 464.009 43.3527 463.933L80.8926 456.933C81.3021 456.857 81.5722 456.463 81.4959 456.054L80.883 452.766C80.8067 452.356 80.4128 452.086 80.0033 452.162Z" fill="url(#paint159_linear)"/>
<path d="M81.6228 456.799L49.6755 462.579L54.1508 432.767L86.0981 426.988L81.6228 456.799Z" fill="url(#paint160_linear)"/>
<path d="M79.6364 457.159V457.172L47.6892 462.951L52.1603 433.136L54.1507 432.776L49.6754 462.578L79.6364 457.159Z" fill="url(#paint161_linear)"/>
<path d="M70.3214 444.33C70.6608 446.145 70.0239 447.788 68.9009 447.998C67.7779 448.207 66.5962 446.904 66.2568 445.089C65.9174 443.274 66.5543 441.631 67.6773 441.422C68.8003 441.212 69.982 442.512 70.3214 444.33Z" fill="url(#paint162_linear)"/>
<path d="M32.3859 379.394C32.3859 379.394 34.4224 376.879 35.889 378.975C37.3557 381.07 35.1851 387.282 31.5479 385.727L32.3859 379.394Z" fill="#FDA893"/>
<path d="M16.7769 392.223L16.6931 399.847C16.6931 399.847 20.2088 402.617 22.9786 402.881C25.7485 403.145 26.7248 399.905 26.7248 399.905L26.8002 392.814L16.7769 392.223Z" fill="#FDA893"/>
<path d="M33.5633 382.303C33.4669 383.041 33.3538 383.786 33.2155 384.533C32.2853 389.478 29.0964 394.796 25.1281 395.651C16.5631 397.504 13.0851 390.752 11.7735 385.786C11.6268 385.232 11.916 384.608 11.8028 383.954C11.5388 382.408 10.9313 380.647 10.8097 378.925C10.7259 377.726 10.6673 376.544 10.6295 375.476C10.567 374.024 10.9573 372.588 11.7463 371.368C12.5353 370.148 13.6841 369.204 15.0336 368.665C18.9767 367.144 24.9563 365.97 30.5714 369.344C31.6007 369.974 32.4515 370.857 33.0427 371.909C33.6339 372.961 33.9459 374.147 33.9488 375.354C33.9729 377.676 33.8441 379.998 33.5633 382.303V382.303Z" fill="#FDA893"/>
<path d="M25.8533 374.973C29.1762 376.532 32.583 379.44 33.6892 381.444C33.7604 381.574 33.8359 381.595 33.9155 381.532C34.2173 379.178 34.3574 376.805 34.3345 374.432C34.3236 373.193 33.9912 371.978 33.3698 370.906C32.7484 369.834 31.8592 368.942 30.7895 368.317C24.8643 364.864 18.5537 366.058 14.3927 367.609C12.9864 368.13 11.7805 369.082 10.9468 370.329C10.1131 371.576 9.69421 373.055 9.74976 374.554C9.79167 375.643 9.85452 376.846 9.94252 378.07C10.4956 378.405 11.8449 378.569 11.8952 379.461C12.0209 381.821 12.1173 383.435 12.6118 383.3C13.1062 383.166 12.5322 378.581 16.9613 375.706L20.3136 373.28C20.3136 373.28 21.8389 372.383 22.4339 371.394C23.1071 372.959 24.3208 374.229 25.8533 374.973V374.973Z" fill="#333333"/>
<path d="M11.803 379.143C11.803 379.143 9.49826 376.285 8.10287 378.305C6.70749 380.325 8.58476 386.385 11.9748 384.947L11.803 379.143Z" fill="#FDA893"/>
<g opacity="0.15">
<path opacity="0.15" d="M43.4065 429.926C44.299 429.009 44.8847 427.838 45.0827 426.573C45.2695 425.313 45.1896 424.028 44.848 422.801C44.1216 420.393 43.2584 418.028 42.2626 415.718L39.3293 408.795C38.8433 407.638 38.3739 406.481 37.9256 405.312C37.4772 404.143 37.0414 402.969 36.6685 401.771C37.2865 404.205 38.0634 406.596 38.9941 408.929C39.895 411.272 40.8756 413.577 41.8184 415.899C42.8262 418.185 43.7185 420.521 44.4919 422.898C44.8647 424.078 44.986 425.323 44.848 426.552C44.7279 427.799 44.2243 428.978 43.4065 429.926V429.926Z" fill="black"/>
</g>
<path d="M117.731 502.754L118.627 503.173C119.302 503.488 120.067 503.545 120.781 503.336C121.494 503.126 122.107 502.663 122.504 502.033L131.861 487.168C132.381 486.343 132.556 485.346 132.349 484.393C132.142 483.44 131.57 482.606 130.754 482.071L130.13 481.652L117.731 502.754Z" fill="#1A1A1A"/>
<path d="M109.447 487.432L115.699 491.111L112.242 496.782L105.395 493.253L109.447 487.432Z" fill="#FDA893"/>
<path d="M113.876 492.96C114.093 492.662 114.239 492.318 114.302 491.954C114.364 491.591 114.342 491.218 114.236 490.864C114.001 490.026 113.783 488.798 114.236 488.136C114.99 487.071 124.745 485.441 127.088 482.834C129.43 480.227 131.278 482.113 132.045 483.324C132.678 484.305 124.188 497.092 120.941 501.92C120.599 502.43 120.08 502.795 119.485 502.945C118.89 503.095 118.261 503.02 117.718 502.733C115.455 501.543 111.931 499.561 110.846 498.228C109.48 496.556 112.384 494.971 113.876 492.96Z" fill="#333333"/>
<path d="M570.322 314.395C570.322 314.395 559.373 332.735 554.118 341.549C554.118 341.549 550.791 338.745 546.462 334.994C541.769 330.92 535.291 324.064 535.291 324.064L532.052 328.255C532.052 328.255 546.986 352.609 553.339 355.476C559.691 358.343 570.192 335.661 570.192 335.661L570.322 314.395Z" fill="#FDA893"/>
<path d="M569.111 313.615L559.054 330.158C558.695 330.749 558.465 331.41 558.378 332.097C558.291 332.784 558.35 333.481 558.551 334.143C559.569 337.496 561.773 344.026 564.46 347.517C564.648 347.758 564.901 347.94 565.189 348.042C565.477 348.145 565.788 348.163 566.087 348.096C566.385 348.028 566.658 347.877 566.873 347.66C567.089 347.444 567.239 347.17 567.305 346.872C568.801 340.367 572.094 323.448 569.111 313.615Z" fill="url(#paint163_linear)"/>
<path d="M582.353 476.593L581.473 484.489C581.473 484.489 578.891 485.969 574.827 485.16L575.665 475.939L582.353 476.593Z" fill="#FDA893"/>
<path d="M576.754 483.957C576.754 483.957 575.455 482.402 574.37 482.432C573.284 482.461 567.703 487.683 564.836 488.043C561.97 488.404 562.456 490.16 562.942 491.065C563.429 491.97 582.763 491.455 582.763 491.455C582.763 491.455 583.576 486.007 582.914 484.297C582.252 482.587 578.971 484.427 576.754 483.957Z" fill="#333333"/>
<path d="M615.975 466.216L621.088 472.293C621.088 472.293 620.384 475.181 616.994 477.574L610.893 470.592L615.975 466.216Z" fill="#FDA893"/>
<path d="M617.405 475.298C617.405 475.298 615.431 475.219 614.706 476.024C613.981 476.828 614.086 484.309 612.356 486.627C610.625 488.945 612.184 489.741 613.147 489.98C614.111 490.219 626.745 475.877 626.745 475.877C626.745 475.877 623.523 471.686 621.889 471.057C620.254 470.428 619.257 474.003 617.405 475.298Z" fill="#333333"/>
<path d="M587.23 382.353L591.173 425.014C595.099 429.558 598.564 434.481 601.514 439.712C604.72 445.554 614.391 461.506 617.019 465.852C617.2 466.155 617.264 466.514 617.198 466.86C617.132 467.207 616.942 467.518 616.663 467.734L611.756 471.531C611.474 471.748 611.123 471.853 610.769 471.827C610.415 471.8 610.083 471.644 609.836 471.388L575.53 435.638L567.514 381.934L587.23 382.353Z" fill="url(#paint164_linear)"/>
<path opacity="0.15" d="M582.876 396.959C582.34 398.262 579.758 407.156 579.298 408.476C578.837 409.796 578.422 411.137 578.04 412.474C577.659 413.811 577.265 415.157 576.875 416.498L575.824 420.551L575.803 420.643V420.731C575.769 422.034 575.711 423.333 575.698 424.637C575.685 425.94 575.665 427.239 575.698 428.543C575.723 431.15 576.029 433.761 576.285 436.38C576.75 433.79 576.825 431.196 577.064 428.602C577.198 427.302 577.278 426.003 577.374 424.704C577.471 423.405 577.517 422.105 577.592 420.802L577.563 420.982L578.552 416.917C578.845 415.551 579.168 414.193 579.432 412.822C579.696 411.452 579.96 410.077 580.198 408.698C580.437 407.319 582.738 398.363 582.876 396.959Z" fill="black"/>
<path opacity="0.15" d="M588.29 448.928C588.839 447.088 589.325 445.232 589.782 443.371C590.239 441.51 590.653 439.632 591.039 437.755C591.424 435.877 591.764 433.983 592.024 432.084C592.283 430.186 592.506 428.254 592.288 426.338C592.321 427.295 592.276 428.252 592.154 429.201C592.057 430.152 591.906 431.099 591.76 432.042C591.445 433.933 591.089 435.814 590.699 437.688C590.31 439.561 589.916 441.435 589.509 443.308L588.29 448.928Z" fill="black"/>
<path d="M613.784 384.126C613.784 384.126 604.524 406.896 592.493 424.649C592.493 424.649 590.695 441.929 587.62 451.129C586.467 454.582 584.485 471.971 583.945 476.849C583.902 477.197 583.733 477.518 583.469 477.749C583.206 477.981 582.867 478.108 582.516 478.107H576.042C575.847 478.107 575.655 478.068 575.476 477.991C575.297 477.915 575.136 477.804 575.001 477.664C574.867 477.524 574.762 477.358 574.693 477.176C574.624 476.994 574.592 476.8 574.6 476.606L576.897 420.748L586.534 382.32L613.784 384.126Z" fill="url(#paint165_linear)"/>
<path d="M614.082 373.875V374.713C614.082 379.792 614.04 383.724 614.01 385.66C608.503 386.974 602.897 387.836 597.249 388.237C596.993 388.237 596.75 388.267 596.495 388.292L596.076 388.313L595.175 388.359L594.178 388.405C590.378 388.56 586.573 388.501 582.78 388.229L580.479 388.036H580.333L579.742 387.973L579.39 387.936C574.926 387.468 570.498 386.713 566.132 385.677C566.132 384.792 566.111 383.493 566.111 381.85V380.907C566.111 378.56 566.132 375.643 566.165 372.345V371.507C566.19 369.311 566.22 366.955 566.253 364.503C566.253 364.214 566.253 363.938 566.253 363.665C566.291 361.151 566.333 358.535 566.387 355.878C566.412 354.503 566.439 353.116 566.467 351.716C566.467 351.473 566.467 351.226 566.467 350.987C566.467 350.329 566.492 349.663 566.517 349.005C566.517 348.167 566.555 347.328 566.58 346.49C566.58 346.335 566.58 346.172 566.58 346.017C566.58 345.652 566.58 345.296 566.618 344.939C566.655 344.583 566.618 344.168 566.651 343.779C566.676 342.806 566.706 341.838 566.739 340.887C566.773 339.935 566.794 339.068 566.827 338.175C567.275 325.405 567.984 314.776 569.031 313.406C569.894 312.299 571.86 310.996 574.173 309.688L575.036 309.211C576.021 308.67 584.07 306.277 585.093 305.74L593.599 305.217C593.654 305.246 601.787 307.656 601.842 307.677C602.185 307.857 602.537 308.033 602.889 308.213C605.906 309.735 608.877 311.34 610.587 312.723C610.818 312.907 611.039 313.105 611.249 313.314C611.392 313.452 611.524 313.602 611.643 313.762C611.781 313.962 611.884 314.185 611.945 314.42C612.816 317.19 613.336 326.805 613.621 338.175C613.646 339.069 613.67 339.973 613.692 340.887C613.717 341.838 613.734 342.806 613.751 343.779C613.751 344.068 613.751 344.361 613.751 344.646C613.751 345.258 613.751 345.87 613.78 346.49C613.78 346.884 613.78 347.286 613.78 347.68C613.78 348.074 613.78 348.556 613.805 348.996V349.022C613.805 349.332 613.805 349.642 613.805 349.944V350.405C613.805 350.824 613.805 351.272 613.805 351.708C613.805 352.031 613.805 352.366 613.805 352.689C613.805 353.246 613.805 353.812 613.805 354.365C614.082 361.41 614.082 368.275 614.082 373.875Z" fill="url(#paint166_linear)"/>
<path d="M629.305 405.37C629.515 407.638 626.753 406.41 627.533 401.808C628.312 397.206 626.095 393.04 625.14 393.174C624.185 393.308 625.932 398.204 625.081 399.96C624.231 401.716 623.137 398.283 622.043 396.221C620.908 394.063 620.975 389.36 621.49 385.999C622.006 382.638 615.921 362.24 615.888 356.331L615.146 353.816L612.431 344.638L608.182 330.271C608.182 330.271 610.729 319.395 615.02 320.329C615.02 320.329 617.296 327.903 619.722 336.448C620.141 337.898 620.56 339.382 620.979 340.853C622.71 347.047 624.331 353.162 625.094 356.779C627.088 366.356 627.243 386.272 627.243 386.272C627.243 386.272 630.768 393.589 630.851 396.846C630.923 400.337 629.1 403.099 629.305 405.37Z" fill="#FDA893"/>
<path d="M620.434 338.397C618.309 342.03 616.17 345.645 614.019 349.244C613.98 349.32 613.918 349.382 613.842 349.421C613.767 349.461 613.681 349.477 613.596 349.466C613.511 349.456 613.431 349.42 613.368 349.363C613.304 349.306 613.259 349.231 613.24 349.147C612.477 346.633 611.698 344.219 610.96 341.981C610.96 341.981 610.96 341.981 610.96 341.96C610.63 340.954 610.309 339.986 609.996 339.055C609.996 339.055 609.996 339.026 609.996 339.009L609.678 338.049C608.421 334.319 607.486 331.344 607.214 329.625C606.476 324.973 608.471 315.858 611.316 314.06C611.387 314.223 611.614 313.716 611.735 314.026C612.234 315.175 614.438 318.012 615.532 320.774C615.67 321.126 615.812 321.491 615.951 321.864C617.388 325.56 619.114 330.246 620.761 335.443C620.916 335.931 620.967 336.446 620.911 336.955C620.855 337.464 620.692 337.955 620.434 338.397V338.397Z" fill="url(#paint167_linear)"/>
<path d="M575.765 286.181C576.536 285.037 577.441 285.213 578.141 285.636C578.141 285.305 578.099 284.957 578.087 284.634C578.053 283.616 578.053 282.673 578.087 281.847C578.096 281.489 578.132 281.131 578.196 280.779C578.221 280.609 578.258 280.441 578.305 280.276C578.351 280.1 578.405 279.924 578.468 279.752C578.493 279.664 578.527 279.58 578.56 279.492C578.594 279.404 578.669 279.224 578.732 279.073C579.329 277.815 580.299 276.772 581.51 276.085C587.134 272.895 593.067 274.085 596.973 275.586C597.295 275.71 597.607 275.859 597.907 276.03C598.054 276.114 598.2 276.206 598.326 276.298C598.813 276.63 599.255 277.023 599.642 277.468C599.805 277.658 599.957 277.856 600.098 278.063C600.191 278.197 600.279 278.339 600.362 278.482C600.446 278.624 600.526 278.775 600.597 278.926C600.668 279.077 600.74 279.228 600.802 279.383L600.89 279.618C600.949 279.773 600.995 279.936 601.041 280.095C601.227 280.778 601.303 281.485 601.268 282.191C601.217 283.235 601.146 284.387 601.046 285.544C601.724 285.171 602.575 285.074 603.304 286.156C604.712 288.251 602.885 294.182 599.608 293.444C598.707 296.139 597.174 299.37 594.454 301.13V305.254C594.454 305.254 592.527 308.544 589.92 308.771C587.314 308.997 585.001 305.933 585.001 305.933V301.323C582.067 299.936 580.362 296.897 579.365 293.482C576.134 294.098 574.374 288.247 575.765 286.181Z" fill="#FDA893"/>
<path d="M601.192 285.971C601.092 286.104 601.027 286.259 601.004 286.424C600.903 287.103 600.614 289.014 600.367 289.534C600.12 290.053 599.86 286.684 599.789 285.648C599.776 285.444 599.7 285.25 599.571 285.091C598.988 284.341 597.191 282.275 594.995 282.069C592.309 281.814 591.978 284.584 589.547 285.104C587.452 285.523 585.956 285.753 585.562 285.808C585.493 285.812 585.423 285.812 585.353 285.808H582.382C580.542 285.808 578.971 286.935 578.669 288.477L578.28 286.768C578.235 286.594 578.152 286.433 578.037 286.297C577.922 286.161 577.777 286.052 577.613 285.98C576.775 285.586 576.256 284.094 575.518 283.209C574.508 281.977 574.902 276.441 577.085 275.716C577.785 275.481 585.047 272.489 587.327 272.438C589.606 272.388 600.145 272.631 601.318 275.716C602.491 278.8 604.109 281.91 601.192 285.971Z" fill="#333333"/>
<path d="M537.13 327.961C537.13 327.961 538.492 325.501 538.023 323.351C537.554 321.201 537.151 316.268 535.031 316.449C534.256 316.511 535.349 318.544 534.796 320.459C533.485 319.763 532.235 318.956 531.058 318.05C529.747 316.968 527.015 315.225 525.745 314.429C525.397 314.211 524.982 314.651 525.179 315.036C525.498 315.656 526.286 316.579 528.113 317.848C528.113 317.848 523.537 315.032 522.753 315.686C521.97 316.34 527.744 319.751 527.744 319.751C527.744 319.751 523.063 317.702 522.665 318.494C522.418 318.976 526.994 321.939 526.994 321.939C526.994 321.939 522.422 320.438 523.256 321.633C523.499 321.981 532.152 326.243 533.874 331.373C533.887 331.365 536.464 329.734 537.13 327.961Z" fill="#FDA893"/>
<defs>
<linearGradient id="paint0_linear" x1="88974.1" y1="49563.1" x2="88974.1" y2="55181" gradientUnits="userSpaceOnUse">
<stop stop-color="#796393"/>
<stop offset="0.57" stop-color="#51396C"/>
<stop offset="1" stop-color="#361D52"/>
</linearGradient>
<linearGradient id="paint1_linear" x1="119810" y1="10079.5" x2="119810" y2="10293.2" gradientUnits="userSpaceOnUse">
<stop stop-color="#796393"/>
<stop offset="0.57" stop-color="#51396C"/>
<stop offset="1" stop-color="#361D52"/>
</linearGradient>
<linearGradient id="paint2_linear" x1="348960" y1="14809.8" x2="348960" y2="406251" gradientUnits="userSpaceOnUse">
<stop stop-color="#796393"/>
<stop offset="0.57" stop-color="#51396C"/>
<stop offset="1" stop-color="#361D52"/>
</linearGradient>
<linearGradient id="paint3_linear" x1="348955" y1="422235" x2="348955" y2="24422.8" gradientUnits="userSpaceOnUse">
<stop stop-color="#796393"/>
<stop offset="0.57" stop-color="#51396C"/>
<stop offset="1" stop-color="#361D52"/>
</linearGradient>
<linearGradient id="paint4_linear" x1="-6.88578" y1="-22.2608" x2="543.607" y2="528.141" gradientUnits="userSpaceOnUse">
<stop stop-color="white"/>
<stop offset="0.56" stop-color="#DBE6F9"/>
<stop offset="1" stop-color="#C3D6F5"/>
</linearGradient>
<linearGradient id="paint5_linear" x1="11449.5" y1="17806.9" x2="12017" y2="17806.9" gradientUnits="userSpaceOnUse">
<stop stop-color="white"/>
<stop offset="0.56" stop-color="#DBE6F9"/>
<stop offset="1" stop-color="#C3D6F5"/>
</linearGradient>
<linearGradient id="paint6_linear" x1="168.627" y1="167.326" x2="172.566" y2="167.326" gradientUnits="userSpaceOnUse">
<stop stop-color="#595B68"/>
<stop offset="0.54" stop-color="#38404E"/>
<stop offset="1" stop-color="#202D3B"/>
</linearGradient>
<linearGradient id="paint7_linear" x1="4209.64" y1="9656.93" x2="4356.02" y2="9656.93" gradientUnits="userSpaceOnUse">
<stop stop-color="#595B68"/>
<stop offset="0.54" stop-color="#38404E"/>
<stop offset="1" stop-color="#202D3B"/>
</linearGradient>
<linearGradient id="paint8_linear" x1="2332.96" y1="9509.21" x2="2369.99" y2="9509.21" gradientUnits="userSpaceOnUse">
<stop stop-color="#595B68"/>
<stop offset="0.54" stop-color="#38404E"/>
<stop offset="1" stop-color="#202D3B"/>
</linearGradient>
<linearGradient id="paint9_linear" x1="4613.96" y1="9656.93" x2="4760.18" y2="9656.93" gradientUnits="userSpaceOnUse">
<stop stop-color="#595B68"/>
<stop offset="0.54" stop-color="#38404E"/>
<stop offset="1" stop-color="#202D3B"/>
</linearGradient>
<linearGradient id="paint10_linear" x1="2547.72" y1="9509.21" x2="2584.75" y2="9509.21" gradientUnits="userSpaceOnUse">
<stop stop-color="#595B68"/>
<stop offset="0.54" stop-color="#38404E"/>
<stop offset="1" stop-color="#202D3B"/>
</linearGradient>
<linearGradient id="paint11_linear" x1="2641.9" y1="9509.21" x2="2678.93" y2="9509.21" gradientUnits="userSpaceOnUse">
<stop stop-color="#595B68"/>
<stop offset="0.54" stop-color="#38404E"/>
<stop offset="1" stop-color="#202D3B"/>
</linearGradient>
<linearGradient id="paint12_linear" x1="5201.13" y1="9656.93" x2="5347.51" y2="9656.93" gradientUnits="userSpaceOnUse">
<stop stop-color="#595B68"/>
<stop offset="0.54" stop-color="#38404E"/>
<stop offset="1" stop-color="#202D3B"/>
</linearGradient>
<linearGradient id="paint13_linear" x1="2856.64" y1="9509.21" x2="2893.67" y2="9509.21" gradientUnits="userSpaceOnUse">
<stop stop-color="#595B68"/>
<stop offset="0.54" stop-color="#38404E"/>
<stop offset="1" stop-color="#202D3B"/>
</linearGradient>
<linearGradient id="paint14_linear" x1="5607.83" y1="9656.93" x2="5754.21" y2="9656.93" gradientUnits="userSpaceOnUse">
<stop stop-color="#595B68"/>
<stop offset="0.54" stop-color="#38404E"/>
<stop offset="1" stop-color="#202D3B"/>
</linearGradient>
<linearGradient id="paint15_linear" x1="3071.42" y1="9509.21" x2="3108.45" y2="9509.21" gradientUnits="userSpaceOnUse">
<stop stop-color="#595B68"/>
<stop offset="0.54" stop-color="#38404E"/>
<stop offset="1" stop-color="#202D3B"/>
</linearGradient>
<linearGradient id="paint16_linear" x1="6014.41" y1="9656.93" x2="6160.79" y2="9656.93" gradientUnits="userSpaceOnUse">
<stop stop-color="#595B68"/>
<stop offset="0.54" stop-color="#38404E"/>
<stop offset="1" stop-color="#202D3B"/>
</linearGradient>
<linearGradient id="paint17_linear" x1="3289.37" y1="9509.22" x2="3326.47" y2="9509.22" gradientUnits="userSpaceOnUse">
<stop stop-color="#595B68"/>
<stop offset="0.54" stop-color="#38404E"/>
<stop offset="1" stop-color="#202D3B"/>
</linearGradient>
<linearGradient id="paint18_linear" x1="6421.03" y1="9656.93" x2="6567.41" y2="9656.93" gradientUnits="userSpaceOnUse">
<stop stop-color="#595B68"/>
<stop offset="0.54" stop-color="#38404E"/>
<stop offset="1" stop-color="#202D3B"/>
</linearGradient>
<linearGradient id="paint19_linear" x1="3504.36" y1="9509.22" x2="3541.46" y2="9509.22" gradientUnits="userSpaceOnUse">
<stop stop-color="#595B68"/>
<stop offset="0.54" stop-color="#38404E"/>
<stop offset="1" stop-color="#202D3B"/>
</linearGradient>
<linearGradient id="paint20_linear" x1="6827.59" y1="9656.93" x2="6973.96" y2="9656.93" gradientUnits="userSpaceOnUse">
<stop stop-color="#595B68"/>
<stop offset="0.54" stop-color="#38404E"/>
<stop offset="1" stop-color="#202D3B"/>
</linearGradient>
<linearGradient id="paint21_linear" x1="3715.7" y1="9509.21" x2="3752.73" y2="9509.21" gradientUnits="userSpaceOnUse">
<stop stop-color="#595B68"/>
<stop offset="0.54" stop-color="#38404E"/>
<stop offset="1" stop-color="#202D3B"/>
</linearGradient>
<linearGradient id="paint22_linear" x1="3802.86" y1="9509.21" x2="3839.89" y2="9509.21" gradientUnits="userSpaceOnUse">
<stop stop-color="#595B68"/>
<stop offset="0.54" stop-color="#38404E"/>
<stop offset="1" stop-color="#202D3B"/>
</linearGradient>
<linearGradient id="paint23_linear" x1="7399.2" y1="9656.93" x2="7545.58" y2="9656.93" gradientUnits="userSpaceOnUse">
<stop stop-color="#595B68"/>
<stop offset="0.54" stop-color="#38404E"/>
<stop offset="1" stop-color="#202D3B"/>
</linearGradient>
<linearGradient id="paint24_linear" x1="4017.62" y1="9509.21" x2="4054.65" y2="9509.21" gradientUnits="userSpaceOnUse">
<stop stop-color="#595B68"/>
<stop offset="0.54" stop-color="#38404E"/>
<stop offset="1" stop-color="#202D3B"/>
</linearGradient>
<linearGradient id="paint25_linear" x1="7805.87" y1="9656.93" x2="7952.25" y2="9656.93" gradientUnits="userSpaceOnUse">
<stop stop-color="#595B68"/>
<stop offset="0.54" stop-color="#38404E"/>
<stop offset="1" stop-color="#202D3B"/>
</linearGradient>
<linearGradient id="paint26_linear" x1="4236.5" y1="9509.22" x2="4273.61" y2="9509.22" gradientUnits="userSpaceOnUse">
<stop stop-color="#595B68"/>
<stop offset="0.54" stop-color="#38404E"/>
<stop offset="1" stop-color="#202D3B"/>
</linearGradient>
<linearGradient id="paint27_linear" x1="156.089" y1="295.72" x2="276.118" y2="295.72" gradientUnits="userSpaceOnUse">
<stop stop-color="#60CDF9"/>
<stop offset="0.23" stop-color="#5DAFF1"/>
<stop offset="0.75" stop-color="#5872E1"/>
<stop offset="1" stop-color="#565ADB"/>
</linearGradient>
<linearGradient id="paint28_linear" x1="24261.6" y1="7038.08" x2="29259.4" y2="7038.08" gradientUnits="userSpaceOnUse">
<stop stop-color="#60CDF9"/>
<stop offset="0.23" stop-color="#5DAFF1"/>
<stop offset="0.75" stop-color="#5872E1"/>
<stop offset="1" stop-color="#565ADB"/>
</linearGradient>
<linearGradient id="paint29_linear" x1="32104.5" y1="7265.06" x2="40888" y2="7265.06" gradientUnits="userSpaceOnUse">
<stop stop-color="#60CDF9"/>
<stop offset="0.23" stop-color="#5DAFF1"/>
<stop offset="0.75" stop-color="#5872E1"/>
<stop offset="1" stop-color="#565ADB"/>
</linearGradient>
<linearGradient id="paint30_linear" x1="55972.9" y1="4946.71" x2="90353.8" y2="4946.71" gradientUnits="userSpaceOnUse">
<stop stop-color="#60CDF9"/>
<stop offset="0.23" stop-color="#5DAFF1"/>
<stop offset="0.75" stop-color="#5872E1"/>
<stop offset="1" stop-color="#565ADB"/>
</linearGradient>
<linearGradient id="paint31_linear" x1="22802.8" y1="5173.66" x2="31586.3" y2="5173.66" gradientUnits="userSpaceOnUse">
<stop stop-color="#60CDF9"/>
<stop offset="0.23" stop-color="#5DAFF1"/>
<stop offset="0.75" stop-color="#5872E1"/>
<stop offset="1" stop-color="#565ADB"/>
</linearGradient>
<linearGradient id="paint32_linear" x1="22802.8" y1="5400.64" x2="31586.3" y2="5400.64" gradientUnits="userSpaceOnUse">
<stop stop-color="#60CDF9"/>
<stop offset="0.23" stop-color="#5DAFF1"/>
<stop offset="0.75" stop-color="#5872E1"/>
<stop offset="1" stop-color="#565ADB"/>
</linearGradient>
<linearGradient id="paint33_linear" x1="22802.8" y1="7038.08" x2="31586.3" y2="7038.08" gradientUnits="userSpaceOnUse">
<stop stop-color="#FCEE99"/>
<stop offset="0.61" stop-color="#FDC182"/>
<stop offset="1" stop-color="#FEA975"/>
</linearGradient>
<linearGradient id="paint34_linear" x1="22802.8" y1="7265.06" x2="31586.3" y2="7265.06" gradientUnits="userSpaceOnUse">
<stop stop-color="#FCEE99"/>
<stop offset="0.61" stop-color="#FDC182"/>
<stop offset="1" stop-color="#FEA975"/>
</linearGradient>
<linearGradient id="paint35_linear" x1="24261.6" y1="5173.66" x2="29259.4" y2="5173.66" gradientUnits="userSpaceOnUse">
<stop stop-color="#FCEE99"/>
<stop offset="0.61" stop-color="#FDC182"/>
<stop offset="1" stop-color="#FEA975"/>
</linearGradient>
<linearGradient id="paint36_linear" x1="32104.5" y1="5400.64" x2="40888" y2="5400.64" gradientUnits="userSpaceOnUse">
<stop stop-color="#FCEE99"/>
<stop offset="0.61" stop-color="#FDC182"/>
<stop offset="1" stop-color="#FEA975"/>
</linearGradient>
<linearGradient id="paint37_linear" x1="205.25" y1="330.246" x2="289.979" y2="330.246" gradientUnits="userSpaceOnUse">
<stop stop-color="#FA8696"/>
<stop offset="0.68" stop-color="#C24972"/>
<stop offset="1" stop-color="#AC3164"/>
</linearGradient>
<linearGradient id="paint38_linear" x1="42236.1" y1="7718.98" x2="54667.5" y2="7718.98" gradientUnits="userSpaceOnUse">
<stop stop-color="#FA8696"/>
<stop offset="0.68" stop-color="#C24972"/>
<stop offset="1" stop-color="#AC3164"/>
</linearGradient>
<linearGradient id="paint39_linear" x1="35535.2" y1="8172.78" x2="44318.7" y2="8172.78" gradientUnits="userSpaceOnUse">
<stop stop-color="#FA8696"/>
<stop offset="0.68" stop-color="#C24972"/>
<stop offset="1" stop-color="#AC3164"/>
</linearGradient>
<linearGradient id="paint40_linear" x1="26233.5" y1="5627.48" x2="35017.6" y2="5627.48" gradientUnits="userSpaceOnUse">
<stop stop-color="#FA8696"/>
<stop offset="0.68" stop-color="#C24972"/>
<stop offset="1" stop-color="#AC3164"/>
</linearGradient>
<linearGradient id="paint41_linear" x1="26233.5" y1="5854.41" x2="35017.6" y2="5854.41" gradientUnits="userSpaceOnUse">
<stop stop-color="#FA8696"/>
<stop offset="0.68" stop-color="#C24972"/>
<stop offset="1" stop-color="#AC3164"/>
</linearGradient>
<linearGradient id="paint42_linear" x1="26233.5" y1="6081.42" x2="35017.6" y2="6081.42" gradientUnits="userSpaceOnUse">
<stop stop-color="#FA8696"/>
<stop offset="0.68" stop-color="#C24972"/>
<stop offset="1" stop-color="#AC3164"/>
</linearGradient>
<linearGradient id="paint43_linear" x1="18613.8" y1="6308.33" x2="23016.8" y2="6308.33" gradientUnits="userSpaceOnUse">
<stop stop-color="#FA8696"/>
<stop offset="0.68" stop-color="#C24972"/>
<stop offset="1" stop-color="#AC3164"/>
</linearGradient>
<linearGradient id="paint44_linear" x1="19066.8" y1="6811.11" x2="27850.3" y2="6811.11" gradientUnits="userSpaceOnUse">
<stop stop-color="#595B68"/>
<stop offset="0.54" stop-color="#38404E"/>
<stop offset="1" stop-color="#202D3B"/>
</linearGradient>
<linearGradient id="paint45_linear" x1="29622" y1="7038.08" x2="34619.7" y2="7038.08" gradientUnits="userSpaceOnUse">
<stop stop-color="#595B68"/>
<stop offset="0.54" stop-color="#38404E"/>
<stop offset="1" stop-color="#202D3B"/>
</linearGradient>
<linearGradient id="paint46_linear" x1="26233.5" y1="7492.03" x2="35017.6" y2="7492.03" gradientUnits="userSpaceOnUse">
<stop stop-color="#595B68"/>
<stop offset="0.54" stop-color="#38404E"/>
<stop offset="1" stop-color="#202D3B"/>
</linearGradient>
<linearGradient id="paint47_linear" x1="26233.5" y1="7718.98" x2="35017.6" y2="7718.98" gradientUnits="userSpaceOnUse">
<stop stop-color="#595B68"/>
<stop offset="0.54" stop-color="#38404E"/>
<stop offset="1" stop-color="#202D3B"/>
</linearGradient>
<linearGradient id="paint48_linear" x1="26233.5" y1="7945.91" x2="35017.6" y2="7945.91" gradientUnits="userSpaceOnUse">
<stop stop-color="#595B68"/>
<stop offset="0.54" stop-color="#38404E"/>
<stop offset="1" stop-color="#202D3B"/>
</linearGradient>
<linearGradient id="paint49_linear" x1="18613.8" y1="8172.78" x2="23016.8" y2="8172.78" gradientUnits="userSpaceOnUse">
<stop stop-color="#595B68"/>
<stop offset="0.54" stop-color="#38404E"/>
<stop offset="1" stop-color="#202D3B"/>
</linearGradient>
<linearGradient id="paint50_linear" x1="19066.8" y1="4946.71" x2="27850.3" y2="4946.71" gradientUnits="userSpaceOnUse">
<stop stop-color="#595B68"/>
<stop offset="0.54" stop-color="#38404E"/>
<stop offset="1" stop-color="#202D3B"/>
</linearGradient>
<linearGradient id="paint51_linear" x1="22438.4" y1="5627.47" x2="25917.2" y2="5627.47" gradientUnits="userSpaceOnUse">
<stop stop-color="#595B68"/>
<stop offset="0.54" stop-color="#38404E"/>
<stop offset="1" stop-color="#202D3B"/>
</linearGradient>
<linearGradient id="paint52_linear" x1="42236.1" y1="5854.41" x2="54667.5" y2="5854.41" gradientUnits="userSpaceOnUse">
<stop stop-color="#595B68"/>
<stop offset="0.54" stop-color="#38404E"/>
<stop offset="1" stop-color="#202D3B"/>
</linearGradient>
<linearGradient id="paint53_linear" x1="35535.2" y1="6081.42" x2="44318.7" y2="6081.42" gradientUnits="userSpaceOnUse">
<stop stop-color="#595B68"/>
<stop offset="0.54" stop-color="#38404E"/>
<stop offset="1" stop-color="#202D3B"/>
</linearGradient>
<linearGradient id="paint54_linear" x1="35535.2" y1="6308.33" x2="44318.7" y2="6308.33" gradientUnits="userSpaceOnUse">
<stop stop-color="#595B68"/>
<stop offset="0.54" stop-color="#38404E"/>
<stop offset="1" stop-color="#202D3B"/>
</linearGradient>
<linearGradient id="paint55_linear" x1="26214" y1="5627.47" x2="29692.8" y2="5627.47" gradientUnits="userSpaceOnUse">
<stop stop-color="#595B68"/>
<stop offset="0.54" stop-color="#38404E"/>
<stop offset="1" stop-color="#202D3B"/>
</linearGradient>
<linearGradient id="paint56_linear" x1="29622" y1="5173.66" x2="34619.7" y2="5173.66" gradientUnits="userSpaceOnUse">
<stop stop-color="#595B68"/>
<stop offset="0.54" stop-color="#38404E"/>
<stop offset="1" stop-color="#202D3B"/>
</linearGradient>
<linearGradient id="paint57_linear" x1="15331.3" y1="4719.78" x2="24114.8" y2="4719.78" gradientUnits="userSpaceOnUse">
<stop stop-color="#595B68"/>
<stop offset="0.54" stop-color="#38404E"/>
<stop offset="1" stop-color="#202D3B"/>
</linearGradient>
<linearGradient id="paint58_linear" x1="35535.2" y1="7945.91" x2="44318.7" y2="7945.91" gradientUnits="userSpaceOnUse">
<stop stop-color="#595B68"/>
<stop offset="0.54" stop-color="#38404E"/>
<stop offset="1" stop-color="#202D3B"/>
</linearGradient>
<linearGradient id="paint59_linear" x1="2819.51" y1="5465.7" x2="3105.84" y2="5465.7" gradientUnits="userSpaceOnUse">
<stop stop-color="#FA8696"/>
<stop offset="0.68" stop-color="#C24972"/>
<stop offset="1" stop-color="#AC3164"/>
</linearGradient>
<linearGradient id="paint60_linear" x1="3256.21" y1="5465.69" x2="3542.53" y2="5465.69" gradientUnits="userSpaceOnUse">
<stop stop-color="#00DCAC"/>
<stop offset="0.12" stop-color="#00CEA6"/>
<stop offset="0.72" stop-color="#02918E"/>
<stop offset="1" stop-color="#027984"/>
</linearGradient>
<linearGradient id="paint61_linear" x1="3692.95" y1="5465.71" x2="3979.27" y2="5465.71" gradientUnits="userSpaceOnUse">
<stop stop-color="#FCEE99"/>
<stop offset="0.61" stop-color="#FDC182"/>
<stop offset="1" stop-color="#FEA975"/>
</linearGradient>
<linearGradient id="paint62_linear" x1="137120" y1="168025" x2="363615" y2="290821" gradientUnits="userSpaceOnUse">
<stop stop-color="#595B68"/>
<stop offset="0.54" stop-color="#38404E"/>
<stop offset="1" stop-color="#202D3B"/>
</linearGradient>
<linearGradient id="paint63_linear" x1="27862.1" y1="2691.93" x2="29769.6" y2="2691.93" gradientUnits="userSpaceOnUse">
<stop stop-color="white"/>
<stop offset="0.56" stop-color="#DBE6F9"/>
<stop offset="1" stop-color="#C3D6F5"/>
</linearGradient>
<linearGradient id="paint64_linear" x1="27608.4" y1="2840.89" x2="29297.6" y2="2840.89" gradientUnits="userSpaceOnUse">
<stop stop-color="white"/>
<stop offset="0.56" stop-color="#DBE6F9"/>
<stop offset="1" stop-color="#C3D6F5"/>
</linearGradient>
<linearGradient id="paint65_linear" x1="27608.4" y1="2915.31" x2="29297.6" y2="2915.31" gradientUnits="userSpaceOnUse">
<stop stop-color="white"/>
<stop offset="0.56" stop-color="#DBE6F9"/>
<stop offset="1" stop-color="#C3D6F5"/>
</linearGradient>
<linearGradient id="paint66_linear" x1="28021.3" y1="2989.88" x2="29619.1" y2="2989.88" gradientUnits="userSpaceOnUse">
<stop stop-color="white"/>
<stop offset="0.56" stop-color="#DBE6F9"/>
<stop offset="1" stop-color="#C3D6F5"/>
</linearGradient>
<linearGradient id="paint67_linear" x1="30247.9" y1="2766.3" x2="32004.2" y2="2766.3" gradientUnits="userSpaceOnUse">
<stop stop-color="white"/>
<stop offset="0.56" stop-color="#DBE6F9"/>
<stop offset="1" stop-color="#C3D6F5"/>
</linearGradient>
<linearGradient id="paint68_linear" x1="27608.4" y1="3138.83" x2="29297.6" y2="3138.83" gradientUnits="userSpaceOnUse">
<stop stop-color="white"/>
<stop offset="0.56" stop-color="#DBE6F9"/>
<stop offset="1" stop-color="#C3D6F5"/>
</linearGradient>
<linearGradient id="paint69_linear" x1="27608.4" y1="3213.42" x2="29297.6" y2="3213.42" gradientUnits="userSpaceOnUse">
<stop stop-color="white"/>
<stop offset="0.56" stop-color="#DBE6F9"/>
<stop offset="1" stop-color="#C3D6F5"/>
</linearGradient>
<linearGradient id="paint70_linear" x1="27608.4" y1="3287.87" x2="29297.6" y2="3287.87" gradientUnits="userSpaceOnUse">
<stop stop-color="white"/>
<stop offset="0.56" stop-color="#DBE6F9"/>
<stop offset="1" stop-color="#C3D6F5"/>
</linearGradient>
<linearGradient id="paint71_linear" x1="27608.4" y1="3362.44" x2="29297.6" y2="3362.44" gradientUnits="userSpaceOnUse">
<stop stop-color="white"/>
<stop offset="0.56" stop-color="#DBE6F9"/>
<stop offset="1" stop-color="#C3D6F5"/>
</linearGradient>
<linearGradient id="paint72_linear" x1="27862.1" y1="3511.41" x2="29769.6" y2="3511.41" gradientUnits="userSpaceOnUse">
<stop stop-color="white"/>
<stop offset="0.56" stop-color="#DBE6F9"/>
<stop offset="1" stop-color="#C3D6F5"/>
</linearGradient>
<linearGradient id="paint73_linear" x1="27608.4" y1="3660.4" x2="29297.6" y2="3660.4" gradientUnits="userSpaceOnUse">
<stop stop-color="white"/>
<stop offset="0.56" stop-color="#DBE6F9"/>
<stop offset="1" stop-color="#C3D6F5"/>
</linearGradient>
<linearGradient id="paint74_linear" x1="27608.4" y1="3755.9" x2="29297.6" y2="3755.9" gradientUnits="userSpaceOnUse">
<stop stop-color="white"/>
<stop offset="0.56" stop-color="#DBE6F9"/>
<stop offset="1" stop-color="#C3D6F5"/>
</linearGradient>
<linearGradient id="paint75_linear" x1="28021.3" y1="3809.33" x2="29619.1" y2="3809.33" gradientUnits="userSpaceOnUse">
<stop stop-color="white"/>
<stop offset="0.56" stop-color="#DBE6F9"/>
<stop offset="1" stop-color="#C3D6F5"/>
</linearGradient>
<linearGradient id="paint76_linear" x1="30247.9" y1="3585.81" x2="32004.2" y2="3585.81" gradientUnits="userSpaceOnUse">
<stop stop-color="white"/>
<stop offset="0.56" stop-color="#DBE6F9"/>
<stop offset="1" stop-color="#C3D6F5"/>
</linearGradient>
<linearGradient id="paint77_linear" x1="27608.4" y1="3958.4" x2="29297.6" y2="3958.4" gradientUnits="userSpaceOnUse">
<stop stop-color="white"/>
<stop offset="0.56" stop-color="#DBE6F9"/>
<stop offset="1" stop-color="#C3D6F5"/>
</linearGradient>
<linearGradient id="paint78_linear" x1="27608.4" y1="4032.92" x2="29297.6" y2="4032.92" gradientUnits="userSpaceOnUse">
<stop stop-color="white"/>
<stop offset="0.56" stop-color="#DBE6F9"/>
<stop offset="1" stop-color="#C3D6F5"/>
</linearGradient>
<linearGradient id="paint79_linear" x1="27862.1" y1="4155.19" x2="29769.6" y2="4155.19" gradientUnits="userSpaceOnUse">
<stop stop-color="white"/>
<stop offset="0.56" stop-color="#DBE6F9"/>
<stop offset="1" stop-color="#C3D6F5"/>
</linearGradient>
<linearGradient id="paint80_linear" x1="27608.4" y1="4304.15" x2="29297.6" y2="4304.15" gradientUnits="userSpaceOnUse">
<stop stop-color="white"/>
<stop offset="0.56" stop-color="#DBE6F9"/>
<stop offset="1" stop-color="#C3D6F5"/>
</linearGradient>
<linearGradient id="paint81_linear" x1="27608.4" y1="4378.5" x2="29297.6" y2="4378.5" gradientUnits="userSpaceOnUse">
<stop stop-color="white"/>
<stop offset="0.56" stop-color="#DBE6F9"/>
<stop offset="1" stop-color="#C3D6F5"/>
</linearGradient>
<linearGradient id="paint82_linear" x1="28021.3" y1="4453.07" x2="29619.1" y2="4453.07" gradientUnits="userSpaceOnUse">
<stop stop-color="white"/>
<stop offset="0.56" stop-color="#DBE6F9"/>
<stop offset="1" stop-color="#C3D6F5"/>
</linearGradient>
<linearGradient id="paint83_linear" x1="30247.9" y1="4229.45" x2="32004.2" y2="4229.45" gradientUnits="userSpaceOnUse">
<stop stop-color="white"/>
<stop offset="0.56" stop-color="#DBE6F9"/>
<stop offset="1" stop-color="#C3D6F5"/>
</linearGradient>
<linearGradient id="paint84_linear" x1="27608.4" y1="4602.06" x2="29297.6" y2="4602.06" gradientUnits="userSpaceOnUse">
<stop stop-color="white"/>
<stop offset="0.56" stop-color="#DBE6F9"/>
<stop offset="1" stop-color="#C3D6F5"/>
</linearGradient>
<linearGradient id="paint85_linear" x1="27608.4" y1="4676.64" x2="29297.6" y2="4676.64" gradientUnits="userSpaceOnUse">
<stop stop-color="white"/>
<stop offset="0.56" stop-color="#DBE6F9"/>
<stop offset="1" stop-color="#C3D6F5"/>
</linearGradient>
<linearGradient id="paint86_linear" x1="19795.8" y1="2840.89" x2="20369.8" y2="2840.89" gradientUnits="userSpaceOnUse">
<stop stop-color="white"/>
<stop offset="0.56" stop-color="#DBE6F9"/>
<stop offset="1" stop-color="#C3D6F5"/>
</linearGradient>
<linearGradient id="paint87_linear" x1="22498.6" y1="2989.88" x2="23381.9" y2="2989.88" gradientUnits="userSpaceOnUse">
<stop stop-color="white"/>
<stop offset="0.56" stop-color="#DBE6F9"/>
<stop offset="1" stop-color="#C3D6F5"/>
</linearGradient>
<linearGradient id="paint88_linear" x1="13772.2" y1="3213.42" x2="14078.4" y2="3213.42" gradientUnits="userSpaceOnUse">
<stop stop-color="white"/>
<stop offset="0.56" stop-color="#DBE6F9"/>
<stop offset="1" stop-color="#C3D6F5"/>
</linearGradient>
<linearGradient id="paint89_linear" x1="28833.1" y1="3511.41" x2="30540.9" y2="3511.41" gradientUnits="userSpaceOnUse">
<stop stop-color="white"/>
<stop offset="0.56" stop-color="#DBE6F9"/>
<stop offset="1" stop-color="#C3D6F5"/>
</linearGradient>
<linearGradient id="paint90_linear" x1="27403.4" y1="3660.4" x2="28614.2" y2="3660.4" gradientUnits="userSpaceOnUse">
<stop stop-color="white"/>
<stop offset="0.56" stop-color="#DBE6F9"/>
<stop offset="1" stop-color="#C3D6F5"/>
</linearGradient>
<linearGradient id="paint91_linear" x1="15123.5" y1="3958.4" x2="15464.2" y2="3958.4" gradientUnits="userSpaceOnUse">
<stop stop-color="white"/>
<stop offset="0.56" stop-color="#DBE6F9"/>
<stop offset="1" stop-color="#C3D6F5"/>
</linearGradient>
<linearGradient id="paint92_linear" x1="13772.2" y1="4032.92" x2="14078.4" y2="4032.92" gradientUnits="userSpaceOnUse">
<stop stop-color="white"/>
<stop offset="0.56" stop-color="#DBE6F9"/>
<stop offset="1" stop-color="#C3D6F5"/>
</linearGradient>
<linearGradient id="paint93_linear" x1="15879.3" y1="4155.19" x2="16314.8" y2="4155.19" gradientUnits="userSpaceOnUse">
<stop stop-color="white"/>
<stop offset="0.56" stop-color="#DBE6F9"/>
<stop offset="1" stop-color="#C3D6F5"/>
</linearGradient>
<linearGradient id="paint94_linear" x1="23309" y1="4378.5" x2="24330.9" y2="4378.5" gradientUnits="userSpaceOnUse">
<stop stop-color="white"/>
<stop offset="0.56" stop-color="#DBE6F9"/>
<stop offset="1" stop-color="#C3D6F5"/>
</linearGradient>
<linearGradient id="paint95_linear" x1="17802.5" y1="4304.15" x2="18250.3" y2="4304.15" gradientUnits="userSpaceOnUse">
<stop stop-color="white"/>
<stop offset="0.56" stop-color="#DBE6F9"/>
<stop offset="1" stop-color="#C3D6F5"/>
</linearGradient>
<linearGradient id="paint96_linear" x1="15123.5" y1="4602.07" x2="15464.2" y2="4602.07" gradientUnits="userSpaceOnUse">
<stop stop-color="white"/>
<stop offset="0.56" stop-color="#DBE6F9"/>
<stop offset="1" stop-color="#C3D6F5"/>
</linearGradient>
<linearGradient id="paint97_linear" x1="13772.2" y1="4676.64" x2="14078.4" y2="4676.64" gradientUnits="userSpaceOnUse">
<stop stop-color="white"/>
<stop offset="0.56" stop-color="#DBE6F9"/>
<stop offset="1" stop-color="#C3D6F5"/>
</linearGradient>
<linearGradient id="paint98_linear" x1="44703.7" y1="2766.3" x2="49664.4" y2="2766.3" gradientUnits="userSpaceOnUse">
<stop stop-color="#FA8696"/>
<stop offset="0.68" stop-color="#C24972"/>
<stop offset="1" stop-color="#AC3164"/>
</linearGradient>
<linearGradient id="paint99_linear" x1="51640.3" y1="2691.93" x2="57187.8" y2="2691.93" gradientUnits="userSpaceOnUse">
<stop stop-color="#FA8696"/>
<stop offset="0.68" stop-color="#C24972"/>
<stop offset="1" stop-color="#AC3164"/>
</linearGradient>
<linearGradient id="paint100_linear" x1="17599.4" y1="2840.89" x2="18175" y2="2840.89" gradientUnits="userSpaceOnUse">
<stop stop-color="#FA8696"/>
<stop offset="0.68" stop-color="#C24972"/>
<stop offset="1" stop-color="#AC3164"/>
</linearGradient>
<linearGradient id="paint101_linear" x1="40227.2" y1="2915.31" x2="42921.8" y2="2915.31" gradientUnits="userSpaceOnUse">
<stop stop-color="#FA8696"/>
<stop offset="0.68" stop-color="#C24972"/>
<stop offset="1" stop-color="#AC3164"/>
</linearGradient>
<linearGradient id="paint102_linear" x1="26923.7" y1="3213.42" x2="28294" y2="3213.42" gradientUnits="userSpaceOnUse">
<stop stop-color="#FA8696"/>
<stop offset="0.68" stop-color="#C24972"/>
<stop offset="1" stop-color="#AC3164"/>
</linearGradient>
<linearGradient id="paint103_linear" x1="15123.5" y1="3138.83" x2="15464.2" y2="3138.83" gradientUnits="userSpaceOnUse">
<stop stop-color="#FA8696"/>
<stop offset="0.68" stop-color="#C24972"/>
<stop offset="1" stop-color="#AC3164"/>
</linearGradient>
<linearGradient id="paint104_linear" x1="54372.8" y1="3362.44" x2="60051.2" y2="3362.44" gradientUnits="userSpaceOnUse">
<stop stop-color="#FA8696"/>
<stop offset="0.68" stop-color="#C24972"/>
<stop offset="1" stop-color="#AC3164"/>
</linearGradient>
<linearGradient id="paint105_linear" x1="34759.7" y1="3287.87" x2="36845.4" y2="3287.87" gradientUnits="userSpaceOnUse">
<stop stop-color="#FA8696"/>
<stop offset="0.68" stop-color="#C24972"/>
<stop offset="1" stop-color="#AC3164"/>
</linearGradient>
<linearGradient id="paint106_linear" x1="44703.7" y1="3585.81" x2="49664.4" y2="3585.81" gradientUnits="userSpaceOnUse">
<stop stop-color="#FA8696"/>
<stop offset="0.68" stop-color="#C24972"/>
<stop offset="1" stop-color="#AC3164"/>
</linearGradient>
<linearGradient id="paint107_linear" x1="51848.8" y1="3511.41" x2="56254.7" y2="3511.41" gradientUnits="userSpaceOnUse">
<stop stop-color="#FA8696"/>
<stop offset="0.68" stop-color="#C24972"/>
<stop offset="1" stop-color="#AC3164"/>
</linearGradient>
<linearGradient id="paint108_linear" x1="46662" y1="3755.9" x2="50387.9" y2="3755.9" gradientUnits="userSpaceOnUse">
<stop stop-color="#FA8696"/>
<stop offset="0.68" stop-color="#C24972"/>
<stop offset="1" stop-color="#AC3164"/>
</linearGradient>
<linearGradient id="paint109_linear" x1="48867.2" y1="3958.4" x2="53445.8" y2="3958.4" gradientUnits="userSpaceOnUse">
<stop stop-color="#FA8696"/>
<stop offset="0.68" stop-color="#C24972"/>
<stop offset="1" stop-color="#AC3164"/>
</linearGradient>
<linearGradient id="paint110_linear" x1="26923.7" y1="4032.92" x2="28294" y2="4032.92" gradientUnits="userSpaceOnUse">
<stop stop-color="#FA8696"/>
<stop offset="0.68" stop-color="#C24972"/>
<stop offset="1" stop-color="#AC3164"/>
</linearGradient>
<linearGradient id="paint111_linear" x1="44703.7" y1="4229.45" x2="49664.4" y2="4229.45" gradientUnits="userSpaceOnUse">
<stop stop-color="#FA8696"/>
<stop offset="0.68" stop-color="#C24972"/>
<stop offset="1" stop-color="#AC3164"/>
</linearGradient>
<linearGradient id="paint112_linear" x1="28833.1" y1="4155.19" x2="30540.9" y2="4155.19" gradientUnits="userSpaceOnUse">
<stop stop-color="#FA8696"/>
<stop offset="0.68" stop-color="#C24972"/>
<stop offset="1" stop-color="#AC3164"/>
</linearGradient>
<linearGradient id="paint113_linear" x1="33949.3" y1="4304.15" x2="36142.2" y2="4304.15" gradientUnits="userSpaceOnUse">
<stop stop-color="#FA8696"/>
<stop offset="0.68" stop-color="#C24972"/>
<stop offset="1" stop-color="#AC3164"/>
</linearGradient>
<linearGradient id="paint114_linear" x1="46662" y1="4378.5" x2="50387.9" y2="4378.5" gradientUnits="userSpaceOnUse">
<stop stop-color="#FA8696"/>
<stop offset="0.68" stop-color="#C24972"/>
<stop offset="1" stop-color="#AC3164"/>
</linearGradient>
<linearGradient id="paint115_linear" x1="48867.2" y1="4602.07" x2="53445.8" y2="4602.07" gradientUnits="userSpaceOnUse">
<stop stop-color="#FA8696"/>
<stop offset="0.68" stop-color="#C24972"/>
<stop offset="1" stop-color="#AC3164"/>
</linearGradient>
<linearGradient id="paint116_linear" x1="27956.7" y1="2691.93" x2="29222" y2="2691.93" gradientUnits="userSpaceOnUse">
<stop stop-color="#FCEE99"/>
<stop offset="0.61" stop-color="#FDC182"/>
<stop offset="1" stop-color="#FEA975"/>
</linearGradient>
<linearGradient id="paint117_linear" x1="39966.9" y1="2691.93" x2="42272.7" y2="2691.93" gradientUnits="userSpaceOnUse">
<stop stop-color="#FCEE99"/>
<stop offset="0.61" stop-color="#FDC182"/>
<stop offset="1" stop-color="#FEA975"/>
</linearGradient>
<linearGradient id="paint118_linear" x1="29848" y1="2915.31" x2="31537.3" y2="2915.31" gradientUnits="userSpaceOnUse">
<stop stop-color="#FCEE99"/>
<stop offset="0.61" stop-color="#FDC182"/>
<stop offset="1" stop-color="#FEA975"/>
</linearGradient>
<linearGradient id="paint119_linear" x1="34759.7" y1="2840.89" x2="36845.4" y2="2840.89" gradientUnits="userSpaceOnUse">
<stop stop-color="#FCEE99"/>
<stop offset="0.61" stop-color="#FDC182"/>
<stop offset="1" stop-color="#FEA975"/>
</linearGradient>
<linearGradient id="paint120_linear" x1="25453.1" y1="2840.89" x2="26334.4" y2="2840.89" gradientUnits="userSpaceOnUse">
<stop stop-color="#FCEE99"/>
<stop offset="0.61" stop-color="#FDC182"/>
<stop offset="1" stop-color="#FEA975"/>
</linearGradient>
<linearGradient id="paint121_linear" x1="13298.8" y1="2915.31" x2="13539.1" y2="2915.31" gradientUnits="userSpaceOnUse">
<stop stop-color="#FCEE99"/>
<stop offset="0.61" stop-color="#FDC182"/>
<stop offset="1" stop-color="#FEA975"/>
</linearGradient>
<linearGradient id="paint122_linear" x1="17599.4" y1="3138.83" x2="18175" y2="3138.83" gradientUnits="userSpaceOnUse">
<stop stop-color="#FCEE99"/>
<stop offset="0.61" stop-color="#FDC182"/>
<stop offset="1" stop-color="#FEA975"/>
</linearGradient>
<linearGradient id="paint123_linear" x1="26832.2" y1="3138.83" x2="28065.4" y2="3138.83" gradientUnits="userSpaceOnUse">
<stop stop-color="#FCEE99"/>
<stop offset="0.61" stop-color="#FDC182"/>
<stop offset="1" stop-color="#FEA975"/>
</linearGradient>
<linearGradient id="paint124_linear" x1="19209.7" y1="3138.83" x2="19731" y2="3138.83" gradientUnits="userSpaceOnUse">
<stop stop-color="#FCEE99"/>
<stop offset="0.61" stop-color="#FDC182"/>
<stop offset="1" stop-color="#FEA975"/>
</linearGradient>
<linearGradient id="paint125_linear" x1="32922.5" y1="3213.42" x2="34614.3" y2="3213.42" gradientUnits="userSpaceOnUse">
<stop stop-color="#FCEE99"/>
<stop offset="0.61" stop-color="#FDC182"/>
<stop offset="1" stop-color="#FEA975"/>
</linearGradient>
<linearGradient id="paint126_linear" x1="17599.4" y1="3287.87" x2="18175" y2="3287.87" gradientUnits="userSpaceOnUse">
<stop stop-color="#FCEE99"/>
<stop offset="0.61" stop-color="#FDC182"/>
<stop offset="1" stop-color="#FEA975"/>
</linearGradient>
<linearGradient id="paint127_linear" x1="19795.8" y1="3287.87" x2="20369.8" y2="3287.87" gradientUnits="userSpaceOnUse">
<stop stop-color="#FCEE99"/>
<stop offset="0.61" stop-color="#FDC182"/>
<stop offset="1" stop-color="#FEA975"/>
</linearGradient>
<linearGradient id="paint128_linear" x1="25453.1" y1="3287.87" x2="26334.4" y2="3287.87" gradientUnits="userSpaceOnUse">
<stop stop-color="#FCEE99"/>
<stop offset="0.61" stop-color="#FDC182"/>
<stop offset="1" stop-color="#FEA975"/>
</linearGradient>
<linearGradient id="paint129_linear" x1="34302.5" y1="3362.44" x2="36088.2" y2="3362.44" gradientUnits="userSpaceOnUse">
<stop stop-color="#FCEE99"/>
<stop offset="0.61" stop-color="#FDC182"/>
<stop offset="1" stop-color="#FEA975"/>
</linearGradient>
<linearGradient id="paint130_linear" x1="15879.3" y1="3511.41" x2="16314.8" y2="3511.41" gradientUnits="userSpaceOnUse">
<stop stop-color="#FCEE99"/>
<stop offset="0.61" stop-color="#FDC182"/>
<stop offset="1" stop-color="#FEA975"/>
</linearGradient>
<linearGradient id="paint131_linear" x1="33949.3" y1="3660.4" x2="36142.2" y2="3660.4" gradientUnits="userSpaceOnUse">
<stop stop-color="#FCEE99"/>
<stop offset="0.61" stop-color="#FDC182"/>
<stop offset="1" stop-color="#FEA975"/>
</linearGradient>
<linearGradient id="paint132_linear" x1="23309" y1="3755.9" x2="24330.9" y2="3755.9" gradientUnits="userSpaceOnUse">
<stop stop-color="#FCEE99"/>
<stop offset="0.61" stop-color="#FDC182"/>
<stop offset="1" stop-color="#FEA975"/>
</linearGradient>
<linearGradient id="paint133_linear" x1="13298.8" y1="3755.9" x2="13539.1" y2="3755.9" gradientUnits="userSpaceOnUse">
<stop stop-color="#FCEE99"/>
<stop offset="0.61" stop-color="#FDC182"/>
<stop offset="1" stop-color="#FEA975"/>
</linearGradient>
<linearGradient id="paint134_linear" x1="22498.6" y1="3809.33" x2="23381.9" y2="3809.33" gradientUnits="userSpaceOnUse">
<stop stop-color="#FCEE99"/>
<stop offset="0.61" stop-color="#FDC182"/>
<stop offset="1" stop-color="#FEA975"/>
</linearGradient>
<linearGradient id="paint135_linear" x1="43532.2" y1="3809.33" x2="46592.6" y2="3809.33" gradientUnits="userSpaceOnUse">
<stop stop-color="#FCEE99"/>
<stop offset="0.61" stop-color="#FDC182"/>
<stop offset="1" stop-color="#FEA975"/>
</linearGradient>
<linearGradient id="paint136_linear" x1="14427.6" y1="3809.33" x2="14700.9" y2="3809.33" gradientUnits="userSpaceOnUse">
<stop stop-color="#FCEE99"/>
<stop offset="0.61" stop-color="#FDC182"/>
<stop offset="1" stop-color="#FEA975"/>
</linearGradient>
<linearGradient id="paint137_linear" x1="19209.7" y1="3958.4" x2="19731" y2="3958.4" gradientUnits="userSpaceOnUse">
<stop stop-color="#FCEE99"/>
<stop offset="0.61" stop-color="#FDC182"/>
<stop offset="1" stop-color="#FEA975"/>
</linearGradient>
<linearGradient id="paint138_linear" x1="32922.5" y1="4032.92" x2="34614.3" y2="4032.92" gradientUnits="userSpaceOnUse">
<stop stop-color="#FCEE99"/>
<stop offset="0.61" stop-color="#FDC182"/>
<stop offset="1" stop-color="#FEA975"/>
</linearGradient>
<linearGradient id="paint139_linear" x1="74705.7" y1="4155.19" x2="83902.8" y2="4155.19" gradientUnits="userSpaceOnUse">
<stop stop-color="#FCEE99"/>
<stop offset="0.61" stop-color="#FDC182"/>
<stop offset="1" stop-color="#FEA975"/>
</linearGradient>
<linearGradient id="paint140_linear" x1="27403.4" y1="4304.15" x2="28614.2" y2="4304.15" gradientUnits="userSpaceOnUse">
<stop stop-color="#FCEE99"/>
<stop offset="0.61" stop-color="#FDC182"/>
<stop offset="1" stop-color="#FEA975"/>
</linearGradient>
<linearGradient id="paint141_linear" x1="17944" y1="4304.15" x2="18365.1" y2="4304.15" gradientUnits="userSpaceOnUse">
<stop stop-color="#FCEE99"/>
<stop offset="0.61" stop-color="#FDC182"/>
<stop offset="1" stop-color="#FEA975"/>
</linearGradient>
<linearGradient id="paint142_linear" x1="13298.8" y1="4378.5" x2="13539.1" y2="4378.5" gradientUnits="userSpaceOnUse">
<stop stop-color="#FCEE99"/>
<stop offset="0.61" stop-color="#FDC182"/>
<stop offset="1" stop-color="#FEA975"/>
</linearGradient>
<linearGradient id="paint143_linear" x1="22498.6" y1="4453.07" x2="23381.9" y2="4453.07" gradientUnits="userSpaceOnUse">
<stop stop-color="#FCEE99"/>
<stop offset="0.61" stop-color="#FDC182"/>
<stop offset="1" stop-color="#FEA975"/>
</linearGradient>
<linearGradient id="paint144_linear" x1="26923.7" y1="4676.64" x2="28294" y2="4676.64" gradientUnits="userSpaceOnUse">
<stop stop-color="#FCEE99"/>
<stop offset="0.61" stop-color="#FDC182"/>
<stop offset="1" stop-color="#FEA975"/>
</linearGradient>
<linearGradient id="paint145_linear" x1="19209.7" y1="4602.06" x2="19731" y2="4602.06" gradientUnits="userSpaceOnUse">
<stop stop-color="#FCEE99"/>
<stop offset="0.61" stop-color="#FDC182"/>
<stop offset="1" stop-color="#FEA975"/>
</linearGradient>
<linearGradient id="paint146_linear" x1="32922.5" y1="4676.64" x2="34614.3" y2="4676.64" gradientUnits="userSpaceOnUse">
<stop stop-color="#FCEE99"/>
<stop offset="0.61" stop-color="#FDC182"/>
<stop offset="1" stop-color="#FEA975"/>
</linearGradient>
<linearGradient id="paint147_linear" x1="234798" y1="15812.5" x2="234798" y2="18591" gradientUnits="userSpaceOnUse">
<stop stop-color="#595B68"/>
<stop offset="0.54" stop-color="#38404E"/>
<stop offset="1" stop-color="#202D3B"/>
</linearGradient>
<linearGradient id="paint148_linear" x1="10653.2" y1="7145.76" x2="10939.5" y2="7145.76" gradientUnits="userSpaceOnUse">
<stop stop-color="#FA8696"/>
<stop offset="0.68" stop-color="#C24972"/>
<stop offset="1" stop-color="#AC3164"/>
</linearGradient>
<linearGradient id="paint149_linear" x1="11089.9" y1="7145.71" x2="11376.2" y2="7145.71" gradientUnits="userSpaceOnUse">
<stop stop-color="#00DCAC"/>
<stop offset="0.12" stop-color="#00CEA6"/>
<stop offset="0.72" stop-color="#02918E"/>
<stop offset="1" stop-color="#027984"/>
</linearGradient>
<linearGradient id="paint150_linear" x1="11526.6" y1="7145.72" x2="11813" y2="7145.72" gradientUnits="userSpaceOnUse">
<stop stop-color="#FCEE99"/>
<stop offset="0.61" stop-color="#FDC182"/>
<stop offset="1" stop-color="#FEA975"/>
</linearGradient>
<linearGradient id="paint151_linear" x1="11076" y1="8821.72" x2="11376.5" y2="8821.72" gradientUnits="userSpaceOnUse">
<stop stop-color="white"/>
<stop offset="0.56" stop-color="#DBE6F9"/>
<stop offset="1" stop-color="#C3D6F5"/>
</linearGradient>
<linearGradient id="paint152_linear" x1="5949.25" y1="10720.7" x2="6025.84" y2="10720.7" gradientUnits="userSpaceOnUse">
<stop stop-color="white"/>
<stop offset="0.56" stop-color="#DBE6F9"/>
<stop offset="1" stop-color="#C3D6F5"/>
</linearGradient>
<linearGradient id="paint153_linear" x1="11603" y1="8821.72" x2="11903.5" y2="8821.72" gradientUnits="userSpaceOnUse">
<stop stop-color="white"/>
<stop offset="0.56" stop-color="#DBE6F9"/>
<stop offset="1" stop-color="#C3D6F5"/>
</linearGradient>
<linearGradient id="paint154_linear" x1="70.0519" y1="430.042" x2="11.5185" y2="401.007" gradientUnits="userSpaceOnUse">
<stop stop-color="#FA8696"/>
<stop offset="0.22" stop-color="#F68294"/>
<stop offset="0.43" stop-color="#EB768C"/>
<stop offset="0.65" stop-color="#D96181"/>
<stop offset="0.87" stop-color="#BF4570"/>
<stop offset="1" stop-color="#AC3164"/>
</linearGradient>
<linearGradient id="paint155_linear" x1="99.0897" y1="449.569" x2="50.5878" y2="454.574" gradientUnits="userSpaceOnUse">
<stop stop-color="#595B68"/>
<stop offset="0.26" stop-color="#505461"/>
<stop offset="0.68" stop-color="#37404D"/>
<stop offset="1" stop-color="#202D3B"/>
</linearGradient>
<linearGradient id="paint156_linear" x1="-938555" y1="118424" x2="-954683" y2="133376" gradientUnits="userSpaceOnUse">
<stop stop-color="#595B68"/>
<stop offset="0.26" stop-color="#505461"/>
<stop offset="0.68" stop-color="#37404D"/>
<stop offset="1" stop-color="#202D3B"/>
</linearGradient>
<linearGradient id="paint157_linear" x1="-366626" y1="119716" x2="-377830" y2="118946" gradientUnits="userSpaceOnUse">
<stop stop-color="#FA8696"/>
<stop offset="0.68" stop-color="#C24972"/>
<stop offset="1" stop-color="#AC3164"/>
</linearGradient>
<linearGradient id="paint158_linear" x1="-438829" y1="106831" x2="-446541" y2="104989" gradientUnits="userSpaceOnUse">
<stop stop-color="#FA8696"/>
<stop offset="0.68" stop-color="#C24972"/>
<stop offset="1" stop-color="#AC3164"/>
</linearGradient>
<linearGradient id="paint159_linear" x1="16.2106" y1="467.558" x2="29.7807" y2="464.856" gradientUnits="userSpaceOnUse">
<stop stop-color="#767AA4"/>
<stop offset="0.55" stop-color="#5C6081"/>
<stop offset="1" stop-color="#4B4F69"/>
</linearGradient>
<linearGradient id="paint160_linear" x1="-336747" y1="71243.7" x2="-340163" y2="71516.9" gradientUnits="userSpaceOnUse">
<stop stop-color="#767AA4"/>
<stop offset="0.55" stop-color="#5C6081"/>
<stop offset="1" stop-color="#4B4F69"/>
</linearGradient>
<linearGradient id="paint161_linear" x1="-298293" y1="61481.8" x2="-297504" y2="61643.9" gradientUnits="userSpaceOnUse">
<stop stop-color="#767AA4"/>
<stop offset="0.55" stop-color="#5C6081"/>
<stop offset="1" stop-color="#4B4F69"/>
</linearGradient>
<linearGradient id="paint162_linear" x1="-35734.6" y1="11437.5" x2="-35776.8" y2="11440.9" gradientUnits="userSpaceOnUse">
<stop stop-color="white"/>
<stop offset="0.56" stop-color="#DBE6F9"/>
<stop offset="1" stop-color="#C3D6F5"/>
</linearGradient>
<linearGradient id="paint163_linear" x1="-83811.9" y1="32272.2" x2="-83199.5" y2="32204.2" gradientUnits="userSpaceOnUse">
<stop stop-color="#FCEE99"/>
<stop offset="0.61" stop-color="#FDC182"/>
<stop offset="1" stop-color="#FEA975"/>
</linearGradient>
<linearGradient id="paint164_linear" x1="-346983" y1="105937" x2="-358313" y2="103995" gradientUnits="userSpaceOnUse">
<stop stop-color="#595B68"/>
<stop offset="0.26" stop-color="#505461"/>
<stop offset="0.68" stop-color="#37404D"/>
<stop offset="1" stop-color="#202D3B"/>
</linearGradient>
<linearGradient id="paint165_linear" x1="-282074" y1="110045" x2="-275178" y2="110247" gradientUnits="userSpaceOnUse">
<stop stop-color="#595B68"/>
<stop offset="0.26" stop-color="#505461"/>
<stop offset="0.68" stop-color="#37404D"/>
<stop offset="1" stop-color="#202D3B"/>
</linearGradient>
<linearGradient id="paint166_linear" x1="-345873" y1="90970.1" x2="-330859" y2="81504.9" gradientUnits="userSpaceOnUse">
<stop stop-color="#FCEE99"/>
<stop offset="0.61" stop-color="#FDC182"/>
<stop offset="1" stop-color="#FEA975"/>
</linearGradient>
<linearGradient id="paint167_linear" x1="-95201.1" y1="33870.3" x2="-96595.7" y2="33369.9" gradientUnits="userSpaceOnUse">
<stop stop-color="#FCEE99"/>
<stop offset="0.61" stop-color="#FDC182"/>
<stop offset="1" stop-color="#FEA975"/>
</linearGradient>
</defs>
</svg>
