<svg width="81" height="83" viewBox="0 0 81 83" fill="none" xmlns="http://www.w3.org/2000/svg">
<rect y="0.178711" width="81" height="82.1392" rx="12" fill="#ECF7FF"/>
<path d="M57.287 28.6719L40.746 18.6409C40.2864 18.3622 39.7138 18.3622 39.2541 18.6409L22.7131 28.6719C22.271 28.94 22 29.4258 22 29.9501V35.6762C22 47.7368 28.8359 58.7522 39.4732 62.9504C39.8119 63.0841 40.1879 63.0843 40.5268 62.9504C51.1384 58.7627 58 47.7711 58 35.6762V29.9501C58.0001 29.4257 57.7292 28.94 57.287 28.6719ZM47.2084 37.3992L38.0638 46.7209C37.494 47.3017 36.5702 47.3017 36.0004 46.7209L32.7911 43.4495C32.2213 42.8688 32.2213 41.927 32.7911 41.3462C33.3609 40.7654 34.2848 40.7654 34.8545 41.3462L37.0321 43.5659L45.145 35.2959C45.7147 34.7151 46.6386 34.7151 47.2084 35.2959C47.7783 35.8768 47.7783 36.8185 47.2084 37.3992Z" fill="#3C5AE7"/>
</svg>
