<svg width="81" height="83" viewBox="0 0 81 83" fill="none" xmlns="http://www.w3.org/2000/svg">
<rect y="0.421875" width="81" height="82.1392" rx="12" fill="#ECF7FF"/>
<path d="M57.287 28.915L40.746 18.8841C40.2864 18.6054 39.7138 18.6054 39.2541 18.8841L22.7131 28.915C22.271 29.1832 22 29.6689 22 30.1933V35.9194C22 47.9799 28.8359 58.9954 39.4732 63.1936C39.8119 63.3273 40.1879 63.3274 40.5268 63.1936C51.1384 59.0058 58 48.0143 58 35.9194V30.1933C58.0001 29.6689 57.7292 29.1832 57.287 28.915ZM47.2084 37.6424L38.0638 46.9641C37.494 47.5449 36.5702 47.5449 36.0004 46.9641L32.7911 43.6927C32.2213 43.1119 32.2213 42.1702 32.7911 41.5893C33.3609 41.0086 34.2848 41.0086 34.8545 41.5893L37.0321 43.809L45.145 35.539C45.7147 34.9583 46.6386 34.9583 47.2084 35.539C47.7783 36.1199 47.7783 37.0616 47.2084 37.6424Z" fill="#3C5AE7"/>
</svg>
