<svg width="680" height="481" viewBox="0 0 680 481" fill="none" xmlns="http://www.w3.org/2000/svg">
<mask id="mask0" style="mask-type:alpha" maskUnits="userSpaceOnUse" x="0" y="0" width="680" height="481">
<rect width="680" height="481" fill="#C4C4C4"/>
</mask>
<g mask="url(#mask0)">
<path d="M511.146 329.653H509.667L509.928 309.555C510.015 301.812 506.709 295.287 502.62 295.2C498.531 295.113 495.051 301.638 494.964 309.381V310.164C494.877 318.865 490.266 325.825 484.785 325.825C479.304 325.738 474.953 318.604 475.04 309.903V309.555C475.127 301.116 472.778 295.287 470.516 295.2L465.035 295.113V293.634L470.516 293.721C474.518 293.808 476.606 301.899 476.519 309.555V309.903C476.432 317.647 480.174 324.172 484.785 324.259C489.396 324.346 493.311 317.821 493.398 310.077V309.294C493.485 300.594 497.661 293.547 502.62 293.634C507.579 293.721 511.494 300.855 511.407 309.468L511.146 329.653Z" fill="#F1F2F2"/>
<g opacity="0.2">
<path opacity="0.2" d="M582.575 81.0001C578.66 80.9131 574.919 81.7832 571.526 83.3492C567.611 74.475 558.824 68.2108 548.47 68.1238C545.512 68.1238 542.641 68.5588 539.944 69.5158C536.377 59.8586 527.242 52.8984 516.28 52.8114C503.838 52.6374 493.398 61.3376 490.962 73.0829C490.353 72.9959 489.831 72.9959 489.222 72.9959C475.823 72.8219 464.687 83.0012 463.469 96.0516C460.511 93.7895 456.857 92.4845 452.855 92.3974C448.331 92.3104 444.155 93.9635 440.935 96.6606V96.5736C441.022 92.0494 438.325 87.9603 434.236 85.6113C432.931 83.0882 430.756 81.0001 428.059 79.6081C434.323 76.389 439.195 70.9079 441.806 64.2957C443.459 64.7307 445.112 64.9917 446.852 65.0787C457.379 65.2527 465.992 56.8135 466.079 46.3732C466.253 35.8459 457.814 27.2327 447.374 27.1457C444.416 27.1457 441.632 27.7547 439.195 28.8857C436.324 22.2736 429.712 17.6624 422.056 17.5754C419.794 17.5754 417.706 17.9234 415.705 18.6195C413.095 11.4853 406.222 6.26512 398.13 6.17812C388.908 6.09112 381.078 12.5293 379.251 21.2295C378.816 21.2295 378.381 21.1425 377.946 21.1425C368.027 20.9685 359.675 28.5377 358.805 38.282C356.63 36.6289 353.846 35.5849 350.888 35.5849C343.493 35.4979 337.403 41.4141 337.316 48.8093C337.229 56.2045 343.145 62.2946 350.54 62.3816C353.759 62.3816 356.717 61.3376 359.066 59.5106C359.936 67.1668 366.374 73.2569 374.292 73.3439C380.121 73.4309 385.254 70.2989 387.951 65.6007C390.039 70.3859 393.432 74.475 397.695 77.52L270.759 75.693C262.407 75.606 255.62 81.3481 255.446 88.4823L254.75 144.251L219.949 143.816C214.816 143.729 210.553 147.122 210.466 151.211L210.118 177.747C208.03 176.964 205.681 176.442 203.332 176.442C200.983 176.442 198.721 176.79 196.633 177.486C193.849 169.917 186.715 164.522 178.188 164.435C168.531 164.348 160.353 171.135 158.439 180.27C158.004 180.27 157.569 180.183 157.134 180.183C146.693 180.009 137.993 188.013 137.036 198.192C134.687 196.452 131.816 195.408 128.771 195.321C120.941 195.234 114.59 201.411 114.503 209.242C114.416 217.072 120.593 223.423 128.423 223.51C131.816 223.597 134.861 222.379 137.297 220.465C138.167 228.556 144.953 234.907 153.306 234.994C159.396 235.081 164.79 231.775 167.661 226.816C172.359 237.43 182.886 244.826 195.241 245C200.374 245.087 205.159 243.869 209.422 241.693L208.987 276.407C208.9 280.323 212.554 283.542 217.252 283.977C211.51 285.195 207.247 290.241 207.16 296.331L205.594 413.871C205.507 420.918 211.162 426.748 218.296 426.835L451.376 429.967C458.423 430.054 464.252 424.398 464.339 417.264L465.905 299.724C465.992 293.634 461.816 288.501 456.161 287.109H458.858C463.991 287.196 468.254 283.803 468.341 279.714L469.994 154.256C470.081 150.08 465.905 146.687 460.685 146.6L440.413 146.339L440.674 123.457C443.807 126.241 447.896 127.981 452.42 128.068C456.683 128.155 460.685 126.676 463.817 124.153C464.948 134.507 473.648 142.598 484.263 142.772C492.093 142.859 498.966 138.683 502.62 132.332C508.623 145.904 522.196 155.474 537.943 155.648C554.822 155.909 569.264 145.469 575.006 130.591C577.181 131.201 579.443 131.549 581.792 131.636C595.887 131.81 607.458 120.586 607.632 106.405C607.893 92.7455 596.67 81.1741 582.575 81.0001Z" fill="#231F20"/>
<path opacity="0.2" d="M150.086 77.433C153.479 77.52 156.524 76.302 158.96 74.3879C159.831 82.4792 166.617 88.8303 174.969 88.9173C181.059 89.0043 186.453 85.6983 189.324 80.7391C194.022 91.3534 204.55 98.7486 216.904 98.9226C230.041 99.0966 241.352 90.9184 245.876 79.3471C247.529 79.8691 249.356 80.1301 251.183 80.1301C262.232 80.3041 271.281 71.4299 271.368 60.4676C271.542 49.4183 262.667 40.457 251.705 40.283C248.66 40.283 245.702 40.892 243.092 42.1101C240.047 35.1499 233.173 30.2778 225.082 30.1907C222.733 30.1907 220.471 30.5388 218.383 31.2348C215.599 23.6656 208.465 18.2714 199.939 18.1844C190.281 18.0974 182.103 24.8836 180.189 34.0188C179.754 34.0188 179.319 33.9318 178.884 33.9318C168.444 33.7578 159.744 41.7621 158.786 51.9413C156.437 50.2013 153.566 49.1573 150.521 49.0703C142.691 48.9833 136.34 55.1604 136.253 62.9906C136.079 70.9079 142.256 77.259 150.086 77.433Z" fill="#231F20"/>
</g>
<path d="M468.777 411.696C468.69 418.743 462.86 424.486 455.813 424.399L222.734 421.266C215.687 421.179 209.944 415.35 210.031 408.303L211.598 290.763C211.685 283.716 217.514 277.974 224.561 278.061L457.64 281.193C464.687 281.28 470.43 287.109 470.343 294.156L468.777 411.696Z" fill="#F1F2F2"/>
<path d="M308.34 381.029L307.851 417.74L402.326 419.001L402.815 382.29L308.34 381.029Z" fill="#BCBEC0"/>
<path d="M287.559 364.934L287.419 375.46L381.894 376.715L382.034 366.189L287.559 364.934Z" fill="#BCBEC0"/>
<path d="M413.708 350.939L413.57 361.465L424.097 361.603L424.235 351.077L413.708 350.939Z" fill="#BCBEC0"/>
<path d="M397.995 350.726L397.855 361.252L408.381 361.392L408.521 350.866L397.995 350.726Z" fill="#BCBEC0"/>
<path d="M382.197 350.509L382.054 361.036L392.58 361.179L392.723 350.653L382.197 350.509Z" fill="#BCBEC0"/>
<path d="M366.481 350.301L366.342 360.827L376.868 360.967L377.008 350.44L366.481 350.301Z" fill="#BCBEC0"/>
<path d="M350.766 350.09L350.626 360.616L361.152 360.756L361.292 350.229L350.766 350.09Z" fill="#BCBEC0"/>
<path d="M334.969 349.875L334.827 360.402L345.354 360.543L345.495 350.017L334.969 349.875Z" fill="#BCBEC0"/>
<path d="M319.258 349.662L319.115 360.188L329.641 360.332L329.784 349.805L319.258 349.662Z" fill="#BCBEC0"/>
<path d="M303.456 349.45L303.313 359.977L313.839 360.12L313.982 349.593L303.456 349.45Z" fill="#BCBEC0"/>
<path d="M287.738 349.244L287.6 359.77L298.126 359.908L298.264 349.382L287.738 349.244Z" fill="#BCBEC0"/>
<path d="M271.94 349.027L271.799 359.554L282.325 359.695L282.466 349.169L271.94 349.027Z" fill="#BCBEC0"/>
<path d="M256.226 348.816L256.087 359.343L266.613 359.482L266.753 348.956L256.226 348.816Z" fill="#BCBEC0"/>
<path d="M240.513 348.602L240.372 359.128L250.898 359.269L251.039 348.743L240.513 348.602Z" fill="#BCBEC0"/>
<path d="M224.715 348.391L224.572 358.917L235.099 359.06L235.242 348.534L224.715 348.391Z" fill="#BCBEC0"/>
<path d="M419.188 335.238L419.05 345.764L429.576 345.902L429.714 335.376L419.188 335.238Z" fill="#BCBEC0"/>
<path d="M434.951 335.393L434.812 345.919L455.778 346.196L455.917 335.67L434.951 335.393Z" fill="#BCBEC0"/>
<path d="M403.475 335.023L403.334 345.55L413.86 345.691L414.002 335.165L403.475 335.023Z" fill="#BCBEC0"/>
<path d="M387.673 334.813L387.534 345.339L398.06 345.479L398.2 334.952L387.673 334.813Z" fill="#BCBEC0"/>
<path d="M371.961 334.599L371.82 345.125L382.346 345.266L382.487 334.74L371.961 334.599Z" fill="#BCBEC0"/>
<path d="M356.162 334.387L356.02 344.913L366.547 345.054L366.688 334.528L356.162 334.387Z" fill="#BCBEC0"/>
<path d="M340.442 334.179L340.305 344.705L350.832 344.841L350.968 334.315L340.442 334.179Z" fill="#BCBEC0"/>
<path d="M324.646 333.963L324.505 344.489L335.031 344.63L335.173 334.104L324.646 333.963Z" fill="#BCBEC0"/>
<path d="M308.932 333.753L308.792 344.279L319.318 344.419L319.458 333.892L308.932 333.753Z" fill="#BCBEC0"/>
<path d="M293.219 333.539L293.078 344.065L303.604 344.206L303.745 333.68L293.219 333.539Z" fill="#BCBEC0"/>
<path d="M277.418 333.327L277.279 343.854L287.805 343.993L287.945 333.467L277.418 333.327Z" fill="#BCBEC0"/>
<path d="M261.704 333.116L261.565 343.643L272.091 343.782L272.231 333.256L261.704 333.116Z" fill="#BCBEC0"/>
<path d="M245.904 332.902L245.762 343.428L256.289 343.57L256.43 333.043L245.904 332.902Z" fill="#BCBEC0"/>
<path d="M224.902 332.606L224.762 343.132L240.508 343.341L240.648 332.815L224.902 332.606Z" fill="#BCBEC0"/>
<path d="M387.249 366.328L387.109 376.854L397.636 376.994L397.775 366.468L387.249 366.328Z" fill="#BCBEC0"/>
<path d="M271.818 364.74L271.673 375.266L282.2 375.411L282.344 364.884L271.818 364.74Z" fill="#BCBEC0"/>
<path d="M256.012 364.532L255.874 375.058L266.4 375.196L266.538 364.67L256.012 364.532Z" fill="#BCBEC0"/>
<path d="M240.298 364.32L240.158 374.846L250.685 374.986L250.824 364.459L240.298 364.32Z" fill="#BCBEC0"/>
<path d="M234.914 374.807L224.387 374.633L224.561 364.106L235.002 364.28L234.914 374.807Z" fill="#BCBEC0"/>
<path d="M403.051 366.542L402.913 377.069L413.44 377.207L413.578 366.68L403.051 366.542Z" fill="#BCBEC0"/>
<path d="M418.764 366.753L418.626 377.279L429.152 377.417L429.29 366.891L418.764 366.753Z" fill="#BCBEC0"/>
<path d="M434.481 366.959L434.338 377.485L444.865 377.628L445.008 367.102L434.481 366.959Z" fill="#BCBEC0"/>
<path d="M450.28 367.176L450.14 377.702L460.666 377.842L460.806 367.316L450.28 367.176Z" fill="#BCBEC0"/>
<path d="M429.453 351.109L429.313 361.635L455.585 361.984L455.725 351.458L429.453 351.109Z" fill="#BCBEC0"/>
<path d="M414.132 319.422L413.992 329.948L424.518 330.088L424.658 319.562L414.132 319.422Z" fill="#BCBEC0"/>
<path d="M408.745 329.827L398.305 329.74L398.392 319.213L408.919 319.387L408.745 329.827Z" fill="#BCBEC0"/>
<path d="M382.625 318.993L382.48 329.519L393.006 329.664L393.151 319.138L382.625 318.993Z" fill="#BCBEC0"/>
<path d="M366.906 318.788L366.767 329.314L377.293 329.454L377.433 318.927L366.906 318.788Z" fill="#BCBEC0"/>
<path d="M351.107 318.573L350.966 329.099L361.493 329.24L361.633 318.713L351.107 318.573Z" fill="#BCBEC0"/>
<path d="M335.391 318.364L335.252 328.891L345.779 329.029L345.918 318.503L335.391 318.364Z" fill="#BCBEC0"/>
<path d="M319.679 318.151L319.539 328.677L330.065 328.816L330.205 318.29L319.679 318.151Z" fill="#BCBEC0"/>
<path d="M303.882 317.936L303.739 328.462L314.265 328.605L314.408 318.078L303.882 317.936Z" fill="#BCBEC0"/>
<path d="M288.165 317.726L288.024 328.252L298.55 328.393L298.691 317.867L288.165 317.726Z" fill="#BCBEC0"/>
<path d="M272.363 317.514L272.224 328.04L282.75 328.179L282.889 317.652L272.363 317.514Z" fill="#BCBEC0"/>
<path d="M256.653 317.302L256.512 327.828L267.038 327.969L267.179 317.443L256.653 317.302Z" fill="#BCBEC0"/>
<path d="M240.939 317.088L240.796 327.615L251.322 327.758L251.465 317.231L240.939 317.088Z" fill="#BCBEC0"/>
<path d="M225.137 316.875L224.995 327.402L235.521 327.544L235.664 317.018L225.137 316.875Z" fill="#BCBEC0"/>
<path d="M419.616 303.72L419.474 314.246L430 314.388L430.142 303.862L419.616 303.72Z" fill="#BCBEC0"/>
<path d="M435.375 303.964L435.235 314.49L456.2 314.77L456.34 304.243L435.375 303.964Z" fill="#BCBEC0"/>
<path d="M403.898 303.511L403.759 314.037L414.286 314.176L414.424 303.65L403.898 303.511Z" fill="#BCBEC0"/>
<path d="M388.1 303.298L387.959 313.824L398.486 313.964L398.626 303.438L388.1 303.298Z" fill="#BCBEC0"/>
<path d="M372.385 303.089L372.246 313.615L382.772 313.754L382.912 303.228L372.385 303.089Z" fill="#BCBEC0"/>
<path d="M356.584 302.873L356.443 313.399L366.969 313.54L367.11 303.014L356.584 302.873Z" fill="#BCBEC0"/>
<path d="M340.871 302.66L340.73 313.186L351.256 313.328L351.398 302.801L340.871 302.66Z" fill="#BCBEC0"/>
<path d="M325.074 302.447L324.931 312.973L335.457 313.116L335.6 302.589L325.074 302.447Z" fill="#BCBEC0"/>
<path d="M309.354 302.24L309.216 312.766L319.742 312.905L319.881 302.379L309.354 302.24Z" fill="#BCBEC0"/>
<path d="M293.644 302.026L293.504 312.552L304.03 312.692L304.17 302.166L293.644 302.026Z" fill="#BCBEC0"/>
<path d="M277.843 301.812L277.702 312.338L288.229 312.479L288.37 301.953L277.843 301.812Z" fill="#BCBEC0"/>
<path d="M262.129 301.602L261.99 312.128L272.516 312.268L272.656 301.741L262.129 301.602Z" fill="#BCBEC0"/>
<path d="M246.331 301.383L246.187 311.91L256.713 312.054L256.857 301.527L246.331 301.383Z" fill="#BCBEC0"/>
<path d="M225.329 301.091L225.188 311.617L240.934 311.827L241.075 301.301L225.329 301.091Z" fill="#BCBEC0"/>
<path d="M429.877 319.593L429.737 330.119L456.009 330.47L456.149 319.943L429.877 319.593Z" fill="#BCBEC0"/>
<path d="M472.778 274.145C472.691 278.321 468.428 281.628 463.295 281.541L222.734 278.408C217.6 278.321 213.424 274.928 213.511 270.752L215.164 145.295C215.251 141.119 219.514 137.813 224.648 137.9L465.296 141.032C470.429 141.119 474.605 144.512 474.605 148.688L472.778 274.145Z" fill="#BCBEC0"/>
<path d="M223.057 144.788L221.436 267.71L465.279 270.926L466.9 148.004L223.057 144.788Z" fill="#D6E0E8"/>
<path opacity="0.3" d="M430.582 77.346L280.764 75.345C272.412 75.258 265.626 81.0001 265.452 88.1343L263.364 243.695C263.277 250.916 269.976 256.832 278.328 256.919L428.146 258.92C436.499 259.007 443.285 253.265 443.459 246.131L445.547 90.5704C445.634 83.4362 438.935 77.52 430.582 77.346Z" fill="#231F20"/>
<path d="M438.064 240.562C437.977 247.784 431.104 253.439 422.752 253.352L272.934 251.351C264.582 251.264 257.883 245.348 257.97 238.126L260.058 82.5662C260.145 75.345 267.018 69.6028 275.37 69.7768L425.188 71.7779C433.54 71.8649 440.24 77.781 440.153 85.0022L438.064 240.562Z" fill="white"/>
<path d="M291.292 147.905L271.542 147.383L271.716 141.467L291.466 141.989L291.292 147.905Z" fill="#5E9DD1"/>
<path d="M303.994 148.166L293.553 147.905L293.727 141.989L304.168 142.25L303.994 148.166Z" fill="#ED1C24"/>
<path d="M316.174 148.514L305.734 148.253L305.908 142.337L316.348 142.598L316.174 148.514Z" fill="#5E9DD1"/>
<path d="M360.806 149.558L317.914 148.514L318.088 142.598L360.98 143.642L360.806 149.558Z" fill="#5E9DD1"/>
<path d="M399.001 150.515L366.984 149.732L367.158 143.816L399.175 144.599L399.001 150.515Z" fill="#5E9DD1"/>
<path d="M325.57 159.563L271.281 158.258L271.455 152.342L325.744 153.647L325.57 159.563Z" fill="#5E9DD1"/>
<path d="M367.244 160.607L328.354 159.65L328.528 153.734L367.418 154.691L367.244 160.607Z" fill="#5E9DD1"/>
<path d="M425.71 162.086L370.029 160.694L370.203 154.778L425.884 156.083L425.71 162.086Z" fill="#5E9DD1"/>
<path d="M293.466 169.655L270.933 169.133L271.107 163.217L293.64 163.739L293.466 169.655Z" fill="#5E9DD1"/>
<path d="M312.259 170.178L295.119 169.743L295.293 163.826L312.433 164.261L312.259 170.178Z" fill="#5E9DD1"/>
<path d="M351.671 171.135L318.175 170.265L318.349 164.348L351.845 165.218L351.671 171.135Z" fill="#ED1C24"/>
<path d="M311.737 181.053L276.849 180.183L277.023 174.267L311.911 175.05L311.737 181.053Z" fill="#5E9DD1"/>
<path d="M345.146 181.836L314.173 181.053L314.347 175.137L345.32 175.92L345.146 181.836Z" fill="#5E9DD1"/>
<path d="M312.259 191.928L270.324 190.884L270.498 184.968L312.433 186.012L312.259 191.928Z" fill="#5E9DD1"/>
<path d="M389.517 193.842L316.957 192.015L317.044 186.099L389.691 187.839L389.517 193.842Z" fill="#5E9DD1"/>
<path d="M293.901 201.411L270.063 200.802L270.237 194.886L294.075 195.408L293.901 201.411Z" fill="#5E9DD1"/>
<path d="M309.388 201.759L296.773 201.411L296.86 195.495L309.562 195.843L309.388 201.759Z" fill="#5E9DD1"/>
<path d="M324.091 202.107L311.476 201.846L311.65 195.843L324.265 196.191L324.091 202.107Z" fill="#5E9DD1"/>
<path d="M378.207 203.413L326.179 202.194L326.353 196.278L378.381 197.496L378.207 203.413Z" fill="#5E9DD1"/>
<path d="M424.492 204.543L385.689 203.586L385.863 197.67L424.666 198.627L424.492 204.543Z" fill="#5E9DD1"/>
<path d="M299.209 212.374L276.327 211.852L276.501 205.936L299.383 206.458L299.209 212.374Z" fill="#5E9DD1"/>
<path d="M321.829 212.983L300.775 212.461L300.949 206.458L322.003 206.98L321.829 212.983Z" fill="#5E9DD1"/>
<path d="M353.585 213.766L323.308 212.983L323.482 207.066L353.759 207.762L353.585 213.766Z" fill="#5E9DD1"/>
<path d="M312.52 223.597L269.454 222.553L269.628 216.637L312.694 217.681L312.52 223.597Z" fill="#ED1C24"/>
<path d="M348.539 224.467L315.739 223.684L315.913 217.768L348.713 218.551L348.539 224.467Z" fill="#5E9DD1"/>
<path d="M394.737 225.598L359.762 224.728L359.936 218.812L394.911 219.682L394.737 225.598Z" fill="#5E9DD1"/>
<path d="M324.787 234.82L269.106 233.428L269.28 227.512L324.961 228.817L324.787 234.82Z" fill="#5E9DD1"/>
<path d="M370.029 235.864L328.18 234.82L328.354 228.904L370.203 229.948L370.029 235.864Z" fill="#5E9DD1"/>
<path d="M323.134 245.609L268.845 244.304L269.019 238.387L323.308 239.692L323.134 245.609Z" fill="#5E9DD1"/>
<path d="M413.182 247.784L329.224 245.783L329.398 239.866L413.356 241.867L413.182 247.784Z" fill="#5E9DD1"/>
<path d="M333.227 82.0441L273.456 80.5651L273.63 74.6489L333.314 76.041L333.227 82.0441Z" fill="#5E9DD1"/>
<path d="M381.774 83.1751L336.794 82.1311L336.968 76.1279L381.948 77.259L381.774 83.1751Z" fill="#5E9DD1"/>
<path d="M296.86 91.9623L273.195 91.4403L273.369 85.5242L297.034 86.0462L296.86 91.9623Z" fill="#5E9DD1"/>
<path d="M312.259 92.3975L299.644 92.0495L299.818 86.1333L312.433 86.4813L312.259 92.3975Z" fill="#5E9DD1"/>
<path d="M326.876 92.7454L314.347 92.3974L314.521 86.4812L327.05 86.8292L326.876 92.7454Z" fill="#5E9DD1"/>
<path d="M380.556 94.0505L328.963 92.7455L329.137 86.8293L380.73 88.1344L380.556 94.0505Z" fill="#5E9DD1"/>
<path d="M426.667 95.1815L388.038 94.2245L388.212 88.3083L426.841 89.2654L426.667 95.1815Z" fill="#5E9DD1"/>
<path d="M326.788 103.621L272.847 102.316L273.021 96.3994L326.962 97.7044L326.788 103.621Z" fill="#5E9DD1"/>
<path d="M368.202 104.665L329.573 103.708L329.747 97.7915L368.376 98.6615L368.202 104.665Z" fill="#5E9DD1"/>
<path d="M409.702 105.622L370.986 104.665L371.16 98.7485L409.876 99.7056L409.702 105.622Z" fill="#5E9DD1"/>
<path d="M315.304 114.235L289.552 113.626L289.726 107.623L315.478 108.319L315.304 114.235Z" fill="#ED1C24"/>
<path d="M351.149 115.105L318.61 114.322L318.784 108.319L351.323 109.189L351.149 115.105Z" fill="#5E9DD1"/>
<path d="M379.251 115.801L362.285 115.366L362.459 109.45L379.425 109.885L379.251 115.801Z" fill="#5E9DD1"/>
<path d="M338.186 125.632L315.826 125.11L316 119.194L338.36 119.716L338.186 125.632Z" fill="#5E9DD1"/>
<path d="M391.866 126.937L342.188 125.719L342.362 119.803L392.04 121.021L391.866 126.937Z" fill="#5E9DD1"/>
<path d="M325.918 136.247L271.89 134.942L272.064 129.025L326.005 130.33L325.918 136.247Z" fill="#5E9DD1"/>
<path d="M425.449 138.683L331.922 136.421L332.096 130.417L425.536 132.767L425.449 138.683Z" fill="#5E9DD1"/>
<path opacity="0.2" d="M587.1 74.997C583.185 74.91 579.443 75.78 576.05 77.3461C572.135 68.4718 563.348 62.2076 552.995 62.1206C550.037 62.1206 547.166 62.5557 544.469 63.5127C540.901 53.8554 531.766 46.8952 520.804 46.8082C508.363 46.6342 497.922 55.3345 495.486 67.0798C494.877 66.9928 494.355 66.9928 493.746 66.9928C480.348 66.8188 469.211 76.998 467.993 90.0484C465.035 87.7863 461.381 86.4813 457.379 86.3943C447.374 86.2203 439.196 94.2245 439.109 104.23C439.022 114.235 446.939 122.413 456.944 122.5C461.207 122.587 465.209 121.108 468.341 118.585C469.472 128.938 478.173 137.03 488.787 137.204C496.617 137.291 503.49 133.115 507.144 126.763C513.148 140.336 526.72 149.906 542.467 150.08C559.346 150.341 573.788 139.901 579.53 125.023C581.705 125.632 583.968 125.98 586.317 126.067C600.411 126.241 611.982 115.018 612.156 100.837C612.504 86.8293 601.194 75.258 587.1 74.997Z" fill="white"/>
<path opacity="0.2" d="M451.898 21.0554C448.94 21.0554 446.156 21.6645 443.72 22.7955C440.849 16.1833 434.236 11.5722 426.58 11.4852C424.318 11.4852 422.23 11.8332 420.229 12.5292C417.532 5.30801 410.659 0.0878737 402.568 0.000871291C393.345 -0.0861311 385.515 6.35204 383.688 15.0523C383.253 15.0523 382.818 14.9653 382.383 14.9653C372.465 14.7913 364.113 22.3605 363.242 32.1047C361.067 30.4517 358.283 29.4077 355.325 29.4077C347.93 29.3207 341.84 35.2368 341.753 42.632C341.666 50.0272 347.582 56.1174 354.977 56.2044C358.196 56.2044 361.154 55.1604 363.503 53.3333C364.374 60.9895 370.812 67.0797 378.729 67.1667C384.558 67.2537 389.691 64.1216 392.388 59.4235C396.825 69.5158 406.918 76.5629 418.663 76.7369C431.191 76.911 441.98 69.1677 446.243 58.1184C447.896 58.5535 449.549 58.8145 451.289 58.9015C461.816 59.0755 470.429 50.6362 470.516 40.196C470.777 29.7557 462.338 21.1424 451.898 21.0554Z" fill="white"/>
<path opacity="0.2" d="M256.317 34.3668C253.271 34.3668 250.313 34.9758 247.703 36.1938C244.658 29.2336 237.785 24.3615 229.694 24.2745C227.345 24.2745 225.083 24.6225 222.995 25.3185C220.211 17.7493 213.076 12.3552 204.55 12.2682C194.893 12.1812 186.715 18.9673 184.801 28.1026C184.366 28.1026 183.931 28.0156 183.496 28.0156C173.055 27.8416 164.355 35.8458 163.398 46.0251C161.049 44.285 158.178 43.241 155.133 43.154C147.303 43.067 140.951 49.2442 140.864 57.0744C140.777 64.9046 146.955 71.2558 154.785 71.3428C158.178 71.4298 161.223 70.2117 163.659 68.2977C164.529 76.3889 171.315 82.7401 179.667 82.8271C185.758 82.9141 191.152 79.608 194.023 74.6489C198.721 85.2631 209.248 92.6583 221.603 92.8323C234.74 93.0063 246.05 84.8281 250.574 73.2568C252.227 73.7788 254.055 74.0398 255.882 74.0398C266.931 74.2138 275.979 65.3396 276.066 54.3773C276.153 43.589 267.366 34.5408 256.317 34.3668Z" fill="white"/>
<path d="M491.919 81.4351L498.27 81.5221C501.924 81.6091 504.36 81.7831 505.578 82.1311C507.406 82.5661 508.885 83.5231 510.016 84.9152C511.147 86.3072 511.669 88.0472 511.669 90.1353C511.669 92.2234 511.06 93.9634 509.929 95.3554C508.798 96.7475 507.231 97.6175 505.23 98.0525C503.751 98.4005 501.141 98.4875 497.139 98.4875H494.877L494.703 113.191H491.571L491.919 81.4351ZM495.051 84.5671L494.877 95.3554L500.271 95.5294C502.446 95.5294 504.012 95.3554 505.056 95.0074C506.1 94.6594 506.884 93.9634 507.493 93.0934C508.102 92.2234 508.363 91.2663 508.363 90.1353C508.363 89.0913 508.102 88.1342 507.579 87.1772C507.057 86.3072 506.274 85.6112 505.317 85.2632C504.36 84.9152 502.881 84.6541 500.706 84.6541L495.051 84.5671Z" fill="white"/>
<path d="M518.02 81.7832H521.152L520.978 95.0946L537.073 95.2686L537.247 81.9572H540.379L539.944 113.626H536.812L536.986 98.3137L520.891 98.1396L520.717 113.452H517.585L518.02 81.7832Z" fill="white"/>
<path d="M548.123 82.1311L554.474 82.2181C558.128 82.3051 560.564 82.4791 561.782 82.8271C563.609 83.2621 565.088 84.2192 566.219 85.6112C567.35 87.0032 567.872 88.7433 567.872 90.8313C567.872 92.9194 567.263 94.6594 566.132 96.0515C565.001 97.4435 563.435 98.3135 561.434 98.7486C559.955 99.0966 557.258 99.1836 553.343 99.1836H551.081L550.907 113.887H547.775L548.123 82.1311ZM551.255 85.2632L551.081 96.0515L556.475 96.2255C558.65 96.2255 560.216 96.0515 561.26 95.7035C562.304 95.3555 563.087 94.6594 563.696 93.7894C564.305 92.9194 564.566 91.9624 564.566 90.8313C564.566 89.7873 564.305 88.8303 563.783 87.8733C563.261 87.0032 562.478 86.3072 561.521 85.9592C560.564 85.6112 559.085 85.3502 556.91 85.3502L551.255 85.2632Z" fill="white"/>
<path d="M202.549 46.4602L200.548 48.0263C199.417 46.5472 198.112 45.4162 196.546 44.6332C194.98 43.8502 193.327 43.5022 191.413 43.4152C189.412 43.4152 187.498 43.8502 185.758 44.8072C184.018 45.7642 182.626 47.0693 181.669 48.7223C180.712 50.3753 180.19 52.2024 180.19 54.2905C180.19 57.4225 181.147 60.0326 183.322 62.1207C185.41 64.2087 188.107 65.3398 191.413 65.3398C194.98 65.4268 198.025 64.0347 200.461 61.2506L202.462 62.8167C201.157 64.3827 199.591 65.6878 197.677 66.5578C195.763 67.4278 193.588 67.8628 191.239 67.7758C186.802 67.6888 183.235 66.2098 180.712 63.1647C178.537 60.6416 177.492 57.5965 177.579 54.0294C177.666 50.2883 178.972 47.1563 181.669 44.6332C184.366 42.1101 187.672 40.8921 191.587 40.8921C193.936 40.8921 196.111 41.4141 198.025 42.3711C199.852 43.4152 201.418 44.8072 202.549 46.4602Z" fill="white"/>
<path d="M214.12 53.5074L214.207 45.9382H216.557L216.47 53.5074L224.039 53.5944V55.9435L216.47 55.8565L216.383 63.4257H214.033L214.12 55.8565L206.551 55.7695V53.4204L214.12 53.5074Z" fill="white"/>
<path d="M235.697 53.7684L235.784 46.1992H238.133L238.046 53.7684L245.615 53.8554V56.2045L238.046 56.1175L237.959 63.6867H235.61L235.697 56.1175L228.128 56.0305V53.6814L235.697 53.7684Z" fill="white"/>
<path d="M378.729 27.4067H380.73L380.556 40.8921C380.556 42.9802 380.382 44.3722 380.034 45.2422C379.686 46.0252 379.164 46.7213 378.381 47.1563C377.598 47.5913 376.728 47.8523 375.597 47.8523C374.814 47.8523 374.031 47.6783 373.248 47.3303C372.465 46.9823 371.595 46.4603 370.638 45.6772L371.682 44.1112C372.726 44.8942 373.596 45.4162 374.292 45.6772C374.727 45.8512 375.162 46.0252 375.597 46.0252C376.206 46.0252 376.728 45.8512 377.163 45.5032C377.598 45.1552 377.946 44.7202 378.207 44.1112C378.381 43.5022 378.468 42.4581 378.555 40.8051L378.729 27.4067Z" fill="white"/>
<path d="M393.781 27.5808L402.829 47.6784H400.654L397.609 41.0662L388.996 40.9792L385.776 47.5043H383.514L393.259 27.5808H393.781ZM393.52 31.8439L389.953 39.0651L396.826 39.1521L393.52 31.8439Z" fill="white"/>
<path d="M404.743 27.7546H406.918L413.356 43.3281L420.316 27.9286H422.491L413.443 47.8522H413.008L404.743 27.7546Z" fill="white"/>
<path d="M433.976 28.1028L443.024 48.2003H440.849L437.804 41.5881L429.191 41.5011L425.972 48.0263H423.709L433.454 28.1028H433.976ZM433.628 32.3659L430.061 39.5871L436.934 39.6741L433.628 32.3659Z" fill="white"/>
<path opacity="0.2" d="M516.715 333.481L508.275 333.394H507.753L499.314 333.307C491.484 333.22 485.133 339.484 485.046 347.227L484.524 385.073C484.437 392.903 490.701 399.255 498.444 399.342L515.932 399.603C523.762 399.69 530.113 393.425 530.2 385.682L530.722 347.836C530.722 340.006 524.545 333.655 516.715 333.481Z" fill="#231F20"/>
<path d="M533.158 382.724C533.071 390.554 526.633 396.732 518.889 396.645L501.402 396.384C493.572 396.297 487.395 389.858 487.482 382.115L488.004 344.269C488.091 336.439 494.529 330.262 502.272 330.349L519.759 330.61C527.59 330.697 533.767 337.135 533.68 344.878L533.158 382.724Z" fill="#F1F2F2"/>
<path d="M514.104 352.535C514.104 354.449 512.538 355.928 510.711 355.841C508.884 355.841 507.318 354.275 507.405 352.448L507.579 338.875C507.579 336.961 509.145 335.482 510.972 335.569C512.886 335.569 514.365 337.135 514.278 338.962L514.104 352.535Z" fill="#363738"/>
<path d="M510.885 360.974H510.276L510.711 330.436H511.233L510.885 360.974Z" fill="#363738"/>
<path d="M511.668 361.583C511.668 361.931 511.407 362.192 511.059 362.105H509.928C509.58 362.105 509.319 361.844 509.406 361.496V359.582C509.406 359.234 509.667 358.973 510.015 359.06H511.146C511.494 359.06 511.668 359.321 511.668 359.669V361.583Z" fill="#2DAFB7"/>
<g opacity="0.1">
<path opacity="0.1" d="M297.73 379.766H296.338C293.031 379.679 290.247 382.898 290.16 386.813L289.899 406.563L286.68 406.476L287.289 362.888C287.376 359.582 285.114 356.798 282.33 356.711C279.546 356.711 277.284 359.408 277.197 362.714L276.588 406.302L271.716 406.215L272.412 359.321C272.412 357.755 271.194 356.537 269.628 356.45L265.191 356.363C263.625 356.363 262.407 357.581 262.32 359.147L261.624 406.041L256.751 405.954L257.447 359.06C257.447 357.494 256.229 356.276 254.663 356.189L250.226 356.102C248.66 356.102 247.442 357.32 247.355 358.886L246.659 405.78L241.787 405.693L242.483 358.799C242.483 357.233 241.265 356.015 239.699 355.928L235.262 355.841C233.696 355.841 232.478 357.059 232.391 358.625L231.695 409.347C231.608 414.915 231.434 425.094 231.434 430.228C231.347 437.536 244.049 446.323 244.049 446.323L243.614 476.774L239.96 476.687L239.699 498.089L237.089 682.534L263.712 682.882L290.334 683.23L292.944 498.785L293.205 477.383L285.462 477.296L285.897 446.845C285.897 446.845 302.95 429.88 303.037 424.137C303.124 418.395 303.298 406.563 303.298 406.563L303.559 386.813C303.82 383.072 301.123 379.766 297.73 379.766Z" fill="#231F20"/>
<path opacity="0.1" d="M530.635 636.51L464.165 464.42L456.422 444.496L453.029 445.801L442.067 417.438L403.002 432.49L413.965 460.852L406.744 463.637L414.487 483.647L480.957 655.738L505.752 646.167L530.635 636.51Z" fill="#231F20"/>
<path opacity="0.1" d="M448.244 397.95C447.374 395.688 446.069 392.382 444.764 388.988C444.677 388.292 444.503 387.596 444.242 386.813L436.324 366.368C434.932 362.714 431.191 360.713 428.059 361.931L426.754 362.453C423.622 363.671 422.23 367.673 423.622 371.327L426.841 379.766L425.536 380.288L422.404 372.197C421.012 368.543 417.271 366.542 414.139 367.76L412.834 368.282C409.702 369.5 408.31 373.502 409.702 377.069L412.834 385.16L411.703 385.595L408.136 376.373C406.744 372.719 403.002 370.718 399.87 371.936L398.565 372.458C395.433 373.676 394.041 377.678 395.433 381.332L399 390.555L398.565 390.729L382.818 350.011C381.6 346.879 377.946 345.4 374.727 346.618C371.508 347.836 369.768 351.49 370.986 354.536L386.733 395.253L384.906 395.949L377.772 377.504C376.38 373.85 372.639 371.849 369.506 373.067L368.201 373.589C365.069 374.807 363.677 378.809 365.069 382.376L372.204 400.821C372.204 400.821 376.467 411.87 378.555 417.177C380.643 422.571 402.567 432.577 402.567 432.577L441.631 417.525C442.066 417.438 450.854 404.736 448.244 397.95Z" fill="#231F20"/>
</g>
<path d="M252.884 435.25L252.444 466.655L294.288 467.242L294.728 435.838L252.884 435.25Z" fill="#FED19D"/>
<path d="M248.709 465.555L248.408 486.955L301.648 487.705L301.949 466.304L248.709 465.555Z" fill="#F1F2F2"/>
<path opacity="0.3" d="M275.316 465.926L275.014 487.326L301.634 487.702L301.936 466.301L275.316 465.926Z" fill="#231F20"/>
<path d="M312.085 395.426L240.569 394.382C240.569 394.382 240.308 411.783 240.221 419.091C240.134 426.399 252.836 435.186 252.836 435.186L294.684 435.795C294.684 435.795 311.737 418.83 311.824 413.088C311.911 407.259 312.085 395.426 312.085 395.426Z" fill="#FED19D"/>
<path d="M251.27 347.662C251.27 346.096 250.052 344.878 248.486 344.791L244.049 344.704C242.483 344.704 241.265 345.922 241.178 347.488L240.482 398.211C240.482 399.777 241.7 400.995 243.266 401.082L247.703 401.169C249.269 401.169 250.487 399.951 250.574 398.385L251.27 347.662Z" fill="#FED19D"/>
<path d="M266.148 347.923C266.148 346.357 264.93 345.139 263.364 345.052L258.926 344.965C257.36 344.965 256.142 346.183 256.055 347.749L255.359 398.472C255.359 400.038 256.577 401.256 258.143 401.343L262.581 401.43C264.147 401.43 265.365 400.212 265.452 398.646L266.148 347.923Z" fill="#FED19D"/>
<path d="M281.112 348.097C281.112 346.531 279.894 345.313 278.328 345.226L273.891 345.139C272.325 345.139 271.107 346.357 271.02 347.923L270.324 398.646C270.324 400.212 271.542 401.43 273.108 401.517L277.545 401.604C279.111 401.604 280.329 400.386 280.416 398.82L281.112 348.097Z" fill="#FED19D"/>
<path d="M295.902 351.577C295.989 348.271 293.727 345.487 290.943 345.4C288.159 345.4 285.897 348.097 285.81 351.403L285.201 395.514C285.114 398.82 287.376 401.604 290.16 401.691C292.944 401.691 295.206 398.994 295.293 395.688L295.902 351.577Z" fill="#FED19D"/>
<path d="M312.346 375.677C312.433 371.762 309.736 368.543 306.343 368.456H304.951C301.644 368.369 298.86 371.588 298.773 375.503L298.425 397.428C298.338 401.343 301.035 404.562 304.429 404.649H305.821C309.127 404.736 311.911 401.517 311.998 397.602L312.346 375.677Z" fill="#FED19D"/>
<path d="M297.381 476.948C297.381 479.384 295.38 481.298 292.944 481.211C290.508 481.211 288.594 479.21 288.681 476.774C288.681 474.337 290.682 472.423 293.118 472.51C295.554 472.597 297.468 474.512 297.381 476.948Z" fill="#231F20"/>
<path d="M450.669 406.207L411.629 421.281L422.942 450.581L461.982 435.507L450.669 406.207Z" fill="#FED19D"/>
<path d="M472.872 453.172L423.199 472.356L489.686 644.506L539.359 625.322L472.872 453.172Z" fill="#00AEEF"/>
<path opacity="0.3" d="M448.009 462.765L423.173 472.357L489.659 644.507L514.496 634.915L448.009 462.765Z" fill="#231F20"/>
<path d="M465.048 433.227L415.375 452.406L423.084 472.373L472.757 453.194L465.048 433.227Z" fill="#F1F2F2"/>
<path opacity="0.3" d="M440.305 442.754L415.469 452.346L423.18 472.313L448.016 462.721L440.305 442.754Z" fill="#231F20"/>
<path d="M381.339 389.424L447.982 363.671C447.982 363.671 454.247 379.94 456.857 386.727C459.467 393.513 450.593 406.128 450.593 406.128L411.528 421.179C411.528 421.179 389.604 411.174 387.516 405.78C385.602 400.473 381.339 389.424 381.339 389.424Z" fill="#FED19D"/>
<path d="M380.034 343.225C378.816 340.093 380.469 336.526 383.775 335.308C386.994 334.09 390.648 335.569 391.866 338.701L407.788 379.853C409.006 382.985 407.353 386.552 404.046 387.77C400.827 388.988 397.173 387.509 395.955 384.377L380.034 343.225Z" fill="#FED19D"/>
<path d="M374.205 370.979C372.813 367.325 374.205 363.323 377.337 362.192L378.642 361.67C381.774 360.452 385.428 362.453 386.907 366.107L394.824 386.552C396.216 390.207 394.824 394.209 391.692 395.34L390.387 395.862C387.255 397.08 383.514 395.079 382.122 391.425L374.205 370.979Z" fill="#FED19D"/>
<path d="M432.409 360.017C431.017 356.363 432.409 352.361 435.541 351.143L436.846 350.62C439.978 349.402 443.632 351.404 445.111 355.058L453.029 375.503C454.421 379.157 453.029 383.159 449.896 384.377L448.591 384.899C445.459 386.117 441.718 384.116 440.326 380.462L432.409 360.017Z" fill="#FED19D"/>
<path d="M418.663 365.759C417.271 362.105 418.663 358.103 421.795 356.972L423.1 356.45C426.232 355.232 429.886 357.233 431.365 360.887L439.282 381.332C440.674 384.986 439.282 388.988 436.15 390.119L434.845 390.642C431.713 391.86 427.972 389.858 426.58 386.204L418.663 365.759Z" fill="#FED19D"/>
<path d="M404.394 369.935C403.002 366.281 404.394 362.279 407.526 361.148L408.831 360.626C411.964 359.408 415.618 361.409 417.097 365.063L425.014 385.508C426.406 389.162 425.014 393.165 421.882 394.296L420.577 394.818C417.445 396.036 413.704 394.035 412.312 390.38L404.394 369.935Z" fill="#FED19D"/>
<path d="M423.361 460.765C424.231 463.027 426.754 464.159 429.016 463.288C431.278 462.418 432.409 459.895 431.539 457.633C430.669 455.371 428.146 454.24 425.884 455.11C423.622 456.067 422.491 458.503 423.361 460.765Z" fill="#231F20"/>
<path d="M185.674 161.501C185.326 161.153 184.891 160.718 184.282 160.283L180.714 157.586L131.471 120.349C127.382 117.217 120.596 117.217 116.507 120.349L67.1763 157.673L63.6093 160.283C63.0872 160.718 62.6522 161.066 62.2172 161.501C61.6952 162.371 61.3472 163.328 61.0862 164.372C61.5212 165.329 63.0002 165.938 65.5233 165.938H182.28C184.804 165.938 186.283 165.329 186.718 164.372C186.544 163.415 186.196 162.371 185.674 161.501Z" fill="#D1D3D4"/>
<path d="M186.893 165.155C186.893 164.894 186.806 164.633 186.806 164.372C186.371 165.329 184.892 165.938 182.368 165.938H65.6113C64.5673 165.938 63.6972 165.851 63.0012 165.59L125.295 191.604L186.893 165.155Z" fill="#939598"/>
<path d="M171.841 205.524C171.841 208.395 169.492 210.744 166.621 210.744H79.1833C76.3122 210.744 73.9631 208.395 73.9631 205.524V133.399C73.9631 130.528 76.3122 128.179 79.1833 128.179H166.621C169.492 128.179 171.841 130.528 171.841 133.399V205.524Z" fill="white"/>
<path d="M62.9141 165.677C62.566 165.59 62.218 165.416 61.957 165.242L61.087 164.894C61 165.242 61 165.59 61 166.025V235.105C61 237.715 62.131 240.064 63.9581 241.63L116.595 188.124L62.9141 165.677Z" fill="#F1F2F2"/>
<path d="M186.892 235.018V165.938C186.892 165.677 186.892 165.416 186.892 165.155L132.69 188.472L184.717 240.76C186.022 239.281 186.892 237.28 186.892 235.018Z" fill="#F1F2F2"/>
<path d="M132.69 188.472L130.602 186.384C127.209 182.991 121.64 182.991 118.334 186.384L116.681 188.037L64.0449 241.63C65.611 242.935 67.612 243.805 69.7871 243.805H178.192C180.802 243.805 183.064 242.674 184.717 240.847L132.69 188.472Z" fill="#939598"/>
<path d="M132.69 191.169L130.602 189.168C127.209 185.949 121.64 185.949 118.334 189.168L116.681 190.734L64.0449 241.717C65.611 243.022 67.612 243.805 69.7871 243.805H178.192C180.802 243.805 183.064 242.674 184.717 241.021L132.69 191.169Z" fill="#D1D3D4"/>
<path d="M149.481 136.01H87.8838V137.75H149.481V136.01Z" fill="#70BAC3"/>
<path d="M131.559 147.842H87.8838V149.582H131.559V147.842Z" fill="#70BAC3"/>
<path d="M157.399 159.674H87.8838V161.414H157.399V159.674Z" fill="#70BAC3"/>
<path d="M149.481 171.419H87.8838V173.159H149.481V171.419Z" fill="#70BAC3"/>
<path opacity="0.1" d="M654.004 396.559C644.26 378.462 621.639 371.763 603.543 381.507C585.446 391.252 578.747 413.872 588.491 431.969C597.452 448.499 617.115 455.546 634.254 449.108L635.733 451.892C637.735 455.546 640.954 457.547 643.042 456.416L645.478 455.111C647.566 453.98 647.653 450.152 645.739 446.498L644.173 443.54C658.267 432.578 662.704 412.741 654.004 396.559Z" fill="#231F20"/>
<path d="M647.653 451.805C645.565 452.936 642.259 450.935 640.345 447.281L633.558 434.666C631.557 431.012 631.731 427.184 633.819 426.053L636.255 424.748C638.344 423.616 641.65 425.618 643.564 429.272L650.35 441.887C652.351 445.541 652.177 449.369 650.089 450.5L647.653 451.805Z" fill="white"/>
<path d="M643.476 442.409C625.38 452.153 602.846 445.454 593.015 427.358C583.271 409.261 589.97 386.727 608.067 376.896C626.163 367.152 648.697 373.851 658.528 391.948C668.272 410.044 661.573 432.665 643.476 442.409Z" fill="white"/>
<path d="M639.823 435.536C625.554 443.279 607.632 437.972 599.889 423.616C592.145 409.348 597.54 391.426 611.808 383.682C626.076 375.939 643.999 381.246 651.655 395.602C659.398 409.957 654.091 427.88 639.823 435.536Z" fill="#914522"/>
<g opacity="0.2">
<path opacity="0.2" d="M641.997 428.228C630.339 434.579 615.723 430.142 609.459 418.483C603.194 406.825 607.545 392.209 619.203 385.944C630.861 379.68 645.478 384.03 651.742 395.689C658.006 407.347 653.656 421.963 641.997 428.228Z" fill="white"/>
</g>
<path d="M179.004 458.22C178.917 461.178 180.396 463.614 182.31 463.701L185.704 463.788C187.618 463.788 189.097 461.439 189.184 458.481L189.358 449.085C189.445 446.127 187.966 443.691 186.052 443.604L182.658 443.517C180.744 443.517 179.265 445.866 179.178 448.824L179.004 458.22Z" fill="#F34345"/>
<path d="M188.923 355.296C189.358 355.296 189.532 354.687 189.358 353.904L185.356 341.811C185.095 341.028 184.66 341.028 184.399 341.811L180.049 353.817C179.788 354.6 179.962 355.209 180.397 355.209L188.923 355.296Z" fill="#FAC945"/>
<path d="M188.923 355.296C189.358 355.296 189.532 354.687 189.358 353.904L185.356 341.811C185.095 341.028 184.66 341.028 184.399 341.811L180.049 353.817C179.788 354.6 179.962 355.209 180.397 355.209L188.923 355.296Z" fill="#F7941E"/>
<path d="M187.183 355.209L189.793 355.296L189.706 360.168L179.439 359.994L179.526 355.122H182.05L187.183 355.209Z" fill="#FBD2A9"/>
<path d="M189.792 355.209V355.295L189.706 355.209H189.792Z" fill="#FBD2A9"/>
<path d="M183.093 345.291L183.963 345.378H185.616H186.486L189.705 355.209L179.526 355.035L183.093 345.291Z" fill="#FBD2A9"/>
<path d="M189.706 355.209L189.793 355.296L187.183 355.209L182.05 355.122H179.527V355.035L189.706 355.209Z" fill="#FBD2A9"/>
<path d="M189.706 355.209L189.793 355.296L187.183 355.209L182.05 355.122H179.527V355.035L189.706 355.209Z" fill="#FBD2A9"/>
<path opacity="0.4" d="M187.182 356.601L184.92 340.419L189.793 355.209L187.182 356.601Z" fill="white"/>
<path opacity="0.1" d="M182.049 356.774L184.834 340.505L179.526 355.121L182.049 356.774Z" fill="#231F20"/>
<path d="M189.27 355.122C189.444 355.122 189.618 355.122 189.705 355.209L189.618 359.298L189.531 366.78L189.183 453.522H186.66L187.095 357.819C187.095 357.645 187.095 357.471 187.095 357.297C187.095 355.992 188.139 355.122 189.27 355.122Z" fill="#F7941E"/>
<path d="M179.962 354.948C181.18 354.948 182.137 355.905 182.137 357.036C182.137 357.123 182.137 357.297 182.05 357.384L181.615 453.261H179.092L179.44 366.519L179.527 359.037L179.614 354.948C179.701 354.948 179.788 354.948 179.962 354.948Z" fill="#F7941E"/>
<path opacity="0.4" d="M189.27 355.122C189.444 355.122 189.618 355.122 189.705 355.209L189.618 359.298L189.531 366.78L189.183 453.522H186.66L187.095 357.819C187.095 357.645 187.095 357.471 187.095 357.297C187.095 355.992 188.139 355.122 189.27 355.122Z" fill="white"/>
<path opacity="0.1" d="M179.962 354.948C181.18 354.948 182.137 355.905 182.137 357.036C182.137 357.123 182.137 357.297 182.05 357.384L181.615 453.261H179.092L179.44 366.519L179.527 359.037L179.614 354.948C179.701 354.948 179.788 354.948 179.962 354.948Z" fill="#231F20"/>
<path d="M182.05 356.775C182.224 355.557 183.355 354.687 184.573 354.687C185.878 354.687 186.922 355.644 187.096 356.862L186.661 453.435L181.528 453.348L182.05 356.775Z" fill="#F7941E"/>
<path d="M179.003 453.255L178.925 458.213L189.19 458.376L189.269 453.417L179.003 453.255Z" fill="#A7A9AC"/>
<path opacity="0.5" d="M179.005 455.175L189.271 455.349V455.523L179.005 455.349V455.175Z" fill="#231F20"/>
<path opacity="0.5" d="M179.005 456.132L189.184 456.219V456.393L179.005 456.306V456.132Z" fill="#231F20"/>
<path d="M187.792 454.304C187.792 454.652 187.966 455 188.14 455C188.314 455 188.488 454.739 188.488 454.391C188.488 454.043 188.314 453.782 188.14 453.695C187.966 453.695 187.792 453.956 187.792 454.304Z" fill="#808285"/>
<path d="M187.878 454.044C187.878 454.305 187.965 454.479 188.052 454.479C188.139 454.479 188.313 454.305 188.313 454.044C188.313 453.783 188.226 453.609 188.139 453.609C188.052 453.696 187.965 453.87 187.878 454.044Z" fill="#58595B"/>
<path d="M180.223 454.217C180.223 454.565 180.397 454.913 180.571 454.913C180.745 454.913 180.919 454.652 180.919 454.304C180.919 453.956 180.745 453.608 180.571 453.608C180.397 453.521 180.223 453.869 180.223 454.217Z" fill="#808285"/>
<path d="M180.396 453.957C180.396 454.218 180.483 454.392 180.57 454.392C180.657 454.392 180.831 454.218 180.831 453.957C180.831 453.696 180.744 453.522 180.657 453.522C180.483 453.522 180.396 453.696 180.396 453.957Z" fill="#58595B"/>
<path d="M187.792 457.349C187.792 457.697 187.966 458.045 188.14 458.045C188.314 458.045 188.488 457.784 188.488 457.436C188.488 457.088 188.314 456.74 188.14 456.74C187.879 456.653 187.792 456.914 187.792 457.349Z" fill="#808285"/>
<path d="M187.878 457.089C187.878 457.35 187.965 457.524 188.052 457.524C188.139 457.524 188.313 457.35 188.313 457.089C188.313 456.828 188.226 456.654 188.139 456.654C187.965 456.654 187.878 456.828 187.878 457.089Z" fill="#58595B"/>
<path d="M180.223 457.176C180.223 457.524 180.397 457.872 180.571 457.872C180.745 457.872 180.919 457.611 180.919 457.263C180.919 456.915 180.745 456.567 180.571 456.567C180.397 456.567 180.223 456.828 180.223 457.176Z" fill="#808285"/>
<path d="M180.309 457.002C180.309 457.263 180.396 457.437 180.483 457.437C180.57 457.437 180.744 457.263 180.744 457.002C180.744 456.741 180.657 456.567 180.57 456.567C180.396 456.567 180.309 456.741 180.309 457.002Z" fill="#58595B"/>
<g opacity="0.2">
<path opacity="0.2" d="M618.246 218.899L618.333 218.638C618.42 218.203 618.333 217.768 618.159 217.42L618.507 216.028C619.639 211.156 617.028 206.37 612.678 205.326L574.049 196.104C569.699 195.06 565.175 198.192 564.044 203.064L563.957 203.325L562.826 208.11L562.739 208.371C562.217 208.545 561.782 209.067 561.608 209.763L560.129 216.028L560.042 216.289L559.694 217.681C559.52 218.29 559.694 218.899 559.955 219.334C559.868 219.421 559.868 219.421 559.868 219.508L559.781 219.769L559.259 221.944L558.911 223.336C558.911 223.423 558.911 223.597 558.998 223.684L542.38 293.46L542.032 294.852C540.901 299.724 543.511 304.509 547.862 305.553L586.491 314.775C590.841 315.819 595.365 312.687 596.496 307.815L596.931 306.162L600.933 289.371L615.984 226.294C616.332 226.12 616.593 225.772 616.68 225.337L617.898 220.204L618.159 219.073L618.246 218.899Z" fill="#231F20"/>
</g>
<path d="M626.251 213.679L626.599 212.287C627.73 207.415 625.12 202.629 620.77 201.585L582.141 192.363C577.79 191.319 573.266 194.451 572.135 199.323L570.83 204.63C570.308 204.804 569.873 205.326 569.699 206.023L568.22 212.2C568.046 212.896 568.22 213.505 568.568 213.94L568.22 215.419C568.133 215.506 568.046 215.593 567.959 215.767L567.437 217.942C567.437 218.029 567.437 218.203 567.524 218.29L550.646 289.458C549.515 294.33 552.125 299.115 556.475 300.159L595.104 309.381C599.454 310.425 603.978 307.293 605.109 302.421L624.511 220.987C624.859 220.813 625.12 220.465 625.207 220.03L626.425 214.897C626.599 214.462 626.512 214.027 626.251 213.679Z" fill="#040C14"/>
<path d="M626.599 212.287L626.947 210.895C628.078 206.022 625.468 201.237 621.118 200.193L582.488 190.971C578.138 189.927 573.614 193.059 572.483 197.931L571.178 203.238C570.656 203.412 570.221 203.934 570.047 204.63L568.568 210.808C568.394 211.504 568.568 212.113 568.916 212.548L568.568 214.027C568.481 214.114 568.394 214.201 568.307 214.375L567.785 216.55C567.785 216.724 567.785 216.811 567.872 216.898L550.907 288.153C549.776 293.025 552.386 297.81 556.736 298.854L595.365 308.076C599.715 309.12 604.239 305.988 605.37 301.116L624.772 219.682C625.12 219.508 625.381 219.16 625.468 218.725L626.686 213.592C626.86 213.07 626.773 212.635 626.599 212.287Z" fill="#11171C"/>
<path d="M626.686 212.026L627.034 210.634C628.165 205.761 625.555 200.976 621.204 199.932L582.575 190.71C578.225 189.666 573.701 192.798 572.57 197.67L571.265 202.977C570.743 203.151 570.308 203.673 570.134 204.369L568.655 210.634C568.481 211.33 568.655 211.939 569.003 212.374L568.655 213.853C568.568 213.94 568.481 214.027 568.394 214.201L567.872 216.376C567.872 216.463 567.872 216.637 567.959 216.724L550.994 287.979C549.863 292.851 552.473 297.636 556.823 298.68L595.452 307.902C599.802 308.946 604.326 305.814 605.457 300.942L624.859 219.508C625.207 219.334 625.468 218.986 625.555 218.551L626.773 213.418C626.947 212.809 626.86 212.374 626.686 212.026Z" fill="#414042"/>
<path d="M606.501 203.674C606.414 204.022 605.892 204.196 605.37 204.022L594.756 201.498C594.147 201.324 593.799 200.976 593.886 200.628C593.973 200.28 594.495 200.106 595.017 200.28L605.631 202.803C606.153 202.89 606.588 203.326 606.501 203.674Z" fill="white"/>
<path d="M582.054 296.505C581.532 298.767 579.27 300.159 577.008 299.637C574.745 299.115 573.353 296.853 573.875 294.591C574.397 292.329 576.66 290.937 578.922 291.459C581.184 291.981 582.576 294.243 582.054 296.505Z" fill="white"/>
<path d="M581.705 296.418C581.183 298.506 579.182 299.724 577.094 299.202C575.006 298.68 573.788 296.679 574.31 294.591C574.832 292.59 576.833 291.285 578.921 291.807C580.922 292.242 582.14 294.33 581.705 296.418Z" fill="#414042"/>
<path d="M553.604 285.978C565.001 288.675 576.311 291.372 587.709 294.069C593.103 295.374 598.584 296.679 603.978 297.984C605.283 292.503 606.588 287.022 607.893 281.541C611.634 265.793 615.375 249.959 619.204 234.211C620.944 226.99 622.597 219.856 624.337 212.635C618.943 211.33 613.461 210.025 608.067 208.72C596.67 206.023 585.36 203.325 573.962 200.628C572.222 207.85 570.569 215.071 568.829 222.205C565.088 237.952 561.347 253.787 557.519 269.534C556.214 275.015 554.909 280.497 553.604 285.978Z" fill="#6D6E71"/>
<g opacity="0.1">
<path opacity="0.1" d="M582.576 191.319C578.486 190.362 574.223 193.233 573.179 197.844L551.69 287.979C550.733 291.807 552.386 295.635 555.431 297.375L604.761 196.626L582.576 191.319Z" fill="#231F20"/>
</g>
<path d="M573.005 225.859L575.615 226.468L572.222 240.65L570.917 240.302L573.962 227.512L571.874 226.99L573.005 225.859Z" fill="white"/>
<path d="M588.927 229.687L588.579 231.079L583.88 229.948L582.314 233.689C582.923 233.602 583.445 233.689 583.967 233.776C585.185 234.037 586.056 234.733 586.665 235.777C587.274 236.821 587.361 238.039 587.013 239.344C586.752 240.302 586.404 241.085 585.795 241.781C585.185 242.477 584.489 242.912 583.706 243.173C582.923 243.434 582.053 243.434 581.183 243.26C580.139 242.999 579.269 242.477 578.747 241.52C578.138 240.65 577.964 239.605 578.051 238.474L579.443 238.822C579.443 239.431 579.443 239.866 579.617 240.302C579.791 240.737 580.052 241.085 580.4 241.346C580.748 241.694 581.183 241.868 581.618 241.955C582.488 242.129 583.358 241.955 584.141 241.433C584.924 240.911 585.446 240.041 585.707 238.996C585.968 238.039 585.794 237.169 585.446 236.473C585.011 235.777 584.315 235.255 583.358 234.994C582.575 234.82 581.531 234.82 580.313 235.081L583.184 228.295L588.927 229.687Z" fill="white"/>
<path d="M592.059 234.037C592.407 234.124 592.581 234.298 592.755 234.559C592.929 234.82 592.929 235.168 592.842 235.516C592.755 235.864 592.581 236.125 592.32 236.299C592.059 236.473 591.798 236.56 591.45 236.473C591.102 236.386 590.928 236.212 590.754 235.951C590.58 235.69 590.58 235.342 590.667 234.994C590.754 234.646 590.928 234.385 591.189 234.211C591.45 234.037 591.711 233.95 592.059 234.037ZM589.971 242.651C590.232 242.738 590.493 242.912 590.667 243.173C590.841 243.434 590.841 243.782 590.754 244.13C590.667 244.478 590.493 244.739 590.232 244.913C589.971 245.087 589.71 245.174 589.362 245.087C589.101 245 588.84 244.826 588.666 244.565C588.492 244.304 588.492 243.956 588.579 243.608C588.666 243.26 588.84 242.999 589.101 242.825C589.362 242.651 589.71 242.564 589.971 242.651Z" fill="white"/>
<path d="M596.235 236.125L594.93 235.864C595.278 234.472 595.974 233.428 597.018 232.732C598.062 232.036 599.193 231.862 600.411 232.123C601.629 232.384 602.499 233.08 603.108 234.124C603.63 235.168 603.804 236.212 603.543 237.343C603.369 238.126 603.021 238.822 602.499 239.518C601.977 240.127 601.02 240.911 599.715 241.868L595.539 244.913L601.629 246.392L601.281 247.784L592.32 245.609L598.758 240.911C600.063 239.953 600.933 239.257 601.368 238.735C601.803 238.213 602.151 237.691 602.238 237.082C602.412 236.299 602.325 235.516 601.89 234.82C601.455 234.124 600.846 233.689 600.063 233.428C599.193 233.254 598.41 233.341 597.714 233.863C597.105 234.211 596.583 234.994 596.235 236.125Z" fill="white"/>
<path d="M604.239 240.823C604.674 238.909 605.196 237.517 605.805 236.647C606.414 235.69 607.11 235.081 607.98 234.733C608.763 234.385 609.633 234.298 610.503 234.472C611.373 234.646 612.069 235.168 612.678 235.864C613.287 236.56 613.635 237.517 613.722 238.648C613.896 239.779 613.722 241.258 613.287 243.085C612.852 244.913 612.33 246.218 611.634 247.175C611.025 248.132 610.242 248.828 609.372 249.176C608.502 249.524 607.719 249.611 606.849 249.437C605.979 249.263 605.283 248.828 604.761 248.132C604.239 247.436 603.891 246.566 603.717 245.435C603.717 244.217 603.804 242.65 604.239 240.823ZM605.544 241.171C605.196 242.737 605.022 244.043 605.109 244.913C605.196 245.783 605.457 246.479 605.892 247.088C606.327 247.61 606.849 247.958 607.371 248.132C607.98 248.306 608.589 248.219 609.198 247.871C609.807 247.61 610.329 247.001 610.764 246.305C611.373 245.348 611.808 244.217 612.156 242.737C612.504 241.345 612.591 240.127 612.591 239.083C612.504 238.126 612.243 237.343 611.808 236.821C611.373 236.299 610.851 235.951 610.329 235.777C609.72 235.603 609.111 235.69 608.502 236.038C607.893 236.299 607.371 236.908 606.849 237.604C606.327 238.3 605.892 239.518 605.544 241.171Z" fill="white"/>
<g opacity="0.2">
<path opacity="0.2" d="M14.9379 284.687L14 468.871L162.948 469.629L163.886 285.445L14.9379 284.687Z" fill="#231F20"/>
</g>
<path d="M22.156 278.031L21.218 462.215L170.166 462.973L171.104 278.789L22.156 278.031Z" fill="#586370"/>
<g opacity="0.2">
<g opacity="0.2">
<path opacity="0.2" d="M21.9653 278.039L21.0083 464.311L21.9653 278.039Z" fill="#231B1D"/>
<path opacity="0.2" d="M21.9567 278.04L21.0037 464.312L23.6137 464.326L24.5667 278.054L21.9567 278.04Z" fill="#231B1D"/>
<path opacity="0.2" d="M24.6254 278.04L23.6758 464.312L26.2859 464.325L27.2355 278.053L24.6254 278.04Z" fill="#F1F1F1"/>
<path opacity="0.2" d="M27.1705 278L26.2188 464.272L29.2638 464.288L30.2156 278.015L27.1705 278Z" fill="#F1F1F1"/>
<path opacity="0.2" d="M30.1971 278.012L29.2454 464.284L32.2904 464.3L33.2422 278.028L30.1971 278.012Z" fill="#231B1D"/>
<path opacity="0.2" d="M32.3184 464.31L33.2754 278.038L32.3184 464.31Z" fill="#231B1D"/>
</g>
</g>
</g>
</svg>
