<svg width="20" height="20" viewBox="0 0 20 20" fill="none" xmlns="http://www.w3.org/2000/svg">
<path d="M18.7797 14.8599C18.7637 14.7193 18.716 14.5843 18.6401 14.4649C18.5643 14.3455 18.4622 14.2449 18.3418 14.1708L15.2143 12.2343C14.9151 12.048 14.5615 11.9687 14.2114 12.0094C13.8613 12.0501 13.5353 12.2084 13.2868 12.4583L12.2486 13.4968C12.2101 13.5361 12.1614 13.5639 12.108 13.5771C12.0546 13.5904 11.9986 13.5885 11.9462 13.5718C11.3783 13.3802 10.1993 12.8321 8.68366 11.3166C7.16804 9.80108 6.62007 8.62158 6.42826 8.05364C6.41164 8.00127 6.40985 7.94532 6.42309 7.89199C6.43632 7.83866 6.46407 7.79004 6.50326 7.75152L7.54147 6.7133C7.79155 6.46485 7.94986 6.13886 7.9905 5.7887C8.03113 5.43853 7.95169 5.08495 7.76516 4.78583L5.82907 1.65827C5.7547 1.53803 5.65408 1.43618 5.53477 1.36034C5.41545 1.28451 5.28052 1.23665 5.14008 1.22036C4.99964 1.20406 4.85734 1.21976 4.72383 1.26626C4.59031 1.31277 4.46906 1.38888 4.36913 1.48889L2.40501 3.45308C1.77288 4.08585 1.36709 4.90942 1.25051 5.79621C1.13392 6.68299 1.31306 7.58347 1.76016 8.35811C2.92059 10.4148 4.35797 12.3023 6.03204 13.9679C7.6976 15.642 9.58521 17.0793 11.6419 18.2397C12.4165 18.6871 13.317 18.8664 14.2039 18.7498C15.0907 18.6332 15.9143 18.2272 16.5469 17.5949L18.5111 15.6308C18.6113 15.531 18.6876 15.4098 18.7341 15.2763C18.7807 15.1427 18.7962 15.0003 18.7797 14.8599V14.8599Z" fill="white"/>
</svg>
