<svg width="72" height="80" viewBox="0 0 72 80" fill="none" xmlns="http://www.w3.org/2000/svg">
<circle cx="35.5" cy="32.5" r="32.5" fill="#ECF7FF"/>
<g filter="url(#filter0_d)">
<path d="M45.0464 24.4833C44.2881 22.9883 43.1662 21.7078 41.7837 20.7597C40.4013 19.8116 38.8026 19.2263 37.1348 19.0575C36.3803 18.9818 35.6202 18.9818 34.8657 19.0575C33.1979 19.2264 31.5993 19.8117 30.2168 20.7597C28.8343 21.7077 27.7122 22.988 26.9536 24.4828C25.9992 26.3902 25.6306 28.5373 25.8941 30.6537C26.1576 32.7702 27.0416 34.7614 28.4346 36.3764L35.2275 44.6352C35.3213 44.7493 35.4393 44.8412 35.5728 44.9044C35.7064 44.9675 35.8523 45.0002 36 45.0002C36.1477 45.0002 36.2936 44.9675 36.4272 44.9044C36.5608 44.8412 36.6787 44.7493 36.7725 44.6352L43.5654 36.3764C44.9584 34.7614 45.8424 32.7704 46.1059 30.654C46.3695 28.5376 46.0008 26.3906 45.0464 24.4833ZM36 32.9999C35.2089 32.9999 34.4355 32.7653 33.7777 32.3258C33.1199 31.8863 32.6072 31.2615 32.3045 30.5306C32.0017 29.7997 31.9225 28.9955 32.0769 28.2195C32.2312 27.4436 32.6122 26.7309 33.1716 26.1715C33.731 25.6121 34.4437 25.2311 35.2197 25.0768C35.9956 24.9224 36.7998 25.0016 37.5308 25.3044C38.2617 25.6071 38.8864 26.1198 39.3259 26.7776C39.7654 27.4354 40 28.2088 40 28.9999C39.9988 30.0604 39.5769 31.0771 38.8271 31.827C38.0772 32.5768 37.0605 32.9987 36 32.9999V32.9999Z" fill="#3C5AE7"/>
</g>
<defs>
<filter id="filter0_d" x="0.811279" y="4.00073" width="70.3774" height="75.9995" filterUnits="userSpaceOnUse" color-interpolation-filters="sRGB">
<feFlood flood-opacity="0" result="BackgroundImageFix"/>
<feColorMatrix in="SourceAlpha" type="matrix" values="0 0 0 0 0 0 0 0 0 0 0 0 0 0 0 0 0 0 127 0" result="hardAlpha"/>
<feOffset dy="10"/>
<feGaussianBlur stdDeviation="12.5"/>
<feComposite in2="hardAlpha" operator="out"/>
<feColorMatrix type="matrix" values="0 0 0 0 0.235294 0 0 0 0 0.352941 0 0 0 0 0.905882 0 0 0 0.26 0"/>
<feBlend mode="normal" in2="BackgroundImageFix" result="effect1_dropShadow"/>
<feBlend mode="normal" in="SourceGraphic" in2="effect1_dropShadow" result="shape"/>
</filter>
</defs>
</svg>
