<svg width="82" height="79" viewBox="0 0 82 79" fill="none" xmlns="http://www.w3.org/2000/svg">
<circle cx="40.5" cy="32.5" r="32.5" fill="#ECF7FF"/>
<g filter="url(#filter0_d)">
<path d="M41.9437 36.0322C41.6434 36.2038 41.3003 36.2895 41 36.2895C40.6997 36.2895 40.3566 36.2038 40.0563 36.0322L25 26.8525V39.0777C25 41.6944 27.1019 43.7963 29.7185 43.7963H52.2815C54.8981 43.7963 57 41.6944 57 39.0777V26.8525L41.9437 36.0322Z" fill="#3C5AE7"/>
<path d="M52.2817 20.2036H29.7187C27.4882 20.2036 25.6008 21.7907 25.1289 23.8926L41.0002 33.587L56.8715 23.8926C56.3997 21.7907 54.5123 20.2036 52.2817 20.2036Z" fill="#3C5AE7"/>
</g>
<defs>
<filter id="filter0_d" x="0" y="5.20361" width="82" height="73.5925" filterUnits="userSpaceOnUse" color-interpolation-filters="sRGB">
<feFlood flood-opacity="0" result="BackgroundImageFix"/>
<feColorMatrix in="SourceAlpha" type="matrix" values="0 0 0 0 0 0 0 0 0 0 0 0 0 0 0 0 0 0 127 0" result="hardAlpha"/>
<feOffset dy="10"/>
<feGaussianBlur stdDeviation="12.5"/>
<feComposite in2="hardAlpha" operator="out"/>
<feColorMatrix type="matrix" values="0 0 0 0 0.235294 0 0 0 0 0.352941 0 0 0 0 0.905882 0 0 0 0.26 0"/>
<feBlend mode="normal" in2="BackgroundImageFix" result="effect1_dropShadow"/>
<feBlend mode="normal" in="SourceGraphic" in2="effect1_dropShadow" result="shape"/>
</filter>
</defs>
</svg>
