<svg width="80" height="82" viewBox="0 0 80 82" fill="none" xmlns="http://www.w3.org/2000/svg">
<circle cx="39.5" cy="32.5" r="32.5" fill="#ECF7FF"/>
<g filter="url(#filter0_d)">
<path d="M54.0475 39.7759C54.0219 39.551 53.9456 39.3349 53.8242 39.1438C53.7028 38.9528 53.5396 38.7919 53.3468 38.6733L48.3429 35.575C47.8641 35.2769 47.2984 35.15 46.7382 35.2151C46.1781 35.2802 45.6565 35.5334 45.2589 35.9334L43.5978 37.595C43.5361 37.6578 43.4582 37.7022 43.3728 37.7234C43.2874 37.7446 43.1977 37.7417 43.1139 37.715C42.2052 37.4083 40.3189 36.5314 37.8939 34.1066C35.4689 31.6818 34.5921 29.7946 34.2852 28.8859C34.2586 28.8021 34.2558 28.7126 34.2769 28.6272C34.2981 28.5419 34.3425 28.4641 34.4052 28.4025L36.0664 26.7413C36.4665 26.3438 36.7198 25.8222 36.7848 25.262C36.8498 24.7017 36.7227 24.136 36.4243 23.6574L33.3265 18.6533C33.2075 18.4609 33.0465 18.2979 32.8556 18.1766C32.6647 18.0553 32.4488 17.9787 32.2241 17.9526C31.9994 17.9265 31.7717 17.9517 31.5581 18.0261C31.3445 18.1005 31.1505 18.2223 30.9906 18.3823L27.848 21.525C26.8366 22.5374 26.1873 23.8551 26.0008 25.274C25.8143 26.6928 26.1009 28.1336 26.8163 29.373C28.6729 32.6637 30.9728 35.6838 33.6513 38.3486C36.3162 41.0272 39.3363 43.327 42.6271 45.1836C43.8664 45.8994 45.3073 46.1862 46.7262 45.9997C48.1452 45.8131 49.4629 45.1636 50.4751 44.1518L53.6177 41.0093C53.7781 40.8497 53.9001 40.6557 53.9746 40.4421C54.049 40.2284 54.074 40.0006 54.0475 39.7759V39.7759Z" fill="#3C5AE7"/>
</g>
<defs>
<filter id="filter0_d" x="0.945312" y="2.94263" width="78.1123" height="78.1125" filterUnits="userSpaceOnUse" color-interpolation-filters="sRGB">
<feFlood flood-opacity="0" result="BackgroundImageFix"/>
<feColorMatrix in="SourceAlpha" type="matrix" values="0 0 0 0 0 0 0 0 0 0 0 0 0 0 0 0 0 0 127 0" result="hardAlpha"/>
<feOffset dy="10"/>
<feGaussianBlur stdDeviation="12.5"/>
<feComposite in2="hardAlpha" operator="out"/>
<feColorMatrix type="matrix" values="0 0 0 0 0.235294 0 0 0 0 0.352941 0 0 0 0 0.905882 0 0 0 0.26 0"/>
<feBlend mode="normal" in2="BackgroundImageFix" result="effect1_dropShadow"/>
<feBlend mode="normal" in="SourceGraphic" in2="effect1_dropShadow" result="shape"/>
</filter>
</defs>
</svg>
