<svg width="468" height="436" viewBox="0 0 468 436" fill="none" xmlns="http://www.w3.org/2000/svg">
<path d="M178.84 204.419C235.288 204.419 281.049 158.658 281.049 102.209C281.049 45.7607 235.288 0 178.84 0C122.391 0 76.6306 45.7607 76.6306 102.209C76.6306 158.658 122.391 204.419 178.84 204.419Z" fill="#AF9CDA"/>
<path d="M249.799 175.805C249.544 175.802 249.301 175.705 249.115 175.531C249.023 175.44 248.951 175.332 248.901 175.213C248.852 175.094 248.826 174.967 248.826 174.838C248.826 174.709 248.852 174.581 248.901 174.462C248.951 174.343 249.023 174.235 249.115 174.144C268.1 155.159 278.766 129.41 278.766 102.561C278.766 75.7117 268.1 49.9623 249.115 30.9772C230.13 11.992 204.38 1.32628 177.531 1.32628C150.682 1.32628 124.933 11.992 105.948 30.9772C105.857 31.0687 105.749 31.1414 105.63 31.1909C105.511 31.2405 105.383 31.2661 105.254 31.2661C105.125 31.2661 104.998 31.2405 104.879 31.1909C104.76 31.1414 104.652 31.0687 104.561 30.9772C104.381 30.7913 104.28 30.5427 104.28 30.2838C104.28 30.025 104.381 29.7763 104.561 29.5904C124.004 10.6744 150.112 0.17362 177.238 0.359857C204.364 0.546095 230.325 11.4044 249.507 30.5856C268.688 49.7668 279.546 75.7286 279.732 102.854C279.918 129.98 269.418 156.088 250.502 175.531C250.309 175.706 250.059 175.803 249.799 175.805V175.805Z" fill="#243762"/>
<path d="M178.84 179.984C221.794 179.984 256.615 145.163 256.615 102.209C256.615 59.2552 221.794 24.4341 178.84 24.4341C135.886 24.4341 101.065 59.2552 101.065 102.209C101.065 145.163 135.886 179.984 178.84 179.984Z" fill="white"/>
<path d="M178.84 181.02C157.954 181.02 137.923 172.723 123.154 157.954C108.385 143.185 100.088 123.154 100.088 102.268C100.088 81.3816 108.385 61.3508 123.154 46.582C137.923 31.8131 157.954 23.5161 178.84 23.5161C179.099 23.5161 179.347 23.619 179.53 23.8021C179.714 23.9853 179.816 24.2337 179.816 24.4927C179.811 24.7501 179.707 24.9956 179.525 25.1777C179.343 25.3598 179.097 25.4643 178.84 25.4693C158.472 25.4693 138.938 33.5605 124.535 47.9631C110.133 62.3656 102.041 81.8996 102.041 102.268C102.041 122.636 110.133 142.17 124.535 156.573C138.938 170.975 158.472 179.066 178.84 179.066C179.099 179.066 179.347 179.169 179.53 179.352C179.714 179.536 179.816 179.784 179.816 180.043C179.816 180.302 179.714 180.55 179.53 180.734C179.347 180.917 179.099 181.02 178.84 181.02Z" fill="#243762"/>
<path d="M198.977 117.073H177.746C175.674 117.073 173.687 116.25 172.221 114.785C170.756 113.32 169.933 111.332 169.933 109.26V79.9628C169.933 78.1498 170.653 76.411 171.935 75.129C173.217 73.8469 174.956 73.1267 176.769 73.1267C178.582 73.1267 180.321 73.8469 181.603 75.129C182.885 76.411 183.605 78.1498 183.605 79.9628V103.401H198.957C200.77 103.401 202.509 104.121 203.791 105.403C205.073 106.685 205.793 108.424 205.793 110.237C205.793 112.05 205.073 113.789 203.791 115.071C202.509 116.353 200.77 117.073 198.957 117.073H198.977Z" fill="#3C5AE7"/>
<path d="M20.1449 137.698L130.245 247.818C140.591 258.153 154.616 263.958 169.24 263.958C183.864 263.958 197.889 258.153 208.235 247.818L221.399 234.654C222.584 233.472 223.524 232.069 224.165 230.524C224.807 228.979 225.137 227.322 225.137 225.65C225.137 223.977 224.807 222.32 224.165 220.775C223.524 219.23 222.584 217.827 221.399 216.645L176.476 171.723C175.297 170.539 173.895 169.599 172.352 168.958C170.808 168.317 169.153 167.987 167.482 167.987C165.811 167.987 164.156 168.317 162.613 168.958C161.069 169.599 159.667 170.539 158.488 171.723L136.007 194.184C135.591 194.603 135.097 194.935 134.552 195.162C134.007 195.389 133.423 195.505 132.833 195.505C132.243 195.505 131.659 195.389 131.114 195.162C130.569 194.935 130.075 194.603 129.659 194.184L75.1657 139.691C74.7517 139.28 74.4231 138.792 74.1989 138.254C73.9746 137.716 73.8592 137.139 73.8592 136.556C73.8592 135.973 73.9746 135.396 74.1989 134.858C74.4231 134.32 74.7517 133.831 75.1657 133.421L97.3146 111.272C98.4993 110.091 99.4392 108.688 100.081 107.142C100.722 105.597 101.052 103.941 101.052 102.268C101.052 100.595 100.722 98.9386 100.081 97.3935C99.4392 95.8484 98.4993 94.445 97.3146 93.2638L51.1808 47.13C48.8198 44.7687 45.6258 43.4291 42.2868 43.3999C38.9477 43.3707 35.7308 44.6541 33.3288 46.9738L20.8285 59.0443C15.5638 64.1321 11.3647 70.2171 8.47594 76.9444C5.5872 83.6718 4.06669 90.907 4.00306 98.2281C3.93943 105.549 5.33396 112.81 8.10532 119.586C10.8767 126.363 14.9694 132.52 20.1449 137.698V137.698Z" fill="#77899D"/>
<path d="M23.6024 61.2514L85.4592 123.128L87.5881 120.999L97.354 111.233C98.5386 110.052 99.4785 108.648 100.12 107.103C100.761 105.558 101.091 103.902 101.091 102.229C101.091 100.556 100.761 98.8995 100.12 97.3544C99.4785 95.8093 98.5386 94.406 97.354 93.2248L51.1811 47.13C48.8201 44.7687 45.6261 43.4291 42.2871 43.3999C38.948 43.3707 35.7311 44.6541 33.3291 46.9738L20.8289 59.0443L23.6024 61.2514Z" fill="#ECF1F7"/>
<path d="M85.4595 124.514L22.9581 62.013L19.3643 59.1028L32.6653 46.251C35.2441 43.7489 38.7042 42.3626 42.2972 42.3918C45.8902 42.4211 49.3272 43.8635 51.865 46.4072L98.0183 92.5801C99.2939 93.8504 100.306 95.3601 100.997 97.0226C101.687 98.6851 102.043 100.468 102.043 102.268C102.043 104.068 101.687 105.851 100.997 107.513C100.306 109.175 99.2939 110.685 98.0183 111.956L85.4595 124.514ZM22.3135 58.9661L24.2667 60.5677L85.4595 121.741L96.6316 110.569C97.7241 109.48 98.591 108.186 99.1824 106.762C99.7739 105.337 100.078 103.81 100.078 102.268C100.078 100.725 99.7739 99.1982 99.1824 97.7737C98.591 96.3493 97.7241 95.0556 96.6316 93.9669L50.4782 47.8135C48.303 45.6303 45.3554 44.3918 42.2737 44.3662C39.1919 44.3406 36.2241 45.53 34.013 47.6768L22.3135 58.9661Z" fill="#243762"/>
<path d="M149.445 184.926L211.321 246.802L213.431 244.673L223.197 234.908C225.58 232.517 226.918 229.279 226.918 225.903C226.918 222.528 225.58 219.29 223.197 216.899L177.024 170.863C174.669 168.498 171.477 167.156 168.14 167.127C164.802 167.098 161.588 168.384 159.191 170.707L146.691 182.778L149.445 184.926Z" fill="#ECF1F7"/>
<path d="M211.321 248.248L148.82 185.746L145.226 182.856L158.527 170.023C161.121 167.543 164.58 166.172 168.168 166.201C171.757 166.231 175.193 167.658 177.746 170.18L223.88 216.333C225.155 217.603 226.168 219.113 226.858 220.775C227.549 222.438 227.904 224.22 227.904 226.021C227.904 227.821 227.549 229.603 226.858 231.266C226.168 232.928 225.155 234.438 223.88 235.708L211.321 248.248ZM148.156 182.699L150.109 184.301L211.321 245.474L222.493 234.302C223.586 233.213 224.453 231.92 225.044 230.495C225.635 229.071 225.94 227.543 225.94 226.001C225.94 224.459 225.635 222.931 225.044 221.507C224.453 220.083 223.586 218.789 222.493 217.7L176.34 171.547C174.165 169.364 171.217 168.125 168.135 168.099C165.054 168.074 162.086 169.263 159.875 171.41L148.156 182.699Z" fill="#243762"/>
<path d="M66.0253 92.6387C65.8976 92.638 65.7713 92.6117 65.6539 92.5614C65.5365 92.511 65.4303 92.4377 65.3417 92.3458L27.6456 54.6496C27.554 54.5588 27.4814 54.4508 27.4318 54.3318C27.3822 54.2128 27.3567 54.0852 27.3567 53.9562C27.3567 53.8273 27.3822 53.6997 27.4318 53.5807C27.4814 53.4617 27.554 53.3537 27.6456 53.2629C27.8314 53.0827 28.0801 52.9819 28.3389 52.9819C28.5978 52.9819 28.8465 53.0827 29.0323 53.2629L66.7284 90.959C66.9086 91.1449 67.0094 91.3935 67.0094 91.6524C67.0094 91.9112 66.9086 92.1599 66.7284 92.3458C66.5421 92.5327 66.2892 92.6381 66.0253 92.6387V92.6387Z" fill="#243762"/>
<path d="M215.97 242.583C215.712 242.58 215.466 242.474 215.286 242.29L177.59 204.594C177.496 204.507 177.422 204.401 177.371 204.283C177.32 204.166 177.294 204.039 177.294 203.911C177.294 203.783 177.32 203.656 177.371 203.538C177.422 203.421 177.496 203.315 177.59 203.227C177.681 203.136 177.789 203.063 177.908 203.013C178.027 202.964 178.154 202.938 178.283 202.938C178.412 202.938 178.54 202.964 178.659 203.013C178.778 203.063 178.886 203.136 178.977 203.227L216.673 240.923C216.852 241.106 216.952 241.351 216.952 241.607C216.952 241.862 216.852 242.108 216.673 242.29C216.486 242.477 216.234 242.583 215.97 242.583V242.583Z" fill="#243762"/>
<path d="M381.403 435.283L237.064 413.935C229.228 412.772 222.174 408.545 217.453 402.183C212.732 395.821 210.73 387.845 211.888 380.008L263.686 30.0397C264.849 22.2112 269.07 15.1638 275.423 10.4439C281.776 5.72394 289.742 3.71698 297.573 4.86336L441.912 26.2115C449.748 27.3743 456.802 31.6012 461.523 37.963C466.244 44.3248 468.246 52.3009 467.088 60.138L415.329 410.107C414.756 413.988 413.424 417.718 411.408 421.084C409.393 424.45 406.733 427.386 403.583 429.724C400.432 432.062 396.852 433.757 393.046 434.71C389.24 435.664 385.284 435.859 381.403 435.283Z" fill="#77899D"/>
<path d="M276.89 37.6158L226.776 368.364L406.121 395.538L456.235 64.7892L276.89 37.6158Z" fill="#ECF1F7"/>
<path d="M274.905 37.5245L271.237 62.3335L450.446 88.8286L454.114 64.0196L274.905 37.5245Z" fill="#AF9CDA"/>
<path d="M312.612 413.446C312.037 413.446 311.463 413.406 310.893 413.329C309.374 413.11 307.913 412.592 306.595 411.804C305.277 411.016 304.129 409.974 303.217 408.739C301.373 406.246 300.592 403.123 301.046 400.055C301.5 396.987 303.152 394.224 305.639 392.372C306.865 391.446 308.264 390.775 309.753 390.399C311.243 390.023 312.793 389.95 314.311 390.184C317.177 390.681 319.756 392.225 321.546 394.517C323.337 396.809 324.211 399.684 323.999 402.585C323.787 405.486 322.504 408.204 320.4 410.211C318.295 412.219 315.519 413.372 312.612 413.446V413.446ZM312.612 391.962C310.74 391.959 308.906 392.494 307.33 393.503C305.753 394.513 304.5 395.955 303.72 397.656C302.939 399.358 302.664 401.248 302.928 403.102C303.191 404.955 303.982 406.694 305.205 408.111C306.429 409.527 308.034 410.563 309.83 411.093C311.625 411.624 313.535 411.627 315.332 411.102C317.129 410.578 318.738 409.548 319.966 408.135C321.195 406.722 321.991 404.986 322.261 403.134C322.636 400.578 321.983 397.978 320.446 395.903C318.908 393.827 316.611 392.445 314.057 392.059C313.543 392.027 313.028 392.027 312.514 392.059L312.612 391.962Z" fill="#ECF1F7"/>
<path d="M338.512 34.3757H337.965C337.226 34.2726 336.534 33.9513 335.979 33.4531C335.423 32.9548 335.029 32.3021 334.847 31.5785C334.664 30.855 334.702 30.0934 334.955 29.3913C335.207 28.6892 335.664 28.0785 336.266 27.6372C336.864 27.1995 337.579 26.948 338.319 26.9143C339.06 26.8806 339.794 27.0661 340.43 27.4476C341.066 27.8291 341.575 28.3897 341.894 29.0592C342.213 29.7287 342.327 30.4774 342.223 31.2115V31.2115C342.083 32.0948 341.632 32.899 340.952 33.4792C340.271 34.0594 339.406 34.3773 338.512 34.3757ZM338.512 28.8091C338.125 28.8063 337.748 28.9298 337.438 29.1607C337.058 29.4555 336.801 29.8797 336.715 30.3522C336.657 30.8269 336.775 31.3064 337.047 31.6998C337.345 32.0717 337.769 32.3218 338.238 32.403C338.473 32.4389 338.713 32.4279 338.943 32.3706C339.174 32.3133 339.391 32.2109 339.582 32.0692C339.772 31.9275 339.933 31.7494 340.055 31.5452C340.176 31.341 340.256 31.1147 340.289 30.8795V30.8795C340.328 30.6441 340.319 30.4032 340.262 30.1715C340.205 29.9398 340.101 29.7222 339.957 29.5318C339.659 29.1599 339.235 28.9099 338.766 28.8287L338.512 28.8091Z" fill="#ECF1F7"/>
<path d="M396.715 42.9893H396.169L350.445 36.2314C349.707 36.1233 349.017 35.7985 348.463 35.2982C347.91 34.7978 347.517 34.1444 347.335 33.4207C347.153 32.697 347.19 31.9356 347.441 31.2329C347.692 30.5302 348.146 29.9179 348.746 29.4734C349.139 29.1558 349.593 28.9212 350.08 28.7836C350.567 28.646 351.076 28.6082 351.578 28.6726L397.301 35.4306C397.79 35.5112 398.258 35.6873 398.679 35.9488C399.099 36.2104 399.464 36.5523 399.753 36.955C400.041 37.3577 400.247 37.8133 400.36 38.2957C400.472 38.7781 400.488 39.278 400.407 39.7666C400.276 40.6589 399.83 41.4747 399.149 42.066C398.468 42.6572 397.598 42.9849 396.696 42.9893H396.715ZM350.992 30.6258C350.655 30.6173 350.323 30.7047 350.034 30.8778C349.745 31.0509 349.511 31.3025 349.359 31.6034C349.208 31.9043 349.145 32.2421 349.178 32.5773C349.211 32.9126 349.339 33.2315 349.546 33.4969C349.684 33.6893 349.858 33.8523 350.06 33.9764C350.261 34.1004 350.485 34.1831 350.718 34.2196L396.501 41.0166C396.974 41.0839 397.455 40.9616 397.839 40.6764C398.223 40.3911 398.479 39.966 398.551 39.4932C398.587 39.2583 398.576 39.0187 398.519 38.7881C398.462 38.5575 398.359 38.3406 398.218 38.1498C398.076 37.9591 397.898 37.7984 397.694 37.6769C397.489 37.5555 397.263 37.4758 397.028 37.4423L351.246 30.6258H350.992Z" fill="#ECF1F7"/>
<path d="M405.974 293.405L280.972 274.928C280.488 274.853 279.994 274.876 279.518 274.994C279.043 275.112 278.596 275.324 278.204 275.617C277.811 275.909 277.481 276.277 277.231 276.699C276.982 277.12 276.82 277.587 276.753 278.072L271.948 310.495C271.808 311.473 272.06 312.467 272.649 313.261C273.237 314.055 274.116 314.584 275.093 314.733L381.97 330.534L392.966 345.711L394.919 332.449L400.076 333.21C400.561 333.282 401.055 333.258 401.53 333.139C402.006 333.02 402.453 332.808 402.847 332.516C403.24 332.224 403.572 331.857 403.824 331.437C404.076 331.017 404.243 330.551 404.314 330.066L409.099 297.643C409.245 296.667 408.998 295.673 408.412 294.878C407.827 294.084 406.95 293.554 405.974 293.405V293.405Z" fill="#C5D9FF"/>
<path d="M381.97 331.511H381.813L274.955 315.788C274.34 315.701 273.749 315.492 273.216 315.173C272.682 314.855 272.218 314.433 271.85 313.933C271.482 313.44 271.216 312.878 271.069 312.281C270.921 311.684 270.895 311.063 270.991 310.456L275.776 278.014C275.973 276.789 276.646 275.691 277.648 274.96C278.65 274.228 279.901 273.922 281.127 274.107L310.015 278.385C310.274 278.424 310.507 278.564 310.662 278.775C310.818 278.985 310.884 279.249 310.845 279.508C310.806 279.767 310.666 280 310.455 280.156C310.245 280.311 309.981 280.377 309.722 280.338L280.834 276.061C280.112 275.954 279.377 276.14 278.791 276.576C278.205 277.011 277.816 277.662 277.709 278.385L272.905 310.807C272.826 311.502 273.015 312.2 273.432 312.761C273.644 313.051 273.912 313.296 274.221 313.481C274.53 313.665 274.873 313.786 275.229 313.835L382.106 329.636C382.361 329.679 382.588 329.819 382.741 330.027C382.894 330.235 382.961 330.494 382.927 330.749C382.878 330.966 382.756 331.16 382.582 331.299C382.408 331.437 382.192 331.512 381.97 331.511V331.511Z" fill="#243762"/>
<path d="M425.798 159.027L300.796 140.55C299.819 140.404 298.825 140.651 298.031 141.237C297.236 141.823 296.707 142.699 296.557 143.675L291.772 176.117C291.697 176.6 291.719 177.092 291.836 177.566C291.953 178.04 292.163 178.487 292.454 178.879C292.744 179.271 293.11 179.602 293.529 179.852C293.949 180.102 294.414 180.267 294.897 180.336L401.774 196.157L412.79 211.333L414.743 198.071L419.9 198.832C420.384 198.907 420.878 198.885 421.353 198.766C421.828 198.648 422.275 198.436 422.668 198.144C423.06 197.851 423.391 197.483 423.64 197.062C423.889 196.64 424.052 196.173 424.119 195.688L428.923 163.265C429.064 162.29 428.815 161.298 428.23 160.505C427.645 159.712 426.772 159.181 425.798 159.027V159.027Z" fill="#C5D9FF"/>
<path d="M413.474 213.852L401.286 197.055L294.819 181.313C293.598 181.115 292.504 180.445 291.773 179.448C291.042 178.45 290.733 177.204 290.913 175.98C290.952 175.723 291.09 175.49 291.298 175.333C291.506 175.176 291.768 175.107 292.026 175.141C292.281 175.184 292.508 175.324 292.661 175.532C292.814 175.739 292.881 175.998 292.847 176.254C292.791 176.612 292.808 176.978 292.895 177.329C292.982 177.681 293.139 178.012 293.355 178.303C293.571 178.593 293.843 178.838 294.155 179.023C294.467 179.208 294.812 179.329 295.171 179.379L402.361 195.239L412.224 208.911L413.963 197.036L420.095 197.954C420.816 198.049 421.546 197.86 422.13 197.426C422.714 196.992 423.105 196.347 423.221 195.629L426.404 174.144C426.447 173.89 426.588 173.663 426.795 173.51C427.003 173.357 427.262 173.29 427.518 173.324C427.772 173.367 427.999 173.508 428.152 173.715C428.305 173.923 428.372 174.182 428.338 174.437L425.154 195.922C424.952 197.145 424.278 198.239 423.277 198.97C422.276 199.701 421.029 200.009 419.802 199.829L415.623 199.204L413.474 213.852Z" fill="#243762"/>
<path d="M267.592 200.825L392.595 219.302C393.571 219.451 394.45 219.98 395.039 220.774C395.628 221.568 395.879 222.562 395.739 223.54L390.934 255.963C390.872 256.449 390.713 256.919 390.468 257.343C390.222 257.768 389.894 258.139 389.503 258.436C389.112 258.732 388.666 258.948 388.191 259.07C387.715 259.192 387.221 259.218 386.735 259.146L279.858 243.345L264.916 254.693L266.869 241.431L261.693 240.669C260.718 240.52 259.841 239.99 259.255 239.196C258.67 238.401 258.423 237.407 258.568 236.431L263.353 203.989C263.423 203.502 263.588 203.034 263.838 202.611C264.089 202.189 264.421 201.82 264.815 201.526C265.209 201.232 265.657 201.018 266.133 200.898C266.61 200.778 267.106 200.753 267.592 200.825Z" fill="#AF9CDA"/>
<path d="M387.302 260.123H386.598L319.898 250.24C319.639 250.204 319.405 250.066 319.247 249.857C319.09 249.648 319.022 249.386 319.058 249.127C319.094 248.868 319.232 248.634 319.441 248.476C319.649 248.319 319.912 248.251 320.171 248.287L386.891 258.15C387.612 258.246 388.342 258.057 388.926 257.623C389.509 257.189 389.901 256.544 390.016 255.826L394.802 223.403C394.857 223.047 394.841 222.683 394.755 222.332C394.669 221.981 394.515 221.651 394.3 221.361C394.086 221.07 393.816 220.825 393.507 220.639C393.197 220.453 392.854 220.331 392.497 220.278C392.238 220.242 392.004 220.104 391.846 219.896C391.689 219.687 391.621 219.424 391.657 219.165C391.693 218.906 391.831 218.672 392.04 218.515C392.249 218.357 392.511 218.289 392.77 218.325C393.994 218.518 395.091 219.186 395.823 220.186C396.555 221.185 396.862 222.433 396.677 223.657L391.891 256.099C391.702 257.332 391.036 258.44 390.036 259.185C389.246 259.778 388.289 260.106 387.302 260.123V260.123Z" fill="#243762"/>
<path d="M231.965 338.39L227.354 368.825L406.698 395.998L411.31 365.563L231.965 338.39Z" fill="white"/>
<path d="M256.986 356.805C256.669 358.937 255.727 360.927 254.279 362.524C252.831 364.12 250.942 365.252 248.851 365.775C246.76 366.298 244.561 366.19 242.532 365.463C240.502 364.736 238.734 363.424 237.451 361.693C236.167 359.961 235.426 357.888 235.32 355.735C235.215 353.582 235.75 351.446 236.859 349.598C237.967 347.749 239.599 346.271 241.547 345.349C243.496 344.428 245.674 344.105 247.806 344.422C250.663 344.851 253.234 346.395 254.955 348.716C256.675 351.038 257.406 353.946 256.986 356.805Z" fill="#C5D9FF"/>
<path opacity="0.33" d="M389.157 386.336C388.673 386.336 388.19 386.297 387.712 386.219L271.596 369.051C270.324 368.861 269.103 368.418 268.006 367.747C266.909 367.076 265.957 366.191 265.209 365.145C264.093 363.596 263.455 361.755 263.374 359.848C263.292 357.941 263.772 356.052 264.753 354.415C265.734 352.777 267.173 351.463 268.892 350.635C270.612 349.806 272.536 349.5 274.428 349.754L390.642 367C392.982 367.46 395.073 368.761 396.52 370.657C397.967 372.552 398.67 374.912 398.497 377.291C398.324 379.669 397.287 381.902 395.581 383.569C393.874 385.235 391.617 386.22 389.235 386.336H389.157ZM388.005 384.383C389.521 384.59 391.064 384.347 392.443 383.685C393.823 383.022 394.977 381.97 395.763 380.657C396.549 379.345 396.933 377.83 396.866 376.302C396.8 374.773 396.285 373.298 395.388 372.059C394.151 370.407 392.312 369.312 390.271 369.012L274.135 351.824C272.099 351.538 270.032 352.067 268.383 353.296C266.734 354.524 265.636 356.354 265.326 358.387C265.04 360.42 265.567 362.484 266.791 364.133C268.016 365.782 269.84 366.882 271.87 367.195L388.005 384.383Z" fill="#AF9CDA"/>
<path d="M286.069 55.3527C285.888 55.3721 285.704 55.3721 285.522 55.3527C284.749 55.2567 284.022 54.9316 283.435 54.4192C282.848 53.9069 282.428 53.2307 282.228 52.4775C282.028 51.7244 282.059 50.9287 282.314 50.1928C282.57 49.4569 283.041 48.8143 283.665 48.3477C284.289 47.8811 285.038 47.6118 285.816 47.5743C286.595 47.5369 287.366 47.7331 288.032 48.1376C288.698 48.5422 289.228 49.1366 289.553 49.8446C289.879 50.5525 289.985 51.3416 289.858 52.1104C289.704 53.0078 289.241 53.8229 288.549 54.4149C287.857 55.0069 286.98 55.3386 286.069 55.3527V55.3527ZM286.069 49.669C285.667 49.6661 285.276 49.7966 284.956 50.0401C284.561 50.341 284.296 50.781 284.214 51.2706C284.151 51.7607 284.277 52.2562 284.565 52.6573C284.802 52.9242 285.108 53.1211 285.449 53.2265C285.79 53.3319 286.153 53.3419 286.5 53.2553C286.846 53.1688 287.162 52.989 287.413 52.7355C287.664 52.482 287.841 52.1645 287.925 51.8175V51.8175C287.978 51.3286 287.844 50.8379 287.551 50.4433C287.257 50.0486 286.826 49.7791 286.343 49.6885L286.069 49.669Z" fill="white"/>
<path d="M296.655 56.9152C296.467 56.9353 296.277 56.9353 296.089 56.9152C295.508 56.9526 294.926 56.8596 294.385 56.643C293.845 56.4264 293.359 56.0918 292.965 55.6636C292.57 55.2353 292.277 54.7243 292.105 54.1679C291.933 53.6115 291.888 53.0238 291.973 52.4477C292.058 51.8717 292.271 51.3219 292.595 50.8386C292.92 50.3553 293.349 49.9506 293.85 49.6543C294.351 49.358 294.912 49.1775 295.492 49.1259C296.072 49.0744 296.656 49.1532 297.202 49.3565C298.205 49.5113 299.109 50.0507 299.722 50.8604C300.021 51.262 300.238 51.7194 300.358 52.2056C300.479 52.6919 300.502 53.1974 300.425 53.6925C300.297 54.6001 299.845 55.4308 299.152 56.0305C298.459 56.6303 297.572 56.9585 296.655 56.9543V56.9152ZM296.655 51.2315C296.252 51.3282 295.891 51.5504 295.623 51.8659C295.355 52.1815 295.194 52.5742 295.163 52.9872C295.133 53.4002 295.234 53.8121 295.453 54.1636C295.672 54.5151 295.997 54.7879 296.382 54.9425C296.623 54.9836 296.871 54.9753 297.109 54.9183C297.347 54.8612 297.572 54.7565 297.768 54.6105C298.163 54.3095 298.429 53.8696 298.511 53.38V53.38C298.563 52.8911 298.43 52.4004 298.136 52.0058C297.843 51.6111 297.412 51.3416 296.928 51.251L296.655 51.2315Z" fill="white"/>
<path d="M307.007 58.4584H306.46C305.45 58.3875 304.507 57.9274 303.83 57.1749C303.153 56.4225 302.794 55.4365 302.83 54.4248C302.865 53.4131 303.292 52.4546 304.02 51.7515C304.748 51.0483 305.721 50.6553 306.733 50.6553C307.746 50.6553 308.719 51.0483 309.447 51.7515C310.175 52.4546 310.602 53.4131 310.637 54.4248C310.673 55.4365 310.314 56.4225 309.637 57.1749C308.96 57.9274 308.017 58.3875 307.007 58.4584V58.4584ZM307.007 52.7551C306.607 52.7618 306.218 52.8913 305.894 53.1262C305.506 53.4306 305.248 53.8701 305.171 54.3567C305.131 54.5983 305.14 54.8455 305.197 55.0836C305.254 55.3218 305.358 55.5461 305.503 55.7435C305.74 56.0104 306.046 56.2072 306.387 56.3126C306.728 56.4181 307.091 56.428 307.437 56.3415C307.783 56.2549 308.099 56.0751 308.351 55.8216C308.602 55.5681 308.779 55.2506 308.862 54.9036C308.915 54.4148 308.781 53.924 308.488 53.5294C308.195 53.1348 307.764 52.8652 307.28 52.7746L307.007 52.7551Z" fill="white"/>
<path d="M452.888 90.1778H452.751L286.869 65.6265C286.61 65.5903 286.376 65.4526 286.218 65.2438C286.061 65.035 285.993 64.7722 286.029 64.5132C286.065 64.2542 286.203 64.0202 286.412 63.8627C286.621 63.7052 286.883 63.6371 287.142 63.6733L453.025 88.2051C453.152 88.2242 453.274 88.2682 453.384 88.3345C453.494 88.4008 453.59 88.4882 453.666 88.5916C453.742 88.695 453.797 88.8124 453.828 88.9372C453.859 89.0619 453.865 89.1915 453.845 89.3184C453.817 89.5533 453.704 89.7699 453.528 89.928C453.352 90.086 453.125 90.1748 452.888 90.1778Z" fill="#243762"/>
<path d="M383.727 300.886H383.59L295.092 287.799C294.964 287.783 294.841 287.74 294.729 287.675C294.618 287.609 294.521 287.522 294.444 287.418C294.368 287.314 294.313 287.195 294.283 287.07C294.254 286.944 294.25 286.813 294.272 286.686C294.311 286.433 294.447 286.206 294.651 286.052C294.856 285.899 295.112 285.832 295.366 285.866L383.883 298.952C384.138 298.995 384.365 299.135 384.518 299.343C384.671 299.551 384.738 299.81 384.704 300.065C384.663 300.295 384.542 300.502 384.364 300.652C384.185 300.802 383.96 300.885 383.727 300.886V300.886Z" fill="white"/>
<path d="M331.343 303.913H331.187L293.53 298.346C293.271 298.31 293.037 298.173 292.879 297.964C292.722 297.755 292.653 297.492 292.69 297.233C292.726 296.974 292.864 296.74 293.072 296.583C293.281 296.425 293.544 296.357 293.803 296.393L331.48 301.96C331.607 301.979 331.729 302.023 331.839 302.089C331.949 302.155 332.045 302.243 332.121 302.346C332.197 302.45 332.252 302.567 332.283 302.692C332.314 302.817 332.319 302.946 332.3 303.073C332.271 303.306 332.158 303.52 331.981 303.675C331.805 303.83 331.578 303.915 331.343 303.913V303.913Z" fill="white"/>
<path d="M318.648 312.136H318.492L292.065 308.229C291.806 308.191 291.573 308.05 291.418 307.84C291.262 307.629 291.196 307.365 291.235 307.106C291.274 306.847 291.414 306.614 291.625 306.459C291.835 306.303 292.099 306.237 292.358 306.276L318.785 310.183C318.912 310.202 319.034 310.246 319.144 310.312C319.254 310.378 319.349 310.466 319.426 310.569C319.502 310.672 319.557 310.79 319.588 310.915C319.618 311.039 319.624 311.169 319.605 311.296C319.576 311.529 319.463 311.743 319.286 311.898C319.11 312.053 318.883 312.138 318.648 312.136Z" fill="white"/>
<path d="M382.165 311.432H382.028L343.102 305.573C342.974 305.554 342.85 305.509 342.739 305.443C342.628 305.376 342.531 305.288 342.454 305.183C342.377 305.079 342.321 304.961 342.29 304.835C342.259 304.709 342.252 304.578 342.272 304.45C342.291 304.322 342.335 304.198 342.402 304.087C342.469 303.976 342.557 303.879 342.661 303.802C342.766 303.725 342.884 303.669 343.01 303.638C343.136 303.607 343.266 303.601 343.395 303.62L382.321 309.382C382.58 309.402 382.821 309.525 382.989 309.723C383.158 309.921 383.241 310.177 383.22 310.436C383.199 310.695 383.076 310.936 382.879 311.104C382.681 311.273 382.424 311.356 382.165 311.335V311.432Z" fill="white"/>
<path d="M372.926 227.446H372.789L284.272 214.36C284.018 214.317 283.79 214.177 283.637 213.969C283.484 213.761 283.418 213.503 283.452 213.247C283.468 213.119 283.51 212.995 283.576 212.884C283.642 212.773 283.729 212.676 283.833 212.599C283.937 212.522 284.056 212.467 284.181 212.438C284.307 212.408 284.438 212.404 284.565 212.427L373.063 225.513C373.322 225.531 373.563 225.651 373.733 225.847C373.904 226.043 373.989 226.299 373.971 226.558C373.953 226.817 373.833 227.058 373.637 227.228C373.441 227.399 373.185 227.484 372.926 227.466V227.446Z" fill="white"/>
<path d="M320.523 230.474H320.327L282.651 224.888C282.398 224.849 282.17 224.713 282.017 224.508C281.864 224.304 281.797 224.047 281.83 223.794C281.869 223.536 282.007 223.304 282.215 223.147C282.424 222.99 282.685 222.921 282.944 222.954L320.62 228.54C320.873 228.579 321.1 228.715 321.254 228.92C321.407 229.124 321.474 229.381 321.441 229.634C321.406 229.857 321.296 230.062 321.129 230.215C320.962 230.367 320.748 230.459 320.523 230.474Z" fill="white"/>
<path d="M359.664 246.373H359.527L283.217 234.497C283.09 234.478 282.968 234.434 282.858 234.368C282.748 234.302 282.652 234.214 282.576 234.111C282.499 234.007 282.444 233.89 282.414 233.765C282.383 233.641 282.377 233.511 282.396 233.384C282.415 233.258 282.459 233.136 282.526 233.027C282.593 232.918 282.68 232.823 282.784 232.749C282.888 232.674 283.006 232.621 283.13 232.593C283.255 232.564 283.384 232.561 283.51 232.583L359.898 244.419C360.157 244.44 360.397 244.563 360.566 244.761C360.734 244.959 360.817 245.215 360.797 245.474C360.776 245.733 360.653 245.973 360.455 246.142C360.258 246.31 360.001 246.393 359.742 246.373H359.664Z" fill="white"/>
<path d="M371.363 237.994H371.227L332.3 232.134C332.172 232.116 332.048 232.073 331.937 232.007C331.825 231.942 331.728 231.855 331.65 231.751C331.572 231.648 331.515 231.53 331.482 231.405C331.45 231.28 331.442 231.149 331.46 231.021C331.478 230.893 331.521 230.769 331.587 230.657C331.653 230.546 331.74 230.448 331.843 230.37C331.946 230.292 332.064 230.235 332.189 230.203C332.315 230.17 332.445 230.163 332.574 230.181L371.5 236.04C371.629 236.057 371.753 236.099 371.865 236.165C371.978 236.23 372.076 236.317 372.154 236.421C372.232 236.524 372.289 236.643 372.321 236.768C372.353 236.894 372.359 237.025 372.34 237.154C372.303 237.387 372.185 237.599 372.006 237.753C371.827 237.907 371.599 237.992 371.363 237.994V237.994Z" fill="white"/>
<path d="M283.686 78.9081L408.689 97.3851C409.666 97.5347 410.544 98.0638 411.133 98.8575C411.722 99.6511 411.974 100.645 411.833 101.623L407.029 134.144C406.962 134.629 406.799 135.096 406.55 135.517C406.301 135.939 405.97 136.307 405.578 136.6C405.185 136.892 404.738 137.104 404.263 137.222C403.788 137.34 403.294 137.363 402.81 137.288L295.932 121.487L280.991 132.835L282.944 119.573L277.768 118.811C276.792 118.662 275.916 118.132 275.33 117.338C274.744 116.543 274.497 115.549 274.643 114.573L279.428 82.1504C279.488 81.6549 279.647 81.1765 279.895 80.7435C280.143 80.3104 280.475 79.9315 280.872 79.6292C281.269 79.3269 281.723 79.1073 282.206 78.9834C282.689 78.8596 283.193 78.834 283.686 78.9081V78.9081Z" fill="#AF9CDA"/>
<path d="M407.029 135.022H406.892C406.638 134.979 406.41 134.839 406.257 134.631C406.104 134.424 406.037 134.165 406.071 133.909L410.857 101.487C410.912 101.13 410.896 100.766 410.81 100.415C410.724 100.065 410.57 99.7345 410.355 99.4439C410.141 99.1534 409.871 98.9082 409.562 98.7224C409.252 98.5366 408.909 98.414 408.552 98.3615L330.933 86.8769C330.806 86.8578 330.684 86.8139 330.574 86.7476C330.464 86.6812 330.368 86.5939 330.292 86.4905C330.216 86.387 330.161 86.2696 330.13 86.1449C330.099 86.0201 330.093 85.8906 330.113 85.7636C330.156 85.5093 330.296 85.2818 330.504 85.1288C330.712 84.9758 330.97 84.9093 331.226 84.9433L408.825 96.4279C409.446 96.5249 410.04 96.7484 410.571 97.0843C411.102 97.4203 411.558 97.8616 411.911 98.3811C412.287 98.8703 412.558 99.4309 412.709 100.029C412.861 100.627 412.888 101.249 412.79 101.858L408.005 134.144C407.981 134.385 407.867 134.609 407.687 134.772C407.506 134.934 407.271 135.024 407.029 135.022Z" fill="#243762"/>
<path d="M388.981 105.53H388.844L300.327 92.4434C300.072 92.4001 299.845 92.2599 299.692 92.0523C299.539 91.8446 299.472 91.5857 299.506 91.3301C299.525 91.203 299.569 91.081 299.636 90.971C299.702 90.861 299.789 90.7651 299.893 90.6889C299.996 90.6127 300.114 90.5577 300.238 90.5269C300.363 90.4962 300.493 90.4903 300.62 90.5097L389.118 103.596C389.377 103.614 389.618 103.734 389.788 103.93C389.958 104.126 390.044 104.382 390.026 104.641C390.008 104.9 389.887 105.141 389.691 105.311C389.495 105.482 389.24 105.567 388.981 105.549V105.53Z" fill="white"/>
<path d="M336.577 108.557H336.44L298.842 102.893C298.589 102.854 298.362 102.718 298.209 102.513C298.055 102.309 297.988 102.052 298.022 101.799C298.06 101.541 298.199 101.309 298.407 101.152C298.615 100.995 298.876 100.926 299.135 100.959L336.812 106.545C336.939 106.564 337.061 106.608 337.171 106.675C337.281 106.741 337.377 106.828 337.453 106.932C337.529 107.035 337.584 107.153 337.615 107.277C337.645 107.402 337.651 107.532 337.632 107.659C337.607 107.916 337.483 108.154 337.286 108.321C337.09 108.489 336.835 108.573 336.577 108.557Z" fill="white"/>
<path d="M375.719 124.378H375.582L299.194 112.659C299.066 112.639 298.943 112.595 298.831 112.528C298.72 112.461 298.623 112.373 298.546 112.269C298.469 112.165 298.414 112.046 298.382 111.92C298.351 111.795 298.345 111.664 298.364 111.536C298.383 111.407 298.427 111.284 298.494 111.173C298.561 111.062 298.649 110.965 298.754 110.888C298.858 110.811 298.976 110.755 299.102 110.724C299.228 110.692 299.359 110.686 299.487 110.706L375.875 122.425C376.13 122.468 376.357 122.608 376.51 122.816C376.663 123.023 376.73 123.282 376.696 123.538C376.659 123.771 376.54 123.983 376.361 124.137C376.183 124.291 375.955 124.376 375.719 124.378V124.378Z" fill="white"/>
<path d="M387.419 116.077H387.282L348.355 110.217C348.098 110.179 347.865 110.04 347.708 109.832C347.551 109.624 347.482 109.363 347.516 109.104C347.535 108.977 347.579 108.855 347.645 108.745C347.711 108.635 347.799 108.539 347.902 108.463C348.005 108.387 348.123 108.332 348.248 108.301C348.372 108.27 348.502 108.264 348.629 108.284L387.556 114.046C387.812 114.08 388.044 114.214 388.202 114.419C388.359 114.624 388.429 114.883 388.395 115.139C388.381 115.39 388.272 115.626 388.091 115.799C387.91 115.973 387.67 116.072 387.419 116.077V116.077Z" fill="white"/>
<path d="M403.689 167.738H403.552L315.035 154.652C314.78 154.609 314.553 154.468 314.4 154.261C314.247 154.053 314.18 153.794 314.214 153.539C314.233 153.412 314.277 153.29 314.344 153.179C314.41 153.069 314.497 152.974 314.601 152.897C314.704 152.821 314.822 152.766 314.946 152.735C315.071 152.705 315.201 152.699 315.328 152.718L403.826 165.804C404.085 165.823 404.326 165.943 404.496 166.139C404.666 166.335 404.752 166.59 404.734 166.849C404.716 167.108 404.595 167.35 404.399 167.52C404.203 167.69 403.948 167.776 403.689 167.758V167.738Z" fill="white"/>
<path d="M351.285 170.785H351.149L313.472 165.199C313.345 165.18 313.223 165.136 313.113 165.07C313.003 165.003 312.907 164.916 312.831 164.812C312.755 164.709 312.7 164.592 312.669 164.467C312.638 164.342 312.632 164.213 312.652 164.086C312.695 163.831 312.835 163.604 313.043 163.451C313.251 163.298 313.509 163.231 313.765 163.265L351.442 168.851C351.694 168.89 351.922 169.026 352.075 169.231C352.229 169.435 352.296 169.692 352.262 169.945C352.225 170.178 352.107 170.39 351.928 170.544C351.749 170.698 351.521 170.783 351.285 170.785V170.785Z" fill="white"/>
<path d="M338.59 179.066H338.453L312.026 175.16C311.898 175.143 311.774 175.101 311.661 175.036C311.549 174.971 311.451 174.883 311.373 174.78C311.295 174.676 311.238 174.558 311.206 174.432C311.174 174.306 311.167 174.175 311.187 174.047C311.23 173.793 311.37 173.565 311.578 173.412C311.785 173.259 312.044 173.192 312.3 173.226L338.746 177.133C338.998 177.171 339.226 177.308 339.379 177.512C339.533 177.717 339.6 177.973 339.566 178.227C339.529 178.46 339.411 178.672 339.232 178.826C339.053 178.979 338.825 179.065 338.59 179.066V179.066Z" fill="white"/>
<path d="M402.126 178.305H401.989L363.063 172.562C362.805 172.524 362.572 172.385 362.415 172.177C362.258 171.969 362.189 171.708 362.223 171.449C362.239 171.321 362.282 171.197 362.347 171.086C362.413 170.975 362.5 170.878 362.604 170.801C362.708 170.724 362.827 170.67 362.952 170.64C363.078 170.61 363.209 170.607 363.336 170.629L402.263 176.488C402.519 176.522 402.751 176.656 402.909 176.861C403.066 177.067 403.136 177.326 403.102 177.582C403.042 177.793 402.914 177.979 402.737 178.109C402.56 178.24 402.346 178.309 402.126 178.305V178.305Z" fill="white"/>
<path d="M223.724 405.263L23.2115 427.861C22.2912 427.972 21.3579 427.9 20.4656 427.649C19.5733 427.397 18.7398 426.971 18.0132 426.395C17.2867 425.82 16.6815 425.105 16.2328 424.294C15.784 423.483 15.5005 422.591 15.3988 421.669L0.984438 293.229C0.979029 293.18 0.983351 293.131 0.997153 293.084C1.01095 293.037 1.03396 292.993 1.06484 292.955C1.09572 292.917 1.13386 292.885 1.17706 292.862C1.22025 292.838 1.26764 292.824 1.31648 292.819L214.974 268.736C215.022 268.731 215.072 268.735 215.119 268.749C215.166 268.763 215.21 268.786 215.248 268.817C215.286 268.848 215.318 268.886 215.341 268.929C215.364 268.972 215.379 269.02 215.384 269.068L229.857 397.567C229.963 398.476 229.888 399.396 229.636 400.276C229.385 401.155 228.962 401.976 228.392 402.692C227.822 403.407 227.116 404.002 226.315 404.444C225.514 404.885 224.633 405.163 223.724 405.263V405.263Z" fill="#F7A9B4"/>
<path d="M22.4302 428.876C20.4675 428.871 18.5749 428.146 17.1101 426.84C15.6454 425.534 14.71 423.736 14.4808 421.787L0.00781911 293.327C-0.0305505 292.972 0.0733279 292.616 0.296675 292.338C0.520022 292.06 0.844607 291.882 1.19925 291.842L214.856 267.779C215.031 267.757 215.208 267.771 215.378 267.818C215.547 267.865 215.705 267.946 215.844 268.055C215.982 268.164 216.097 268.299 216.182 268.453C216.267 268.607 216.321 268.776 216.341 268.951L230.814 397.45C230.931 398.488 230.842 399.538 230.553 400.541C230.263 401.544 229.78 402.481 229.128 403.297C228.477 404.113 227.672 404.793 226.758 405.298C225.844 405.803 224.839 406.123 223.802 406.239L23.3286 428.837L22.4302 428.876ZM1.96099 293.717L16.3754 421.572C16.4627 422.36 16.7051 423.123 17.0886 423.818C17.4721 424.512 17.9892 425.124 18.61 425.618C19.2308 426.111 19.9432 426.478 20.7061 426.695C21.469 426.912 22.2673 426.977 23.0552 426.884L223.548 404.306L223.665 405.263L223.548 404.306C224.332 404.218 225.091 403.977 225.782 403.596C226.472 403.214 227.081 402.701 227.573 402.084C228.064 401.467 228.429 400.759 228.647 400.001C228.865 399.242 228.931 398.449 228.841 397.665L214.427 269.771L1.96099 293.717Z" fill="#243762"/>
<path opacity="0.29" d="M214.329 405.263L33.0164 427.861C29.1101 428.291 89.209 351.297 88.7793 347.43L0.984438 293.229C0.979029 293.18 0.983351 293.131 0.997153 293.084C1.01095 293.037 1.03396 292.993 1.06484 292.955C1.09572 292.917 1.13386 292.885 1.17706 292.862C1.22025 292.838 1.26764 292.824 1.31648 292.819L214.974 268.736C215.022 268.731 215.072 268.735 215.119 268.749C215.166 268.763 215.21 268.786 215.248 268.817C215.286 268.848 215.318 268.886 215.341 268.929C215.364 268.972 215.379 269.02 215.384 269.068L142.296 341.336C142.726 345.242 218.157 404.833 214.329 405.263Z" fill="#243762"/>
<path d="M1.31641 292.819L89.6777 205.434C92.2309 202.897 95.5651 201.295 99.1413 200.888C102.717 200.48 106.327 201.291 109.385 203.188L214.407 268.404C214.451 268.418 214.489 268.445 214.516 268.482C214.543 268.519 214.558 268.564 214.558 268.609C214.558 268.655 214.543 268.7 214.516 268.737C214.489 268.774 214.451 268.801 214.407 268.814L0.945312 292.858" fill="#F7A9B4"/>
<path d="M1.06324 293.835L0.887457 292.35L0.633545 292.077L0.848393 291.881L88.9753 204.731C91.6863 202.033 95.2293 200.329 99.0297 199.897C102.83 199.464 106.665 200.328 109.913 202.348L214.935 267.584C215.146 267.713 215.31 267.905 215.405 268.133C215.499 268.361 215.519 268.613 215.462 268.854C215.412 269.096 215.287 269.317 215.105 269.485C214.922 269.653 214.693 269.76 214.447 269.791L1.06324 293.835ZM100.968 201.743C96.9946 201.749 93.1839 203.321 90.3621 206.118L3.91487 291.53L212.005 268.092L108.898 204.008C106.517 202.53 103.77 201.745 100.968 201.743V201.743Z" fill="#243762"/>
<path opacity="0.29" d="M1.31641 292.819L89.6777 205.434C92.2309 202.897 95.5651 201.295 99.1413 200.888C102.717 200.48 106.327 201.291 109.385 203.188L214.407 268.404C214.451 268.418 214.489 268.445 214.516 268.482C214.543 268.519 214.558 268.564 214.558 268.609C214.558 268.655 214.543 268.7 214.516 268.737C214.489 268.774 214.451 268.801 214.407 268.814L0.945312 292.858" fill="#243762"/>
<path d="M99.4436 333.972L33.0359 426.377L214.348 405.946L129.015 330.632C126.912 328.776 124.444 327.382 121.77 326.539C119.096 325.696 116.274 325.423 113.488 325.737C110.701 326.052 108.012 326.948 105.593 328.366C103.174 329.784 101.079 331.694 99.4436 333.972V333.972Z" fill="#F7A9B4"/>
<path d="M30.9463 427.607L98.6431 333.367L99.4439 333.933L98.6431 333.367C100.358 330.977 102.556 328.974 105.093 327.487C107.631 325.999 110.452 325.06 113.375 324.731C116.298 324.402 119.257 324.689 122.062 325.574C124.867 326.459 127.455 327.923 129.659 329.87L216.614 406.649L30.9463 427.607ZM115.733 326.589C112.705 326.586 109.72 327.305 107.026 328.688C104.332 330.071 102.007 332.076 100.245 334.538L35.1651 425.165L212.083 405.224L128.37 331.413C124.883 328.326 120.391 326.611 115.733 326.589V326.589Z" fill="#243762"/>
<path d="M12.0974 229.517L151.749 213.774C160.909 212.739 169.054 218.345 169.952 226.294L178.917 306.022L140.088 341.648L88.7788 347.508L38.0745 315.788L29.3048 238.56L12.0974 229.517Z" fill="white"/>
<path d="M88.5451 348.445L37.1182 316.316L28.4266 239.185L15.145 228.189L151.613 212.798C156.126 212.248 160.686 213.336 164.465 215.864C166.223 217.014 167.707 218.535 168.814 220.32C169.921 222.105 170.623 224.111 170.871 226.196L179.914 306.276L140.519 342.586L88.5451 348.445ZM39.0713 315.163L89.0724 346.414L139.738 340.711L177.981 305.554L169.055 226.392C168.831 224.586 168.216 222.852 167.251 221.31C166.286 219.768 164.995 218.456 163.469 217.466C160.085 215.19 155.99 214.219 151.945 214.731L15.3794 230.122L30.3016 237.935L39.0713 315.163Z" fill="#243762"/>
<path opacity="0.29" d="M99.4436 326.003L33.0359 426.377L214.348 405.946L129.015 322.663C126.912 320.807 124.444 319.413 121.77 318.57C119.096 317.727 116.274 317.454 113.488 317.768C110.701 318.083 108.012 318.979 105.593 320.397C103.174 321.815 101.079 323.725 99.4436 326.003V326.003Z" fill="#243762"/>
<path d="M99.4436 333.972L33.0359 426.377L214.348 405.946L129.015 330.632C126.912 328.776 124.444 327.382 121.77 326.539C119.096 325.696 116.274 325.423 113.488 325.737C110.701 326.052 108.012 326.948 105.593 328.366C103.174 329.784 101.079 331.694 99.4436 333.972V333.972Z" fill="#F7A9B4"/>
<path d="M30.9463 427.607L98.6431 333.367L99.4439 333.933L98.6431 333.367C100.358 330.977 102.556 328.974 105.093 327.487C107.631 325.999 110.452 325.06 113.375 324.731C116.298 324.402 119.257 324.689 122.062 325.574C124.867 326.459 127.455 327.923 129.659 329.87L216.614 406.649L30.9463 427.607ZM115.733 326.589C112.705 326.586 109.72 327.305 107.026 328.688C104.332 330.071 102.007 332.076 100.245 334.538L35.1651 425.165L212.083 405.224L128.37 331.413C124.883 328.326 120.391 326.611 115.733 326.589V326.589Z" fill="#243762"/>
<path opacity="0.35" d="M105.869 354.422L57.0403 422.294L190.188 407.294L127.589 351.98C126.045 350.619 124.232 349.595 122.269 348.976C120.305 348.357 118.234 348.156 116.188 348.386C114.142 348.616 112.167 349.272 110.39 350.312C108.613 351.351 107.073 352.751 105.869 354.422V354.422Z" fill="#ECF1F7"/>
<path d="M1.91166 292.167L0.878662 293.824L88.253 348.273L89.286 346.616L1.91166 292.167Z" fill="#243762"/>
<path d="M214.669 268.18L141.617 340.723L142.993 342.109L216.045 269.566L214.669 268.18Z" fill="#243762"/>
<path d="M33.2122 274.127L8.83662 276.862L4.93028 242.095C4.58427 239.011 5.47572 235.916 7.40905 233.488C9.34239 231.06 12.1597 229.499 15.243 229.146L16.3563 229.028C19.4404 228.682 22.5358 229.574 24.9634 231.507C27.3911 233.441 28.9528 236.258 29.3058 239.341L33.2122 274.127Z" fill="#ECF1F7"/>
<path d="M8.01582 277.955L3.91417 242.212C3.72674 240.556 3.86767 238.88 4.32888 237.278C4.7901 235.677 5.56255 234.182 6.60204 232.88C7.64154 231.577 8.92767 230.492 10.3868 229.687C11.846 228.883 13.4496 228.373 15.1058 228.189L16.1996 228.052C17.8555 227.864 19.5321 228.005 21.1335 228.467C22.7349 228.928 24.2296 229.7 25.5322 230.74C26.8347 231.779 27.9195 233.065 28.7245 234.525C29.5294 235.984 30.0388 237.587 30.2233 239.244L34.2469 274.986L8.01582 277.955ZM17.7817 229.927C17.372 229.898 16.9608 229.898 16.5512 229.927L15.4574 230.044C14.0398 230.187 12.6649 230.611 11.4127 231.291C10.1605 231.97 9.05606 232.892 8.16358 234.003C7.2711 235.114 6.60846 236.391 6.21424 237.76C5.82002 239.129 5.7021 240.563 5.86734 241.978L9.77367 275.787L32.2156 273.268L28.4069 239.458C28.1229 236.822 26.8755 234.383 24.9038 232.609C22.9321 230.836 20.375 229.853 17.7231 229.849L17.7817 229.927Z" fill="#243762"/>
<path d="M49.7947 256.021C49.5357 256.021 49.2873 255.918 49.1041 255.735C48.921 255.552 48.8181 255.304 48.8181 255.045C48.8181 254.786 48.921 254.537 49.1041 254.354C49.2873 254.171 49.5357 254.068 49.7947 254.068L150.969 242.662C151.228 242.63 151.489 242.704 151.694 242.865C151.899 243.026 152.031 243.262 152.063 243.521C152.094 243.78 152.021 244.041 151.859 244.246C151.698 244.451 151.462 244.584 151.203 244.615L49.9119 256.021H49.7947Z" fill="#243762"/>
<path d="M53.681 290.397C53.422 290.412 53.1674 290.325 52.9733 290.152C52.7791 289.98 52.6613 289.738 52.6458 289.479C52.6303 289.22 52.7182 288.965 52.8904 288.771C53.0626 288.577 53.3048 288.459 53.5638 288.444L154.757 277.057C154.885 277.041 155.014 277.05 155.138 277.085C155.261 277.119 155.376 277.179 155.477 277.259C155.577 277.339 155.66 277.439 155.721 277.551C155.782 277.664 155.82 277.788 155.832 277.916C155.859 278.172 155.784 278.429 155.623 278.63C155.462 278.832 155.228 278.961 154.972 278.99L53.7786 290.397H53.681Z" fill="#243762"/>
<path d="M51.7077 273.014C51.4711 273.011 51.2437 272.922 51.0677 272.764C50.8917 272.606 50.779 272.389 50.7507 272.154C50.7344 272.027 50.7439 271.898 50.7786 271.774C50.8133 271.651 50.8725 271.535 50.9526 271.435C51.0328 271.335 51.1323 271.252 51.2453 271.191C51.3582 271.13 51.4823 271.092 51.61 271.08L95.3415 266.139C95.6005 266.11 95.8602 266.186 96.0635 266.349C96.2668 266.512 96.397 266.749 96.4255 267.008C96.454 267.267 96.3784 267.527 96.2154 267.73C96.0524 267.933 95.8153 268.063 95.5563 268.092L51.8249 273.014H51.7077Z" fill="#243762"/>
<path d="M106.886 266.803C106.627 266.803 106.378 266.7 106.195 266.517C106.012 266.334 105.909 266.085 105.909 265.826C105.909 265.567 106.012 265.319 106.195 265.136C106.378 264.953 106.627 264.85 106.886 264.85L152.883 259.674C153.142 259.643 153.402 259.716 153.607 259.877C153.813 260.038 153.945 260.274 153.976 260.533C154.007 260.792 153.934 261.053 153.773 261.258C153.612 261.463 153.376 261.596 153.117 261.627L107.1 266.822L106.886 266.803Z" fill="#243762"/>
<path d="M55.8689 309.929C55.6099 309.942 55.3564 309.851 55.1641 309.677C54.9718 309.503 54.8565 309.26 54.8435 309.001C54.8306 308.742 54.921 308.488 55.095 308.296C55.269 308.104 55.5123 307.988 55.7713 307.975L99.4832 303.053C99.7422 303.022 100.003 303.095 100.208 303.257C100.413 303.418 100.546 303.654 100.577 303.913C100.608 304.172 100.535 304.433 100.374 304.638C100.213 304.843 99.9765 304.975 99.7175 305.007L55.9861 309.929H55.8689Z" fill="#243762"/>
</svg>
